<?xml version="1.0" encoding="UTF-8" standalone="no"?>
<svg
   version="1.1"
   id="Layer_1"
   x="0px"
   y="0px"
   viewBox="0 0 122.88 65.27"
   style="enable-background:new 0 0 122.88 65.27"
   xml:space="preserve"
   sodipodi:docname="manure.svg"
   inkscape:version="1.1.1 (3bf5ae0d25, 2021-09-20)"
   xmlns:inkscape="http://www.inkscape.org/namespaces/inkscape"
   xmlns:sodipodi="http://sodipodi.sourceforge.net/DTD/sodipodi-0.dtd"
   xmlns="http://www.w3.org/2000/svg"
   xmlns:svg="http://www.w3.org/2000/svg"><defs
     id="defs11" /><sodipodi:namedview
     id="namedview9"
     pagecolor="#ffffff"
     bordercolor="#666666"
     borderopacity="1.0"
     inkscape:pageshadow="2"
     inkscape:pageopacity="0.0"
     inkscape:pagecheckerboard="0"
     showgrid="false"
     inkscape:zoom="9.6522144"
     inkscape:cx="61.436679"
     inkscape:cy="32.37599"
     inkscape:window-width="1876"
     inkscape:window-height="1051"
     inkscape:window-x="44"
     inkscape:window-y="0"
     inkscape:window-maximized="1"
     inkscape:current-layer="Layer_1" /><style
     type="text/css"
     id="style2">.st0{fill-rule:evenodd;clip-rule:evenodd;}</style><g
     id="g6"><path
       class="st0"
       d="M65.43,5.59c2.25-2.17,5.22-3.82,8.46-4.74c3.45-0.98,7.27-1.16,10.92-0.29c3.72,0.9,7.24,2.89,9.99,6.24 c2.7,3.29,4.63,7.87,5.2,13.96c10.85,4.17,17.39,11.18,20.56,18.83c1.46,3.53,2.2,7.21,2.3,10.79c0.1,3.59-0.43,7.11-1.51,10.32 c-0.15,0.44-0.3,0.86-0.47,1.29h-0.28c0,1.8-1.46,3.26-3.26,3.26H3.26c-1.8,0-3.26-1.46-3.26-3.26c0-0.11,0.01-0.21,0.02-0.32 C-0.02,60.53,0,59.36,0.09,58.2c0.38-5.32,2.02-10.53,4.65-14.85c2.89-4.75,6.99-8.45,11.98-10.16c-0.07-8.89,2.8-16.12,7.34-21.51 c2.81-3.34,6.26-5.96,10.05-7.81c3.78-1.85,7.89-2.94,12.03-3.24C52.84,0.17,59.68,1.76,65.43,5.59L65.43,5.59z M64.68,33.29 c3.18,0,5.77,2.58,5.77,5.77c0,3.18-2.58,5.77-5.77,5.77c-3.18,0-5.77-2.58-5.77-5.77C58.91,35.87,61.49,33.29,64.68,33.29 L64.68,33.29z M54.26,19.19c1,0,1.82,0.81,1.82,1.82c0,1-0.81,1.82-1.82,1.82s-1.82-0.81-1.82-1.82 C52.44,20,53.26,19.19,54.26,19.19L54.26,19.19z M94.27,40.81c3.18,0,5.77,2.58,5.77,5.77c0,3.18-2.58,5.77-5.77,5.77 c-3.18,0-5.77-2.58-5.77-5.77C88.5,43.39,91.08,40.81,94.27,40.81L94.27,40.81z M79.01,16.32c1.63-0.81,3.6-0.15,4.42,1.47 c0.81,1.63,0.15,6.79-1.47,7.61c-1.63,0.81-3.6-3.03-4.42-4.66C76.73,19.11,77.39,17.13,79.01,16.32L79.01,16.32L79.01,16.32z M27.48,53.13c1,0,1.82,0.81,1.82,1.82c0,1-0.81,1.82-1.82,1.82c-1,0-1.82-0.81-1.82-1.82C25.67,53.94,26.48,53.13,27.48,53.13 L27.48,53.13z M29.52,28.87c1.47-0.74,3.26-0.14,4,1.33c0.74,1.47,0.14,3.26-1.33,4c-1.47,0.74-3.26,0.14-4-1.33 C27.45,31.39,28.05,29.6,29.52,28.87L29.52,28.87L29.52,28.87z M45.56,48.3c1.65,0,2.98,1.33,2.98,2.98c0,1.65-1.33,2.98-2.98,2.98 c-1.65,0-2.98-1.33-2.98-2.98C42.58,49.63,43.91,48.3,45.56,48.3L45.56,48.3z"
       id="path4" /></g><path
     style="fill:#806600;stroke-width:0.103603"
     d="M 2.1523123,64.99517 C 1.5643425,64.786779 0.7251613,64.013445 0.38278112,63.364486 l -0.27917795,-0.529164 0.006675,-2.434674 C 0.11766058,57.707722 0.27145715,56.185899 0.78898092,53.684855 2.7422506,44.245266 8.4462126,36.603037 15.763536,33.621787 l 0.948283,-0.386352 0.06599,-1.413953 c 0.165984,-3.556474 0.592187,-6.275701 1.421773,-9.071111 2.167069,-7.302234 6.968973,-13.5410508 13.415455,-17.4298701 4.166835,-2.51363 8.695046,-4.0271354 13.616003,-4.55100149 1.9058,-0.2028841 5.465712,-0.14978323 7.33504,0.109412 4.29276,0.59522079 8.32685,2.01018469 11.849417,4.15620279 1.099826,0.6700361 0.940468,0.6929011 2.112642,-0.3031242 3.453248,-2.9343081 8.391735,-4.63798867 13.453507,-4.64119479 4.088048,-0.0025894 7.625597,1.03486349 10.826531,3.17508429 4.944337,3.3059023 8.146375,9.1585355 9.021503,16.4893615 l 0.125926,1.054869 0.839554,0.329968 c 1.22407,0.481097 4.23181,1.948206 5.41276,2.640234 4.34557,2.546458 7.72321,5.511056 10.50105,9.216924 5.51471,7.357082 7.41311,16.739774 5.17766,25.590356 -0.46607,1.845236 -1.00151,3.367103 -1.18465,3.367103 -0.0772,0 -0.15769,0.190899 -0.19483,0.461856 -0.13722,1.001101 -0.87178,1.99636 -1.81725,2.462191 l -0.47868,0.23585 -57.810573,0.01787 C 9.2881602,65.148255 2.5393584,65.132355 2.1523123,64.99517 Z M 28.314711,56.628975 c 0.387222,-0.201471 0.70697,-0.564601 0.896438,-1.01806 0.293137,-0.701575 0.142733,-1.40954 -0.418731,-1.971004 -0.681164,-0.681164 -1.787125,-0.737235 -2.511927,-0.127353 -1.039577,0.874746 -0.750006,2.717176 0.500928,3.187226 0.307786,0.115652 1.259381,0.07171 1.533292,-0.07081 z m 18.282512,-2.5041 c 0.64664,-0.220331 1.39869,-0.904325 1.695779,-1.542319 0.323845,-0.69545 0.33757,-1.861193 0.02993,-2.542225 -0.482511,-1.068159 -1.375633,-1.66632 -2.59695,-1.739286 -0.683303,-0.04082 -0.867913,-0.01234 -1.346841,0.20781 -0.749126,0.344351 -1.130256,0.686394 -1.479177,1.327476 -0.555579,1.020782 -0.458412,2.316679 0.24669,3.290043 0.716711,0.98939 2.209519,1.421369 3.450567,0.998501 z m 49.400719,-1.997964 c 1.926326,-0.662753 3.247013,-1.987922 3.834819,-3.847834 0.278179,-0.880203 0.299689,-2.387712 0.04657,-3.2635 -0.5601,-1.937917 -2.103092,-3.485205 -4.030319,-4.04154 -0.86343,-0.249246 -2.409303,-0.228616 -3.279581,0.04377 -1.882244,0.589114 -3.220107,1.945409 -3.89235,3.94597 -0.228872,0.681117 -0.258033,2.38845 -0.05304,3.105355 0.610782,2.13601 2.483818,3.869779 4.585822,4.244851 0.76256,0.136068 2.112033,0.04552 2.788074,-0.18707 z M 66.697656,44.51246 c 1.473326,-0.559949 2.475857,-1.476353 3.189823,-2.915788 1.90116,-3.832954 -0.907017,-8.329035 -5.208101,-8.338523 -2.632847,-0.0058 -4.960924,1.784843 -5.61817,4.321239 -0.208896,0.806156 -0.208296,2.153291 0.0013,2.966299 0.506863,1.965883 2.222841,3.664394 4.215401,4.172492 0.87195,0.222346 2.560712,0.120756 3.419725,-0.205719 z M 32.164413,34.258581 c 1.567433,-0.733746 2.185259,-2.763223 1.300697,-4.272614 -0.696688,-1.188809 -2.192175,-1.751963 -3.538081,-1.33233 -0.866461,0.27015 -1.713992,1.119573 -1.959413,1.963787 -0.745707,2.565147 1.792013,4.766884 4.196797,3.641157 z m 49.782598,-8.816033 c 1.173769,-0.490431 2.130054,-3.905278 1.811502,-6.468781 -0.123099,-0.990614 -0.352813,-1.511484 -0.914164,-2.072835 -0.678509,-0.678509 -1.258066,-0.89445 -2.396488,-0.892918 -0.823814,0.0011 -1.056757,0.03983 -1.429212,0.237594 -0.686737,0.364634 -1.230442,0.913739 -1.542106,1.55742 -0.377561,0.779778 -0.400863,2.071637 -0.05137,2.848277 0.748919,1.664261 2.304693,3.975947 2.997177,4.453434 0.718122,0.495164 0.999077,0.557414 1.524664,0.337809 z M 55.013283,22.700486 c 0.748737,-0.345564 1.087833,-0.887761 1.087833,-1.739384 0,-1.647546 -2.174925,-2.447701 -3.233533,-1.189616 -0.802171,0.953326 -0.531392,2.363629 0.557284,2.90251 0.547712,0.27111 1.040586,0.27933 1.588416,0.02649 z"
     id="path50" /><path
     style="fill:#806600;stroke-width:0.103603"
     d="M 2.7972856,64.968336 C 1.9751868,64.899243 1.5278768,64.672206 0.94692747,64.029164 0.20019039,63.202616 0.15540475,63.021309 0.15540475,60.824831 c 0,-2.399826 0.14126618,-4.173608 0.47934109,-6.018755 C 1.7759682,48.577508 4.3860586,43.087835 8.0614187,39.185925 c 2.6012203,-2.761559 4.5397353,-4.108971 8.2738313,-5.75093 0.435106,-0.191324 0.441012,-0.218034 0.55498,-2.509449 0.223871,-4.501107 1.275678,-8.816804 3.066139,-12.580752 C 24.376944,9.0517559 32.988586,2.7483991 43.616934,1.0262606 45.282808,0.75633482 49.493804,0.64217209 51.387172,0.81560458 55.777713,1.2177781 60.08437,2.601002 64.03377,4.8774734 c 0.908019,0.5233908 1.335798,0.7158992 1.485349,0.6684339 0.115522,-0.036666 0.572944,-0.3702308 1.016491,-0.7412562 5.856856,-4.89923183 15.059768,-6.0876794 21.88827,-2.8266123 6.154637,2.9392504 10.11992,9.0356882 11.293106,17.3626182 0.109424,0.776654 0.236014,1.445889 0.281314,1.487187 0.0453,0.0413 0.54858,0.271758 1.11839,0.512132 1.94854,0.821979 5.29227,2.58807 6.86745,3.627257 8.52297,5.622787 13.67971,13.872563 14.62713,23.400523 0.137,1.377808 0.13705,4.349459 10e-5,5.728022 -0.27367,2.754583 -1.29301,6.956782 -1.86344,7.681971 -0.11411,0.145058 -0.23782,0.419044 -0.27492,0.608856 -0.1932,0.988409 -0.93544,1.981309 -1.81388,2.42645 L 118.1663,65.06279 60.844405,65.046039 C 29.317362,65.036825 3.1961578,65.001859 2.7972856,64.968336 Z M 28.559347,56.519322 c 0.842241,-0.572319 1.065147,-1.899582 0.453664,-2.701279 -1.10119,-1.443734 -3.371227,-0.717745 -3.371227,1.078166 0,0.691979 0.185874,1.125548 0.661594,1.543236 0.35496,0.311659 0.434051,0.335092 1.131017,0.335092 0.625645,0 0.811379,-0.04214 1.124952,-0.255215 z m 18.050059,-2.357599 c 0.627192,-0.185816 1.665778,-1.232462 1.827938,-1.842123 0.186697,-0.701909 0.146494,-1.783345 -0.08582,-2.30853 -0.478214,-1.081081 -1.333286,-1.636687 -2.634803,-1.71203 -0.992389,-0.05745 -1.573835,0.136018 -2.231946,0.742643 -0.628954,0.57975 -0.874904,1.105755 -0.933016,1.99541 -0.098,1.500258 0.712199,2.747611 2.048736,3.154167 0.411733,0.125244 1.542596,0.108617 2.008912,-0.02954 z m 49.527306,-2.036167 c 1.843688,-0.653825 3.199838,-2.063943 3.749087,-3.898281 0.277911,-0.928159 0.253771,-2.585305 -0.05086,-3.490436 -0.572671,-1.701567 -1.962473,-3.099589 -3.699482,-3.721361 -0.822856,-0.294545 -2.606007,-0.320439 -3.514229,-0.05103 -1.827846,0.542197 -3.250116,1.908727 -3.894369,3.741744 -0.264881,0.753631 -0.363781,2.176227 -0.208776,3.003069 0.383938,2.048053 2.185785,3.970566 4.271371,4.557418 0.790211,0.222353 2.529032,0.149044 3.347253,-0.141121 z M 65.955177,44.757214 c 0.985162,-0.181756 2.154621,-0.839819 2.900354,-1.632051 1.111809,-1.181133 1.642977,-2.4893 1.645196,-4.051814 0.0024,-1.658477 -0.519902,-2.920036 -1.705073,-4.118754 -1.180166,-1.193654 -2.416843,-1.697978 -4.163696,-1.697978 -2.596238,0 -4.852538,1.675951 -5.569601,4.13703 -0.242053,0.830764 -0.220659,2.598969 0.04172,3.448462 0.51411,1.664495 2.126306,3.27844 3.813887,3.818026 0.671004,0.214546 2.145124,0.261663 3.037211,0.09708 z M 32.220586,34.265422 c 1.096682,-0.561198 1.653364,-1.493868 1.653364,-2.770059 0,-1.323742 -0.687724,-2.349569 -1.872305,-2.792777 -2.548543,-0.953533 -4.925477,1.425367 -3.971587,3.974868 0.266834,0.713176 1.127216,1.539823 1.840779,1.7686 0.70449,0.225869 1.705791,0.148896 2.349749,-0.180632 z M 82.330382,25.21331 c 0.444822,-0.422096 0.893878,-1.365347 1.197865,-2.516139 0.218116,-0.825713 0.264186,-1.244511 0.274419,-2.494553 0.01629,-1.989765 -0.127957,-2.487903 -0.961911,-3.321856 -0.709444,-0.709445 -1.293425,-0.926405 -2.489401,-0.924862 -0.948374,0.0012 -1.603777,0.268447 -2.249747,0.917275 -0.703556,0.706668 -0.906626,1.242273 -0.912355,2.406388 -0.0048,0.980631 0.0015,1.006335 0.482082,1.968461 0.913235,1.828176 2.161734,3.52928 2.972865,4.050587 0.61348,0.394278 1.21273,0.363962 1.686183,-0.0853 z M 55.350333,22.562902 c 0.523455,-0.346406 0.750783,-0.831099 0.750783,-1.600768 0,-0.749146 -0.313908,-1.272796 -0.96084,-1.602835 -0.982054,-0.501007 -2.098251,-0.165774 -2.549116,0.76559 -0.491354,1.015001 -0.107944,2.176728 0.868075,2.630262 0.484248,0.225019 1.401466,0.131774 1.891098,-0.192249 z"
     id="path46" /><path
     style="fill:#806600;stroke-width:0.103603"
     d="M 2.7972856,64.968336 C 1.9751868,64.899243 1.5278768,64.672206 0.94692747,64.029164 0.20019039,63.202616 0.15540475,63.021309 0.15540475,60.824831 c 0,-3.186238 0.2863706,-5.62094 0.99429535,-8.453429 C 2.6377686,46.417468 5.6877688,41.12988 9.6985969,37.550736 11.548552,35.899889 13.244366,34.80845 15.570997,33.771212 l 1.109113,-0.494455 0.07141,-0.502185 c 0.03927,-0.276201 0.121658,-1.31806 0.18308,-2.31524 0.433047,-7.030548 2.718864,-13.07915 6.909973,-18.284789 C 28.833258,5.9782621 36.478502,1.8509602 44.76256,0.88192183 c 1.55299,-0.18166304 5.290107,-0.20937819 6.898548,-0.0511609 4.135593,0.40680527 8.573666,1.85061587 12.313853,4.00598967 0.598308,0.3447897 1.182532,0.656254 1.298273,0.6921429 0.232276,0.072023 0.36874,-0.014276 1.721631,-1.0887513 5.744703,-4.56248289 14.751675,-5.6260617 21.316499,-2.5171363 4.710764,2.2308916 8.191177,6.2799621 10.055645,11.6986121 0.68237,1.983155 0.998047,3.320595 1.35708,5.749586 0.113494,0.767829 0.240153,1.426579 0.281461,1.463891 0.0413,0.03731 0.54133,0.264507 1.11114,0.504881 3.30634,1.394758 7.26008,3.698506 9.67971,5.640133 5.91946,4.750066 9.94203,11.220433 11.34343,18.246112 0.7392,3.705836 0.77875,7.880845 0.10842,11.444712 -0.38322,2.037442 -1.15426,4.666865 -1.4958,5.101071 -0.11162,0.141898 -0.25245,0.478921 -0.31297,0.748937 -0.0605,0.270018 -0.18264,0.631377 -0.2714,0.803021 -0.26608,0.514547 -0.98413,1.223149 -1.50895,1.489093 L 118.1663,65.06279 60.844409,65.04604 C 29.317366,65.03684 3.1961618,65.00186 2.7972896,64.96834 Z m 25.5914204,-8.35683 c 0.507437,-0.240795 0.905679,-0.876943 0.960145,-1.533728 0.136085,-1.64101 -1.827491,-2.663664 -3.051294,-1.589151 -0.457611,0.401789 -0.655773,0.846856 -0.655773,1.472854 0,0.62809 0.198378,1.071255 0.661594,1.477964 0.347291,0.304925 0.442869,0.335092 1.061707,0.335092 0.404015,0 0.819515,-0.06618 1.023621,-0.163031 z m 18.442027,-2.567672 c 0.625481,-0.291268 1.452364,-1.172952 1.600607,-1.706687 0.05807,-0.209087 0.10585,-0.73232 0.106167,-1.162741 0.0013,-1.717394 -1.055381,-2.774579 -2.872871,-2.874327 -0.768242,-0.04216 -0.909704,-0.01917 -1.420859,0.230912 -0.684205,0.33475 -1.329379,1.037084 -1.551491,1.688947 -0.209136,0.613783 -0.208394,1.515655 0.0018,2.132407 0.236471,0.694008 0.964985,1.463154 1.626866,1.717605 0.778196,0.299168 1.834913,0.288171 2.509827,-0.02612 z m 49.304729,-1.925831 c 1.751818,-0.6106 3.185807,-2.072886 3.709621,-3.782822 0.310047,-1.012114 0.309807,-2.522161 -5.18e-4,-3.52681 -0.544187,-1.761501 -2.128779,-3.319624 -3.907982,-3.842705 -0.910345,-0.267639 -2.482888,-0.250293 -3.423207,0.03776 -1.710916,0.524115 -3.179983,1.965463 -3.779604,3.708293 -0.26531,0.771136 -0.367722,2.183559 -0.217345,2.997541 0.368319,1.993702 2.232377,3.982374 4.271897,4.557477 0.773813,0.218199 2.516638,0.140757 3.347187,-0.148733 z M 66.140981,44.700646 c 0.995076,-0.234556 1.833798,-0.723466 2.651815,-1.545803 2.298216,-2.310352 2.30413,-5.90378 0.01346,-8.180569 -1.203827,-1.196533 -2.455372,-1.717657 -4.125168,-1.717657 -2.440403,0 -4.506818,1.388589 -5.446753,3.66011 -0.212216,0.512856 -0.274096,0.866638 -0.312625,1.787343 -0.02801,0.669312 0.0016,1.379344 0.071,1.702981 0.405167,1.889231 2.361439,3.902688 4.213991,4.337172 0.642388,0.15066 2.208942,0.127395 2.934274,-0.04358 z M 32.214056,34.24858 c 1.081091,-0.528928 1.652344,-1.478407 1.65647,-2.753217 0.0029,-0.906954 -0.233942,-1.502158 -0.838383,-2.106597 -0.632413,-0.632413 -1.193021,-0.846445 -2.2102,-0.843821 -0.696758,0.0018 -0.967153,0.04835 -1.29504,0.222956 -0.536066,0.285466 -1.155554,0.90848 -1.424318,1.432423 -0.295437,0.575944 -0.359677,1.638766 -0.139175,2.302635 0.288753,0.86935 1.161594,1.718137 2.044156,1.987822 0.575464,0.175844 1.576663,0.06594 2.20649,-0.242201 z m 49.787642,-8.813893 c 0.622823,-0.322074 1.191226,-1.37284 1.569405,-2.901244 0.303984,-1.228551 0.336064,-3.524091 0.06173,-4.416987 -0.221151,-0.719791 -0.916726,-1.528411 -1.607307,-1.868524 -0.418617,-0.206171 -0.647978,-0.241242 -1.577662,-0.241242 -0.997681,0 -1.127622,0.02339 -1.567954,0.282247 -0.683114,0.401579 -1.377221,1.211679 -1.551045,1.810241 -0.07948,0.273675 -0.144501,0.874156 -0.144501,1.334403 0,0.775324 0.03217,0.901729 0.437868,1.72029 0.499135,1.007094 1.511433,2.588095 2.138751,3.340287 0.509157,0.610507 1.237575,1.095825 1.644738,1.095825 0.162618,0 0.43081,-0.06988 0.59598,-0.155296 z M 55.178294,22.655421 c 0.67091,-0.353933 0.939689,-0.871153 0.898961,-1.729899 -0.03826,-0.806646 -0.29624,-1.239343 -0.932428,-1.563903 -0.863635,-0.440593 -1.946058,-0.190687 -2.44596,0.564716 -0.229914,0.347424 -0.275663,0.532275 -0.275663,1.113827 0,0.621623 0.034,0.739281 0.313404,1.084493 0.638394,0.788755 1.569127,0.991076 2.441686,0.530766 z"
     id="path85" /><path
     style="fill:#000000;stroke-width:0.103603"
     d="M 2.7972856,64.968336 C 1.9751868,64.899243 1.5278768,64.672206 0.94692747,64.029164 0.20074791,63.203233 0.15540475,63.020208 0.15540475,60.834233 c 0,-4.082811 0.5150608,-7.353112 1.73263545,-11.001109 2.0458378,-6.129569 5.7662697,-11.235006 10.4407368,-14.327508 0.894581,-0.591831 2.724681,-1.547314 3.849461,-2.00978 l 0.534159,-0.219625 0.05922,-0.76092 c 0.03257,-0.418506 0.109114,-1.460241 0.1701,-2.314967 0.419331,-5.876923 2.116783,-11.049816 5.110632,-15.574369 2.022286,-3.056249 4.215995,-5.392708 7.104247,-7.5665369 4.450402,-3.3495734 9.914327,-5.5117099 15.61329,-6.17835339 1.553322,-0.18170186 5.298328,-0.20795683 6.891221,-0.048312 4.363381,0.43731229 8.735403,1.87947119 12.577499,4.14882489 0.498447,0.2944102 1.010759,0.5352912 1.13847,0.5352912 0.135235,0 0.738016,-0.3953754 1.443429,-0.9467708 0.666174,-0.5207239 1.650101,-1.2050628 2.186505,-1.5207532 5.048803,-2.97137881 11.763606,-3.73261866 17.230051,-1.9533266 7.135066,2.3224178 12.002684,8.7114875 13.3727,17.5525518 0.381534,2.46214 0.195707,2.130879 1.506929,2.686308 1.27103,0.538399 4.17055,1.979371 5.28376,2.625869 2.98103,1.731222 6.06167,4.208875 8.25095,6.635962 4.48418,4.971258 7.16892,10.83511 7.90603,17.267955 0.20287,1.770325 0.20692,4.9418 0.008,6.631238 -0.34207,2.912354 -1.173,6.211311 -1.85957,7.382854 -0.14723,0.251215 -0.2687,0.545902 -0.26996,0.654859 -0.007,0.651104 -0.95037,1.860419 -1.77727,2.27944 L 118.1663,65.06279 60.844405,65.046039 C 29.317362,65.036825 3.1961578,65.001859 2.7972856,64.968336 Z M 28.654377,56.410163 c 0.180861,-0.169976 0.415177,-0.495533 0.520704,-0.72346 0.693112,-1.49705 -0.793971,-3.083126 -2.337874,-2.493505 -1.442026,0.550715 -1.636192,2.56756 -0.326341,3.389781 0.25931,0.162774 0.468286,0.195883 1.068515,0.169289 0.662503,-0.02935 0.783028,-0.06771 1.074996,-0.342105 z m 18.350895,-2.461322 c 1.008663,-0.591117 1.52699,-1.478708 1.530538,-2.620916 0.0057,-1.842536 -1.022163,-2.918866 -2.890794,-3.027039 -0.70526,-0.04083 -0.865932,-0.01402 -1.38337,0.230763 -1.963387,0.92883 -2.333192,3.65802 -0.686633,5.067413 0.625015,0.534989 1.129439,0.690472 2.123527,0.654552 0.685666,-0.02478 0.923678,-0.08029 1.306732,-0.304773 z m 49.096897,-1.839893 c 0.855962,-0.288353 1.426128,-0.629588 2.137895,-1.279494 1.40951,-1.287009 2.040266,-3.080612 1.790586,-5.091665 -0.258198,-2.079708 -1.884858,-4.028177 -3.933199,-4.711324 -0.94838,-0.316296 -2.692857,-0.315561 -3.637134,0.0015 -2.2739,0.763587 -3.813101,2.747712 -3.990272,5.143703 -0.08626,1.166591 0.05605,1.927177 0.54785,2.927963 0.73407,1.493794 2.474363,2.905688 3.965949,3.217563 0.73485,0.15365 2.367702,0.04459 3.118325,-0.208278 z m -30.20368,-7.360222 c 1.625815,-0.294741 3.163348,-1.489786 3.957096,-3.075645 0.535764,-1.070424 0.685965,-1.791863 0.619863,-2.977297 -0.06352,-1.139138 -0.393827,-2.074486 -1.064451,-3.014283 -1.385491,-1.94159 -3.775939,-2.825443 -6.136426,-2.268902 -2.031092,0.478879 -3.850209,2.305027 -4.26168,4.278153 -0.156955,0.752655 -0.141719,2.240372 0.02953,2.883524 0.486454,1.826925 2.41837,3.759836 4.168726,4.17087 0.56734,0.133227 1.961945,0.135086 2.68734,0.0036 z M 32.234364,34.238644 c 1.062974,-0.520064 1.628725,-1.474502 1.626102,-2.743281 -0.002,-0.979999 -0.268785,-1.580523 -0.990207,-2.229143 -2.006863,-1.804342 -5.207235,-0.231407 -5.03493,2.474594 0.138399,2.173512 2.417206,3.467449 4.399035,2.49783 z m 49.767334,-8.803957 c 1.167278,-0.603623 2.076479,-3.847447 1.780355,-6.351909 -0.170826,-1.44476 -0.677714,-2.240724 -1.808926,-2.840552 -0.371965,-0.197235 -0.600243,-0.232218 -1.525266,-0.233743 -0.994757,-0.0016 -1.127724,0.02186 -1.554048,0.274608 -0.643333,0.381409 -1.189734,0.97383 -1.465065,1.588456 -0.183206,0.408976 -0.23335,0.716873 -0.23822,1.462729 -0.006,0.918285 0.0067,0.970188 0.455461,1.855253 0.628193,1.239085 1.804372,2.998409 2.408319,3.602355 0.758168,0.758168 1.347879,0.952822 1.94739,0.642803 z M 55.013283,22.700486 c 0.74639,-0.344481 1.087833,-0.888023 1.087833,-1.731716 0,-1.030586 -0.793442,-1.802184 -1.853204,-1.802184 -0.296977,0 -0.670587,0.06755 -0.830244,0.150113 -0.499356,0.258227 -0.921807,0.831505 -1.000771,1.358073 -0.231415,1.543188 1.208216,2.666395 2.596386,2.025714 z"
     id="path124" /></svg>
