<?xml version="1.0" encoding="utf-8" standalone="no"?>
<!DOCTYPE svg PUBLIC "-//W3C//DTD SVG 1.1//EN"
  "http://www.w3.org/Graphics/SVG/1.1/DTD/svg11.dtd">
<svg xmlns:xlink="http://www.w3.org/1999/xlink" width="531.84903pt" height="350.729687pt" viewBox="0 0 531.84903 350.729687" xmlns="http://www.w3.org/2000/svg" version="1.1">
 <metadata>
  <rdf:RDF xmlns:dc="http://purl.org/dc/elements/1.1/" xmlns:cc="http://creativecommons.org/ns#" xmlns:rdf="http://www.w3.org/1999/02/22-rdf-syntax-ns#">
   <cc:Work>
    <dc:type rdf:resource="http://purl.org/dc/dcmitype/StillImage"/>
    <dc:date>2022-08-04T17:03:17.700300</dc:date>
    <dc:format>image/svg+xml</dc:format>
    <dc:creator>
     <cc:Agent>
      <dc:title>Matplotlib v3.5.1, https://matplotlib.org/</dc:title>
     </cc:Agent>
    </dc:creator>
   </cc:Work>
  </rdf:RDF>
 </metadata>
 <defs>
  <style type="text/css">*{stroke-linejoin: round; stroke-linecap: butt}</style>
 </defs>
 <g id="figure_1">
  <g id="patch_1">
   <path d="M 0 350.729687 
L 531.84903 350.729687 
L 531.84903 0 
L 0 0 
z
" style="fill: #ffffff"/>
  </g>
  <g id="axes_1">
   <g id="patch_2">
    <path d="M 63.304375 312.737812 
L 511.027079 312.737812 
L 511.027079 23.837812 
L 63.304375 23.837812 
z
" style="fill: #ffffff"/>
   </g>
   <g id="matplotlib.axis_1">
    <g id="xtick_1">
     <g id="text_1">
      <!-- 1000 -->
      <g style="fill: #262626" transform="translate(84.843868 325.83625)scale(0.1 -0.1)">
       <defs>
        <path id="DejaVuSans-31" d="M 794 531 
L 1825 531 
L 1825 4091 
L 703 3866 
L 703 4441 
L 1819 4666 
L 2450 4666 
L 2450 531 
L 3481 531 
L 3481 0 
L 794 0 
L 794 531 
z
" transform="scale(0.015625)"/>
        <path id="DejaVuSans-30" d="M 2034 4250 
Q 1547 4250 1301 3770 
Q 1056 3291 1056 2328 
Q 1056 1369 1301 889 
Q 1547 409 2034 409 
Q 2525 409 2770 889 
Q 3016 1369 3016 2328 
Q 3016 3291 2770 3770 
Q 2525 4250 2034 4250 
z
M 2034 4750 
Q 2819 4750 3233 4129 
Q 3647 3509 3647 2328 
Q 3647 1150 3233 529 
Q 2819 -91 2034 -91 
Q 1250 -91 836 529 
Q 422 1150 422 2328 
Q 422 3509 836 4129 
Q 1250 4750 2034 4750 
z
" transform="scale(0.015625)"/>
       </defs>
       <use xlink:href="#DejaVuSans-31"/>
       <use xlink:href="#DejaVuSans-30" x="63.623047"/>
       <use xlink:href="#DejaVuSans-30" x="127.246094"/>
       <use xlink:href="#DejaVuSans-30" x="190.869141"/>
      </g>
     </g>
    </g>
    <g id="xtick_2">
     <g id="text_2">
      <!-- 2000 -->
      <g style="fill: #262626" transform="translate(130.529858 325.83625)scale(0.1 -0.1)">
       <defs>
        <path id="DejaVuSans-32" d="M 1228 531 
L 3431 531 
L 3431 0 
L 469 0 
L 469 531 
Q 828 903 1448 1529 
Q 2069 2156 2228 2338 
Q 2531 2678 2651 2914 
Q 2772 3150 2772 3378 
Q 2772 3750 2511 3984 
Q 2250 4219 1831 4219 
Q 1534 4219 1204 4116 
Q 875 4013 500 3803 
L 500 4441 
Q 881 4594 1212 4672 
Q 1544 4750 1819 4750 
Q 2544 4750 2975 4387 
Q 3406 4025 3406 3419 
Q 3406 3131 3298 2873 
Q 3191 2616 2906 2266 
Q 2828 2175 2409 1742 
Q 1991 1309 1228 531 
z
" transform="scale(0.015625)"/>
       </defs>
       <use xlink:href="#DejaVuSans-32"/>
       <use xlink:href="#DejaVuSans-30" x="63.623047"/>
       <use xlink:href="#DejaVuSans-30" x="127.246094"/>
       <use xlink:href="#DejaVuSans-30" x="190.869141"/>
      </g>
     </g>
    </g>
    <g id="xtick_3">
     <g id="text_3">
      <!-- 3000 -->
      <g style="fill: #262626" transform="translate(176.215848 325.83625)scale(0.1 -0.1)">
       <defs>
        <path id="DejaVuSans-33" d="M 2597 2516 
Q 3050 2419 3304 2112 
Q 3559 1806 3559 1356 
Q 3559 666 3084 287 
Q 2609 -91 1734 -91 
Q 1441 -91 1130 -33 
Q 819 25 488 141 
L 488 750 
Q 750 597 1062 519 
Q 1375 441 1716 441 
Q 2309 441 2620 675 
Q 2931 909 2931 1356 
Q 2931 1769 2642 2001 
Q 2353 2234 1838 2234 
L 1294 2234 
L 1294 2753 
L 1863 2753 
Q 2328 2753 2575 2939 
Q 2822 3125 2822 3475 
Q 2822 3834 2567 4026 
Q 2313 4219 1838 4219 
Q 1578 4219 1281 4162 
Q 984 4106 628 3988 
L 628 4550 
Q 988 4650 1302 4700 
Q 1616 4750 1894 4750 
Q 2613 4750 3031 4423 
Q 3450 4097 3450 3541 
Q 3450 3153 3228 2886 
Q 3006 2619 2597 2516 
z
" transform="scale(0.015625)"/>
       </defs>
       <use xlink:href="#DejaVuSans-33"/>
       <use xlink:href="#DejaVuSans-30" x="63.623047"/>
       <use xlink:href="#DejaVuSans-30" x="127.246094"/>
       <use xlink:href="#DejaVuSans-30" x="190.869141"/>
      </g>
     </g>
    </g>
    <g id="xtick_4">
     <g id="text_4">
      <!-- 4000 -->
      <g style="fill: #262626" transform="translate(221.901838 325.83625)scale(0.1 -0.1)">
       <defs>
        <path id="DejaVuSans-34" d="M 2419 4116 
L 825 1625 
L 2419 1625 
L 2419 4116 
z
M 2253 4666 
L 3047 4666 
L 3047 1625 
L 3713 1625 
L 3713 1100 
L 3047 1100 
L 3047 0 
L 2419 0 
L 2419 1100 
L 313 1100 
L 313 1709 
L 2253 4666 
z
" transform="scale(0.015625)"/>
       </defs>
       <use xlink:href="#DejaVuSans-34"/>
       <use xlink:href="#DejaVuSans-30" x="63.623047"/>
       <use xlink:href="#DejaVuSans-30" x="127.246094"/>
       <use xlink:href="#DejaVuSans-30" x="190.869141"/>
      </g>
     </g>
    </g>
    <g id="xtick_5">
     <g id="text_5">
      <!-- 5000 -->
      <g style="fill: #262626" transform="translate(267.587829 325.83625)scale(0.1 -0.1)">
       <defs>
        <path id="DejaVuSans-35" d="M 691 4666 
L 3169 4666 
L 3169 4134 
L 1269 4134 
L 1269 2991 
Q 1406 3038 1543 3061 
Q 1681 3084 1819 3084 
Q 2600 3084 3056 2656 
Q 3513 2228 3513 1497 
Q 3513 744 3044 326 
Q 2575 -91 1722 -91 
Q 1428 -91 1123 -41 
Q 819 9 494 109 
L 494 744 
Q 775 591 1075 516 
Q 1375 441 1709 441 
Q 2250 441 2565 725 
Q 2881 1009 2881 1497 
Q 2881 1984 2565 2268 
Q 2250 2553 1709 2553 
Q 1456 2553 1204 2497 
Q 953 2441 691 2322 
L 691 4666 
z
" transform="scale(0.015625)"/>
       </defs>
       <use xlink:href="#DejaVuSans-35"/>
       <use xlink:href="#DejaVuSans-30" x="63.623047"/>
       <use xlink:href="#DejaVuSans-30" x="127.246094"/>
       <use xlink:href="#DejaVuSans-30" x="190.869141"/>
      </g>
     </g>
    </g>
    <g id="xtick_6">
     <g id="text_6">
      <!-- 6000 -->
      <g style="fill: #262626" transform="translate(313.273819 325.83625)scale(0.1 -0.1)">
       <defs>
        <path id="DejaVuSans-36" d="M 2113 2584 
Q 1688 2584 1439 2293 
Q 1191 2003 1191 1497 
Q 1191 994 1439 701 
Q 1688 409 2113 409 
Q 2538 409 2786 701 
Q 3034 994 3034 1497 
Q 3034 2003 2786 2293 
Q 2538 2584 2113 2584 
z
M 3366 4563 
L 3366 3988 
Q 3128 4100 2886 4159 
Q 2644 4219 2406 4219 
Q 1781 4219 1451 3797 
Q 1122 3375 1075 2522 
Q 1259 2794 1537 2939 
Q 1816 3084 2150 3084 
Q 2853 3084 3261 2657 
Q 3669 2231 3669 1497 
Q 3669 778 3244 343 
Q 2819 -91 2113 -91 
Q 1303 -91 875 529 
Q 447 1150 447 2328 
Q 447 3434 972 4092 
Q 1497 4750 2381 4750 
Q 2619 4750 2861 4703 
Q 3103 4656 3366 4563 
z
" transform="scale(0.015625)"/>
       </defs>
       <use xlink:href="#DejaVuSans-36"/>
       <use xlink:href="#DejaVuSans-30" x="63.623047"/>
       <use xlink:href="#DejaVuSans-30" x="127.246094"/>
       <use xlink:href="#DejaVuSans-30" x="190.869141"/>
      </g>
     </g>
    </g>
    <g id="xtick_7">
     <g id="text_7">
      <!-- 7000 -->
      <g style="fill: #262626" transform="translate(358.959809 325.83625)scale(0.1 -0.1)">
       <defs>
        <path id="DejaVuSans-37" d="M 525 4666 
L 3525 4666 
L 3525 4397 
L 1831 0 
L 1172 0 
L 2766 4134 
L 525 4134 
L 525 4666 
z
" transform="scale(0.015625)"/>
       </defs>
       <use xlink:href="#DejaVuSans-37"/>
       <use xlink:href="#DejaVuSans-30" x="63.623047"/>
       <use xlink:href="#DejaVuSans-30" x="127.246094"/>
       <use xlink:href="#DejaVuSans-30" x="190.869141"/>
      </g>
     </g>
    </g>
    <g id="xtick_8">
     <g id="text_8">
      <!-- 8000 -->
      <g style="fill: #262626" transform="translate(404.645799 325.83625)scale(0.1 -0.1)">
       <defs>
        <path id="DejaVuSans-38" d="M 2034 2216 
Q 1584 2216 1326 1975 
Q 1069 1734 1069 1313 
Q 1069 891 1326 650 
Q 1584 409 2034 409 
Q 2484 409 2743 651 
Q 3003 894 3003 1313 
Q 3003 1734 2745 1975 
Q 2488 2216 2034 2216 
z
M 1403 2484 
Q 997 2584 770 2862 
Q 544 3141 544 3541 
Q 544 4100 942 4425 
Q 1341 4750 2034 4750 
Q 2731 4750 3128 4425 
Q 3525 4100 3525 3541 
Q 3525 3141 3298 2862 
Q 3072 2584 2669 2484 
Q 3125 2378 3379 2068 
Q 3634 1759 3634 1313 
Q 3634 634 3220 271 
Q 2806 -91 2034 -91 
Q 1263 -91 848 271 
Q 434 634 434 1313 
Q 434 1759 690 2068 
Q 947 2378 1403 2484 
z
M 1172 3481 
Q 1172 3119 1398 2916 
Q 1625 2713 2034 2713 
Q 2441 2713 2670 2916 
Q 2900 3119 2900 3481 
Q 2900 3844 2670 4047 
Q 2441 4250 2034 4250 
Q 1625 4250 1398 4047 
Q 1172 3844 1172 3481 
z
" transform="scale(0.015625)"/>
       </defs>
       <use xlink:href="#DejaVuSans-38"/>
       <use xlink:href="#DejaVuSans-30" x="63.623047"/>
       <use xlink:href="#DejaVuSans-30" x="127.246094"/>
       <use xlink:href="#DejaVuSans-30" x="190.869141"/>
      </g>
     </g>
    </g>
    <g id="xtick_9">
     <g id="text_9">
      <!-- 9000 -->
      <g style="fill: #262626" transform="translate(450.331789 325.83625)scale(0.1 -0.1)">
       <defs>
        <path id="DejaVuSans-39" d="M 703 97 
L 703 672 
Q 941 559 1184 500 
Q 1428 441 1663 441 
Q 2288 441 2617 861 
Q 2947 1281 2994 2138 
Q 2813 1869 2534 1725 
Q 2256 1581 1919 1581 
Q 1219 1581 811 2004 
Q 403 2428 403 3163 
Q 403 3881 828 4315 
Q 1253 4750 1959 4750 
Q 2769 4750 3195 4129 
Q 3622 3509 3622 2328 
Q 3622 1225 3098 567 
Q 2575 -91 1691 -91 
Q 1453 -91 1209 -44 
Q 966 3 703 97 
z
M 1959 2075 
Q 2384 2075 2632 2365 
Q 2881 2656 2881 3163 
Q 2881 3666 2632 3958 
Q 2384 4250 1959 4250 
Q 1534 4250 1286 3958 
Q 1038 3666 1038 3163 
Q 1038 2656 1286 2365 
Q 1534 2075 1959 2075 
z
" transform="scale(0.015625)"/>
       </defs>
       <use xlink:href="#DejaVuSans-39"/>
       <use xlink:href="#DejaVuSans-30" x="63.623047"/>
       <use xlink:href="#DejaVuSans-30" x="127.246094"/>
       <use xlink:href="#DejaVuSans-30" x="190.869141"/>
      </g>
     </g>
    </g>
    <g id="xtick_10">
     <g id="text_10">
      <!-- 10000 -->
      <g style="fill: #262626" transform="translate(492.83653 325.83625)scale(0.1 -0.1)">
       <use xlink:href="#DejaVuSans-31"/>
       <use xlink:href="#DejaVuSans-30" x="63.623047"/>
       <use xlink:href="#DejaVuSans-30" x="127.246094"/>
       <use xlink:href="#DejaVuSans-30" x="190.869141"/>
       <use xlink:href="#DejaVuSans-30" x="254.492188"/>
      </g>
     </g>
    </g>
    <g id="text_11">
     <!-- Animal Units -->
     <g style="fill: #262626" transform="translate(249.15854 341.034062)scale(0.12 -0.12)">
      <defs>
       <path id="DejaVuSans-41" d="M 2188 4044 
L 1331 1722 
L 3047 1722 
L 2188 4044 
z
M 1831 4666 
L 2547 4666 
L 4325 0 
L 3669 0 
L 3244 1197 
L 1141 1197 
L 716 0 
L 50 0 
L 1831 4666 
z
" transform="scale(0.015625)"/>
       <path id="DejaVuSans-6e" d="M 3513 2113 
L 3513 0 
L 2938 0 
L 2938 2094 
Q 2938 2591 2744 2837 
Q 2550 3084 2163 3084 
Q 1697 3084 1428 2787 
Q 1159 2491 1159 1978 
L 1159 0 
L 581 0 
L 581 3500 
L 1159 3500 
L 1159 2956 
Q 1366 3272 1645 3428 
Q 1925 3584 2291 3584 
Q 2894 3584 3203 3211 
Q 3513 2838 3513 2113 
z
" transform="scale(0.015625)"/>
       <path id="DejaVuSans-69" d="M 603 3500 
L 1178 3500 
L 1178 0 
L 603 0 
L 603 3500 
z
M 603 4863 
L 1178 4863 
L 1178 4134 
L 603 4134 
L 603 4863 
z
" transform="scale(0.015625)"/>
       <path id="DejaVuSans-6d" d="M 3328 2828 
Q 3544 3216 3844 3400 
Q 4144 3584 4550 3584 
Q 5097 3584 5394 3201 
Q 5691 2819 5691 2113 
L 5691 0 
L 5113 0 
L 5113 2094 
Q 5113 2597 4934 2840 
Q 4756 3084 4391 3084 
Q 3944 3084 3684 2787 
Q 3425 2491 3425 1978 
L 3425 0 
L 2847 0 
L 2847 2094 
Q 2847 2600 2669 2842 
Q 2491 3084 2119 3084 
Q 1678 3084 1418 2786 
Q 1159 2488 1159 1978 
L 1159 0 
L 581 0 
L 581 3500 
L 1159 3500 
L 1159 2956 
Q 1356 3278 1631 3431 
Q 1906 3584 2284 3584 
Q 2666 3584 2933 3390 
Q 3200 3197 3328 2828 
z
" transform="scale(0.015625)"/>
       <path id="DejaVuSans-61" d="M 2194 1759 
Q 1497 1759 1228 1600 
Q 959 1441 959 1056 
Q 959 750 1161 570 
Q 1363 391 1709 391 
Q 2188 391 2477 730 
Q 2766 1069 2766 1631 
L 2766 1759 
L 2194 1759 
z
M 3341 1997 
L 3341 0 
L 2766 0 
L 2766 531 
Q 2569 213 2275 61 
Q 1981 -91 1556 -91 
Q 1019 -91 701 211 
Q 384 513 384 1019 
Q 384 1609 779 1909 
Q 1175 2209 1959 2209 
L 2766 2209 
L 2766 2266 
Q 2766 2663 2505 2880 
Q 2244 3097 1772 3097 
Q 1472 3097 1187 3025 
Q 903 2953 641 2809 
L 641 3341 
Q 956 3463 1253 3523 
Q 1550 3584 1831 3584 
Q 2591 3584 2966 3190 
Q 3341 2797 3341 1997 
z
" transform="scale(0.015625)"/>
       <path id="DejaVuSans-6c" d="M 603 4863 
L 1178 4863 
L 1178 0 
L 603 0 
L 603 4863 
z
" transform="scale(0.015625)"/>
       <path id="DejaVuSans-20" transform="scale(0.015625)"/>
       <path id="DejaVuSans-55" d="M 556 4666 
L 1191 4666 
L 1191 1831 
Q 1191 1081 1462 751 
Q 1734 422 2344 422 
Q 2950 422 3222 751 
Q 3494 1081 3494 1831 
L 3494 4666 
L 4128 4666 
L 4128 1753 
Q 4128 841 3676 375 
Q 3225 -91 2344 -91 
Q 1459 -91 1007 375 
Q 556 841 556 1753 
L 556 4666 
z
" transform="scale(0.015625)"/>
       <path id="DejaVuSans-74" d="M 1172 4494 
L 1172 3500 
L 2356 3500 
L 2356 3053 
L 1172 3053 
L 1172 1153 
Q 1172 725 1289 603 
Q 1406 481 1766 481 
L 2356 481 
L 2356 0 
L 1766 0 
Q 1100 0 847 248 
Q 594 497 594 1153 
L 594 3053 
L 172 3053 
L 172 3500 
L 594 3500 
L 594 4494 
L 1172 4494 
z
" transform="scale(0.015625)"/>
       <path id="DejaVuSans-73" d="M 2834 3397 
L 2834 2853 
Q 2591 2978 2328 3040 
Q 2066 3103 1784 3103 
Q 1356 3103 1142 2972 
Q 928 2841 928 2578 
Q 928 2378 1081 2264 
Q 1234 2150 1697 2047 
L 1894 2003 
Q 2506 1872 2764 1633 
Q 3022 1394 3022 966 
Q 3022 478 2636 193 
Q 2250 -91 1575 -91 
Q 1294 -91 989 -36 
Q 684 19 347 128 
L 347 722 
Q 666 556 975 473 
Q 1284 391 1588 391 
Q 1994 391 2212 530 
Q 2431 669 2431 922 
Q 2431 1156 2273 1281 
Q 2116 1406 1581 1522 
L 1381 1569 
Q 847 1681 609 1914 
Q 372 2147 372 2553 
Q 372 3047 722 3315 
Q 1072 3584 1716 3584 
Q 2034 3584 2315 3537 
Q 2597 3491 2834 3397 
z
" transform="scale(0.015625)"/>
      </defs>
      <use xlink:href="#DejaVuSans-41"/>
      <use xlink:href="#DejaVuSans-6e" x="68.408203"/>
      <use xlink:href="#DejaVuSans-69" x="131.787109"/>
      <use xlink:href="#DejaVuSans-6d" x="159.570312"/>
      <use xlink:href="#DejaVuSans-61" x="256.982422"/>
      <use xlink:href="#DejaVuSans-6c" x="318.261719"/>
      <use xlink:href="#DejaVuSans-20" x="346.044922"/>
      <use xlink:href="#DejaVuSans-55" x="377.832031"/>
      <use xlink:href="#DejaVuSans-6e" x="451.025391"/>
      <use xlink:href="#DejaVuSans-69" x="514.404297"/>
      <use xlink:href="#DejaVuSans-74" x="542.1875"/>
      <use xlink:href="#DejaVuSans-73" x="581.396484"/>
     </g>
    </g>
   </g>
   <g id="matplotlib.axis_2">
    <g id="ytick_1">
     <g id="text_12">
      <!-- 0.0000 -->
      <g style="fill: #262626" transform="translate(22.81375 303.405213)scale(0.1 -0.1)">
       <defs>
        <path id="DejaVuSans-2e" d="M 684 794 
L 1344 794 
L 1344 0 
L 684 0 
L 684 794 
z
" transform="scale(0.015625)"/>
       </defs>
       <use xlink:href="#DejaVuSans-30"/>
       <use xlink:href="#DejaVuSans-2e" x="63.623047"/>
       <use xlink:href="#DejaVuSans-30" x="95.410156"/>
       <use xlink:href="#DejaVuSans-30" x="159.033203"/>
       <use xlink:href="#DejaVuSans-30" x="222.65625"/>
       <use xlink:href="#DejaVuSans-30" x="286.279297"/>
      </g>
     </g>
    </g>
    <g id="ytick_2">
     <g id="text_13">
      <!-- 0.0002 -->
      <g style="fill: #262626" transform="translate(22.81375 253.384901)scale(0.1 -0.1)">
       <use xlink:href="#DejaVuSans-30"/>
       <use xlink:href="#DejaVuSans-2e" x="63.623047"/>
       <use xlink:href="#DejaVuSans-30" x="95.410156"/>
       <use xlink:href="#DejaVuSans-30" x="159.033203"/>
       <use xlink:href="#DejaVuSans-30" x="222.65625"/>
       <use xlink:href="#DejaVuSans-32" x="286.279297"/>
      </g>
     </g>
    </g>
    <g id="ytick_3">
     <g id="text_14">
      <!-- 0.0004 -->
      <g style="fill: #262626" transform="translate(22.81375 203.364589)scale(0.1 -0.1)">
       <use xlink:href="#DejaVuSans-30"/>
       <use xlink:href="#DejaVuSans-2e" x="63.623047"/>
       <use xlink:href="#DejaVuSans-30" x="95.410156"/>
       <use xlink:href="#DejaVuSans-30" x="159.033203"/>
       <use xlink:href="#DejaVuSans-30" x="222.65625"/>
       <use xlink:href="#DejaVuSans-34" x="286.279297"/>
      </g>
     </g>
    </g>
    <g id="ytick_4">
     <g id="text_15">
      <!-- 0.0006 -->
      <g style="fill: #262626" transform="translate(22.81375 153.344277)scale(0.1 -0.1)">
       <use xlink:href="#DejaVuSans-30"/>
       <use xlink:href="#DejaVuSans-2e" x="63.623047"/>
       <use xlink:href="#DejaVuSans-30" x="95.410156"/>
       <use xlink:href="#DejaVuSans-30" x="159.033203"/>
       <use xlink:href="#DejaVuSans-30" x="222.65625"/>
       <use xlink:href="#DejaVuSans-36" x="286.279297"/>
      </g>
     </g>
    </g>
    <g id="ytick_5">
     <g id="text_16">
      <!-- 0.0008 -->
      <g style="fill: #262626" transform="translate(22.81375 103.323965)scale(0.1 -0.1)">
       <use xlink:href="#DejaVuSans-30"/>
       <use xlink:href="#DejaVuSans-2e" x="63.623047"/>
       <use xlink:href="#DejaVuSans-30" x="95.410156"/>
       <use xlink:href="#DejaVuSans-30" x="159.033203"/>
       <use xlink:href="#DejaVuSans-30" x="222.65625"/>
       <use xlink:href="#DejaVuSans-38" x="286.279297"/>
      </g>
     </g>
    </g>
    <g id="ytick_6">
     <g id="text_17">
      <!-- 0.0010 -->
      <g style="fill: #262626" transform="translate(22.81375 53.303653)scale(0.1 -0.1)">
       <use xlink:href="#DejaVuSans-30"/>
       <use xlink:href="#DejaVuSans-2e" x="63.623047"/>
       <use xlink:href="#DejaVuSans-30" x="95.410156"/>
       <use xlink:href="#DejaVuSans-30" x="159.033203"/>
       <use xlink:href="#DejaVuSans-31" x="222.65625"/>
       <use xlink:href="#DejaVuSans-30" x="286.279297"/>
      </g>
     </g>
    </g>
    <g id="text_18">
     <!-- Density -->
     <g style="fill: #262626" transform="translate(16.318125 191.098125)rotate(-90)scale(0.12 -0.12)">
      <defs>
       <path id="DejaVuSans-44" d="M 1259 4147 
L 1259 519 
L 2022 519 
Q 2988 519 3436 956 
Q 3884 1394 3884 2338 
Q 3884 3275 3436 3711 
Q 2988 4147 2022 4147 
L 1259 4147 
z
M 628 4666 
L 1925 4666 
Q 3281 4666 3915 4102 
Q 4550 3538 4550 2338 
Q 4550 1131 3912 565 
Q 3275 0 1925 0 
L 628 0 
L 628 4666 
z
" transform="scale(0.015625)"/>
       <path id="DejaVuSans-65" d="M 3597 1894 
L 3597 1613 
L 953 1613 
Q 991 1019 1311 708 
Q 1631 397 2203 397 
Q 2534 397 2845 478 
Q 3156 559 3463 722 
L 3463 178 
Q 3153 47 2828 -22 
Q 2503 -91 2169 -91 
Q 1331 -91 842 396 
Q 353 884 353 1716 
Q 353 2575 817 3079 
Q 1281 3584 2069 3584 
Q 2775 3584 3186 3129 
Q 3597 2675 3597 1894 
z
M 3022 2063 
Q 3016 2534 2758 2815 
Q 2500 3097 2075 3097 
Q 1594 3097 1305 2825 
Q 1016 2553 972 2059 
L 3022 2063 
z
" transform="scale(0.015625)"/>
       <path id="DejaVuSans-79" d="M 2059 -325 
Q 1816 -950 1584 -1140 
Q 1353 -1331 966 -1331 
L 506 -1331 
L 506 -850 
L 844 -850 
Q 1081 -850 1212 -737 
Q 1344 -625 1503 -206 
L 1606 56 
L 191 3500 
L 800 3500 
L 1894 763 
L 2988 3500 
L 3597 3500 
L 2059 -325 
z
" transform="scale(0.015625)"/>
      </defs>
      <use xlink:href="#DejaVuSans-44"/>
      <use xlink:href="#DejaVuSans-65" x="77.001953"/>
      <use xlink:href="#DejaVuSans-6e" x="138.525391"/>
      <use xlink:href="#DejaVuSans-73" x="201.904297"/>
      <use xlink:href="#DejaVuSans-69" x="254.003906"/>
      <use xlink:href="#DejaVuSans-74" x="281.787109"/>
      <use xlink:href="#DejaVuSans-79" x="320.996094"/>
     </g>
    </g>
   </g>
   <g id="PolyCollection_1">
    <defs>
     <path id="m7f1739b194" d="M 65.588675 -51.123693 
L 65.588675 -215.414408 
L 65.978957 -218.39556 
L 66.369239 -221.370968 
L 66.759521 -224.338421 
L 67.149804 -227.295676 
L 67.540086 -230.240464 
L 67.930368 -233.17049 
L 68.320651 -236.083437 
L 68.710933 -238.976966 
L 69.101215 -241.848727 
L 69.491498 -244.696352 
L 69.88178 -247.517466 
L 70.272062 -250.309684 
L 70.662345 -253.07062 
L 71.052627 -255.797887 
L 71.442909 -258.489101 
L 71.833192 -261.141883 
L 72.223474 -263.753867 
L 72.613756 -266.322699 
L 73.004039 -268.846039 
L 73.394321 -271.321573 
L 73.784603 -273.747006 
L 74.174886 -276.120073 
L 74.565168 -278.438539 
L 74.95545 -280.700205 
L 75.345733 -282.902907 
L 75.736015 -285.044525 
L 76.126297 -287.122982 
L 76.51658 -289.136251 
L 76.906862 -291.082354 
L 77.297144 -292.959368 
L 77.687427 -294.765431 
L 78.077709 -296.498736 
L 78.467991 -298.157546 
L 78.858274 -299.740186 
L 79.248556 -301.245052 
L 79.638838 -302.670614 
L 80.029121 -304.015415 
L 80.419403 -305.278075 
L 80.809685 -306.457295 
L 81.199968 -307.551857 
L 81.59025 -308.560627 
L 81.980532 -309.482558 
L 82.370815 -310.316689 
L 82.761097 -311.06215 
L 83.151379 -311.718162 
L 83.541662 -312.284037 
L 83.931944 -312.759181 
L 84.322226 -313.143095 
L 84.712509 -313.435375 
L 85.102791 -313.635714 
L 85.493073 -313.7439 
L 85.883356 -313.759819 
L 86.273638 -313.683455 
L 86.66392 -313.514888 
L 87.054203 -313.254296 
L 87.444485 -312.901952 
L 87.834767 -312.458229 
L 88.22505 -311.923592 
L 88.615332 -311.298602 
L 89.005614 -310.583916 
L 89.395897 -309.78028 
L 89.786179 -308.888534 
L 90.176461 -307.909607 
L 90.566744 -306.844518 
L 90.957026 -305.69437 
L 91.347308 -304.460352 
L 91.737591 -303.143736 
L 92.127873 -301.745874 
L 92.518155 -300.268196 
L 92.908438 -298.712209 
L 93.29872 -297.079491 
L 93.689002 -295.371691 
L 94.079284 -293.590528 
L 94.469567 -291.737782 
L 94.859849 -289.815299 
L 95.250131 -287.82498 
L 95.640414 -285.768785 
L 96.030696 -283.648724 
L 96.420978 -281.466857 
L 96.811261 -279.22529 
L 97.201543 -276.926172 
L 97.591825 -274.57169 
L 97.982108 -272.164067 
L 98.37239 -269.70556 
L 98.762672 -267.198451 
L 99.152955 -264.64505 
L 99.543237 -262.047687 
L 99.933519 -259.408712 
L 100.323802 -256.730488 
L 100.714084 -254.015389 
L 101.104366 -251.265799 
L 101.494649 -248.484102 
L 101.884931 -245.672688 
L 102.275213 -242.83394 
L 102.665496 -239.970237 
L 103.055778 -237.083951 
L 103.44606 -234.177438 
L 103.836343 -231.253041 
L 104.226625 -228.313085 
L 104.616907 -225.359873 
L 105.00719 -222.395683 
L 105.397472 -219.422767 
L 105.787754 -216.443349 
L 106.178037 -213.459618 
L 106.568319 -210.47373 
L 106.958601 -207.487803 
L 107.348884 -204.503917 
L 107.739166 -201.524109 
L 108.129448 -198.550375 
L 108.519731 -195.584663 
L 108.910013 -192.628874 
L 109.300295 -189.684861 
L 109.690578 -186.754428 
L 110.08086 -183.839323 
L 110.471142 -180.941244 
L 110.861425 -178.061834 
L 111.251707 -175.202679 
L 111.641989 -172.36531 
L 112.032272 -169.551199 
L 112.422554 -166.761762 
L 112.812836 -163.998353 
L 113.203119 -161.262271 
L 113.593401 -158.554751 
L 113.983683 -155.876972 
L 114.373966 -153.230049 
L 114.764248 -150.61504 
L 115.15453 -148.032941 
L 115.544813 -145.484689 
L 115.935095 -142.971162 
L 116.325377 -140.493177 
L 116.71566 -138.051494 
L 117.105942 -135.646811 
L 117.496224 -133.279774 
L 117.886507 -130.950966 
L 118.276789 -128.660919 
L 118.667071 -126.410106 
L 119.057354 -124.198946 
L 119.447636 -122.027807 
L 119.837918 -119.897003 
L 120.2282 -117.806795 
L 120.618483 -115.757397 
L 121.008765 -113.748972 
L 121.399047 -111.781638 
L 121.78933 -109.855462 
L 122.179612 -107.970472 
L 122.569894 -106.126647 
L 122.960177 -104.323928 
L 123.350459 -102.562214 
L 123.740741 -100.841364 
L 124.131024 -99.161199 
L 124.521306 -97.521507 
L 124.911588 -95.922037 
L 125.301871 -94.362508 
L 125.692153 -92.842607 
L 126.082435 -91.361989 
L 126.472718 -89.920282 
L 126.863 -88.517088 
L 127.253282 -87.151981 
L 127.643565 -85.824513 
L 128.033847 -84.534213 
L 128.424129 -83.280588 
L 128.814412 -82.063127 
L 129.204694 -80.8813 
L 129.594976 -79.73456 
L 129.985259 -78.622346 
L 130.375541 -77.544081 
L 130.765823 -76.499179 
L 131.156106 -75.487037 
L 131.546388 -74.507048 
L 131.93667 -73.558593 
L 132.326953 -72.641045 
L 132.717235 -71.753772 
L 133.107517 -70.896136 
L 133.4978 -70.067496 
L 133.888082 -69.267206 
L 134.278364 -68.494619 
L 134.668647 -67.749087 
L 135.058929 -67.029961 
L 135.449211 -66.336594 
L 135.839494 -65.668339 
L 136.229776 -65.024552 
L 136.620058 -64.404594 
L 137.010341 -63.807826 
L 137.400623 -63.233617 
L 137.790905 -62.681341 
L 138.181188 -62.150375 
L 138.57147 -61.640106 
L 138.961752 -61.149926 
L 139.352035 -60.679236 
L 139.742317 -60.227442 
L 140.132599 -59.793963 
L 140.522882 -59.378222 
L 140.913164 -58.979655 
L 141.303446 -58.597705 
L 141.693729 -58.231828 
L 142.084011 -57.881486 
L 142.474293 -57.546154 
L 142.864576 -57.225317 
L 143.254858 -56.918471 
L 143.254858 -51.123693 
L 143.254858 -51.123693 
L 142.864576 -51.123693 
L 142.474293 -51.123693 
L 142.084011 -51.123693 
L 141.693729 -51.123693 
L 141.303446 -51.123693 
L 140.913164 -51.123693 
L 140.522882 -51.123693 
L 140.132599 -51.123693 
L 139.742317 -51.123693 
L 139.352035 -51.123693 
L 138.961752 -51.123693 
L 138.57147 -51.123693 
L 138.181188 -51.123693 
L 137.790905 -51.123693 
L 137.400623 -51.123693 
L 137.010341 -51.123693 
L 136.620058 -51.123693 
L 136.229776 -51.123693 
L 135.839494 -51.123693 
L 135.449211 -51.123693 
L 135.058929 -51.123693 
L 134.668647 -51.123693 
L 134.278364 -51.123693 
L 133.888082 -51.123693 
L 133.4978 -51.123693 
L 133.107517 -51.123693 
L 132.717235 -51.123693 
L 132.326953 -51.123693 
L 131.93667 -51.123693 
L 131.546388 -51.123693 
L 131.156106 -51.123693 
L 130.765823 -51.123693 
L 130.375541 -51.123693 
L 129.985259 -51.123693 
L 129.594976 -51.123693 
L 129.204694 -51.123693 
L 128.814412 -51.123693 
L 128.424129 -51.123693 
L 128.033847 -51.123693 
L 127.643565 -51.123693 
L 127.253282 -51.123693 
L 126.863 -51.123693 
L 126.472718 -51.123693 
L 126.082435 -51.123693 
L 125.692153 -51.123693 
L 125.301871 -51.123693 
L 124.911588 -51.123693 
L 124.521306 -51.123693 
L 124.131024 -51.123693 
L 123.740741 -51.123693 
L 123.350459 -51.123693 
L 122.960177 -51.123693 
L 122.569894 -51.123693 
L 122.179612 -51.123693 
L 121.78933 -51.123693 
L 121.399047 -51.123693 
L 121.008765 -51.123693 
L 120.618483 -51.123693 
L 120.2282 -51.123693 
L 119.837918 -51.123693 
L 119.447636 -51.123693 
L 119.057354 -51.123693 
L 118.667071 -51.123693 
L 118.276789 -51.123693 
L 117.886507 -51.123693 
L 117.496224 -51.123693 
L 117.105942 -51.123693 
L 116.71566 -51.123693 
L 116.325377 -51.123693 
L 115.935095 -51.123693 
L 115.544813 -51.123693 
L 115.15453 -51.123693 
L 114.764248 -51.123693 
L 114.373966 -51.123693 
L 113.983683 -51.123693 
L 113.593401 -51.123693 
L 113.203119 -51.123693 
L 112.812836 -51.123693 
L 112.422554 -51.123693 
L 112.032272 -51.123693 
L 111.641989 -51.123693 
L 111.251707 -51.123693 
L 110.861425 -51.123693 
L 110.471142 -51.123693 
L 110.08086 -51.123693 
L 109.690578 -51.123693 
L 109.300295 -51.123693 
L 108.910013 -51.123693 
L 108.519731 -51.123693 
L 108.129448 -51.123693 
L 107.739166 -51.123693 
L 107.348884 -51.123693 
L 106.958601 -51.123693 
L 106.568319 -51.123693 
L 106.178037 -51.123693 
L 105.787754 -51.123693 
L 105.397472 -51.123693 
L 105.00719 -51.123693 
L 104.616907 -51.123693 
L 104.226625 -51.123693 
L 103.836343 -51.123693 
L 103.44606 -51.123693 
L 103.055778 -51.123693 
L 102.665496 -51.123693 
L 102.275213 -51.123693 
L 101.884931 -51.123693 
L 101.494649 -51.123693 
L 101.104366 -51.123693 
L 100.714084 -51.123693 
L 100.323802 -51.123693 
L 99.933519 -51.123693 
L 99.543237 -51.123693 
L 99.152955 -51.123693 
L 98.762672 -51.123693 
L 98.37239 -51.123693 
L 97.982108 -51.123693 
L 97.591825 -51.123693 
L 97.201543 -51.123693 
L 96.811261 -51.123693 
L 96.420978 -51.123693 
L 96.030696 -51.123693 
L 95.640414 -51.123693 
L 95.250131 -51.123693 
L 94.859849 -51.123693 
L 94.469567 -51.123693 
L 94.079284 -51.123693 
L 93.689002 -51.123693 
L 93.29872 -51.123693 
L 92.908438 -51.123693 
L 92.518155 -51.123693 
L 92.127873 -51.123693 
L 91.737591 -51.123693 
L 91.347308 -51.123693 
L 90.957026 -51.123693 
L 90.566744 -51.123693 
L 90.176461 -51.123693 
L 89.786179 -51.123693 
L 89.395897 -51.123693 
L 89.005614 -51.123693 
L 88.615332 -51.123693 
L 88.22505 -51.123693 
L 87.834767 -51.123693 
L 87.444485 -51.123693 
L 87.054203 -51.123693 
L 86.66392 -51.123693 
L 86.273638 -51.123693 
L 85.883356 -51.123693 
L 85.493073 -51.123693 
L 85.102791 -51.123693 
L 84.712509 -51.123693 
L 84.322226 -51.123693 
L 83.931944 -51.123693 
L 83.541662 -51.123693 
L 83.151379 -51.123693 
L 82.761097 -51.123693 
L 82.370815 -51.123693 
L 81.980532 -51.123693 
L 81.59025 -51.123693 
L 81.199968 -51.123693 
L 80.809685 -51.123693 
L 80.419403 -51.123693 
L 80.029121 -51.123693 
L 79.638838 -51.123693 
L 79.248556 -51.123693 
L 78.858274 -51.123693 
L 78.467991 -51.123693 
L 78.077709 -51.123693 
L 77.687427 -51.123693 
L 77.297144 -51.123693 
L 76.906862 -51.123693 
L 76.51658 -51.123693 
L 76.126297 -51.123693 
L 75.736015 -51.123693 
L 75.345733 -51.123693 
L 74.95545 -51.123693 
L 74.565168 -51.123693 
L 74.174886 -51.123693 
L 73.784603 -51.123693 
L 73.394321 -51.123693 
L 73.004039 -51.123693 
L 72.613756 -51.123693 
L 72.223474 -51.123693 
L 71.833192 -51.123693 
L 71.442909 -51.123693 
L 71.052627 -51.123693 
L 70.662345 -51.123693 
L 70.272062 -51.123693 
L 69.88178 -51.123693 
L 69.491498 -51.123693 
L 69.101215 -51.123693 
L 68.710933 -51.123693 
L 68.320651 -51.123693 
L 67.930368 -51.123693 
L 67.540086 -51.123693 
L 67.149804 -51.123693 
L 66.759521 -51.123693 
L 66.369239 -51.123693 
L 65.978957 -51.123693 
L 65.588675 -51.123693 
z
" style="stroke: #f5f0bb; stroke-opacity: 0.99"/>
    </defs>
    <g clip-path="url(#p813fa9c449)">
     <use xlink:href="#m7f1739b194" x="0" y="350.729687" style="fill: #f5f0bb; fill-opacity: 0.99; stroke: #f5f0bb; stroke-opacity: 0.99"/>
    </g>
   </g>
   <g id="PolyCollection_2">
    <defs>
     <path id="mc535552453" d="M 143.254858 -51.123693 
L 143.254858 -56.918471 
L 143.943591 -56.409604 
L 144.632325 -55.940149 
L 145.321058 -55.507587 
L 146.009792 -55.109509 
L 146.698525 -54.743615 
L 147.387259 -54.407713 
L 148.075993 -54.099722 
L 148.764726 -53.817666 
L 149.45346 -53.559674 
L 150.142193 -53.32398 
L 150.830927 -53.108917 
L 151.51966 -52.912916 
L 152.208394 -52.734503 
L 152.897127 -52.572293 
L 153.585861 -52.424994 
L 154.274594 -52.291393 
L 154.963328 -52.170363 
L 155.652061 -52.060852 
L 156.340795 -51.96188 
L 157.029528 -51.872541 
L 157.718262 -51.791992 
L 158.406995 -51.719456 
L 159.095729 -51.654211 
L 159.784462 -51.595595 
L 160.473196 -51.542996 
L 161.161929 -51.495852 
L 161.850663 -51.453648 
L 162.539396 -51.41591 
L 163.22813 -51.382205 
L 163.916863 -51.352137 
L 164.605597 -51.325346 
L 165.294331 -51.301502 
L 165.983064 -51.280306 
L 166.671798 -51.261486 
L 167.360531 -51.244795 
L 168.049265 -51.230009 
L 168.737998 -51.216926 
L 169.426732 -51.205364 
L 170.115465 -51.195158 
L 170.804199 -51.186158 
L 171.492932 -51.178232 
L 172.181666 -51.17126 
L 172.870399 -51.165134 
L 173.559133 -51.159757 
L 174.247866 -51.155044 
L 174.9366 -51.150916 
L 175.625333 -51.147307 
L 176.314067 -51.144153 
L 177.0028 -51.141401 
L 177.691534 -51.139003 
L 178.380267 -51.136915 
L 179.069001 -51.135099 
L 179.757734 -51.133522 
L 180.446468 -51.132154 
L 181.135202 -51.130968 
L 181.823935 -51.129941 
L 182.512669 -51.129054 
L 183.201402 -51.128287 
L 183.890136 -51.127626 
L 184.578869 -51.127056 
L 185.267603 -51.126566 
L 185.956336 -51.126145 
L 186.64507 -51.125783 
L 187.333803 -51.125472 
L 188.022537 -51.125206 
L 188.71127 -51.124979 
L 189.400004 -51.124784 
L 190.088737 -51.124618 
L 190.777471 -51.124476 
L 191.466204 -51.124355 
L 192.154938 -51.124253 
L 192.843671 -51.124165 
L 193.532405 -51.124091 
L 194.221138 -51.124028 
L 194.909872 -51.123975 
L 195.598605 -51.12393 
L 196.287339 -51.123892 
L 196.976072 -51.12386 
L 197.664806 -51.123833 
L 198.35354 -51.12381 
L 199.042273 -51.123791 
L 199.731007 -51.123775 
L 200.41974 -51.123761 
L 201.108474 -51.12375 
L 201.797207 -51.12374 
L 202.485941 -51.123732 
L 203.174674 -51.123726 
L 203.863408 -51.12372 
L 204.552141 -51.123716 
L 205.240875 -51.123712 
L 205.929608 -51.123708 
L 206.618342 -51.123706 
L 207.307075 -51.123704 
L 207.995809 -51.123702 
L 208.684542 -51.1237 
L 209.373276 -51.123699 
L 210.062009 -51.123698 
L 210.750743 -51.123697 
L 211.439476 -51.123696 
L 212.12821 -51.123696 
L 212.816943 -51.123695 
L 213.505677 -51.123695 
L 214.194411 -51.123695 
L 214.883144 -51.123694 
L 215.571878 -51.123694 
L 216.260611 -51.123694 
L 216.949345 -51.123694 
L 217.638078 -51.123694 
L 218.326812 -51.123694 
L 219.015545 -51.123694 
L 219.704279 -51.123693 
L 220.393012 -51.123693 
L 221.081746 -51.123693 
L 221.770479 -51.123693 
L 222.459213 -51.123693 
L 223.147946 -51.123693 
L 223.83668 -51.123693 
L 224.525413 -51.123693 
L 225.214147 -51.123693 
L 225.90288 -51.123693 
L 226.591614 -51.123693 
L 227.280347 -51.123693 
L 227.969081 -51.123693 
L 228.657814 -51.123693 
L 229.346548 -51.123693 
L 230.035281 -51.123693 
L 230.724015 -51.123693 
L 231.412749 -51.123693 
L 232.101482 -51.123693 
L 232.790216 -51.123693 
L 233.478949 -51.123693 
L 234.167683 -51.123693 
L 234.856416 -51.123693 
L 235.54515 -51.123693 
L 236.233883 -51.123693 
L 236.922617 -51.123693 
L 237.61135 -51.123693 
L 238.300084 -51.123693 
L 238.988817 -51.123693 
L 239.677551 -51.123693 
L 240.366284 -51.123693 
L 241.055018 -51.123693 
L 241.743751 -51.123693 
L 242.432485 -51.123693 
L 243.121218 -51.123693 
L 243.809952 -51.123693 
L 244.498685 -51.123693 
L 245.187419 -51.123693 
L 245.876152 -51.123693 
L 246.564886 -51.123693 
L 247.25362 -51.123693 
L 247.942353 -51.123693 
L 248.631087 -51.123693 
L 249.31982 -51.123693 
L 250.008554 -51.123693 
L 250.697287 -51.123693 
L 251.386021 -51.123693 
L 252.074754 -51.123693 
L 252.763488 -51.123693 
L 253.452221 -51.123693 
L 254.140955 -51.123693 
L 254.829688 -51.123693 
L 255.518422 -51.123693 
L 256.207155 -51.123693 
L 256.895889 -51.123693 
L 257.584622 -51.123693 
L 258.273356 -51.123693 
L 258.962089 -51.123693 
L 259.650823 -51.123693 
L 260.339556 -51.123693 
L 261.02829 -51.123693 
L 261.717023 -51.123693 
L 262.405757 -51.123693 
L 263.09449 -51.123693 
L 263.783224 -51.123693 
L 264.471958 -51.123693 
L 265.160691 -51.123693 
L 265.849425 -51.123693 
L 266.538158 -51.123693 
L 267.226892 -51.123693 
L 267.915625 -51.123693 
L 268.604359 -51.123693 
L 269.293092 -51.123693 
L 269.981826 -51.123693 
L 270.670559 -51.123693 
L 271.359293 -51.123693 
L 272.048026 -51.123693 
L 272.73676 -51.123693 
L 273.425493 -51.123693 
L 274.114227 -51.123693 
L 274.80296 -51.123693 
L 275.491694 -51.123693 
L 276.180427 -51.123693 
L 276.869161 -51.123693 
L 277.557894 -51.123693 
L 278.246628 -51.123693 
L 278.935361 -51.123693 
L 279.624095 -51.123693 
L 280.312829 -51.123693 
L 280.312829 -51.123693 
L 280.312829 -51.123693 
L 279.624095 -51.123693 
L 278.935361 -51.123693 
L 278.246628 -51.123693 
L 277.557894 -51.123693 
L 276.869161 -51.123693 
L 276.180427 -51.123693 
L 275.491694 -51.123693 
L 274.80296 -51.123693 
L 274.114227 -51.123693 
L 273.425493 -51.123693 
L 272.73676 -51.123693 
L 272.048026 -51.123693 
L 271.359293 -51.123693 
L 270.670559 -51.123693 
L 269.981826 -51.123693 
L 269.293092 -51.123693 
L 268.604359 -51.123693 
L 267.915625 -51.123693 
L 267.226892 -51.123693 
L 266.538158 -51.123693 
L 265.849425 -51.123693 
L 265.160691 -51.123693 
L 264.471958 -51.123693 
L 263.783224 -51.123693 
L 263.09449 -51.123693 
L 262.405757 -51.123693 
L 261.717023 -51.123693 
L 261.02829 -51.123693 
L 260.339556 -51.123693 
L 259.650823 -51.123693 
L 258.962089 -51.123693 
L 258.273356 -51.123693 
L 257.584622 -51.123693 
L 256.895889 -51.123693 
L 256.207155 -51.123693 
L 255.518422 -51.123693 
L 254.829688 -51.123693 
L 254.140955 -51.123693 
L 253.452221 -51.123693 
L 252.763488 -51.123693 
L 252.074754 -51.123693 
L 251.386021 -51.123693 
L 250.697287 -51.123693 
L 250.008554 -51.123693 
L 249.31982 -51.123693 
L 248.631087 -51.123693 
L 247.942353 -51.123693 
L 247.25362 -51.123693 
L 246.564886 -51.123693 
L 245.876152 -51.123693 
L 245.187419 -51.123693 
L 244.498685 -51.123693 
L 243.809952 -51.123693 
L 243.121218 -51.123693 
L 242.432485 -51.123693 
L 241.743751 -51.123693 
L 241.055018 -51.123693 
L 240.366284 -51.123693 
L 239.677551 -51.123693 
L 238.988817 -51.123693 
L 238.300084 -51.123693 
L 237.61135 -51.123693 
L 236.922617 -51.123693 
L 236.233883 -51.123693 
L 235.54515 -51.123693 
L 234.856416 -51.123693 
L 234.167683 -51.123693 
L 233.478949 -51.123693 
L 232.790216 -51.123693 
L 232.101482 -51.123693 
L 231.412749 -51.123693 
L 230.724015 -51.123693 
L 230.035281 -51.123693 
L 229.346548 -51.123693 
L 228.657814 -51.123693 
L 227.969081 -51.123693 
L 227.280347 -51.123693 
L 226.591614 -51.123693 
L 225.90288 -51.123693 
L 225.214147 -51.123693 
L 224.525413 -51.123693 
L 223.83668 -51.123693 
L 223.147946 -51.123693 
L 222.459213 -51.123693 
L 221.770479 -51.123693 
L 221.081746 -51.123693 
L 220.393012 -51.123693 
L 219.704279 -51.123693 
L 219.015545 -51.123693 
L 218.326812 -51.123693 
L 217.638078 -51.123693 
L 216.949345 -51.123693 
L 216.260611 -51.123693 
L 215.571878 -51.123693 
L 214.883144 -51.123693 
L 214.194411 -51.123693 
L 213.505677 -51.123693 
L 212.816943 -51.123693 
L 212.12821 -51.123693 
L 211.439476 -51.123693 
L 210.750743 -51.123693 
L 210.062009 -51.123693 
L 209.373276 -51.123693 
L 208.684542 -51.123693 
L 207.995809 -51.123693 
L 207.307075 -51.123693 
L 206.618342 -51.123693 
L 205.929608 -51.123693 
L 205.240875 -51.123693 
L 204.552141 -51.123693 
L 203.863408 -51.123693 
L 203.174674 -51.123693 
L 202.485941 -51.123693 
L 201.797207 -51.123693 
L 201.108474 -51.123693 
L 200.41974 -51.123693 
L 199.731007 -51.123693 
L 199.042273 -51.123693 
L 198.35354 -51.123693 
L 197.664806 -51.123693 
L 196.976072 -51.123693 
L 196.287339 -51.123693 
L 195.598605 -51.123693 
L 194.909872 -51.123693 
L 194.221138 -51.123693 
L 193.532405 -51.123693 
L 192.843671 -51.123693 
L 192.154938 -51.123693 
L 191.466204 -51.123693 
L 190.777471 -51.123693 
L 190.088737 -51.123693 
L 189.400004 -51.123693 
L 188.71127 -51.123693 
L 188.022537 -51.123693 
L 187.333803 -51.123693 
L 186.64507 -51.123693 
L 185.956336 -51.123693 
L 185.267603 -51.123693 
L 184.578869 -51.123693 
L 183.890136 -51.123693 
L 183.201402 -51.123693 
L 182.512669 -51.123693 
L 181.823935 -51.123693 
L 181.135202 -51.123693 
L 180.446468 -51.123693 
L 179.757734 -51.123693 
L 179.069001 -51.123693 
L 178.380267 -51.123693 
L 177.691534 -51.123693 
L 177.0028 -51.123693 
L 176.314067 -51.123693 
L 175.625333 -51.123693 
L 174.9366 -51.123693 
L 174.247866 -51.123693 
L 173.559133 -51.123693 
L 172.870399 -51.123693 
L 172.181666 -51.123693 
L 171.492932 -51.123693 
L 170.804199 -51.123693 
L 170.115465 -51.123693 
L 169.426732 -51.123693 
L 168.737998 -51.123693 
L 168.049265 -51.123693 
L 167.360531 -51.123693 
L 166.671798 -51.123693 
L 165.983064 -51.123693 
L 165.294331 -51.123693 
L 164.605597 -51.123693 
L 163.916863 -51.123693 
L 163.22813 -51.123693 
L 162.539396 -51.123693 
L 161.850663 -51.123693 
L 161.161929 -51.123693 
L 160.473196 -51.123693 
L 159.784462 -51.123693 
L 159.095729 -51.123693 
L 158.406995 -51.123693 
L 157.718262 -51.123693 
L 157.029528 -51.123693 
L 156.340795 -51.123693 
L 155.652061 -51.123693 
L 154.963328 -51.123693 
L 154.274594 -51.123693 
L 153.585861 -51.123693 
L 152.897127 -51.123693 
L 152.208394 -51.123693 
L 151.51966 -51.123693 
L 150.830927 -51.123693 
L 150.142193 -51.123693 
L 149.45346 -51.123693 
L 148.764726 -51.123693 
L 148.075993 -51.123693 
L 147.387259 -51.123693 
L 146.698525 -51.123693 
L 146.009792 -51.123693 
L 145.321058 -51.123693 
L 144.632325 -51.123693 
L 143.943591 -51.123693 
L 143.254858 -51.123693 
z
" style="stroke: #c4dfaa; stroke-opacity: 0.99"/>
    </defs>
    <g clip-path="url(#p813fa9c449)">
     <use xlink:href="#mc535552453" x="0" y="350.729687" style="fill: #c4dfaa; fill-opacity: 0.99; stroke: #c4dfaa; stroke-opacity: 0.99"/>
    </g>
   </g>
   <g id="PolyCollection_3">
    <defs>
     <path id="m938e429cab" d="M 280.312829 -51.123693 
L 280.312829 -51.123693 
L 281.460718 -51.123693 
L 282.608607 -51.123693 
L 283.756496 -51.123693 
L 284.904385 -51.123693 
L 286.052275 -51.123693 
L 287.200164 -51.123693 
L 288.348053 -51.123693 
L 289.495942 -51.123693 
L 290.643831 -51.123693 
L 291.791721 -51.123693 
L 292.93961 -51.123693 
L 294.087499 -51.123693 
L 295.235388 -51.123693 
L 296.383277 -51.123693 
L 297.531167 -51.123693 
L 298.679056 -51.123693 
L 299.826945 -51.123693 
L 300.974834 -51.123693 
L 302.122723 -51.123693 
L 303.270613 -51.123693 
L 304.418502 -51.123693 
L 305.566391 -51.123693 
L 306.71428 -51.123693 
L 307.862169 -51.123693 
L 309.010059 -51.123693 
L 310.157948 -51.123693 
L 311.305837 -51.123693 
L 312.453726 -51.123693 
L 313.601615 -51.123693 
L 314.749505 -51.123693 
L 315.897394 -51.123693 
L 317.045283 -51.123693 
L 318.193172 -51.123693 
L 319.341061 -51.123693 
L 320.488951 -51.123693 
L 321.63684 -51.123693 
L 322.784729 -51.123693 
L 323.932618 -51.123693 
L 325.080507 -51.123693 
L 326.228397 -51.123693 
L 327.376286 -51.123693 
L 328.524175 -51.123693 
L 329.672064 -51.123693 
L 330.819953 -51.123693 
L 331.967843 -51.123693 
L 333.115732 -51.123693 
L 334.263621 -51.123693 
L 335.41151 -51.123693 
L 336.559399 -51.123693 
L 337.707289 -51.123693 
L 338.855178 -51.123693 
L 340.003067 -51.123693 
L 341.150956 -51.123693 
L 342.298845 -51.123693 
L 343.446735 -51.123693 
L 344.594624 -51.123693 
L 345.742513 -51.123693 
L 346.890402 -51.123693 
L 348.038291 -51.123693 
L 349.186181 -51.123693 
L 350.33407 -51.123693 
L 351.481959 -51.123693 
L 352.629848 -51.123693 
L 353.777737 -51.123693 
L 354.925627 -51.123693 
L 356.073516 -51.123693 
L 357.221405 -51.123693 
L 358.369294 -51.123693 
L 359.517183 -51.123693 
L 360.665073 -51.123693 
L 361.812962 -51.123693 
L 362.960851 -51.123693 
L 364.10874 -51.123693 
L 365.256629 -51.123693 
L 366.404519 -51.123693 
L 367.552408 -51.123693 
L 368.700297 -51.123693 
L 369.848186 -51.123693 
L 370.996075 -51.123693 
L 372.143965 -51.123693 
L 373.291854 -51.123693 
L 374.439743 -51.123693 
L 375.587632 -51.123693 
L 376.735521 -51.123693 
L 377.883411 -51.123693 
L 379.0313 -51.123693 
L 380.179189 -51.123693 
L 381.327078 -51.123693 
L 382.474967 -51.123693 
L 383.622857 -51.123693 
L 384.770746 -51.123693 
L 385.918635 -51.123693 
L 387.066524 -51.123693 
L 388.214413 -51.123693 
L 389.362303 -51.123693 
L 390.510192 -51.123693 
L 391.658081 -51.123693 
L 392.80597 -51.123693 
L 393.953859 -51.123693 
L 395.101749 -51.123693 
L 396.249638 -51.123693 
L 397.397527 -51.123693 
L 398.545416 -51.123693 
L 399.693305 -51.123693 
L 400.841195 -51.123693 
L 401.989084 -51.123693 
L 403.136973 -51.123693 
L 404.284862 -51.123693 
L 405.432751 -51.123693 
L 406.580641 -51.123693 
L 407.72853 -51.123693 
L 408.876419 -51.123693 
L 410.024308 -51.123693 
L 411.172197 -51.123693 
L 412.320087 -51.123693 
L 413.467976 -51.123693 
L 414.615865 -51.123693 
L 415.763754 -51.123693 
L 416.911643 -51.123693 
L 418.059533 -51.123693 
L 419.207422 -51.123693 
L 420.355311 -51.123693 
L 421.5032 -51.123693 
L 422.651089 -51.123693 
L 423.798979 -51.123693 
L 424.946868 -51.123693 
L 426.094757 -51.123693 
L 427.242646 -51.123693 
L 428.390535 -51.123693 
L 429.538425 -51.123693 
L 430.686314 -51.123693 
L 431.834203 -51.123693 
L 432.982092 -51.123693 
L 434.129981 -51.123693 
L 435.277871 -51.123693 
L 436.42576 -51.123693 
L 437.573649 -51.123693 
L 438.721538 -51.123693 
L 439.869427 -51.123693 
L 441.017317 -51.123693 
L 442.165206 -51.123693 
L 443.313095 -51.123693 
L 444.460984 -51.123693 
L 445.608873 -51.123693 
L 446.756763 -51.123693 
L 447.904652 -51.123693 
L 449.052541 -51.123693 
L 450.20043 -51.123693 
L 451.34832 -51.123693 
L 452.496209 -51.123693 
L 453.644098 -51.123693 
L 454.791987 -51.123693 
L 455.939876 -51.123693 
L 457.087766 -51.123693 
L 458.235655 -51.123693 
L 459.383544 -51.123693 
L 460.531433 -51.123693 
L 461.679322 -51.123693 
L 462.827212 -51.123693 
L 463.975101 -51.123693 
L 465.12299 -51.123693 
L 466.270879 -51.123693 
L 467.418768 -51.123693 
L 468.566658 -51.123693 
L 469.714547 -51.123693 
L 470.862436 -51.123693 
L 472.010325 -51.123693 
L 473.158214 -51.123693 
L 474.306104 -51.123693 
L 475.453993 -51.123693 
L 476.601882 -51.123693 
L 477.749771 -51.123693 
L 478.89766 -51.123693 
L 480.04555 -51.123693 
L 481.193439 -51.123693 
L 482.341328 -51.123693 
L 483.489217 -51.123693 
L 484.637106 -51.123693 
L 485.784996 -51.123693 
L 486.932885 -51.123693 
L 488.080774 -51.123693 
L 489.228663 -51.123693 
L 490.376552 -51.123693 
L 491.524442 -51.123693 
L 492.672331 -51.123693 
L 493.82022 -51.123693 
L 494.968109 -51.123693 
L 496.115998 -51.123693 
L 497.263888 -51.123693 
L 498.411777 -51.123693 
L 499.559666 -51.123693 
L 500.707555 -51.123693 
L 501.855444 -51.123693 
L 503.003334 -51.123693 
L 504.151223 -51.123693 
L 505.299112 -51.123693 
L 506.447001 -51.123693 
L 507.59489 -51.123693 
L 508.74278 -51.123693 
L 508.74278 -51.123693 
L 508.74278 -51.123693 
L 507.59489 -51.123693 
L 506.447001 -51.123693 
L 505.299112 -51.123693 
L 504.151223 -51.123693 
L 503.003334 -51.123693 
L 501.855444 -51.123693 
L 500.707555 -51.123693 
L 499.559666 -51.123693 
L 498.411777 -51.123693 
L 497.263888 -51.123693 
L 496.115998 -51.123693 
L 494.968109 -51.123693 
L 493.82022 -51.123693 
L 492.672331 -51.123693 
L 491.524442 -51.123693 
L 490.376552 -51.123693 
L 489.228663 -51.123693 
L 488.080774 -51.123693 
L 486.932885 -51.123693 
L 485.784996 -51.123693 
L 484.637106 -51.123693 
L 483.489217 -51.123693 
L 482.341328 -51.123693 
L 481.193439 -51.123693 
L 480.04555 -51.123693 
L 478.89766 -51.123693 
L 477.749771 -51.123693 
L 476.601882 -51.123693 
L 475.453993 -51.123693 
L 474.306104 -51.123693 
L 473.158214 -51.123693 
L 472.010325 -51.123693 
L 470.862436 -51.123693 
L 469.714547 -51.123693 
L 468.566658 -51.123693 
L 467.418768 -51.123693 
L 466.270879 -51.123693 
L 465.12299 -51.123693 
L 463.975101 -51.123693 
L 462.827212 -51.123693 
L 461.679322 -51.123693 
L 460.531433 -51.123693 
L 459.383544 -51.123693 
L 458.235655 -51.123693 
L 457.087766 -51.123693 
L 455.939876 -51.123693 
L 454.791987 -51.123693 
L 453.644098 -51.123693 
L 452.496209 -51.123693 
L 451.34832 -51.123693 
L 450.20043 -51.123693 
L 449.052541 -51.123693 
L 447.904652 -51.123693 
L 446.756763 -51.123693 
L 445.608873 -51.123693 
L 444.460984 -51.123693 
L 443.313095 -51.123693 
L 442.165206 -51.123693 
L 441.017317 -51.123693 
L 439.869427 -51.123693 
L 438.721538 -51.123693 
L 437.573649 -51.123693 
L 436.42576 -51.123693 
L 435.277871 -51.123693 
L 434.129981 -51.123693 
L 432.982092 -51.123693 
L 431.834203 -51.123693 
L 430.686314 -51.123693 
L 429.538425 -51.123693 
L 428.390535 -51.123693 
L 427.242646 -51.123693 
L 426.094757 -51.123693 
L 424.946868 -51.123693 
L 423.798979 -51.123693 
L 422.651089 -51.123693 
L 421.5032 -51.123693 
L 420.355311 -51.123693 
L 419.207422 -51.123693 
L 418.059533 -51.123693 
L 416.911643 -51.123693 
L 415.763754 -51.123693 
L 414.615865 -51.123693 
L 413.467976 -51.123693 
L 412.320087 -51.123693 
L 411.172197 -51.123693 
L 410.024308 -51.123693 
L 408.876419 -51.123693 
L 407.72853 -51.123693 
L 406.580641 -51.123693 
L 405.432751 -51.123693 
L 404.284862 -51.123693 
L 403.136973 -51.123693 
L 401.989084 -51.123693 
L 400.841195 -51.123693 
L 399.693305 -51.123693 
L 398.545416 -51.123693 
L 397.397527 -51.123693 
L 396.249638 -51.123693 
L 395.101749 -51.123693 
L 393.953859 -51.123693 
L 392.80597 -51.123693 
L 391.658081 -51.123693 
L 390.510192 -51.123693 
L 389.362303 -51.123693 
L 388.214413 -51.123693 
L 387.066524 -51.123693 
L 385.918635 -51.123693 
L 384.770746 -51.123693 
L 383.622857 -51.123693 
L 382.474967 -51.123693 
L 381.327078 -51.123693 
L 380.179189 -51.123693 
L 379.0313 -51.123693 
L 377.883411 -51.123693 
L 376.735521 -51.123693 
L 375.587632 -51.123693 
L 374.439743 -51.123693 
L 373.291854 -51.123693 
L 372.143965 -51.123693 
L 370.996075 -51.123693 
L 369.848186 -51.123693 
L 368.700297 -51.123693 
L 367.552408 -51.123693 
L 366.404519 -51.123693 
L 365.256629 -51.123693 
L 364.10874 -51.123693 
L 362.960851 -51.123693 
L 361.812962 -51.123693 
L 360.665073 -51.123693 
L 359.517183 -51.123693 
L 358.369294 -51.123693 
L 357.221405 -51.123693 
L 356.073516 -51.123693 
L 354.925627 -51.123693 
L 353.777737 -51.123693 
L 352.629848 -51.123693 
L 351.481959 -51.123693 
L 350.33407 -51.123693 
L 349.186181 -51.123693 
L 348.038291 -51.123693 
L 346.890402 -51.123693 
L 345.742513 -51.123693 
L 344.594624 -51.123693 
L 343.446735 -51.123693 
L 342.298845 -51.123693 
L 341.150956 -51.123693 
L 340.003067 -51.123693 
L 338.855178 -51.123693 
L 337.707289 -51.123693 
L 336.559399 -51.123693 
L 335.41151 -51.123693 
L 334.263621 -51.123693 
L 333.115732 -51.123693 
L 331.967843 -51.123693 
L 330.819953 -51.123693 
L 329.672064 -51.123693 
L 328.524175 -51.123693 
L 327.376286 -51.123693 
L 326.228397 -51.123693 
L 325.080507 -51.123693 
L 323.932618 -51.123693 
L 322.784729 -51.123693 
L 321.63684 -51.123693 
L 320.488951 -51.123693 
L 319.341061 -51.123693 
L 318.193172 -51.123693 
L 317.045283 -51.123693 
L 315.897394 -51.123693 
L 314.749505 -51.123693 
L 313.601615 -51.123693 
L 312.453726 -51.123693 
L 311.305837 -51.123693 
L 310.157948 -51.123693 
L 309.010059 -51.123693 
L 307.862169 -51.123693 
L 306.71428 -51.123693 
L 305.566391 -51.123693 
L 304.418502 -51.123693 
L 303.270613 -51.123693 
L 302.122723 -51.123693 
L 300.974834 -51.123693 
L 299.826945 -51.123693 
L 298.679056 -51.123693 
L 297.531167 -51.123693 
L 296.383277 -51.123693 
L 295.235388 -51.123693 
L 294.087499 -51.123693 
L 292.93961 -51.123693 
L 291.791721 -51.123693 
L 290.643831 -51.123693 
L 289.495942 -51.123693 
L 288.348053 -51.123693 
L 287.200164 -51.123693 
L 286.052275 -51.123693 
L 284.904385 -51.123693 
L 283.756496 -51.123693 
L 282.608607 -51.123693 
L 281.460718 -51.123693 
L 280.312829 -51.123693 
z
" style="stroke: #90c8ac; stroke-opacity: 0.99"/>
    </defs>
    <g clip-path="url(#p813fa9c449)">
     <use xlink:href="#m938e429cab" x="0" y="350.729687" style="fill: #90c8ac; fill-opacity: 0.99; stroke: #90c8ac; stroke-opacity: 0.99"/>
    </g>
   </g>
   <g id="patch_3">
    <path d="M 143.254858 237.080604 
L 129.549061 238.331112 
L 129.549061 237.393231 
L 65.588675 237.393231 
L 65.588675 236.767977 
L 129.549061 236.767977 
L 129.549061 235.830096 
z
" clip-path="url(#p813fa9c449)" style="stroke: #000000; stroke-linejoin: miter"/>
   </g>
   <g id="patch_4">
    <path d="M 65.588675 237.080604 
L 79.294472 235.830096 
L 79.294472 236.767977 
L 143.254858 236.767977 
L 143.254858 237.393231 
L 79.294472 237.393231 
L 79.294472 238.331112 
z
" clip-path="url(#p813fa9c449)" style="stroke: #000000; stroke-linejoin: miter"/>
   </g>
   <g id="patch_5">
    <path d="M 280.312829 237.080604 
L 266.607031 238.331112 
L 266.607031 237.393231 
L 143.254858 237.393231 
L 143.254858 236.767977 
L 266.607031 236.767977 
L 266.607031 235.830096 
z
" clip-path="url(#p813fa9c449)" style="stroke: #000000; stroke-linejoin: miter"/>
   </g>
   <g id="patch_6">
    <path d="M 143.254858 237.080604 
L 156.960655 235.830096 
L 156.960655 236.767977 
L 280.312829 236.767977 
L 280.312829 237.393231 
L 156.960655 237.393231 
L 156.960655 238.331112 
z
" clip-path="url(#p813fa9c449)" style="stroke: #000000; stroke-linejoin: miter"/>
   </g>
   <g id="patch_7">
    <path d="M 508.74278 237.080604 
L 495.036983 238.331112 
L 495.036983 237.393231 
L 280.312829 237.393231 
L 280.312829 236.767977 
L 495.036983 236.767977 
L 495.036983 235.830096 
z
" clip-path="url(#p813fa9c449)" style="stroke: #000000; stroke-linejoin: miter"/>
   </g>
   <g id="patch_8">
    <path d="M 280.312829 237.080604 
L 294.018626 235.830096 
L 294.018626 236.767977 
L 508.74278 236.767977 
L 508.74278 237.393231 
L 294.018626 237.393231 
L 294.018626 238.331112 
z
" clip-path="url(#p813fa9c449)" style="stroke: #000000; stroke-linejoin: miter"/>
   </g>
   <g id="line2d_1">
    <path d="M 65.588675 135.31528 
L 70.042485 102.05885 
L 72.26939 86.67132 
L 74.496295 72.696224 
L 76.7232 60.554657 
L 78.950105 50.628361 
L 81.17701 43.239853 
L 83.403915 38.63504 
L 85.63082 36.969631 
L 87.857725 38.300396 
L 90.08463 42.581954 
L 92.311535 49.669339 
L 94.53844 59.326153 
L 96.765345 71.237655 
L 98.99225 85.02778 
L 101.219155 100.278809 
L 105.672965 133.409494 
L 110.126776 167.232231 
L 112.353681 183.477526 
L 114.580586 198.888096 
L 116.807491 213.247355 
L 119.034396 226.401778 
L 121.261301 238.258394 
L 123.488206 248.77949 
L 125.715111 257.97526 
L 127.942016 265.895193 
L 130.168921 272.618954 
L 132.395826 278.247402 
L 134.622731 282.894274 
L 136.849636 286.678902 
L 139.076541 289.720196 
L 141.303446 292.131982 
L 143.530351 294.019658 
L 145.757256 295.478073 
L 147.984161 296.590441 
L 150.211066 297.428115 
L 152.437971 298.05099 
L 154.664877 298.508352 
L 159.118687 299.077534 
L 163.572497 299.362948 
L 170.253212 299.536422 
L 185.841547 299.603477 
L 433.028008 299.605994 
L 508.74278 299.605994 
L 508.74278 299.605994 
" clip-path="url(#p813fa9c449)" style="fill: none; stroke: #000000; stroke-linecap: round"/>
   </g>
   <g id="LineCollection_1">
    <path d="M 65.588675 299.605994 
L 65.588675 224.575526 
" clip-path="url(#p813fa9c449)" style="fill: none; stroke-dasharray: 7.4,3.2; stroke-dashoffset: 0; stroke: #ff0000; stroke-width: 2"/>
    <path d="M 143.254858 299.605994 
L 143.254858 224.575526 
" clip-path="url(#p813fa9c449)" style="fill: none; stroke-dasharray: 7.4,3.2; stroke-dashoffset: 0; stroke: #ff0000; stroke-width: 2"/>
    <path d="M 280.312829 299.605994 
L 280.312829 224.575526 
" clip-path="url(#p813fa9c449)" style="fill: none; stroke-dasharray: 7.4,3.2; stroke-dashoffset: 0; stroke: #ff0000; stroke-width: 2"/>
    <path d="M 508.74278 299.605994 
L 508.74278 224.575526 
" clip-path="url(#p813fa9c449)" style="fill: none; stroke-dasharray: 7.4,3.2; stroke-dashoffset: 0; stroke: #ff0000; stroke-width: 2"/>
   </g>
   <g id="patch_9">
    <path d="M 63.304375 312.737812 
L 63.304375 23.837812 
" style="fill: none; stroke: #262626; stroke-width: 0.8; stroke-linejoin: miter; stroke-linecap: square"/>
   </g>
   <g id="patch_10">
    <path d="M 511.027079 312.737812 
L 511.027079 23.837812 
" style="fill: none; stroke: #262626; stroke-width: 0.8; stroke-linejoin: miter; stroke-linecap: square"/>
   </g>
   <g id="patch_11">
    <path d="M 63.304375 312.737812 
L 511.027079 312.737812 
" style="fill: none; stroke: #262626; stroke-width: 0.8; stroke-linejoin: miter; stroke-linecap: square"/>
   </g>
   <g id="patch_12">
    <path d="M 63.304375 23.837812 
L 511.027079 23.837812 
" style="fill: none; stroke: #262626; stroke-width: 0.8; stroke-linejoin: miter; stroke-linecap: square"/>
   </g>
   <g id="text_19">
    <!-- 99.7% -->
    <g style="fill: #262626" transform="translate(76.723717 297.104979)scale(0.16 -0.16)">
     <defs>
      <path id="DejaVuSans-25" d="M 4653 2053 
Q 4381 2053 4226 1822 
Q 4072 1591 4072 1178 
Q 4072 772 4226 539 
Q 4381 306 4653 306 
Q 4919 306 5073 539 
Q 5228 772 5228 1178 
Q 5228 1588 5073 1820 
Q 4919 2053 4653 2053 
z
M 4653 2450 
Q 5147 2450 5437 2106 
Q 5728 1763 5728 1178 
Q 5728 594 5436 251 
Q 5144 -91 4653 -91 
Q 4153 -91 3862 251 
Q 3572 594 3572 1178 
Q 3572 1766 3864 2108 
Q 4156 2450 4653 2450 
z
M 1428 4353 
Q 1159 4353 1004 4120 
Q 850 3888 850 3481 
Q 850 3069 1003 2837 
Q 1156 2606 1428 2606 
Q 1700 2606 1854 2837 
Q 2009 3069 2009 3481 
Q 2009 3884 1853 4118 
Q 1697 4353 1428 4353 
z
M 4250 4750 
L 4750 4750 
L 1831 -91 
L 1331 -91 
L 4250 4750 
z
M 1428 4750 
Q 1922 4750 2215 4408 
Q 2509 4066 2509 3481 
Q 2509 2891 2217 2550 
Q 1925 2209 1428 2209 
Q 931 2209 642 2551 
Q 353 2894 353 3481 
Q 353 4063 643 4406 
Q 934 4750 1428 4750 
z
" transform="scale(0.015625)"/>
     </defs>
     <use xlink:href="#DejaVuSans-39"/>
     <use xlink:href="#DejaVuSans-39" x="63.623047"/>
     <use xlink:href="#DejaVuSans-2e" x="127.246094"/>
     <use xlink:href="#DejaVuSans-37" x="159.033203"/>
     <use xlink:href="#DejaVuSans-25" x="222.65625"/>
    </g>
   </g>
   <g id="text_20">
    <!-- 0.3% -->
    <g style="fill: #262626" transform="translate(196.028692 297.104979)scale(0.16 -0.16)">
     <use xlink:href="#DejaVuSans-30"/>
     <use xlink:href="#DejaVuSans-2e" x="63.623047"/>
     <use xlink:href="#DejaVuSans-33" x="95.410156"/>
     <use xlink:href="#DejaVuSans-25" x="159.033203"/>
    </g>
   </g>
   <g id="text_21">
    <!-- 0.0% -->
    <g style="fill: #262626" transform="translate(282.832074 297.104979)scale(0.16 -0.16)">
     <use xlink:href="#DejaVuSans-30"/>
     <use xlink:href="#DejaVuSans-2e" x="63.623047"/>
     <use xlink:href="#DejaVuSans-30" x="95.410156"/>
     <use xlink:href="#DejaVuSans-25" x="159.033203"/>
    </g>
   </g>
   <g id="text_22">
    <!-- 300-2000 -->
    <g style="fill: #262626" transform="translate(77.941844 219.760979)scale(0.11 -0.11)">
     <defs>
      <path id="DejaVuSans-2d" d="M 313 2009 
L 1997 2009 
L 1997 1497 
L 313 1497 
L 313 2009 
z
" transform="scale(0.015625)"/>
     </defs>
     <use xlink:href="#DejaVuSans-33"/>
     <use xlink:href="#DejaVuSans-30" x="63.623047"/>
     <use xlink:href="#DejaVuSans-30" x="127.246094"/>
     <use xlink:href="#DejaVuSans-2d" x="190.869141"/>
     <use xlink:href="#DejaVuSans-32" x="226.953125"/>
     <use xlink:href="#DejaVuSans-30" x="290.576172"/>
     <use xlink:href="#DejaVuSans-30" x="354.199219"/>
     <use xlink:href="#DejaVuSans-30" x="417.822266"/>
    </g>
    <!-- animal units -->
    <g style="fill: #262626" transform="translate(70.513407 232.078573)scale(0.11 -0.11)">
     <defs>
      <path id="DejaVuSans-75" d="M 544 1381 
L 544 3500 
L 1119 3500 
L 1119 1403 
Q 1119 906 1312 657 
Q 1506 409 1894 409 
Q 2359 409 2629 706 
Q 2900 1003 2900 1516 
L 2900 3500 
L 3475 3500 
L 3475 0 
L 2900 0 
L 2900 538 
Q 2691 219 2414 64 
Q 2138 -91 1772 -91 
Q 1169 -91 856 284 
Q 544 659 544 1381 
z
M 1991 3584 
L 1991 3584 
z
" transform="scale(0.015625)"/>
     </defs>
     <use xlink:href="#DejaVuSans-61"/>
     <use xlink:href="#DejaVuSans-6e" x="61.279297"/>
     <use xlink:href="#DejaVuSans-69" x="124.658203"/>
     <use xlink:href="#DejaVuSans-6d" x="152.441406"/>
     <use xlink:href="#DejaVuSans-61" x="249.853516"/>
     <use xlink:href="#DejaVuSans-6c" x="311.132812"/>
     <use xlink:href="#DejaVuSans-20" x="338.916016"/>
     <use xlink:href="#DejaVuSans-75" x="370.703125"/>
     <use xlink:href="#DejaVuSans-6e" x="434.082031"/>
     <use xlink:href="#DejaVuSans-69" x="497.460938"/>
     <use xlink:href="#DejaVuSans-74" x="525.244141"/>
     <use xlink:href="#DejaVuSans-73" x="564.453125"/>
    </g>
   </g>
   <g id="text_23">
    <!-- 2000-5000 -->
    <g style="fill: #262626" transform="translate(181.804546 219.760979)scale(0.11 -0.11)">
     <use xlink:href="#DejaVuSans-32"/>
     <use xlink:href="#DejaVuSans-30" x="63.623047"/>
     <use xlink:href="#DejaVuSans-30" x="127.246094"/>
     <use xlink:href="#DejaVuSans-30" x="190.869141"/>
     <use xlink:href="#DejaVuSans-2d" x="254.492188"/>
     <use xlink:href="#DejaVuSans-35" x="290.576172"/>
     <use xlink:href="#DejaVuSans-30" x="354.199219"/>
     <use xlink:href="#DejaVuSans-30" x="417.822266"/>
     <use xlink:href="#DejaVuSans-30" x="481.445312"/>
    </g>
    <!-- animal units -->
    <g style="fill: #262626" transform="translate(177.875484 232.078573)scale(0.11 -0.11)">
     <use xlink:href="#DejaVuSans-61"/>
     <use xlink:href="#DejaVuSans-6e" x="61.279297"/>
     <use xlink:href="#DejaVuSans-69" x="124.658203"/>
     <use xlink:href="#DejaVuSans-6d" x="152.441406"/>
     <use xlink:href="#DejaVuSans-61" x="249.853516"/>
     <use xlink:href="#DejaVuSans-6c" x="311.132812"/>
     <use xlink:href="#DejaVuSans-20" x="338.916016"/>
     <use xlink:href="#DejaVuSans-75" x="370.703125"/>
     <use xlink:href="#DejaVuSans-6e" x="434.082031"/>
     <use xlink:href="#DejaVuSans-69" x="497.460938"/>
     <use xlink:href="#DejaVuSans-74" x="525.244141"/>
     <use xlink:href="#DejaVuSans-73" x="564.453125"/>
    </g>
   </g>
   <g id="text_24">
    <!-- 5000-10000 -->
    <g style="fill: #262626" transform="translate(361.049132 219.760979)scale(0.11 -0.11)">
     <use xlink:href="#DejaVuSans-35"/>
     <use xlink:href="#DejaVuSans-30" x="63.623047"/>
     <use xlink:href="#DejaVuSans-30" x="127.246094"/>
     <use xlink:href="#DejaVuSans-30" x="190.869141"/>
     <use xlink:href="#DejaVuSans-2d" x="254.492188"/>
     <use xlink:href="#DejaVuSans-31" x="290.576172"/>
     <use xlink:href="#DejaVuSans-30" x="354.199219"/>
     <use xlink:href="#DejaVuSans-30" x="417.822266"/>
     <use xlink:href="#DejaVuSans-30" x="481.445312"/>
     <use xlink:href="#DejaVuSans-30" x="545.068359"/>
    </g>
    <!-- animal units -->
    <g style="fill: #262626" transform="translate(360.619445 232.078573)scale(0.11 -0.11)">
     <use xlink:href="#DejaVuSans-61"/>
     <use xlink:href="#DejaVuSans-6e" x="61.279297"/>
     <use xlink:href="#DejaVuSans-69" x="124.658203"/>
     <use xlink:href="#DejaVuSans-6d" x="152.441406"/>
     <use xlink:href="#DejaVuSans-61" x="249.853516"/>
     <use xlink:href="#DejaVuSans-6c" x="311.132812"/>
     <use xlink:href="#DejaVuSans-20" x="338.916016"/>
     <use xlink:href="#DejaVuSans-75" x="370.703125"/>
     <use xlink:href="#DejaVuSans-6e" x="434.082031"/>
     <use xlink:href="#DejaVuSans-69" x="497.460938"/>
     <use xlink:href="#DejaVuSans-74" x="525.244141"/>
     <use xlink:href="#DejaVuSans-73" x="564.453125"/>
    </g>
   </g>
   <g id="text_25">
    <!-- Scenario 1 -->
    <g style="fill: #262626" transform="translate(250.055883 17.837812)scale(0.14 -0.14)">
     <defs>
      <path id="DejaVuSans-53" d="M 3425 4513 
L 3425 3897 
Q 3066 4069 2747 4153 
Q 2428 4238 2131 4238 
Q 1616 4238 1336 4038 
Q 1056 3838 1056 3469 
Q 1056 3159 1242 3001 
Q 1428 2844 1947 2747 
L 2328 2669 
Q 3034 2534 3370 2195 
Q 3706 1856 3706 1288 
Q 3706 609 3251 259 
Q 2797 -91 1919 -91 
Q 1588 -91 1214 -16 
Q 841 59 441 206 
L 441 856 
Q 825 641 1194 531 
Q 1563 422 1919 422 
Q 2459 422 2753 634 
Q 3047 847 3047 1241 
Q 3047 1584 2836 1778 
Q 2625 1972 2144 2069 
L 1759 2144 
Q 1053 2284 737 2584 
Q 422 2884 422 3419 
Q 422 4038 858 4394 
Q 1294 4750 2059 4750 
Q 2388 4750 2728 4690 
Q 3069 4631 3425 4513 
z
" transform="scale(0.015625)"/>
      <path id="DejaVuSans-63" d="M 3122 3366 
L 3122 2828 
Q 2878 2963 2633 3030 
Q 2388 3097 2138 3097 
Q 1578 3097 1268 2742 
Q 959 2388 959 1747 
Q 959 1106 1268 751 
Q 1578 397 2138 397 
Q 2388 397 2633 464 
Q 2878 531 3122 666 
L 3122 134 
Q 2881 22 2623 -34 
Q 2366 -91 2075 -91 
Q 1284 -91 818 406 
Q 353 903 353 1747 
Q 353 2603 823 3093 
Q 1294 3584 2113 3584 
Q 2378 3584 2631 3529 
Q 2884 3475 3122 3366 
z
" transform="scale(0.015625)"/>
      <path id="DejaVuSans-72" d="M 2631 2963 
Q 2534 3019 2420 3045 
Q 2306 3072 2169 3072 
Q 1681 3072 1420 2755 
Q 1159 2438 1159 1844 
L 1159 0 
L 581 0 
L 581 3500 
L 1159 3500 
L 1159 2956 
Q 1341 3275 1631 3429 
Q 1922 3584 2338 3584 
Q 2397 3584 2469 3576 
Q 2541 3569 2628 3553 
L 2631 2963 
z
" transform="scale(0.015625)"/>
      <path id="DejaVuSans-6f" d="M 1959 3097 
Q 1497 3097 1228 2736 
Q 959 2375 959 1747 
Q 959 1119 1226 758 
Q 1494 397 1959 397 
Q 2419 397 2687 759 
Q 2956 1122 2956 1747 
Q 2956 2369 2687 2733 
Q 2419 3097 1959 3097 
z
M 1959 3584 
Q 2709 3584 3137 3096 
Q 3566 2609 3566 1747 
Q 3566 888 3137 398 
Q 2709 -91 1959 -91 
Q 1206 -91 779 398 
Q 353 888 353 1747 
Q 353 2609 779 3096 
Q 1206 3584 1959 3584 
z
" transform="scale(0.015625)"/>
     </defs>
     <use xlink:href="#DejaVuSans-53"/>
     <use xlink:href="#DejaVuSans-63" x="63.476562"/>
     <use xlink:href="#DejaVuSans-65" x="118.457031"/>
     <use xlink:href="#DejaVuSans-6e" x="179.980469"/>
     <use xlink:href="#DejaVuSans-61" x="243.359375"/>
     <use xlink:href="#DejaVuSans-72" x="304.638672"/>
     <use xlink:href="#DejaVuSans-69" x="345.751953"/>
     <use xlink:href="#DejaVuSans-6f" x="373.535156"/>
     <use xlink:href="#DejaVuSans-20" x="434.716797"/>
     <use xlink:href="#DejaVuSans-31" x="466.503906"/>
    </g>
   </g>
  </g>
 </g>
 <defs>
  <clipPath id="p813fa9c449">
   <rect x="63.304375" y="23.837812" width="447.722704" height="288.9"/>
  </clipPath>
 </defs>
</svg>
