<?xml version="1.0" encoding="UTF-8" standalone="no"?>
<svg
   version="1.1"
   id="Layer_1"
   x="0px"
   y="0px"
   viewBox="0 0 122.88 97.04"
   style="enable-background:new 0 0 122.88 97.04"
   xml:space="preserve"
   sodipodi:docname="cow-animal.svg"
   inkscape:version="1.1.1 (3bf5ae0d25, 2021-09-20)"
   xmlns:inkscape="http://www.inkscape.org/namespaces/inkscape"
   xmlns:sodipodi="http://sodipodi.sourceforge.net/DTD/sodipodi-0.dtd"
   xmlns="http://www.w3.org/2000/svg"
   xmlns:svg="http://www.w3.org/2000/svg"><defs
     id="defs11" /><sodipodi:namedview
     id="namedview9"
     pagecolor="#ffffff"
     bordercolor="#666666"
     borderopacity="1.0"
     inkscape:pageshadow="2"
     inkscape:pageopacity="0.0"
     inkscape:pagecheckerboard="0"
     showgrid="false"
     inkscape:zoom="6.4921681"
     inkscape:cx="61.458667"
     inkscape:cy="48.288953"
     inkscape:window-width="1876"
     inkscape:window-height="1051"
     inkscape:window-x="44"
     inkscape:window-y="0"
     inkscape:window-maximized="1"
     inkscape:current-layer="Layer_1" /><style
     type="text/css"
     id="style2">.st0{fill-rule:evenodd;clip-rule:evenodd;}</style><g
     id="g6"><path
       class="st0"
       d="M115.23,35.52L115.23,35.52L115.23,35.52L115.23,35.52z M56.9,80.17c-0.01,0.24-0.13,0.48-0.33,0.64 L56.9,80.17L56.9,80.17z M30.85,10.84c3.44-0.76,5.31-3.18,7.36-5.39c0.53-0.38,0.94-0.33,1.26,0.06c2.35,2.84-2.99,7.63-5.24,9.23 l3.95,0.02c2.01-0.02,4.31-0.29,6.2,0.44c0.52,0.2,0.84,0.61,1.23,0.98c-0.23,0.37-0.46,0.73-0.7,1.07 c5.16,1.41,14.73,1.62,24.97,0.84c10.09-0.77,20.79-2.5,28.51-5.01c0.62-0.36,1.32-0.64,2.13-0.78c0.84-0.14,1.78-0.12,2.84,0.14 l0.17,0.04l0,0v0c4.16,1.05,7.35,2.85,9.65,5.19c0.11,0.01,0.23,0.04,0.34,0.09c4.67,2.37,7.43,6,8.64,10.35 c1.31,4.74,0.76,10.31-1.18,16.03c-0.44,1.31-0.7,2.26-0.86,3.17c-0.16,0.92-0.23,1.82-0.29,2.99c0,0.06-0.01,0.11-0.02,0.16 c1.18,0.93,1.67,3.45,1.25,6.77c-0.32,1.58-1.01,2.93-1.97,3.7c-1.58-0.35-2-3.22-2.15-4.58c-0.26-2.4-0.19-4.56,1.21-5.71 c-0.07-0.13-0.1-0.28-0.09-0.44c0.07-1.25,0.14-2.21,0.31-3.2c0.17-1.01,0.45-2.04,0.93-3.44c1.84-5.39,2.37-10.61,1.15-14.98 c-0.77-2.76-2.24-5.2-4.53-7.14c2.09,4.06,2.37,9,1.09,14.21l-0.03,0.14l-1.44,10.46c-0.05,0.33-0.09,0.66-0.14,0.99 c-0.7,4.96-1.22,8.72,0.88,13.55c0.21,0.49,0.44,0.94,0.67,1.36c0.24,0.41,0.48,0.8,0.75,1.14c0.04,0.05,0.08,0.11,0.1,0.17 c0.87,1.67,1.27,3.52,1.2,5.42c-0.07,1.86-0.57,3.76-1.52,5.61c-0.65,4.18-0.57,7.6-0.48,11.42c0.03,1.47,0.07,3,0.07,4.42 c0,0.49-0.4,0.89-0.89,0.89c-0.08,0-0.16-0.01-0.23-0.03l-0.11-0.02c-0.03,0.61-0.08,1.2-0.17,1.78c-0.13,0.93-0.35,1.83-0.68,2.69 c-0.11,0.29-0.36,0.49-0.65,0.55l0,0c-1.45,0.3-2.83,0.54-4.1,0.68c-1.29,0.14-2.49,0.18-3.53,0.08c-0.49-0.05-0.85-0.48-0.8-0.97 c0.01-0.13,0.05-0.25,0.11-0.36c0.39-0.76,0.83-1.47,1.32-2.13c0.45-0.62,0.95-1.2,1.48-1.76c0.53-1.91,0.94-3.83,1.25-5.76 c0.33-2,0.57-4.02,0.74-6.07l0-0.02c0.07-1,0.1-1.92,0.1-2.77c-0.01-0.85-0.06-1.67-0.15-2.44c-0.15-1.35-0.36-2.29-0.68-3.17 c-0.33-0.89-0.79-1.73-1.46-2.86l-0.68-1.16l-5.68,16.43c-0.24,0.71-0.45,1.3-0.61,1.95c-0.15,0.6-0.26,1.21-0.3,1.95 c-0.03,0.4,0.1,1.11,0.22,1.75c0.07,0.41,0.14,0.79,0.18,1.08c0.06,0.49-0.29,0.93-0.78,0.98c-0.36,0.04-0.69-0.14-0.87-0.43 l-0.16-0.26c-0.22-0.34-0.56-0.88-0.9-1.31c-0.02,0.72-0.08,1.37-0.17,1.94c-0.13,0.75-0.33,1.38-0.61,1.86 c-0.22,0.38-0.53,0.86-0.97,1.21c-0.52,0.42-1.14,0.64-1.89,0.37l-5.88,0.26c-0.06,0-0.12,0-0.18-0.01v0 c-0.48-0.08-0.86-0.21-1.14-0.4c-0.43-0.28-0.67-0.65-0.71-1.12c-0.03-0.38,0.09-0.77,0.35-1.19c0.2-0.3,0.48-0.63,0.86-0.98 l4.53-4.6l5.35-14.35c0.17-0.46,0.68-0.69,1.14-0.52c0.46,0.17,0.69,0.68,0.52,1.14l-5.4,14.49c-0.04,0.13-0.11,0.25-0.21,0.35 l-0.45,0.46h3.19c0.03-0.1,0.06-0.18,0.09-0.26c0.11-0.25,0.23-0.39,0.37-0.54c0.55-0.59,1.16-0.51,1.75-0.06 c0.06-0.86,0.18-1.57,0.35-2.25c0.16-0.64,0.39-1.31,0.66-2.09l6.19-17.91c-0.55-0.94-1.22-1.99-1.98-3.07 c-1.09,1.32-2.23,2.36-3.38,3.14l-0.04,0.03l1.91,2.2c0.43,0.5,0.38,1.25-0.12,1.68c-0.5,0.43-1.25,0.38-1.68-0.12l-2.05-2.36 c-0.07-0.08-0.13-0.17-0.18-0.27c-0.73,0.3-1.47,0.51-2.2,0.63l-0.1,3.76c-0.02,0.66-0.56,1.17-1.21,1.16 c-0.66-0.02-1.17-0.56-1.16-1.21l0.09-3.59c-0.08-0.01-0.15-0.01-0.23-0.02c-0.81-0.08-1.6-0.25-2.38-0.51l-2.37,2.73 c-0.43,0.5-1.18,0.55-1.68,0.12c-0.5-0.43-0.55-1.18-0.12-1.68l1.9-2.19c-0.62-0.35-1.23-0.76-1.81-1.22 c-1.36-1.06-2.61-2.39-3.71-3.91c-2.84,1.28-5.5,2.02-8.32,2.19c-3,0.19-6.15-0.27-9.89-1.41l-4.33-0.09 c-0.13,1.99-0.49,3.8-1.04,5.46c-0.26,1.1-0.37,2.15-0.33,3.16c0.04,1,0.24,1.96,0.57,2.89l0,0c0.01,0.04,0.02,0.07,0.03,0.11 c0.24,1.1,0.31,2.17,0.17,3.22c-0.13,0.96-0.44,1.9-0.96,2.79l1.15,7.82l0.05,0.31c0.33,2.23,0.68,4.57-0.49,6.81 c-0.23,0.45-0.52,0.82-0.87,1.1c-0.02,0.02-0.04,0.03-0.06,0.05c-0.38,0.29-0.81,0.47-1.3,0.53c-0.06,0.01-0.12,0.02-0.18,0.02 h-6.26v0c-0.22,0-0.44-0.08-0.61-0.24c-0.35-0.34-0.37-0.9-0.03-1.25l3.43-3.6l0.08-10.16c-0.76-1-1.41-2.19-1.92-3.59 c-0.53-1.46-0.91-3.16-1.12-5.13l-0.78-2.46l-1.07,8.72l-0.75,11.16c0,0.49-0.4,0.88-0.89,0.88h-0.23v2.77h0v0 c0,0.49-0.4,0.88-0.89,0.88l-9.16-0.04v0c-0.21,0-0.43-0.08-0.59-0.23c-0.36-0.33-0.39-0.89-0.06-1.25l3.76-4.12 c0.03-0.04,0.07-0.08,0.11-0.11l1.18-1.02c0.56-0.49,0.94-0.94,1.22-1.45c0.29-0.52,0.49-1.14,0.69-1.92 c0.09-0.36,0.15-0.62,0.21-0.9l0.03-0.15l0.18-0.79c0.57-2.52,0.36-3.17-0.17-4.81c-0.17-0.52-0.37-1.13-0.58-1.91 c-0.54-1.96-0.99-4.04-1.39-6.27c-0.36-2-0.68-4.19-1-6.58c-1.57-0.11-3.05-0.44-4.4-1c-3.17-1.32-5.59-3.89-6.75-7.92 c-0.01-0.03-0.01-0.05-0.02-0.08l-4.02-15.42c-0.32,0.19-0.64,0.34-0.97,0.44c-0.59,0.18-1.19,0.24-1.8,0.18 c-0.14,0.18-0.29,0.34-0.45,0.5c-0.28,0.29-0.59,0.56-0.9,0.81c-0.16,0.12-0.33,0.24-0.51,0.36c-0.17,0.11-0.35,0.22-0.54,0.32 c-0.53,0.29-1.09,0.53-1.66,0.69c-0.59,0.16-1.2,0.25-1.84,0.24c-0.4-0.01-0.8-0.06-1.2-0.15c-0.39-0.09-0.78-0.22-1.17-0.38 c-0.09-0.04-0.18-0.1-0.25-0.16c-2.29,0.96-3.72,0.26-4.87-1.22H9.09c-1.01,0.47-1.83,0.45-2.47-0.08 c-1.39-1.16-1.49-3.84-1.2-5.51c0.12-0.71,0.33-1.29,0.63-1.7c0.03-0.18,0.13-0.35,0.29-0.47c0.26-0.2,0.61-0.64,0.94-1.06 c0.27-0.35,0.53-0.68,0.79-0.92c1.15-1.09,1.19-1.5,1.37-3.12l0.01-0.05c0.1-0.93,0.14-1.91,0.14-2.9c0-0.83-0.03-1.7-0.07-2.57 c-0.07-0.05-0.15-0.11-0.22-0.16c-0.43-0.01-0.9-0.08-1.41-0.24c-2.09-0.66-4.96-2.83-6.56-4.83c-1.15-1.44-2.23-2.52-0.16-3.88 c3.35-0.7,6.49-0.55,9.38,0.62c0.04-0.25,0.09-0.49,0.14-0.73c-0.37-0.18-0.75-0.4-1.01-0.58c-1.16-0.84-1.84-1.88-2.35-3.19 c-0.69-1.79-1.74-5.97-0.46-7.6c0.31-0.4,0.73-0.44,1.26-0.06c0.74,1.11,1.56,2.7,2.15,4.19c0.51,0.95,1.11,1.71,1.83,2.18 c0.37,0.24,1.03,0.47,1.67,0.6c0.12-0.06,0.24-0.13,0.36-0.18c1.13-0.53,2.44-0.71,3.84-0.55c1.22,0.14,2.52,0.53,3.84,1.15 c1.31-0.55,2.67-0.72,4.08-0.36c1.51,0.38,3.05,1.36,4.61,3.14l0,0l0.02,0.02C30.64,10.58,30.74,10.71,30.85,10.84L30.85,10.84z M13.21,35.86c0.38-0.96,1.75-1.65,2.61-0.92c0.32,0.56,0.22,1.18-0.04,1.74c-0.1,0.39-0.25,0.73-0.47,0.99 c-0.66,0.78-2.23,0.96-2.65-0.23C12.45,36.86,12.66,36.13,13.21,35.86L13.21,35.86z M7.88,33.8c0.75,0.56,1.84,1.86,1.49,2.88 c-0.11,0.32-0.36,0.51-0.69,0.61c-0.49,0.25-0.85,0.08-1.13-0.34c-0.37-0.56-0.35-1.02-0.29-1.68C7.33,34.51,7.53,33.73,7.88,33.8 L7.88,33.8z M17.36,39.36c0.24,0.05,0.49,0.08,0.73,0.08c0.45,0.01,0.9-0.05,1.33-0.17c0.45-0.12,0.88-0.31,1.29-0.54 c0.14-0.08,0.28-0.16,0.42-0.25c0.13-0.09,0.27-0.18,0.4-0.28c0.25-0.19,0.48-0.4,0.7-0.63c0.21-0.22,0.41-0.45,0.59-0.7 c0.19-0.3,0.55-0.47,0.92-0.4c0.53,0.1,1.03,0.1,1.5-0.05c0.47-0.15,0.92-0.44,1.35-0.92l0,0c0.11-0.12,0.26-0.22,0.43-0.26 c0.47-0.12,0.96,0.16,1.08,0.64l4.37,16.77l0.01,0.04c0.99,3.46,3.04,5.65,5.72,6.76c2.82,1.17,6.36,1.18,10.14,0.23 c-0.21-1.04-0.34-2.1-0.42-3.18c-0.09-1.34-0.1-2.73-0.06-4.18c0.01-0.49,0.41-0.88,0.9-0.87c0.49,0.01,0.88,0.41,0.87,0.9 c-0.03,1.38-0.03,2.72,0.06,4.03c0.08,1.2,0.24,2.36,0.51,3.5c0.03,0.05,0.05,0.1,0.07,0.16l3.54,11.22 c0.02,0.07,0.04,0.15,0.04,0.22c0.19,1.84,0.54,3.41,1.03,4.75c0.48,1.32,1.1,2.42,1.83,3.33c0.14,0.18,0.21,0.4,0.19,0.61 l-0.09,10.78c0,0.11-0.02,0.22-0.06,0.31h3.14c0.14-1.24-0.06-2.56-0.25-3.83l-0.05-0.31L58.4,79c-0.03-0.24,0.03-0.46,0.15-0.64 c0.47-0.75,0.74-1.53,0.85-2.33c0.11-0.82,0.06-1.66-0.13-2.54c-0.39-1.08-0.61-2.2-0.66-3.37c-0.05-1.18,0.08-2.4,0.38-3.67 c0.01-0.04,0.02-0.07,0.03-0.11c0.52-1.59,0.87-3.34,0.97-5.3c0.11-1.99-0.03-4.18-0.48-6.62c-0.09-0.48,0.23-0.94,0.72-1.03 c0.48-0.09,0.94,0.23,1.03,0.72c0.36,2,0.53,3.84,0.54,5.55l4.44,0.1c0.08,0,0.17,0.02,0.24,0.04l0,0c3.57,1.1,6.56,1.55,9.38,1.37 c2.8-0.17,5.45-0.97,8.35-2.34c0.4-0.19,0.87-0.05,1.11,0.31l0,0c1.11,1.64,2.38,3.04,3.77,4.13c1.72,1.35,3.61,2.2,5.53,2.39 c1.9,0.18,3.88-0.29,5.8-1.59c1.12-0.76,2.23-1.8,3.3-3.15c-1.11-1.48-2.34-2.99-3.62-4.36c-2.33-2.5-4.75-4.53-6.67-5.09 c-0.47-0.13-0.75-0.63-0.61-1.1c0.13-0.47,0.63-0.75,1.1-0.61c2.27,0.65,4.96,2.87,7.48,5.59c3.18,3.42,6.14,7.67,7.6,10.49 l1.15,1.95c0.72,1.22,1.22,2.14,1.59,3.15c0.37,1.02,0.61,2.09,0.78,3.58c0.09,0.81,0.15,1.68,0.16,2.63 c0.01,0.93-0.02,1.9-0.1,2.92l0,0.04c-0.18,2.07-0.42,4.14-0.76,6.21c-0.32,1.97-0.74,3.92-1.27,5.86h3.42 c0.07-0.65,0.1-1.31,0.11-1.98c0-0.07,0-0.14,0.01-0.2c0.09-0.48,0.55-0.8,1.04-0.71l0.13,0.03c-0.01-1.23-0.03-2.29-0.06-3.32 c-0.09-3.94-0.17-7.45,0.52-11.83c0.01-0.11,0.04-0.22,0.1-0.32c0.87-1.65,1.33-3.34,1.39-4.97c0.06-1.59-0.27-3.12-0.98-4.51 c-0.3-0.4-0.58-0.83-0.84-1.29c-0.27-0.48-0.52-0.99-0.76-1.53c-2.31-5.3-1.75-9.27-1.01-14.51c0.05-0.32,0.09-0.65,0.14-0.99 l1.45-10.51c0-0.03,0.01-0.06,0.02-0.09l0.05-0.18c1.19-4.86,0.93-9.43-1.02-13.12c-1.94-3.67-5.58-6.5-11.16-7.91l0,0l-0.17-0.04 c-0.81-0.2-1.51-0.22-2.13-0.12c-0.59,0.1-1.11,0.31-1.56,0.58c-0.06,0.04-0.14,0.08-0.21,0.1c-7.87,2.57-18.77,4.34-29.02,5.12 c-10.58,0.81-20.53,0.55-25.83-0.98c-0.13-0.04-0.25-0.1-0.35-0.19c-0.21,0.25-0.42,0.51-0.65,0.77c-0.3,0.33-0.61,0.66-0.93,0.99 c-2.34,2.37-4.27,3.8-7.55,4.08l-2.33,2.6l-1.1-1.06l2.77-2.9c0.78,0.01,1.57-0.13,2.37-0.4c1.54-0.52,3.28-1.7,4.52-2.75 c0.23-0.19,0.45-0.39,0.66-0.59c0.98-0.93,1.75-1.9,2.4-2.91c-3.83-0.42-7.42,0.38-10.88,1.83c-0.02,0.1-0.04,0.21-0.06,0.31 c-0.09,0.48-0.56,0.8-1.05,0.7c-0.48-0.09-0.8-0.56-0.7-1.05c0.21-1.09,0.17-2.18-0.17-3.28c-0.34-1.13-0.99-2.28-1.96-3.45l0,0 c-1.31-1.48-2.54-2.29-3.7-2.59c-1.12-0.28-2.21-0.09-3.28,0.42c-0.26,0.12-0.55,0.11-0.79-0.01c-1.25-0.64-2.47-1.03-3.61-1.16 c-1.07-0.12-2.06,0-2.88,0.39c-0.8,0.38-1.47,1.02-1.94,1.94c-0.36,0.7-0.6,1.56-0.72,2.6c-0.04,0.41-0.36,0.72-0.74,0.78 l-1.16,1.83c-2.09-2.98-5.81-2.92-9.04-2.61c1.53,2.95,4.69,5.53,8.15,6.4c0.74-0.53,1.53-0.41,2.3,0.07 c0.44,0.27,0.75,0.68,0.92,1.25l-0.27,1.4c-0.48-0.1-0.94-0.27-1.37-0.48c0.02,0.55,0.03,1.1,0.03,1.65c0,1.06-0.03,2.09-0.14,3.07 l-0.01,0.05c-0.23,2.05-0.29,2.57-1.83,4.03C8.93,30.8,8.69,31.1,8.45,31.4l-0.09,0.11c0.99,0.24,1.86,0.66,2.68,1.15 c1.74-0.21,3.39-0.31,4.84-0.18C20.16,32.89,19.09,37.39,17.36,39.36L17.36,39.36z M43.59,88.48h3.27 c0.16-0.16,0.38-0.26,0.62-0.26h0.29l0.7-10.43c0-0.02,0-0.03,0-0.05l0,0l1.54-12.6l-1.19-3.76c-1.76,0.45-3.48,0.7-5.12,0.75 c0.3,2.21,0.61,4.27,0.96,6.23c0.39,2.21,0.83,4.23,1.35,6.1c0.21,0.74,0.4,1.34,0.56,1.84c0.63,1.97,0.89,2.76,0.21,5.75 l-0.18,0.79l-0.03,0.15c-0.09,0.38-0.17,0.73-0.22,0.95c-0.23,0.91-0.48,1.65-0.85,2.33c-0.38,0.7-0.88,1.3-1.62,1.94L43.59,88.48 L43.59,88.48z M28.27,21.43L27.5,21.4c-0.31,1.32-1.55,2.04-4.35,1.91c-0.09-0.37-0.1-0.69-0.05-0.99c0.14-0.88,0.8-1.75,1.71-1.95 c0.69-0.15,3.09,0.16,3.59,0.52C28.52,20.98,28.13,21.37,28.27,21.43L28.27,21.43z"
       id="path4" /></g><path
     style="fill:#d38d5f;stroke:none;stroke-width:0.154032"
     d="m 110.73549,91.841429 c 0.23059,-0.73612 0.8887,-3.902637 1.16345,-5.598011 0.99083,-6.114005 1.06467,-11.24809 0.20692,-14.387608 -0.45881,-1.679336 -0.85737,-2.44802 -4.07316,-7.855619 -1.80278,-3.031525 -4.53145,-6.575608 -7.21659,-9.373144 -2.386342,-2.486227 -4.699847,-4.191645 -6.534046,-4.816619 -0.650066,-0.2215 -0.74755,-0.221575 -1.084424,-9.25e-4 -0.872391,0.571612 -0.548003,1.463739 0.705035,1.938977 1.899273,0.720335 5.62884,4.050676 8.348005,7.4544 l 1.3358,1.672099 -0.44768,0.565254 c -1.47772,1.865772 -3.87264,3.466218 -5.903308,3.94499 -2.435039,0.574109 -5.143917,-0.08025 -7.586299,-1.832548 -1.086238,-0.779327 -2.736342,-2.441673 -3.72231,-3.749926 -0.627016,-0.83197 -0.934135,-1.11673 -1.204414,-1.11673 -0.199533,0 -0.928655,0.242201 -1.62027,0.538224 -1.488367,0.637047 -3.839869,1.373846 -5.239151,1.641587 -0.550663,0.105365 -2.04092,0.190554 -3.311682,0.189308 -2.484178,-0.0024 -3.777942,-0.190539 -6.808168,-0.989868 -1.504239,-0.396718 -1.992356,-0.454984 -3.812286,-0.454984 h -2.087165 v -0.910059 c 0,-1.14124 -0.444461,-4.621401 -0.635988,-4.979836 -0.1711,-0.320207 -0.758845,-0.492341 -1.20144,-0.351867 -0.568943,0.180576 -0.639002,0.558453 -0.405031,2.184589 0.54146,3.763227 0.432952,6.541588 -0.378372,9.688214 -0.818621,3.174934 -0.865553,5.417433 -0.165764,7.920657 0.508043,1.81733 0.3795,3.263424 -0.438416,4.932112 l -0.339748,0.693143 0.713519,4.774984 c 0.392435,2.626241 0.754147,5.416141 0.803803,6.199778 l 0.09029,1.424794 h -1.485933 -1.485932 l -6.16e-4,-5.737683 -6.17e-4,-5.737683 -0.469884,-0.693143 c -1.202056,-1.773198 -1.976032,-3.877273 -2.356638,-6.406593 -0.155589,-1.033964 -0.826661,-3.41343 -2.081143,-7.379248 -1.018329,-3.219263 -1.927396,-6.303749 -2.02015,-6.854413 -0.09275,-0.550663 -0.209732,-2.214206 -0.259954,-3.696762 -0.05022,-1.482555 -0.153861,-2.816855 -0.230309,-2.965111 -0.20277,-0.393227 -1.294375,-0.372697 -1.509026,0.02838 -0.220987,0.412921 -0.186948,5.030069 0.04862,6.594561 0.22124,1.469341 0.391729,1.299012 -1.653039,1.651498 -1.775893,0.306135 -4.557968,0.302568 -6.070572,-0.0078 -1.45625,-0.298789 -3.378802,-1.186218 -4.464057,-2.060559 -0.952406,-0.767313 -2.001128,-2.181193 -2.644619,-3.56546 -0.277713,-0.597413 -1.362212,-4.456224 -2.756986,-9.809787 -1.454266,-5.581906 -2.399428,-8.93575 -2.571947,-9.126381 -0.387775,-0.428486 -0.90219,-0.373612 -1.511324,0.161214 -0.786303,0.690384 -1.567637,0.969556 -2.374788,0.848516 -0.674115,-0.101089 -0.689324,-0.09317 -1.707023,0.88934 -1.136437,1.097137 -2.255474,1.739127 -3.414595,1.958951 -1.190948,0.225858 -1.295803,0.114171 -0.772829,-0.823181 1.329282,-2.382536 1.019124,-4.812089 -0.723892,-5.670419 -0.689795,-0.339683 -0.90943,-0.361825 -3.66043,-0.369012 -2.79933,-0.0073 -2.963446,-0.02464 -3.773778,-0.398346 -0.4659461,-0.214885 -0.9744927,-0.43685 -1.1301035,-0.493255 -0.2432228,-0.08816 -0.1524479,-0.244952 0.6468236,-1.117215 0.6001239,-0.654931 1.0120019,-1.26918 1.1617449,-1.73256 0.299758,-0.927875 0.553703,-3.310187 0.553703,-5.195234 0,-1.352136 0.02426,-1.476468 0.269555,-1.38157 0.148256,0.05736 0.450024,0.140721 0.670597,0.185256 0.365236,0.07375 0.409778,0.02809 0.498907,-0.51139 0.172698,-1.045292 0.115457,-1.302115 -0.406573,-1.824144 C 11.545812,19.293609 10.805448,19.084489 9.8876574,19.294509 9.2887738,19.431553 9.0559013,19.404802 8.261468,19.107704 5.9781437,18.253798 3.6239648,16.428161 2.2069613,14.41251 L 1.4415601,13.323746 2.1070658,13.21964 c 1.8878261,-0.295317 4.4392775,0.02397 5.8975387,0.738008 0.4913377,0.240585 1.2248239,0.775945 1.6299692,1.18969 l 0.7366283,0.752263 0.590589,-0.902848 c 0.324825,-0.496566 0.632746,-0.922676 0.684271,-0.946911 0.417892,-0.196557 0.617093,-0.568567 0.811601,-1.515677 0.607778,-2.9594262 2.293839,-4.3646511 5.010469,-4.1759079 1.080326,0.075058 1.631079,0.2245798 3.57955,0.9717986 0.702346,0.2693429 0.737372,0.2678884 1.906445,-0.079171 0.861291,-0.2556889 1.38461,-0.3270118 1.890558,-0.2576638 2.178016,0.2985304 4.824263,2.7376411 6.013499,5.5427921 0.348673,0.822441 0.400926,1.164548 0.405272,2.653354 0.0058,1.990209 0.128433,2.260387 0.993012,2.187914 0.446524,-0.03743 0.596543,-0.139205 0.783342,-0.53143 0.205321,-0.431115 0.419707,-0.549083 1.925397,-1.059476 0.931892,-0.315889 2.318177,-0.704349 3.080635,-0.863245 1.59368,-0.332123 4.916117,-0.538551 5.432866,-0.337552 0.341143,0.132694 0.329383,0.160783 -0.474283,1.132674 -1.564711,1.892245 -3.455893,3.436977 -5.445804,4.448178 -0.962927,0.489324 -2.463803,0.938332 -3.136512,0.938332 -0.303695,0 -0.75187,0.357424 -1.841834,1.468878 l -1.440478,1.468877 0.603435,0.619787 0.603435,0.619787 1.232254,-1.3223 c 1.175536,-1.261435 1.272878,-1.329546 2.11486,-1.479775 2.375973,-0.423925 4.07699,-1.436412 6.49317,-3.864894 l 1.6766,-1.685137 1.327019,0.308402 c 3.344609,0.777294 7.361815,1.094015 13.864466,1.093088 6.310192,-8.94e-4 10.148246,-0.215596 16.8056,-0.940086 9.42036,-1.025176 19.241461,-3.012077 23.713671,-4.797497 1.033733,-0.412691 1.271413,-0.450629 2.387493,-0.381076 1.45075,0.09041 3.47475,0.728619 5.52832,1.743196 4.18232,2.066296 6.83964,5.294681 7.97619,9.690274 0.51268,1.982828 0.51261,6.022689 -1.5e-4,8.39473 -0.44404,2.05412 -2.28037,15.258531 -2.46953,17.757479 -0.33679,4.44942 0.54577,8.370691 2.67669,11.892745 1.76153,2.911521 1.91471,5.824883 0.48438,9.212648 -0.78253,1.853431 -0.89236,2.980861 -0.97452,10.0037 -0.0684,5.848502 -0.0918,6.276794 -0.34313,6.276794 -0.4988,0 -0.74648,0.49907 -0.85996,1.732857 l -0.10981,1.193746 h -1.60961 c -1.46245,0 -1.6019,-0.02464 -1.52518,-0.269556 z M 26.128455,23.042681 c 0.587449,-0.246576 1.366212,-1.04661 1.366212,-1.403529 0,-0.133128 0.154699,-0.19913 0.423587,-0.180722 0.356872,0.02443 0.423588,-0.03165 0.423588,-0.356081 0,-0.327014 -0.104517,-0.412242 -0.693143,-0.565223 -0.381229,-0.09908 -1.259667,-0.185722 -1.952086,-0.192539 -1.142842,-0.01125 -1.303161,0.02481 -1.73839,0.391031 -0.655633,0.551679 -0.930477,1.142228 -0.930477,1.999294 v 0.723671 l 1.270762,-0.0906 c 0.698919,-0.04983 1.522396,-0.196215 1.829947,-0.325307 z"
     id="path50" /><path
     style="fill:#d38d5f;stroke-width:0.154032"
     d="m 44.530467,87.697122 c 1.135842,-1.168696 1.641203,-2.385316 2.293397,-5.521185 0.575007,-2.764739 0.530765,-3.529844 -0.381821,-6.60312 -0.842908,-2.838628 -1.621981,-6.485314 -2.227834,-10.428058 -0.215697,-1.403707 -0.392177,-2.629048 -0.392177,-2.72298 0,-0.09441 0.396073,-0.212495 0.885683,-0.264055 1.084441,-0.1142 3.479134,-0.515513 3.791577,-0.635408 0.176327,-0.06766 0.358658,0.311 0.797952,1.657181 0.313171,0.959687 0.563731,1.952827 0.556799,2.20698 -0.0069,0.254152 -0.330597,3.061381 -0.719256,6.238286 -0.402106,3.286818 -0.863821,8.05529 -1.071337,11.064479 -0.200576,2.908558 -0.387849,5.303196 -0.416162,5.321415 -0.429224,0.276202 -1.175127,0.403566 -2.363456,0.403566 h -1.450308 z"
     id="path163" /></svg>
