<?xml version="1.0" encoding="UTF-8" standalone="no"?>
<svg
   id="Layer_1"
   data-name="Layer 1"
   viewBox="0 0 110.93 122.88"
   version="1.1"
   sodipodi:docname="biodiesel.svg"
   inkscape:version="1.1.1 (3bf5ae0d25, 2021-09-20)"
   xmlns:inkscape="http://www.inkscape.org/namespaces/inkscape"
   xmlns:sodipodi="http://sodipodi.sourceforge.net/DTD/sodipodi-0.dtd"
   xmlns="http://www.w3.org/2000/svg"
   xmlns:svg="http://www.w3.org/2000/svg">
  <sodipodi:namedview
     id="namedview11"
     pagecolor="#ffffff"
     bordercolor="#666666"
     borderopacity="1.0"
     inkscape:pageshadow="2"
     inkscape:pageopacity="0.0"
     inkscape:pagecheckerboard="0"
     showgrid="false"
     inkscape:zoom="5.1269532"
     inkscape:cx="55.393523"
     inkscape:cy="61.342475"
     inkscape:window-width="1876"
     inkscape:window-height="1051"
     inkscape:window-x="44"
     inkscape:window-y="0"
     inkscape:window-maximized="1"
     inkscape:current-layer="Layer_1" />
  <defs
     id="defs4">
    <style
       id="style2">.cls-1{fill-rule:evenodd;}</style>
  </defs>
  <title
     id="title6">biodiesel</title>
  <path
     class="cls-1"
     d="M107.87,28.9a16.33,16.33,0,0,1,2.83,12.17,11.89,11.89,0,0,1-2.22,5.24,13.53,13.53,0,0,1-3,2.89c-.06,1.53-.08,3-.08,4.52,0,1.91.07,3.89.18,5.9.25,4.75,1,9.53,1.67,14.27A139.75,139.75,0,0,1,109,89.32c.27,6.75-.53,12.3-2.76,16.22-2.48,4.38-6.51,6.72-12.45,6.51h0c-7.09-.13-11.45-4.11-13.42-11.46-1.72-6.43-1.46-15.61.49-27.16-.06-9.15-1.25-16.09-3.61-20.76a11.51,11.51,0,0,0-6.27-6v59.93a8.18,8.18,0,0,1,2.3,1.64,8.41,8.41,0,0,1,2.47,6v6A2.74,2.74,0,0,1,73,122.88H2.74A2.74,2.74,0,0,1,0,120.14v-6a8.42,8.42,0,0,1,2.47-6A8.57,8.57,0,0,1,4,107V14.52A14.54,14.54,0,0,1,18.56,0H56.34A14.61,14.61,0,0,1,70.93,14.59V41c4.86,1.06,8.57,4.17,11.15,9.27,2.77,5.47,4.15,13.32,4.19,23.47a2.42,2.42,0,0,1,0,.47h0c-1.85,10.87-2.15,19.35-.63,25,1.27,4.77,4,7.35,8.24,7.41h.05c3.66.12,6.09-1.22,7.52-3.75,1.69-3,2.28-7.55,2-13.31a139.76,139.76,0,0,0-1.68-14.85c-.72-4.82-1.44-9.68-1.71-14.79-.11-2-.17-4.06-.18-6.18,0-1.68,0-3.34.09-5-5.11-4.48-8.22-9-9.18-13.42a14.37,14.37,0,0,1,3-12.17A41.35,41.35,0,0,0,87,19.34c-3.17-1.38-3.19-1.5-6.51-2a2.74,2.74,0,0,1,.88-5.4,23.41,23.41,0,0,1,7.82,2.42c6.49,2.84,14.72,8.63,18.73,14.58ZM22.37,85.62a22.94,22.94,0,0,0-3.49,5.58c-.69,1.87-1,2.73.59.79a33.83,33.83,0,0,1,4.76-5.22l.44.1c17.88,3.55,30.89-4.49,28.6-30.46C39.51,61.17,20,59.23,22,83.65a7.52,7.52,0,0,0,.33,2Zm4.24-3.51C31.28,72,43.28,68.6,49.23,61.72,42.78,74.29,37.51,74.91,26.61,82.11ZM98.18,26.5a9.22,9.22,0,0,0-2,7.7c.67,3.12,3,6.44,6.88,9.95a7.62,7.62,0,0,0,1-1.11,6.29,6.29,0,0,0,1.19-2.84,11.11,11.11,0,0,0-2-8.25,27.12,27.12,0,0,0-5.14-5.45Zm-76.32-14H53.68a6,6,0,0,1,4.24,1.76c.07.08.15.15.22.24a6,6,0,0,1,1.55,4v20.3a6,6,0,0,1-6,6H21.86a6,6,0,0,1-4.23-1.76h0a6,6,0,0,1-1.76-4.24V18.53a6,6,0,0,1,1.76-4.24,2.41,2.41,0,0,1,.24-.21,6,6,0,0,1,4-1.54Zm46.58,98.95H7.26a3,3,0,0,0-.91.62,2.92,2.92,0,0,0-.86,2.07v3.24H70.24v-3.24a3,3,0,0,0-.86-2.07,3.1,3.1,0,0,0-.94-.63Z"
     id="path8" />
  <path
     style="fill:#cccccc;stroke-width:0.195048"
     d="m 18.432,92.782124 c 0,-0.0333 0.212731,-0.603364 0.472735,-1.266815 0.602946,-1.538532 1.500629,-3.105675 2.64512,-4.617756 0.790151,-1.043934 0.883286,-1.265812 0.742568,-1.769029 -0.08849,-0.316461 -0.213434,-1.848069 -0.277643,-3.403573 -0.392785,-9.515525 2.842915,-15.608743 10.146093,-19.106331 2.697337,-1.29179 5.531113,-2.168358 11.72484,-3.626828 2.896457,-0.682044 6.144,-1.493417 7.216762,-1.80305 l 1.950476,-0.562969 0.12321,0.505398 c 0.255795,1.04927 0.17076,8.569226 -0.12217,10.803823 -1.61539,12.322894 -8.247536,18.984248 -19.492698,19.578547 -2.272489,0.1201 -5.974226,-0.162586 -8.107579,-0.619144 l -1.26781,-0.271323 -1.238035,1.208082 c -0.68092,0.664443 -1.935976,2.063852 -2.789014,3.109794 C 18.785436,92.624952 18.432,93.001786 18.432,92.782124 Z m 9.701623,-11.509417 c 0.725212,-0.463287 2.898452,-1.791748 4.829424,-2.952137 7.798054,-4.686129 10.511184,-7.040373 13.609574,-11.809333 1.164627,-1.792566 2.669726,-4.473252 2.674157,-4.762868 0.0016,-0.09859 -0.633598,0.433125 -1.41135,1.181582 -1.745624,1.679869 -3.648442,3.121421 -7.558096,5.725916 -5.871901,3.911686 -8.864327,6.348147 -10.891244,8.86775 -1.616973,2.010015 -3.116179,4.591429 -2.66656,4.591429 0.05254,0 0.688884,-0.379052 1.414095,-0.842339 z"
     id="path87" />
  <path
     style="fill:#cccccc;stroke-width:0.195048"
     d="m 5.558857,115.4489 c 0,-1.95281 0.2839004,-2.8362 1.1238072,-3.49687 0.4822223,-0.37932 0.9254561,-0.38479 31.1565728,-0.38479 h 30.667391 l 0.537559,0.42284 c 0.811646,0.63844 1.07543,1.49003 1.07543,3.47184 v 1.7617 H 37.839237 5.558857 Z"
     id="path163" />
  <path
     style="fill:#00ff00;stroke-width:0.195048"
     d="m 19.957218,44.35781 c -1.239234,-0.381353 -2.900106,-1.923005 -3.49875,-3.247603 L 15.993904,40.082285 V 28.671999 17.261714 l 0.464564,-1.027923 c 0.624292,-1.381348 2.254406,-2.865083 3.580351,-3.258846 0.861547,-0.255852 3.347497,-0.29685 17.999714,-0.29685 h 17.000112 l 1.189252,0.594277 c 1.335072,0.667143 2.243013,1.592838 2.850922,2.906671 0.403026,0.87103 0.410703,1.104575 0.410703,12.492956 0,11.513749 -0.0034,11.612597 -0.425264,12.525874 -0.58956,1.276181 -1.987194,2.577244 -3.293617,3.06604 -1.055767,0.395012 -1.368027,0.401755 -17.987482,0.388406 -14.141325,-0.01135 -17.062668,-0.05962 -17.825941,-0.294509 z"
     id="path202" />
  <path
     style="fill:#cccccc;stroke-width:0.195048"
     d="m 18.822095,92.088468 c 0,-0.435071 1.349758,-2.965713 2.472598,-4.635839 1.059187,-1.575446 1.074585,-1.618622 0.976344,-2.737708 -0.209089,-2.381796 -0.114238,-7.338551 0.172355,-9.007044 0.877639,-5.109442 3.158867,-8.793064 7.106322,-11.47496 2.271164,-1.543027 6.858011,-3.36009 10.77638,-4.269026 0.831391,-0.192856 1.511619,-0.42755 1.511619,-0.521543 0,-0.09399 0.08101,-0.120831 0.180012,-0.05964 0.162935,0.100699 5.556725,-1.093952 6.25656,-1.385742 0.160914,-0.06709 0.424228,-0.139077 0.585142,-0.159967 0.670268,-0.08701 3.120762,-0.783189 3.120762,-0.886595 0,-0.06168 0.241372,-0.10807 0.536381,-0.103085 l 0.536381,0.0091 -0.01326,5.656381 c -0.01194,5.089926 -0.05707,5.861476 -0.450558,7.70438 -2.177888,10.200039 -7.55012,15.628707 -16.805469,16.982018 -2.102813,0.307473 -7.339158,0.140744 -9.797778,-0.311967 l -1.905936,-0.350945 -0.602373,0.568829 c -0.331314,0.312854 -1.397592,1.490427 -2.369515,2.616827 -2.407821,2.790517 -2.285964,2.664364 -2.285964,2.366565 z M 31.818609,79.131837 c 7.434474,-4.549667 9.874176,-6.359747 12.225645,-9.070529 1.88454,-2.172506 5.351082,-7.69625 5.170301,-8.238592 -0.03768,-0.113049 -0.683627,0.347049 -1.435432,1.022441 -2.150472,1.931898 -3.617066,3.037782 -7.696838,5.803789 -2.091886,1.418258 -3.952273,2.750121 -4.134194,2.959695 -0.181921,0.209574 -0.367957,0.35525 -0.413414,0.323724 -0.137876,-0.09562 -2.474106,1.807214 -2.474106,2.015134 0,0.106489 -0.07438,0.147646 -0.165295,0.09146 -0.09091,-0.05619 -0.996172,0.750519 -2.011688,1.79268 -1.806705,1.854107 -2.873219,3.162646 -2.577686,3.162646 0.08145,0 -0.02229,0.128866 -0.230528,0.286369 -0.208237,0.157501 -0.296008,0.289158 -0.195048,0.292571 0.100961,0.0034 0.03996,0.115917 -0.135566,0.250012 -0.175523,0.134096 -0.345898,0.368153 -0.378613,0.520128 -0.03271,0.151973 -0.213081,0.43723 -0.400814,0.633905 -0.347962,0.36453 -0.471253,1.137777 -0.181414,1.137777 0.08795,0 2.353566,-1.342445 5.03469,-2.98321 z"
     id="path278" />
  <path
     style="fill:#cccccc;stroke-width:0.195048"
     d="m 20.257293,44.286864 c -1.387366,-0.335525 -3.095665,-1.866625 -3.790889,-3.397665 -0.345142,-0.760079 -0.366409,-1.469185 -0.366409,-12.2172 0,-10.748014 0.02127,-11.45712 0.366409,-12.217198 0.487537,-1.073667 1.630341,-2.312383 2.729472,-2.958547 l 0.894028,-0.525588 7.021714,-0.125062 c 3.861943,-0.06879 11.6736,-0.133252 17.359238,-0.143261 l 10.337524,-0.0182 1.365333,0.741728 c 1.629282,0.885121 2.711675,2.175462 3.016275,3.595761 0.281292,1.31162 0.272639,22.029455 -0.0098,23.346192 -0.249064,1.161344 -1.68486,2.88082 -2.987643,3.57793 l -0.799069,0.427577 -17.261714,0.03087 c -9.493943,0.01697 -17.537475,-0.03582 -17.874516,-0.117335 z"
     id="path354" />
  <path
     style="fill:#55d400;stroke-width:0.195048"
     d="m 18.823354,92.094567 c -0.0022,-0.457874 1.290792,-2.902614 2.436626,-4.607034 1.093972,-1.627275 1.108542,-1.667359 1.010608,-2.780353 -0.208376,-2.368169 -0.113448,-7.332852 0.172074,-8.999303 1.282281,-7.484046 5.385935,-11.803812 13.836194,-14.56485 1.394591,-0.455669 3.215848,-0.98628 4.047238,-1.179136 0.831391,-0.192856 1.511619,-0.42755 1.511619,-0.521543 0,-0.09399 0.07929,-0.121891 0.176202,-0.062 0.159187,0.09838 5.556774,-1.095818 6.26037,-1.385088 0.160914,-0.06616 0.424228,-0.139675 0.585142,-0.163374 0.5662,-0.08339 2.830487,-0.71936 3.023239,-0.849138 0.107276,-0.07223 0.414476,-0.13021 0.682666,-0.128848 l 0.487619,0.0025 -0.01326,5.656381 c -0.01188,5.06542 -0.05822,5.865732 -0.443482,7.66019 -1.646689,7.669881 -4.999612,12.537476 -10.435985,15.150406 -3.367683,1.618635 -6.349721,2.157819 -11.11554,2.009802 -1.734074,-0.05386 -4.017337,-0.250664 -5.073918,-0.43735 l -1.921055,-0.339426 -0.955897,0.941522 c -0.525753,0.517838 -0.955907,0.999103 -0.955907,1.069478 0,0.07037 -0.376433,0.51253 -0.836518,0.98257 -0.460086,0.470039 -1.205576,1.293474 -1.656646,1.829854 -0.45107,0.536381 -0.820693,0.858023 -0.821386,0.71476 z M 29.713617,80.415949 c 8.69032,-5.288904 10.871982,-6.828303 13.436113,-9.480632 1.059661,-1.09611 2.394969,-2.769321 3.247494,-4.069285 1.712807,-2.611751 2.944429,-4.813775 2.782809,-4.975396 -0.06361,-0.06361 -0.513318,0.225891 -0.999354,0.643332 -2.570624,2.207824 -4.482379,3.657495 -8.241725,6.249644 -2.281244,1.572966 -4.147717,2.933968 -4.147717,3.024448 0,0.09048 -0.134412,0.16451 -0.298693,0.16451 -0.164281,0 -0.349021,0.131153 -0.410533,0.291451 -0.06151,0.160298 -0.175071,0.252372 -0.252354,0.204609 -0.07728,-0.04776 -0.566032,0.303827 -1.086111,0.781311 -0.520078,0.477484 -1.005265,0.868153 -1.078192,0.868153 -0.07293,0 -0.915668,0.811885 -1.872757,1.80419 -1.738533,1.802503 -2.766155,3.072 -2.486695,3.072 0.08145,0 -0.02229,0.128866 -0.230528,0.286369 -0.208237,0.157501 -0.296008,0.289158 -0.195048,0.292571 0.100961,0.0034 0.03996,0.115917 -0.135566,0.250012 -0.175523,0.134096 -0.345898,0.375149 -0.378613,0.535675 -0.03271,0.160526 -0.164391,0.379955 -0.292615,0.487619 -0.128224,0.107665 -0.294961,0.451557 -0.370527,0.764205 -0.177499,0.734383 -0.125054,0.713572 3.010612,-1.194786 z"
     id="path393" />
  <path
     style="fill:#cccccc;stroke-width:0.195048"
     d="m 101.1104,41.984274 c -2.142257,-2.231927 -3.528558,-4.241492 -4.339552,-6.290561 -1.035551,-2.616438 -0.761025,-5.632496 0.726935,-7.986403 l 0.671449,-1.062212 1.509002,1.452308 c 2.945696,2.835026 4.609146,5.28972 5.243446,7.737582 0.38785,1.496763 0.39332,3.786628 0.0121,5.07029 -0.30057,1.012124 -1.38671,2.805147 -1.77244,2.925985 -0.11763,0.03685 -1.04056,-0.794295 -2.05096,-1.846989 z"
     id="path802" />
</svg>
