<?xml version="1.0" encoding="UTF-8" standalone="no"?>
<svg
   shape-rendering="geometricPrecision"
   text-rendering="geometricPrecision"
   image-rendering="optimizeQuality"
   fill-rule="evenodd"
   clip-rule="evenodd"
   viewBox="0 0 437 512.09"
   version="1.1"
   id="svg4"
   sodipodi:docname="fertilizer.svg"
   inkscape:version="1.1.1 (3bf5ae0d25, 2021-09-20)"
   xmlns:inkscape="http://www.inkscape.org/namespaces/inkscape"
   xmlns:sodipodi="http://sodipodi.sourceforge.net/DTD/sodipodi-0.dtd"
   xmlns="http://www.w3.org/2000/svg"
   xmlns:svg="http://www.w3.org/2000/svg">
  <defs
     id="defs8" />
  <sodipodi:namedview
     id="namedview6"
     pagecolor="#ffffff"
     bordercolor="#666666"
     borderopacity="1.0"
     inkscape:pageshadow="2"
     inkscape:pageopacity="0.0"
     inkscape:pagecheckerboard="0"
     showgrid="false"
     inkscape:zoom="1.2302524"
     inkscape:cx="218.65431"
     inkscape:cy="254.82575"
     inkscape:window-width="1876"
     inkscape:window-height="1051"
     inkscape:window-x="44"
     inkscape:window-y="0"
     inkscape:window-maximized="1"
     inkscape:current-layer="svg4" />
  <path
     fill-rule="nonzero"
     d="M123.65 71.27a6.564 6.564 0 0 1-5.43 4.71c-8.75 7.68-17.25 15.58-25.36 24 37.16 9.86 74.19 16.22 111.12 18.79 28.55 1.99 57.04 1.72 85.47-.92 13.06-1.52 26.7-3.54 41.19-6.07.99-.17 1.92-.35 2.8-.54.25-.49.33-1.21.18-2.25-1.02-6.94-6.34-11.99-11.82-17.07l-2.08-1.91c-2.31-2.17-4.7-4.37-7.16-6.59l-.85-.13a6.597 6.597 0 0 1-5.55-5.57l-2.49-2.17a587.18 587.18 0 0 0-16.95-14.15l-2.93-2.36c-16.8-13.56-55.06-44.44-69.75-45.71-19.04-1.62-38.26 14.45-56.65 29.84l-10.42 8.62c-7.9 6.52-15.7 12.95-23.32 19.48zm95.14 282.74 35.84-14.35-32.88 18.87c5.46 5.26 11.85 8.02 19.09 8.5 14.93.99 28.7-5.66 37.92-17.22 1.74-2.18 3.26-4.62 4.59-7.17 1.62-3.1 7.41-13.51 6.58-16-1.23-3.63-18.28-6.14-22.18-6.67-20.26-2.78-45.03.59-50.53 24.41-.26 1.17-.32 2.35-.23 3.55l-1.14.74-1.08-.79c.2-.83.31-1.68.29-2.53-.5-20.54-20.33-27.49-37.48-28.63-3.3-.21-17.76-1.03-19.38 1.75-1.11 1.9 1.91 11.46 2.71 14.28.67 2.32 1.51 4.59 2.57 6.69 5.64 11.06 15.86 18.87 28.32 20.57 6.04.83 11.76-.37 17.15-3.77l-23.89-21.09 25.8 16.82-.01.18c1.21 4.22 1.59 8.6 1.29 13.26-4.25.66-8.82 3.49-9.03 7.77-14.84-10.02-29.23 11.93-27.76 26.09l83.84-4.73c-1.5-15.38-18.42-21.23-29.53-15.32 4.17-11.55-4.67-14-10.99-12.27-.19-.24-.41-.45-.67-.63-.55-4.19-.51-8.38.79-12.31zm-.29-107.89c27.83 0 53.04 11.29 71.28 29.53 18.24 18.24 29.53 43.45 29.53 71.28 0 27.84-11.29 53.04-29.53 71.28-18.24 18.24-43.45 29.53-71.28 29.53-27.84 0-53.04-11.29-71.28-29.53-18.25-18.24-29.53-43.44-29.53-71.28 0-27.83 11.28-53.04 29.53-71.28 18.24-18.24 43.44-29.53 71.28-29.53zm62.08 38.72c-15.88-15.89-37.83-25.71-62.08-25.71s-46.21 9.82-62.09 25.71c-15.89 15.89-25.72 37.84-25.72 62.09s9.83 46.21 25.72 62.09c15.88 15.89 37.84 25.71 62.09 25.71s46.2-9.82 62.08-25.71c15.89-15.88 25.72-37.84 25.72-62.09s-9.83-46.2-25.72-62.09zM195.6 39.58c1.72 0 3.1 1.38 3.1 3.1 0 1.71-1.38 3.1-3.1 3.1-1.71 0-3.1-1.39-3.1-3.1 0-1.72 1.39-3.1 3.1-3.1zm38.25 32.1c1.71 0 3.09 1.39 3.09 3.1a3.094 3.094 0 1 1-6.19 0c0-1.71 1.38-3.1 3.1-3.1zm-31.98 18.08a4.5 4.5 0 0 1 0 9c-2.49 0-4.51-2.01-4.51-4.5s2.02-4.5 4.51-4.5zm154.42 302.5c-.39-3.62 2.22-6.88 5.84-7.28 3.61-.39 6.87 2.21 7.27 5.83.87 7.83 1.87 19.86 1.81 30.59-.05 7.97-.71 15.31-2.47 20.08-1.25 3.42-5.04 5.17-8.46 3.92-3.42-1.25-5.17-5.04-3.92-8.46 1.19-3.24 1.65-9.05 1.69-15.59.06-9.99-.91-21.52-1.76-29.09zm-295.01 11.8c.39-3.62 3.65-6.23 7.27-5.83 3.62.39 6.23 3.65 5.83 7.27-.68 6.12-.85 11.88-.43 17.24.4 5.16 1.37 9.92 2.94 14.2 1.25 3.42-.51 7.21-3.92 8.46-3.42 1.25-7.22-.5-8.47-3.92-2-5.45-3.21-11.38-3.71-17.71-.48-6.15-.29-12.74.49-19.71zM200.23 60.55c1.71 0 3.09 1.39 3.09 3.1a3.094 3.094 0 1 1-6.19 0c0-1.71 1.38-3.1 3.1-3.1zM176.5 71.38c2.49 0 4.5 2.01 4.5 4.5s-2.01 4.5-4.5 4.5-4.5-2.01-4.5-4.5 2.01-4.5 4.5-4.5zm-54.15 22.28c1.33 0 2.4 1.08 2.4 2.41s-1.07 2.4-2.4 2.4c-1.33 0-2.41-1.07-2.41-2.4 0-1.33 1.08-2.41 2.41-2.41zm19.3-3c2.49 0 4.51 2.01 4.51 4.5s-2.02 4.5-4.51 4.5a4.5 4.5 0 0 1 0-9zm24.44 8.94c1.72 0 3.1 1.39 3.1 3.1 0 1.71-1.38 3.1-3.1 3.1-1.71 0-3.1-1.39-3.1-3.1 0-1.71 1.39-3.1 3.1-3.1zm-14.78-31.17a3.495 3.495 0 1 1 0 6.99c-1.94 0-3.5-1.56-3.5-3.5 0-1.93 1.56-3.49 3.5-3.49zM227 38.33c1.49 0 2.7 1.21 2.7 2.7 0 1.5-1.21 2.7-2.7 2.7-1.5 0-2.71-1.2-2.71-2.7 0-1.49 1.21-2.7 2.71-2.7zm6.46 63.49c1.33 0 2.41 1.08 2.41 2.41s-1.08 2.41-2.41 2.41-2.4-1.08-2.4-2.41 1.07-2.41 2.4-2.41zm42.48-37.47c1.33 0 2.4 1.07 2.4 2.4 0 1.33-1.07 2.41-2.4 2.41-1.33 0-2.41-1.08-2.41-2.41s1.08-2.4 2.41-2.4zm-24.06 22.63c2.05 0 3.7 1.65 3.7 3.7 0 2.05-1.65 3.7-3.7 3.7-2.05 0-3.7-1.65-3.7-3.7 0-2.05 1.65-3.7 3.7-3.7zm18.98-4c2.18 0 3.93 1.76 3.93 3.93 0 2.18-1.75 3.94-3.93 3.94-2.17 0-3.93-1.76-3.93-3.94a3.93 3.93 0 0 1 3.93-3.93zm23.94 11.71a2.96 2.96 0 1 1 0 5.92c-1.64 0-2.97-1.33-2.97-2.96 0-1.64 1.33-2.96 2.97-2.96zm-4.36-17.58c1.81 0 3.28 1.47 3.28 3.28 0 1.81-1.47 3.27-3.28 3.27-1.8 0-3.27-1.46-3.27-3.27a3.28 3.28 0 0 1 3.27-3.28zm-15.22 26.42c1.8 0 3.25 1.46 3.25 3.26 0 1.8-1.45 3.26-3.25 3.26-1.81 0-3.26-1.46-3.26-3.26 0-1.8 1.45-3.26 3.26-3.26zM96.26 78.13c-3.39.37-6.7.76-9.79 1.17l-.52.05c-6.25.32-11.26 2.17-15.38 5l-.03.02c-.87.6-1.72 1.25-2.53 1.95.44 1.21 1.42 2.52 2.93 3.9 1.96 1.78 4.65 3.54 8.05 5.28 5.61-6.05 11.37-11.81 17.27-17.37zm250.19 27.58c1.92-1.62 3.23-3.4 4.6-5.28 2.11-2.89 4.33-5.94 7.85-8.99-2.08-.48-4.27-.9-6.55-1.35l-3.94-.77c-4-.77-8.29-1.52-12.67-2.25 4.96 5.03 9.18 10.64 10.71 18.64zm-28.07-34.75c10.43 1.6 22.01 3.39 32.52 5.41l3.95.77c7.71 1.5 14.54 2.84 20.76 6.24 1.35.34 2.58 1.09 3.5 2.19 1.57 1.11 3.1 2.4 4.59 3.9 6.66 6.68 12.35 18.2 16.47 30.46 4.71 14.03 7.49 29.39 7.32 39.41-.18 10-1.99 18.69-5.96 25.67-3.63 6.39-8.93 11.23-16.23 14.2 5.41 14.59 9.92 42.31 13.5 73.81 5.81 51.23 9.33 113.28 10.08 143.82.18 7.35-.2 12.26-.47 15.85-.22 2.86-.35 4.59-.23 4.89.16.38 2.84 1.61 9.58 4.68l.75.35c9.2 4.21 14.77 9.77 17.2 17.8 2.22 7.3 1.5 16.2-1.65 27.74a6.584 6.584 0 0 1-6.48 5.06l-54.49-.73c-40.52 8.22-76.06 14.57-110.69 17.6-35.09 3.09-69.47 2.82-107.4-2.23-18.57-2.47-36.74-5.48-54.11-8.35-13.9-2.3-27.3-4.52-39.86-6.3-7.75-1.09-16.54-.52-25.14.04-9.06.58-17.95 1.16-26.13-.06-2.3-.36-4.35-1.9-5.22-4.23-5.46-14.62-5.72-24.97-2.26-32.56 3.72-8.14 11.09-12.48 20.65-15.05 5.24-1.4 5.22-1.61 4.92-3.97-.34-2.69-.79-6.21-.95-10.95-1.19-35.28.83-88.77 5.26-137.27 3.58-39.18 8.75-75.27 15.12-96.26-10.63-5.39-19.43-11.77-22.64-19.06-4.48-10.16-3.22-23.36.78-36.76 5.38-18.01 15.79-36.81 23.25-48.2 3.9-5.97 8.54-11.33 14.44-15.38 6.01-4.11 13.17-6.8 21.96-7.28 4.93-.65 10.33-1.25 15.71-1.79 3.79-.39 7.95-.78 11.99-1.15 8.44-7.3 17.07-14.41 25.84-21.64l10.32-8.57C169.38 15.94 190.74-1.93 215.14.17c18.69 1.61 59.15 34.27 76.91 48.6l2.93 2.36c5.9 4.75 11.68 9.57 17.31 14.47 2.02 1.75 4.05 3.54 6.09 5.36zm8.49 55.37a530.606 530.606 0 0 1-35.27 4.55c-6.89.81-13.63 1.48-20.24 2.02-19.14 1.56-37.37 1.99-55.64 1.33-21.1-.76-50.3-3.55-77.96-8.44-22.08-3.91-43.36-9.19-59.11-15.92-7.15-3.05-12.69-6.35-16.58-9.9-1.09-.99-2.05-2-2.9-3.04-6.93 10.73-16.28 27.76-21.11 43.91-3.19 10.69-4.39 20.79-1.35 27.68 5.76 13.05 46.6 24.58 63.38 29.32l1.67.47c22.75 6.45 47.02 11.15 71.48 13.86 16.83 1.86 33.75 2.79 50.34 2.7 25.69-.99 52.76-4.18 82.11-9.29 5.43-1.23 10.86-2.58 16.29-4.06l56-13.68c5.65-1.69 9.58-4.9 12.1-9.33 2.82-4.95 4.11-11.55 4.25-19.38.15-8.67-2.37-22.31-6.64-35.02-3.54-10.54-8.19-20.21-13.33-25.35-.4-.4-.82-.78-1.24-1.15-6.3 3.52-8.98 7.18-11.44 10.56-4.12 5.65-7.85 10.75-18.94 14.27-2.48 1.73-5.86 2.5-9.81 3.08l-6.06.81zm-18.74 92.21a396.233 396.233 0 0 1-62.45 8.81c-7.37.44-14.84.68-22.38.71-6.95.25-13.83.36-20.62.3-49.82-.43-95.46-9.51-143.54-29.09-5.75 20.33-10.5 54.2-13.87 91.07-4.38 47.99-6.38 100.85-5.21 135.66.14 4.17.54 7.32.85 9.72 1.64 12.88 1.78 14-14.58 18.37-5.92 1.59-10.3 3.9-12.07 7.77-1.78 3.89-1.58 9.82 1.29 18.68 5.97.41 12.69-.02 19.52-.46 9.24-.6 18.68-1.22 27.77.07 12.62 1.78 26.15 4.02 40.16 6.34 17.46 2.89 35.72 5.92 53.7 8.31 36.78 4.9 70.27 5.14 104.57 2.13 34.57-3.04 69.79-9.34 109.92-17.49.45-.09.91-.13 1.36-.13l49.99.67c1.5-6.74 1.76-11.88.58-15.75-1.24-4.07-4.5-7.1-10.08-9.65l-.75-.34c-10.07-4.61-14.07-6.43-16.24-11.5-1.4-3.29-1.17-6.21-.8-11.03.26-3.46.63-8.19.47-14.57-.74-30.14-4.24-91.61-10.03-142.67-3.4-29.97-7.53-56.08-12.23-69.42-23.04 5.38-44.72 9.9-65.33 13.49z"
     id="path2" />
  <path
     style="fill:#d38d5f;stroke-width:0.812841"
     d="m 185.32782,497.40516 c -16.16277,-1.22754 -39.59933,-4.43579 -79.32979,-10.85948 -50.134826,-8.10589 -50.261878,-8.11912 -67.689377,-7.04392 -7.911484,0.4881 -16.183913,0.88746 -18.383176,0.88746 -3.925201,0 -4.014528,-0.056 -4.862526,-3.04816 -0.475127,-1.67648 -1.063873,-5.05994 -1.308324,-7.51878 -0.848808,-8.53785 2.774118,-12.20199 16.1442,-16.32784 5.113808,-1.57806 8.849789,-3.24511 10.120668,-4.51599 1.901628,-1.90163 1.986322,-2.36481 1.511208,-8.26465 -1.144855,-14.21649 -1.427274,-53.91945 -0.541597,-76.13862 2.524997,-63.34516 8.443955,-120.4282 16.057699,-154.86212 1.136785,-5.14122 2.154623,-9.44604 2.261864,-9.56627 0.10724,-0.12022 4.364034,1.39169 9.45954,3.3598 29.196661,11.27706 60.216731,18.86554 94.206471,23.04585 17.21232,2.11689 78.95524,2.09831 98.3538,-0.0296 19.79012,-2.17086 60.36638,-9.50542 95.09349,-17.18908 9.15987,-2.0267 16.70971,-3.68491 16.77741,-3.68491 0.3405,0 3.67205,13.59741 5.09212,20.78297 7.72935,39.11046 16.36177,139.22693 16.64736,193.07151 l 0.12328,23.24319 2.27329,2.98044 c 1.64072,2.15109 4.46505,4.02341 10.14989,6.72864 13.59536,6.46957 15.60587,8.78298 15.58749,17.93594 -0.007,3.03988 -0.24662,6.40726 -0.53447,7.48306 l -0.52337,1.95601 -24.68772,-0.55194 -24.68773,-0.55194 -16.84234,3.30071 c -35.84595,7.02497 -64.50269,11.46673 -92.03017,14.26454 -14.95758,1.52025 -63.9288,2.21522 -78.43919,1.11318 z m 50.22542,-50.74181 c 36.4635,-6.3587 66.16475,-31.49979 78.48704,-66.4366 3.94028,-11.17169 5.32373,-19.78452 5.32373,-33.14351 0,-21.67977 -5.23326,-39.0722 -17.24278,-57.30531 -4.92976,-7.48447 -18.50856,-21.07594 -26.1616,-26.18602 -25.26097,-16.86718 -54.14609,-21.89868 -83.21297,-14.49487 -32.48348,8.27408 -59.85623,33.97722 -70.33566,66.04553 -3.90649,11.95433 -5.25528,22.25219 -4.70755,35.9416 0.51001,12.74654 1.93773,20.06707 6.1815,31.69528 11.88963,32.57837 42.07838,57.62778 76.88685,63.79762 8.74704,1.55042 26.13806,1.59355 34.78144,0.0863 z M 74.40357,445.01583 c 3.375989,-1.74579 3.71313,-4.31493 1.663144,-12.67382 -1.449619,-5.91087 -1.748202,-9.3071 -1.622955,-18.46031 0.09675,-7.07036 -0.18577,-11.85073 -0.764249,-12.93162 -1.359646,-2.54053 -5.992006,-3.86054 -8.808542,-2.51005 -3.722956,1.78512 -4.28922,4.03383 -4.302307,17.08508 -0.01192,11.88753 0.613244,17.04873 2.959787,24.43526 1.80529,5.68276 5.942729,7.6061 10.875122,5.05546 z m 291.73368,0.0395 c 2.96403,-1.53276 3.86376,-4.24256 4.99462,-15.04285 0.68616,-6.55333 0.68438,-12.37206 -0.007,-22.89503 -1.16378,-17.71191 -1.41508,-19.0591 -3.92331,-21.03208 -4.42898,-3.48383 -11.10005,-0.4678 -10.98666,4.96712 0.0318,1.52303 0.32923,10.89372 0.661,20.82377 0.45019,13.47418 0.34165,19.28725 -0.42783,22.91322 -1.26224,5.94793 -0.67995,8.60993 2.22853,10.18806 2.8469,1.54471 4.58885,1.56288 7.46069,0.0778 z"
     id="path84" />
  <path
     style="fill:#c87137;stroke-width:0.812841"
     d="m 179.23151,496.54038 c -13.33725,-1.35606 -38.13226,-4.89023 -73.88762,-10.5316 -47.824505,-7.54561 -49.046789,-7.66501 -69.172452,-6.75706 -9.164785,0.41346 -17.464179,0.61723 -18.443096,0.45282 -1.399659,-0.23508 -1.963954,-1.15739 -2.641734,-4.31776 -2.71129,-12.64232 0.299902,-16.79833 15.801362,-21.80886 3.129439,-1.01152 6.758067,-2.64131 8.063617,-3.62174 l 2.373729,-1.7826 0.119799,-48.71628 c 0.117579,-47.81293 0.521397,-58.45466 3.683874,-97.08033 2.069819,-25.28024 5.417025,-53.77653 8.545216,-72.7493 1.69035,-10.25213 5.376917,-27.5136 6.035657,-28.26053 0.302645,-0.34315 4.366218,0.80643 9.030163,2.55463 28.658539,10.74216 57.170195,17.88224 90.170455,22.58109 14.86554,2.11668 90.28431,2.12605 106.07579,0.0132 22.60155,-3.02404 62.66767,-10.40126 93.85518,-17.28118 6.91408,-1.52524 12.97797,-2.77316 13.47531,-2.77316 1.19639,0 5.58767,19.13119 8.0708,35.16148 6.98014,45.06159 13.00054,119.90654 13.98845,173.90276 l 0.51607,28.20706 2.94982,2.88043 c 1.6224,1.58422 6.95598,5.00146 11.85241,7.59385 11.54977,6.11497 12.57675,7.5287 12.57675,17.31293 0,3.93106 -0.27433,7.31585 -0.60963,7.52176 -0.3353,0.20591 -11.58105,0.13605 -24.99057,-0.15523 l -24.38093,-0.52962 -15.44829,3.01975 c -42.74959,8.35644 -81.98287,13.96629 -106.80544,15.27181 -18.01895,0.94768 -61.06646,0.88184 -70.80469,-0.10829 z m 58.29844,-49.88953 c 40.30582,-7.64589 72.73241,-39.94495 80.78353,-80.46584 1.46152,-7.35577 1.46818,-29.69634 0.0113,-37.79712 -2.27614,-12.65589 -7.91249,-26.68148 -15.33708,-38.165 -4.7624,-7.36594 -23.14933,-25.00931 -30.79198,-29.54674 -18.51558,-10.99268 -37.40443,-15.874 -57.93354,-14.97137 -26.61149,1.17007 -48.28031,10.66577 -67.18548,29.442 -12.57558,12.48981 -21.24514,26.87772 -25.92382,43.02283 -3.29399,11.36691 -3.93818,17.40835 -3.47301,32.57142 0.47456,15.46939 2.14259,23.58816 7.4144,36.08811 13.08093,31.0161 42.86763,54.61439 76.01843,60.22506 6.83335,1.15651 29.51881,0.90526 36.41725,-0.40335 z M 75.484623,444.5652 c 2.530165,-1.99022 2.729275,-4.59489 0.977406,-12.786 -0.640374,-2.99417 -1.333106,-11.09899 -1.539405,-18.01072 -0.369946,-12.39449 -0.404756,-12.59231 -2.538797,-14.42793 -3.502101,-3.01238 -9.126733,-2.02153 -10.924674,1.92451 -0.543433,1.19271 -0.902475,7.24958 -0.902475,15.22433 0,14.76575 1.733092,24.3818 5.026046,27.88699 2.284801,2.43206 6.937298,2.52077 9.901899,0.18882 z m 291.708227,0.0801 c 1.22389,-0.96272 2.44235,-3.15754 3.04591,-5.48668 1.5043,-5.80496 1.94873,-24.30331 0.90065,-37.48755 -0.93061,-11.70666 -2.03072,-15.71226 -4.58439,-16.69219 -2.53035,-0.97099 -6.7079,-0.49257 -8.52135,0.97588 l -1.82871,1.48079 -0.0189,27.91101 -0.0189,27.91101 1.84768,1.49616 c 2.41468,1.95529 6.61768,1.90563 9.17815,-0.10843 z"
     id="path160" />
  <path
     style="fill:#deaa87;stroke-width:0.812841"
     d="m 201.58465,214.0822 c -35.78594,-1.96268 -70.23363,-7.80438 -104.856534,-17.78176 -22.039695,-6.35125 -31.558795,-9.75159 -43.080589,-15.38889 -14.004987,-6.85228 -18.28893,-12.05509 -18.28893,-22.21173 0,-11.9866 8.26729,-34.67664 19.644313,-53.91493 l 4.12826,-6.980793 2.135226,2.018993 c 15.317845,14.484 64.631064,27.25961 127.719214,33.08829 39.66973,3.66507 84.2279,1.79273 134.85479,-5.66663 12.17968,-1.79455 15.19641,-2.54439 21.68505,-5.39009 7.76709,-3.40638 10.34152,-5.58311 18.44046,-15.59173 1.68541,-2.08281 4.38753,-4.79615 6.00473,-6.02965 l 2.94035,-2.24271 2.65803,3.07489 c 5.79353,6.70213 12.31843,22.59066 15.96274,38.87027 2.66093,11.88676 2.62142,27.41719 -0.0873,34.30884 -2.23976,5.69851 -6.65513,10.3704 -11.5356,12.20575 -8.8679,3.33489 -76.67774,19.18602 -92.26233,21.56712 -31.42298,4.80097 -65.42104,7.19681 -86.06189,6.06476 z"
     id="path236" />
  <path
     style="fill:#2ca02c;stroke-width:0.812841"
     d="m 202.49947,432.7942 c -26.99599,-5.364 -49.73725,-22.50638 -61.83189,-46.60891 -7.18616,-14.32078 -9.9252,-27.35276 -9.1428,-43.50012 1.04216,-21.50817 8.96077,-40.11176 23.66305,-55.59281 7.77462,-8.18643 14.76576,-13.29308 25.26294,-18.45319 19.78333,-9.7249 41.09577,-11.65509 61.95312,-5.61087 27.24268,7.89462 49.46244,28.85976 58.50238,55.19907 11.30281,32.93253 2.76772,67.65191 -22.59423,91.90973 -12.56255,12.01564 -27.66868,19.72391 -44.62016,22.7685 -7.73872,1.38993 -23.92751,1.33212 -31.19241,-0.1114 z m 18.98158,-35.78912 c 20.7784,-1.1348 37.9026,-2.18694 38.05376,-2.3381 0.54241,-0.54242 -1.46966,-6.58711 -3.04652,-9.15241 -4.46166,-7.25836 -15.06897,-10.65267 -24.58079,-7.86579 -1.15983,0.33982 -1.30708,-0.0332 -0.93012,-2.35604 0.68012,-4.19111 -1.45449,-7.63514 -5.38889,-8.69457 -1.76851,-0.47621 -4.14364,-0.63289 -5.27804,-0.34817 -2.04769,0.51394 -2.06256,0.48007 -2.06256,-4.69856 0,-2.96008 0.43947,-5.76041 1.01605,-6.47437 1.07354,-1.32933 22.3625,-10.08432 22.99161,-9.4552 0.20219,0.20219 -4.37955,3.08271 -10.18164,6.40117 -5.8021,3.31846 -10.44109,6.39934 -10.30889,6.8464 0.47487,1.60582 8.15719,6.13652 12.59048,7.42531 6.14857,1.78744 17.46446,1.15898 24.12804,-1.34001 7.08297,-2.65627 15.32376,-8.39527 19.637,-13.67548 3.86698,-4.73391 12.47023,-21.15756 12.47023,-23.80574 0,-3.13486 -7.07721,-5.62835 -21.84223,-7.69562 -15.54398,-2.17633 -28.68121,-0.49428 -37.7784,4.83703 -7.24637,4.24665 -14.34793,14.77904 -14.34793,21.27954 0,3.66872 -1.26954,2.06112 -1.43852,-1.82158 -0.25652,-5.89421 -2.39793,-11.19165 -6.26082,-15.48812 -7.20528,-8.014 -17.45501,-11.51911 -35.38125,-12.09937 -14.48359,-0.46882 -15.96731,0.0358 -15.62452,5.31395 0.35783,5.5098 4.5194,17.28843 7.91652,22.40641 9.02623,13.5986 26.89322,19.92294 40.09075,14.19085 1.93979,-0.84251 3.4029,-1.84465 3.25137,-2.22698 -0.15154,-0.38233 -3.30785,-3.36104 -7.01403,-6.61936 -3.70618,-3.25831 -6.58284,-6.07988 -6.39257,-6.27014 0.41152,-0.41153 14.08135,8.40017 14.77662,9.52513 0.26451,0.42799 0.68806,3.24874 0.94121,6.26832 l 0.46027,5.49015 -3.41761,1.50785 c -1.87969,0.82932 -4.04617,2.54144 -4.81442,3.80471 -1.02984,1.69344 -1.70673,2.10079 -2.57652,1.55056 -0.64885,-0.41048 -3.21134,-0.75192 -5.69443,-0.75877 -3.57268,-0.01 -5.26872,0.4666 -8.12841,2.28339 -6.40197,4.06724 -12.09321,14.72133 -12.12925,22.70614 l -0.0193,4.27452 4.26742,-0.4319 c 2.34708,-0.23754 21.26793,-1.36035 42.04633,-2.49515 z"
     id="path386" />
  <path
     style="fill:#aaccff;stroke-width:0.812841"
     d="m 206.86811,118.58228 c -31.8046,-2.10311 -65.62941,-7.37679 -99.57306,-15.52458 L 93.476751,99.740774 104.04369,89.611005 c 5.81181,-5.571372 12.5082,-11.39475 14.88087,-12.940838 2.37266,-1.546089 4.52341,-3.356979 4.77945,-4.0242 0.25603,-0.66722 8.0079,-7.499529 17.22636,-15.182906 37.92116,-31.606413 46.79827,-37.863202 59.22074,-41.740082 12.70972,-3.966524 20.09725,-2.017131 38.62025,10.190957 20.67537,13.626674 65.34086,49.151612 67.48832,53.677211 0.54792,1.154673 2.27601,2.731235 3.84022,3.503473 1.5642,0.772237 6.55731,4.880432 11.09579,9.129323 8.25028,7.723846 11.66283,12.639327 11.66283,16.799277 0,1.99817 -0.20437,2.05986 -14.02152,4.23241 -19.99201,3.14346 -30.98859,4.46402 -44.90948,5.39313 -14.16836,0.94563 -52.32581,0.9078 -67.05941,-0.0665 z m 71.16265,-10.01346 c 1.00797,-1.53834 1.09604,-2.35079 0.39656,-3.65778 -1.62621,-3.03861 -6.5319,-1.91538 -6.5319,1.49557 0,4.25023 3.87291,5.61512 6.13534,2.16221 z m -42.4387,-3.04056 c 1.19378,-1.89254 0.0414,-3.9231 -2.22632,-3.9231 -2.67237,0 -3.75844,3.07034 -1.63524,4.62286 1.72239,1.25945 2.74231,1.07463 3.86156,-0.69976 z m -67.68689,0.11251 c 1.86471,-0.99796 2.07283,-4.23394 0.36354,-5.652526 -0.69325,-0.575345 -2.07981,-0.784506 -3.25137,-0.490469 -1.60048,0.401698 -2.04266,1.028455 -2.04266,2.895325 0,1.41167 0.57969,2.72029 1.42248,3.21116 1.78467,1.03948 1.63682,1.03794 3.50801,0.0365 z m 129.84738,-7.868714 c 0.21516,-2.226161 -0.0577,-2.691724 -1.83945,-3.138925 -2.36577,-0.593769 -4.50949,0.758577 -4.50949,2.844783 0,2.043865 1.76732,3.413886 4.0585,3.146136 1.63879,-0.19152 2.08728,-0.749962 2.29044,-2.851994 z M 145.4525,98.172933 c 1.70305,-2.431435 1.59262,-4.368922 -0.36033,-6.321865 -3.14867,-3.148676 -8.12841,-1.115172 -8.12841,3.319287 0,4.603022 5.90483,6.691645 8.48874,3.002578 z m -21.62629,0.279707 c 0.59794,-0.379011 0.96372,-1.562191 0.81284,-2.629289 -0.20565,-1.454474 -0.78304,-1.940179 -2.30643,-1.940179 -1.52339,0 -2.10078,0.485705 -2.30643,1.940179 -0.23455,1.658846 0.91891,3.318392 2.30643,3.318392 0.22353,0 0.89564,-0.310099 1.49359,-0.689103 z m 81.41622,-0.911683 c 1.95294,-1.95294 2.06337,-3.89043 0.36033,-6.321868 -2.46099,-3.513548 -8.48874,-1.433507 -8.48874,2.92927 0,4.501981 4.95213,6.568881 8.12841,3.392598 z m 48.3603,-3.249934 c 1.85622,-0.705736 2.1013,-1.208577 1.8818,-3.860996 -0.23385,-2.825939 -0.45836,-3.069181 -3.06142,-3.316777 -4.49885,-0.427918 -6.39945,3.251294 -3.28725,6.363501 1.89314,1.89314 1.71476,1.860618 4.46687,0.814272 z M 274.69447,88.3536 c 1.35235,-3.869022 -1.22426,-6.219281 -5.61116,-5.118239 -2.4037,0.60329 -3.1821,3.55956 -1.58076,6.003517 1.82032,2.778156 6.09537,2.251925 7.19192,-0.885278 z m 18.99192,-7.625095 c 0.33849,-3.494052 -2.24953,-5.06277 -5.18223,-3.141191 -2.19524,1.43838 -2.38559,2.228497 -1.11075,4.610569 0.64184,1.199303 1.53852,1.55465 3.45457,1.369034 2.25027,-0.217991 2.62043,-0.588147 2.83841,-2.838412 z M 180.54734,78.405889 c 2.75308,-4.20174 -2.36426,-9.319082 -6.56601,-6.565997 -2.26879,1.486576 -2.89076,5.855211 -1.08998,7.655988 1.80077,1.800778 6.16941,1.178811 7.65599,-1.089991 z m 55.98948,-3.624488 c 0,-2.351728 -0.32483,-2.890992 -1.87363,-3.110552 -3.46151,-0.490705 -5.56851,3.065268 -3.21233,5.42144 0.55568,0.555688 1.92735,0.903178 3.04815,0.772199 1.74167,-0.203535 2.03781,-0.651576 2.03781,-3.083087 z m -82.6463,0.105525 c 0.64732,-0.410413 0.97132,-1.782424 0.81284,-3.442129 -0.2238,-2.343822 -0.60778,-2.799181 -2.54798,-3.021651 -2.77173,-0.317815 -4.62468,1.064588 -4.62468,3.45027 0,3.183663 3.48609,4.835497 6.35982,3.01351 z m 123.56269,-5.696575 c 0.59795,-0.37901 0.96372,-1.56219 0.81284,-2.629288 -0.20564,-1.454476 -0.78304,-1.940179 -2.30642,-1.940179 -1.52339,0 -2.10078,0.485703 -2.30643,1.940179 -0.23456,1.658845 0.91891,3.318396 2.30643,3.318396 0.22353,0 0.89564,-0.310098 1.49358,-0.689108 z M 202.0445,66.624389 c 1.86472,-0.997964 2.07284,-4.233944 0.36355,-5.652531 -0.69326,-0.575345 -2.07981,-0.784504 -3.25137,-0.490462 -1.60048,0.401695 -2.04266,1.02845 -2.04266,2.895323 0,1.411669 0.57968,2.720284 1.42247,3.211161 1.78467,1.039477 1.63683,1.037938 3.50801,0.03651 z m -4.15477,-21.466956 c 2.31193,-2.785705 -0.87667,-7.494948 -3.82387,-5.647459 -2.90049,1.818216 -1.85714,6.821981 1.42248,6.821981 0.78464,0 1.86526,-0.528535 2.40139,-1.174522 z m 31.67785,-2.777399 c 1.14267,-2.135106 -0.67276,-4.41274 -3.22851,-4.050478 -2.00493,0.284186 -2.924,2.216424 -2.08912,4.392093 0.64888,1.690961 4.35733,1.452722 5.31763,-0.341615 z"
     id="path647" />
  <path
     style="fill:#c87137;stroke-width:0.812841"
     d="m 345.84386,101.95867 c -0.436,-1.14676 -0.79272,-2.403866 -0.79272,-2.793567 0,-0.389701 -1.64883,-3.116906 -3.66406,-6.060455 -3.26984,-4.776086 -3.46661,-5.307879 -1.8289,-4.942686 1.00935,0.225073 5.12718,1.001718 9.15074,1.725879 4.02357,0.724161 7.5802,1.477721 7.90363,1.674578 0.54837,0.33377 -8.80318,12.481271 -9.6085,12.481271 -0.20211,0 -0.72419,-0.93826 -1.16019,-2.08502 z"
     id="path760" />
  <path
     style="fill:#c87137;stroke-width:0.812841"
     d="m 74.537406,92.215735 c -5.449101,-3.669639 -6.519956,-5.580478 -4.037171,-7.203946 4.183641,-2.73564 9.586962,-4.497552 16.3825,-5.341997 3.960422,-0.49214 7.264095,-0.787467 7.341497,-0.656282 0.0774,0.131185 -3.381469,3.787713 -7.686377,8.125618 l -7.827105,7.887101 z"
     id="path873" />
  <path
     style="fill:#b3b3b3;stroke-width:0.812841"
     d="m 206.05527,118.14938 c -1.56472,-0.14591 -7.41717,-0.65963 -13.00546,-1.14161 -13.73468,-1.18459 -41.38118,-5.15213 -56.83835,-8.15687 -16.54106,-3.21542 -41.534838,-9.01556 -41.444486,-9.617737 0.09209,-0.613801 19.383626,-18.401765 24.910216,-22.968743 2.33954,-1.933317 10.81617,-9.11904 18.83695,-15.968272 44.59991,-38.085469 58.12672,-46.42618 73.80156,-45.506509 7.35846,0.431733 13.2458,3.025789 26.25323,11.567582 18.90972,12.417754 63.08139,47.375149 67.0848,53.09083 0.68955,0.984454 3.89214,3.777321 7.11689,6.206371 6.74114,5.077786 16.00569,14.412698 17.84731,17.982848 0.69183,1.34119 1.38754,3.35076 1.54602,4.46571 0.25655,1.80494 -0.11979,2.12844 -3.43257,2.95065 -5.78735,1.43637 -31.54958,5.10059 -45.04976,6.40751 -10.98875,1.0638 -68.16272,1.5707 -77.62635,0.68824 z m 71.88173,-9.16817 c 1.72023,-1.90083 1.42677,-3.98056 -0.75811,-5.37271 -2.68156,-1.70862 -5.28347,-0.17289 -5.28347,3.11847 0,1.50461 0.24385,2.97952 0.5419,3.27755 1.07463,1.07464 4.11262,0.50937 5.49968,-1.02331 z m -42.12545,-3.77778 c 0.63997,-2.54986 -0.47852,-3.82697 -3.03367,-3.46387 -2.17157,0.30858 -2.95665,2.61063 -1.49212,4.37528 1.5807,1.90463 3.93816,1.42989 4.52579,-0.91141 z m -67.18777,0.10867 c 0.5341,-0.64356 0.85323,-2.19812 0.70916,-3.45457 -0.23151,-2.019036 -0.59251,-2.284469 -3.10689,-2.284469 -2.51439,0 -2.87538,0.265433 -3.10689,2.284469 -0.30134,2.62808 1.03999,4.62468 3.10689,4.62468 0.78464,0 1.86362,-0.52655 2.39773,-1.17011 z m 128.87614,-7.771143 c 0,-2.70947 -0.13548,-2.844944 -2.84494,-2.844944 -2.35804,0 -2.89073,0.32313 -3.11244,1.888011 -0.46029,3.248845 0.42586,4.334966 3.31005,4.057006 2.43503,-0.23467 2.64733,-0.48328 2.64733,-3.100073 z m -152.26854,1.09328 c 1.85085,-1.674998 1.91786,-4.959228 0.14123,-6.922375 -1.65039,-1.823666 -5.40685,-1.933835 -7.13153,-0.209154 -1.50796,1.507967 -1.69319,6.110088 -0.30191,7.501364 1.4087,1.408698 5.55957,1.198188 7.29221,-0.369835 z m -20.86666,-2.312541 c 0,-2.055617 -0.31734,-2.438524 -2.02097,-2.438524 -1.30335,0 -2.12149,0.521962 -2.30406,1.46995 -0.4749,2.465982 0.53091,3.945865 2.4925,3.66732 1.43642,-0.203974 1.83253,-0.787318 1.83253,-2.698746 z m 81.01692,1.4997 c 3.16954,-2.868391 0.89079,-8.408852 -3.45849,-8.408852 -2.89913,0 -4.80913,1.936981 -4.80913,4.877048 0,4.394879 4.96859,6.517388 8.26762,3.531804 z m 49.40005,-3.885126 c 0.5323,-0.641391 0.85142,-2.378839 0.70915,-3.860997 -0.22981,-2.394245 -0.55926,-2.723685 -2.9535,-2.953503 -3.12101,-0.299578 -5.02716,0.967746 -5.02716,3.34235 0,3.727875 5.05573,6.141989 7.27151,3.47215 z m 19.38968,-3.873453 c 0.53648,-0.536475 0.97541,-1.926433 0.97541,-3.088797 0,-2.795189 -1.39591,-4.064206 -4.47062,-4.064206 -2.89564,0 -4.47063,1.251765 -4.47063,3.55314 0,3.640025 5.45879,6.10692 7.96584,3.599863 z m 19.26434,-9.502939 c 0,-3.578256 -1.92299,-4.920915 -4.82413,-3.368274 -3.90526,2.090037 -2.13962,6.808463 2.38161,6.364484 2.18745,-0.214806 2.44252,-0.527696 2.44252,-2.99621 z M 180.24756,79.011414 c 1.89395,-1.638492 1.80177,-4.66356 -0.20321,-6.668537 -3.99103,-3.991025 -8.82987,-0.52223 -8.2572,5.919292 0.25579,2.877185 5.46723,3.338704 8.46041,0.749245 z m 56.54439,-4.032391 c 0.28829,-2.991389 -1.02912,-3.940991 -4.32116,-3.114743 -1.56349,0.392412 -2.03028,1.035512 -2.03028,2.797133 0,2.954244 0.61921,3.501456 3.62857,3.206666 2.13064,-0.208712 2.5026,-0.603368 2.72287,-2.889056 z m -82.3521,-3.031435 c 0,-3.51421 -1.13257,-4.274933 -4.94134,-3.318993 -1.49172,0.374397 -1.96781,1.040787 -1.96781,2.754358 0,2.994779 1.48301,4.337709 4.46663,4.044722 2.2662,-0.222539 2.44252,-0.473756 2.44252,-3.480087 z m 123.55188,-4.88818 c 0,-2.055616 -0.31734,-2.438524 -2.02097,-2.438524 -1.30335,0 -2.1215,0.521962 -2.30406,1.469953 -0.4749,2.465977 0.53091,3.945864 2.4925,3.667316 1.43642,-0.203973 1.83253,-0.787316 1.83253,-2.698745 z m -75.22862,-0.763687 c 0.53411,-0.64356 0.85323,-2.198119 0.70916,-3.454575 -0.23151,-2.019032 -0.5925,-2.284468 -3.10689,-2.284468 -2.51438,0 -2.87537,0.265436 -3.10689,2.284468 -0.30134,2.628079 1.03999,4.624683 3.10689,4.624683 0.78465,0 1.86363,-0.526549 2.39773,-1.170108 z m -4.16788,-22.654655 c 0.31966,-2.787858 -1.18595,-4.787176 -3.35918,-4.460698 -2.23368,0.33556 -3.34295,2.419454 -2.68446,5.043095 0.47844,1.90627 0.91051,2.172875 3.16784,1.954701 2.18676,-0.211351 2.65665,-0.6259 2.8758,-2.537098 z m 31.08899,-1.035032 c 1.53845,-1.853719 -0.0646,-3.996072 -2.99009,-3.996072 -2.05706,0 -2.38167,0.329236 -2.60464,2.641735 -0.2352,2.43931 -0.0715,2.641734 2.13579,2.641734 1.31477,0 2.8713,-0.579328 3.45894,-1.287397 z"
     id="path923" />
</svg>
