<?xml version="1.0" encoding="UTF-8" standalone="no"?>
<svg
   version="1.1"
   id="Layer_1"
   x="0px"
   y="0px"
   viewBox="0 0 122.88 93.69"
   style="enable-background:new 0 0 122.88 93.69"
   xml:space="preserve"
   sodipodi:docname="fish-line.svg"
   inkscape:version="1.1.1 (3bf5ae0d25, 2021-09-20)"
   xmlns:inkscape="http://www.inkscape.org/namespaces/inkscape"
   xmlns:sodipodi="http://sodipodi.sourceforge.net/DTD/sodipodi-0.dtd"
   xmlns="http://www.w3.org/2000/svg"
   xmlns:svg="http://www.w3.org/2000/svg"><defs
     id="defs9" /><sodipodi:namedview
     id="namedview7"
     pagecolor="#ffffff"
     bordercolor="#666666"
     borderopacity="1.0"
     inkscape:pageshadow="2"
     inkscape:pageopacity="0.0"
     inkscape:pagecheckerboard="0"
     showgrid="false"
     inkscape:zoom="3.3621517"
     inkscape:cx="23.794286"
     inkscape:cy="45.952715"
     inkscape:window-width="1876"
     inkscape:window-height="1051"
     inkscape:window-x="44"
     inkscape:window-y="0"
     inkscape:window-maximized="1"
     inkscape:current-layer="Layer_1" /><g
     id="g4"><path
       d="M108.91,14.52l7.42-7.65c-2.47-1.48-5.46-2.47-8.74-3.04c-3.79-0.66-7.97-0.75-12.2-0.4c-2.23,0.18-4.46,0.49-6.66,0.91 c-2.13,0.4-4.23,0.91-6.26,1.5c0.65,4.16,1.69,7.95,3.15,11.35c1.48,3.47,3.39,6.53,5.72,9.2c2.34,2.68,5.13,4.96,8.37,6.83 c3.17,1.84,6.78,3.29,10.83,4.34c0.83-1.3,1.61-2.6,2.35-3.91c0.78-1.4,1.51-2.78,2.16-4.15c1.5-3.13,2.68-6.2,3.47-9.07 c0.7-2.55,1.09-4.94,1.12-7.08l-8.97,3.8c-0.41,0.17-0.85,0.16-1.23,0.01c-0.38-0.16-0.7-0.46-0.88-0.87 c-0.13-0.3-0.16-0.62-0.1-0.92c0.06-0.29,0.19-0.57,0.4-0.8L108.91,14.52L108.91,14.52z M79.38,6.84 c-2.03,0.71-3.95,1.51-5.69,2.38c-1.83,0.91-3.48,1.89-4.89,2.93c-0.21,0.15-0.45,0.25-0.69,0.29c-0.25,0.04-0.51,0.02-0.75-0.05 l-0.01,0c-1.36-0.4-2.72-0.71-4.08-0.95c-1.37-0.24-2.74-0.4-4.11-0.51c-1.41-0.11-2.81-0.16-4.2-0.16 c-1.4-0.01-2.81,0.03-4.23,0.09h0c-1.99,0.09-3.3,0.39-4.11,0.85c-0.71,0.41-0.99,0.94-0.97,1.54c0.14,3.14,5.19,8.3,7.99,11.15 l0.37,0.38c0.27,0.28,0.42,0.63,0.46,0.99c0.03,0.37-0.06,0.74-0.27,1.05c-0.9,1.45-1.79,2.95-2.69,4.49 c-0.9,1.55-1.77,3.07-2.61,4.58c-0.83,1.49-1.66,3.03-2.49,4.6c-0.81,1.54-1.63,3.11-2.45,4.72c-0.69,1.84-1.57,3.4-2.63,4.7 c-1.07,1.31-2.33,2.35-3.77,3.13c-1.43,0.78-3.02,1.29-4.76,1.54c-1.73,0.25-3.61,0.26-5.63,0.02c-2.73-0.43-5.63-1.11-8.36-1.66 l-0.74-0.16l-0.99-0.22c-1.71-0.38-4.02-0.9-6.29-1.21c-2.25-0.3-4.45-0.4-5.99,0.06c-0.6,0.18-1.06,0.48-1.3,0.96 c-0.25,0.49-0.28,1.18-0.01,2.13c0.62,1.32,1.47,2.61,2.49,3.88c1.04,1.29,2.25,2.55,3.59,3.79c1.38,1.28,2.91,2.54,4.52,3.8 c1.6,1.25,3.31,2.5,5.05,3.76c0.18,0.13,0.32,0.29,0.43,0.47c0.11,0.17,0.18,0.37,0.21,0.56l0.01,0.06 c0.15,0.99,0.32,1.97,0.51,2.95c0.19,1,0.4,1.98,0.62,2.97c0.22,0.97,0.47,1.98,0.73,3.02c0.27,1.05,0.54,2.07,0.81,3.05 c0.48,1.75,1,3.2,1.53,4.36c0.54,1.18,1.1,2.06,1.66,2.64c0.22,0.23,0.43,0.39,0.62,0.5c0.17,0.1,0.33,0.15,0.48,0.15 c0.14,0,0.3-0.04,0.47-0.13c0.19-0.1,0.4-0.25,0.62-0.46c0.56-0.54,1.12-1.35,1.67-2.43c0.55-1.08,1.08-2.42,1.58-4.03l4.7-14.96 c0.38-1.41,0.87-2.65,1.46-3.72c0.61-1.12,1.32-2.05,2.12-2.82c0.86-0.82,1.81-1.46,2.84-1.91c1.07-0.47,2.22-0.75,3.44-0.85 c4.43-0.38,8.54-0.06,12.76,0.26l0.01,0c3.66,0.28,7.42,0.57,11.5,0.39c4.08-0.18,8.52-0.82,13.56-2.39 c0.43-0.13,0.87-0.08,1.23,0.11c0.37,0.19,0.66,0.52,0.79,0.95c0.02,0.07,0.04,0.15,0.05,0.23c0.18,1.03,0.38,2.04,0.61,3.05 c0.23,1.01,0.49,2.02,0.77,3.03c0.28,1,0.59,1.99,0.91,2.96c0.32,0.97,0.67,1.94,1.04,2.92c0.27,0.46,0.55,0.81,0.84,1.04 c0.26,0.21,0.53,0.32,0.8,0.32c0.37,0,0.81-0.16,1.33-0.48c0.54-0.34,1.16-0.86,1.84-1.57c0.81-1.38,1.56-2.82,2.23-4.29 c0.68-1.48,1.29-3.01,1.83-4.59c0.56-1.61,1.04-3.26,1.45-4.94c0.41-1.69,0.76-3.41,1.04-5.17c0.03-0.17,0.08-0.32,0.15-0.47 c0.07-0.14,0.15-0.26,0.26-0.37l0.04-0.04c1.49-1.54,2.92-3.16,4.28-4.83c1.29-1.58,2.52-3.21,3.68-4.87 c-4.06-1.15-7.71-2.68-10.94-4.61c-3.37-2.01-6.3-4.43-8.79-7.27c-2.51-2.87-4.57-6.15-6.17-9.85 C81.21,15.1,80.08,11.16,79.38,6.84L79.38,6.84z M120,7.74c-1.09,1.09-2.16,2.22-3.23,3.33l3.64-1.54 c0.08-0.04,0.17-0.08,0.27-0.11c0.09-0.03,0.19-0.05,0.29-0.06l0.01,0c0.44-0.05,0.86,0.08,1.18,0.34 c0.33,0.26,0.55,0.64,0.61,1.08c0.32,2.67,0.03,5.78-0.77,9.14c-0.83,3.46-2.2,7.19-4.02,10.98c-1.77,3.7-3.97,7.47-6.5,11.11 c-2.43,3.51-5.16,6.89-8.11,9.99c-0.29,1.76-0.64,3.47-1.06,5.14c-0.43,1.72-0.92,3.39-1.48,5.01c-0.58,1.69-1.24,3.34-1.98,4.95 c-0.74,1.61-1.56,3.17-2.45,4.68l-0.01,0.01c-0.02,0.04-0.06,0.09-0.1,0.14c-0.03,0.05-0.07,0.09-0.12,0.14l-0.02,0.02 c-1.01,1.06-1.97,1.84-2.88,2.36c-0.95,0.54-1.85,0.8-2.71,0.81c-0.94,0.01-1.79-0.26-2.55-0.79c-0.73-0.51-1.38-1.26-1.94-2.23 c-0.03-0.04-0.06-0.09-0.09-0.15c-0.03-0.05-0.05-0.11-0.07-0.16L85.9,71.9c-0.39-1.02-0.75-2.05-1.1-3.1 c-0.35-1.06-0.67-2.11-0.97-3.16c-0.23-0.82-0.45-1.66-0.65-2.51c-0.17-0.72-0.33-1.43-0.47-2.13c-4.84,1.36-9.13,1.9-13.1,2.04 c-4.07,0.14-7.79-0.14-11.42-0.42l-0.01,0c-4.09-0.31-8.07-0.62-12.26-0.26c-0.86,0.07-1.66,0.26-2.39,0.58 c-0.7,0.3-1.35,0.73-1.92,1.28c-0.58,0.56-1.11,1.26-1.56,2.11c-0.45,0.83-0.83,1.81-1.14,2.95c-1.67,4.94-3.17,10.08-4.74,15.07 c-0.58,1.85-1.22,3.42-1.89,4.71c-0.7,1.34-1.44,2.38-2.21,3.11c-0.52,0.5-1.07,0.88-1.63,1.13c-0.57,0.25-1.16,0.37-1.76,0.36 c-0.6-0.01-1.19-0.16-1.76-0.44l-0.02-0.01c-0.55-0.27-1.08-0.67-1.58-1.19c-0.76-0.79-1.49-1.9-2.17-3.34 c-0.65-1.37-1.26-3.06-1.81-5.05c-0.3-1.08-0.58-2.12-0.83-3.12c-0.26-1.01-0.51-2.05-0.75-3.11c-0.22-0.97-0.42-1.92-0.6-2.85 c-0.17-0.87-0.33-1.75-0.47-2.64c-1.64-1.19-3.25-2.39-4.8-3.6c-1.58-1.24-3.1-2.51-4.52-3.82c-1.49-1.38-2.84-2.78-3.99-4.23 c-1.16-1.45-2.13-2.95-2.85-4.51l-0.06-0.14c-0.02-0.04-0.04-0.09-0.05-0.15c-0.61-2.07-0.5-3.64,0.15-4.81 c0.65-1.18,1.83-1.94,3.33-2.38c1.95-0.58,4.52-0.51,7.06-0.19c2.52,0.32,5.01,0.88,6.84,1.29l0.85,0.19 c0.27,0.06,0.54,0.12,0.79,0.17l8.18,1.63c1.69,0.19,3.24,0.19,4.65,0c1.4-0.2,2.65-0.59,3.76-1.19c1.08-0.59,2.04-1.39,2.86-2.41 c0.83-1.03,1.52-2.28,2.07-3.77l0.04-0.1l0.05-0.12c0.79-1.56,1.61-3.13,2.46-4.73c0.83-1.57,1.69-3.15,2.58-4.76 c0.79-1.43,1.59-2.85,2.4-4.24c0.77-1.32,1.55-2.64,2.35-3.94c-1.54-1.58-3.53-3.66-5.18-5.85c-1.75-2.32-3.13-4.78-3.22-6.92 c-0.07-1.59,0.44-2.97,1.78-3.99c1.28-0.98,3.34-1.61,6.4-1.75c1.48-0.06,2.95-0.1,4.42-0.1c1.48,0.01,2.94,0.05,4.38,0.17 c1.38,0.11,2.76,0.27,4.14,0.5c1.33,0.22,2.66,0.51,3.99,0.88c3.27-2.27,7.56-4.27,12.32-5.8c4.79-1.55,10.07-2.63,15.28-3.07 c4.91-0.41,9.79-0.24,14.19,0.67c4.01,0.83,7.62,2.27,10.49,4.44c0.06,0.05,0.12,0.1,0.17,0.15c0.31,0.31,0.46,0.71,0.47,1.12 C120.46,7,120.31,7.42,120,7.74L120,7.74z M99.98,7.89l0.03,0.01c0.49,0.13,0.94,0.36,1.32,0.65c0.4,0.3,0.73,0.68,0.97,1.11 c0.24,0.42,0.4,0.89,0.47,1.38c0.06,0.46,0.04,0.95-0.08,1.43l-0.02,0.07c-0.13,0.48-0.35,0.92-0.64,1.3 c-0.3,0.39-0.66,0.71-1.07,0.95l-0.03,0.02c-0.42,0.24-0.9,0.41-1.39,0.47c-0.48,0.06-0.98,0.03-1.47-0.1 c-0.49-0.13-0.94-0.36-1.32-0.65c-0.39-0.3-0.71-0.67-0.96-1.08l-0.01-0.02c-0.24-0.42-0.4-0.89-0.47-1.38 c-0.06-0.47-0.04-0.95,0.08-1.44l0.02-0.07c0.13-0.48,0.35-0.92,0.64-1.3c0.3-0.4,0.68-0.72,1.1-0.97c0.42-0.24,0.89-0.4,1.38-0.47 c0.47-0.06,0.95-0.04,1.44,0.08L99.98,7.89L99.98,7.89z M100.63,5.49l0.07,0.02c0.8,0.22,1.53,0.59,2.15,1.07 c0.65,0.5,1.19,1.13,1.6,1.83c0.4,0.7,0.67,1.48,0.78,2.29c0.11,0.78,0.07,1.6-0.14,2.41l-0.02,0.07 c-0.22,0.81-0.59,1.55-1.08,2.18c-0.5,0.65-1.13,1.19-1.83,1.6l-0.03,0.02c-0.7,0.4-1.47,0.66-2.29,0.77 c-0.79,0.1-1.61,0.06-2.43-0.16c-0.82-0.22-1.55-0.59-2.19-1.08c-0.66-0.5-1.2-1.13-1.61-1.84c-0.4-0.7-0.67-1.48-0.78-2.29 c-0.11-0.78-0.07-1.6,0.14-2.41L93,9.88c0.22-0.8,0.59-1.53,1.07-2.15c0.5-0.65,1.13-1.2,1.83-1.6c0.7-0.4,1.48-0.67,2.29-0.78 c0.78-0.11,1.6-0.07,2.41,0.14L100.63,5.49L100.63,5.49z M100.49,6.23l-0.07-0.02c-0.71-0.19-1.43-0.22-2.12-0.13 c-0.71,0.1-1.4,0.33-2.02,0.69c-0.62,0.36-1.17,0.84-1.62,1.41c-0.43,0.55-0.75,1.2-0.95,1.91l-0.02,0.06 c-0.19,0.72-0.22,1.43-0.13,2.13c0.1,0.71,0.34,1.4,0.69,2.02c0.36,0.62,0.84,1.18,1.42,1.62c0.56,0.43,1.21,0.75,1.93,0.95 c0.72,0.19,1.45,0.23,2.14,0.14c0.72-0.1,1.41-0.33,2.03-0.69l0.05-0.03c0.6-0.35,1.14-0.82,1.57-1.39 c0.43-0.55,0.75-1.2,0.95-1.92l0.02-0.06c0.19-0.71,0.22-1.43,0.13-2.12c-0.1-0.72-0.34-1.4-0.69-2.02 c-0.36-0.62-0.84-1.17-1.41-1.61C101.84,6.75,101.2,6.42,100.49,6.23L100.49,6.23z"
       id="path2" /></g><path
     style="fill:#b3b3b3;stroke-width:0.297429"
     d="m 25.849933,89.675404 c -1.721255,-1.721258 -3.737373,-7.67681 -5.319642,-15.714068 -0.41321,-2.098933 -0.75129,-3.861611 -0.75129,-3.917066 0,-0.05546 -0.970361,-0.803221 -2.156358,-1.661701 C 10.406099,63.158896 5.7418358,58.559279 3.9763812,54.925443 3.0152455,52.947135 3.3716647,52.062312 5.3577807,51.49607 c 2.0116271,-0.573516 5.1362853,-0.185116 14.2725053,1.774093 5.980685,1.282521 7.644737,1.532091 10.261286,1.538952 3.770327,0.0099 6.157563,-0.592513 8.597471,-2.169503 2.282342,-1.475151 3.620639,-3.185136 5.512657,-7.043704 1.879885,-3.833827 5.993947,-11.367835 8.66234,-15.863182 1.052757,-1.773546 1.914104,-3.503855 1.914104,-3.845132 0,-0.371302 -1.291277,-2.04982 -3.215238,-4.179458 -3.533321,-3.911045 -5.410191,-6.754567 -5.410191,-8.196628 0,-2.143379 2.07673,-2.641031 10.094548,-2.418985 3.863377,0.106993 6.517323,0.326835 7.899881,0.654394 3.945798,0.934848 4.39082,0.924559 5.934019,-0.13719 1.347107,-0.926834 7.409701,-3.9338105 8.675864,-4.3031285 0.583789,-0.1702815 0.680686,0.032464 1.301723,2.7237845 2.022606,8.765116 5.294151,14.997044 10.667921,20.321205 4.275372,4.2359 9.393493,7.34628 15.413129,9.366849 l 2.43466,0.817227 -1.83419,2.411095 c -1.00881,1.326107 -2.8511,3.565336 -4.09397,4.97607 l -2.25979,2.56497 -0.530768,2.788744 c -1.110498,5.834654 -4.438429,14.474805 -6.463745,16.781516 -1.09987,1.252682 -2.399874,1.987376 -3.064966,1.732155 -0.26271,-0.10081 -0.733685,-0.685156 -1.046615,-1.298549 -0.666193,-1.305848 -2.482149,-7.393013 -2.972796,-9.964949 -0.713109,-3.738074 -0.689166,-3.726626 -5.344185,-2.555075 -6.907038,1.738327 -12.255652,2.023701 -23.359719,1.246359 -7.182002,-0.502779 -12.757015,-0.330532 -14.8482,0.458754 -1.951628,0.736615 -4.325709,2.950426 -5.4399,5.072665 -0.498351,0.949229 -2.266674,6.059323 -3.929606,11.355767 -3.450279,10.989141 -4.379474,13.163758 -5.993969,14.027809 -0.464735,0.248718 -0.724294,0.160221 -1.342108,-0.457591 z"
     id="path881" /><path
     style="fill:#e6e6e6;stroke-width:0.297429"
     d="M 107.45139,36.446303 C 94.095332,31.872522 86.210689,22.857462 83.186661,8.7027555 L 82.599523,5.9545109 83.683334,5.6741349 C 84.27943,5.5199282 85.302516,5.2553269 85.956859,5.0861321 88.075025,4.5384336 94.503692,3.619707 97.556574,3.4284064 103.29895,3.0685758 110.07464,4.1078638 114.0188,5.9534643 l 1.88823,0.8835618 -1.19727,1.4147012 c -0.6585,0.778086 -2.34472,2.5494107 -3.74715,3.9362777 -2.12812,2.104486 -2.54989,2.67653 -2.54989,3.458368 0,1.066737 0.57786,1.678842 1.58493,1.678842 0.37995,0 2.48756,-0.764451 4.68358,-1.698779 2.19602,-0.934329 4.16008,-1.768436 4.36456,-1.853572 0.51384,-0.213936 0.48048,1.185337 -0.0956,4.011033 -0.709,3.477594 -2.04446,7.248619 -4.02445,11.364104 -1.49436,3.106064 -4.37034,8.37687 -4.53364,8.308783 -0.0254,-0.01056 -1.34866,-0.465285 -2.9407,-1.010481 z m -5.64461,-19.168206 c 3.35751,-1.727023 4.51933,-5.307889 2.81372,-8.6722447 C 103.48153,6.359189 101.6658,5.251413 99.101713,5.2388306 92.175842,5.2048441 90.169625,14.090987 96.36686,17.352326 c 1.268693,0.667659 4.07198,0.629407 5.43992,-0.07423 z"
     id="path994" /><path
     style="fill:#cccccc;stroke-width:0.297429"
     d="M 106.73418,36.011162 C 93.611057,31.01351 86.367394,22.52794 83.279242,8.5349445 82.997493,7.2582849 82.829614,6.1511018 82.906179,6.0745372 c 0.324986,-0.324986 6.930238,-1.6177388 10.635109,-2.0814598 4.954962,-0.6201889 11.379922,-0.4392049 15.168862,0.42729 2.57995,0.5900113 6.42506,1.9883482 6.70267,2.4375367 0.0847,0.1370031 -1.45571,1.9434644 -3.42308,4.0143589 -3.11867,3.282786 -3.57702,3.893706 -3.57702,4.767643 0,1.307913 0.9711,2.017838 2.24672,1.642462 1.69049,-0.497466 5.04247,-1.926048 5.25879,-2.241252 0.12019,-0.175121 0.22057,-0.222776 0.22308,-0.1059 0.002,0.116876 0.61794,-0.05043 1.36764,-0.371785 0.74969,-0.321359 1.41891,-0.584288 1.48714,-0.584288 0.33759,0 0.0516,2.752076 -0.53716,5.168183 -0.36368,1.492521 -0.66482,2.847517 -0.66922,3.011103 -0.004,0.163586 -0.0793,0.36435 -0.16645,0.446143 -0.0872,0.08179 -0.54548,1.152536 -1.01851,2.379429 -0.85227,2.21052 -4.64629,9.856197 -5.65453,11.394976 -0.28816,0.439778 -0.67583,0.79544 -0.8615,0.790363 -0.18566,-0.0051 -1.69521,-0.526258 -3.35454,-1.158178 z m -5.2067,-18.491972 c 0.51516,-0.179588 0.93667,-0.431664 0.93667,-0.560168 0,-0.128503 0.25536,-0.300421 0.56747,-0.382039 0.3121,-0.08162 0.93436,-0.702812 1.38279,-1.38043 1.50339,-2.271775 1.27713,-5.7042895 -0.51969,-7.8841471 -1.17009,-1.4195164 -2.34954,-1.9962548 -4.32418,-2.1144659 -3.956987,-0.2368842 -6.921538,2.4819467 -6.921538,6.347838 0,1.536231 0.48498,3.325651 0.901339,3.325651 0.136559,0 0.336694,0.278538 0.444744,0.618973 0.10805,0.340435 0.812487,1.009649 1.565416,1.487142 1.130535,0.716964 1.687805,0.868171 3.199634,0.868171 1.00687,0 2.252175,-0.146936 2.767345,-0.326525 z"
     id="path46" /><path
     style="fill:#cccccc;stroke-width:0.297429"
     d="M 105.73586,35.434103 C 94.743087,30.854025 88.202661,23.970818 84.778277,13.378139 83.778203,10.2846 82.905839,6.3723058 83.159545,6.1186002 83.359559,5.9185856 88.863086,4.8346386 92.275259,4.3232151 95.723031,3.8064557 103.30863,3.7252407 106.47943,4.1711384 c 2.21674,0.3117321 7.5111,1.8868928 8.313,2.4732596 0.41811,0.305723 0.0328,0.8503081 -2.94939,4.168675 -2.88918,3.214867 -3.43032,3.969536 -3.43032,4.783871 0,1.315752 0.87716,2.088209 2.09474,1.844693 0.50665,-0.101329 2.50508,-0.854921 4.44096,-1.67465 1.93588,-0.819728 3.66805,-1.490415 3.84927,-1.490415 0.39504,0 0.23464,1.36546 -0.62482,5.318853 -0.65898,3.031226 -2.39676,7.199634 -5.53234,13.270433 -1.70171,3.294664 -2.10708,3.875946 -2.74067,3.929959 -0.40896,0.03486 -2.28276,-0.577909 -4.164,-1.361714 z m -2.72755,-18.73765 c 1.88338,-1.492117 2.51772,-2.949938 2.37587,-5.460197 -0.0706,-1.2501846 -0.26677,-2.1441603 -0.50236,-2.2897626 -0.21257,-0.1313715 -0.34159,-0.325897 -0.28672,-0.4322788 0.18605,-0.3607235 -1.02121,-1.8653674 -2.07733,-2.5890273 -0.88719,-0.6079118 -1.4022,-0.7192667 -3.303547,-0.7142829 -2.504484,0.00656 -3.48246,0.3879061 -5.015111,1.9555381 -1.248736,1.2772375 -1.637977,2.5790889 -1.500193,5.0175305 0.101727,1.800309 0.231151,2.160082 1.204287,3.347666 1.589078,1.939259 2.57869,2.347445 5.450351,2.248104 2.207273,-0.07636 2.489293,-0.159949 3.654753,-1.08329 z"
     id="path204" /></svg>
