<?xml version="1.0" encoding="UTF-8" standalone="no"?>
<svg
   id="Layer_1"
   data-name="Layer 1"
   viewBox="0 0 122.88 98.74"
   version="1.1"
   sodipodi:docname="greenhouse.svg"
   inkscape:version="1.1.1 (3bf5ae0d25, 2021-09-20)"
   xmlns:inkscape="http://www.inkscape.org/namespaces/inkscape"
   xmlns:sodipodi="http://sodipodi.sourceforge.net/DTD/sodipodi-0.dtd"
   xmlns="http://www.w3.org/2000/svg"
   xmlns:svg="http://www.w3.org/2000/svg">
  <sodipodi:namedview
     id="namedview19"
     pagecolor="#ffffff"
     bordercolor="#666666"
     borderopacity="1.0"
     inkscape:pageshadow="2"
     inkscape:pageopacity="0.0"
     inkscape:pagecheckerboard="0"
     showgrid="false"
     inkscape:zoom="6.3803931"
     inkscape:cx="61.438221"
     inkscape:cy="49.291634"
     inkscape:window-width="1876"
     inkscape:window-height="1051"
     inkscape:window-x="44"
     inkscape:window-y="0"
     inkscape:window-maximized="1"
     inkscape:current-layer="Layer_1" />
  <defs
     id="defs4">
    <style
       id="style2">.cls-1{fill:#462323;}.cls-1,.cls-2,.cls-3{fill-rule:evenodd;}.cls-2{fill:#313131;}.cls-3{fill:#69c229;}</style>
  </defs>
  <title
     id="title6">greenhouse</title>
  <path
     d="m 10.52,55.63 v -1.79 a 8.44,8.44 0 0 1 -5.8,0.27 6.87,6.87 0 0 1 -3.2,-2.24 7,7 0 0 1 -1.47,-3.61 9.08,9.08 0 0 1 2.19,-6.73 v 0 A 1.82,1.82 0 0 1 2.55,41.22 L 60,0.51 a 1.91,1.91 0 0 1 2.47,-0.1 L 120,41 v 0 a 1.51,1.51 0 0 1 0.23,0.21 8.6,8.6 0 0 1 2.44,7.93 7.42,7.42 0 0 1 -1.67,3.22 7.12,7.12 0 0 1 -3,2 8,8 0 0 1 -6.2,-0.4 v 0 L 105,50.18 C 97,44.09 65.1,22.06 61.63,19.37 58.25,22 30.3,40.79 19.7,48.55 v 0 c -1.68,1.23 -2.93,2.18 -3.57,2.75 l -5.61,4.32 z"
     id="path8" />
  <polygon
     class="cls-2"
     points="111.85 53.97 111.85 98.74 106.73 98.74 106.73 51.16 111.85 53.97 111.85 53.97"
     id="polygon10" />
  <polygon
     class="cls-2"
     points="10.52 98.74 10.52 55.63 15.64 51.69 15.64 98.74 10.52 98.74 10.52 98.74 10.52 98.74"
     id="polygon12" />
  <polygon
     class="cls-2"
     points="10.52 96.18 106.73 96.18 106.73 98.74 10.52 98.74 10.52 96.18 10.52 96.18 10.52 96.18"
     id="polygon14" />
  <path
     class="st0"
     d="m 36.699511,61.496959 c 0.429929,2.205669 0.847022,4.246845 1.202086,5.368372 1.058775,-0.05981 1.745376,-0.39378 2.46406,-0.700331 0.883382,-0.378826 1.625596,-0.864821 2.271557,-1.430569 0.491955,-0.376334 0.770018,-0.204366 0.729377,0.767623 -0.149725,0.904696 -0.549707,1.595058 -1.157168,2.115945 0.03208,-0.0024 0.06417,-0.0024 0.09626,-0.005 -0.117642,0.01246 -0.235284,0.02493 -0.355065,0.03989 v 0 c 1.529343,0.523379 2.643732,1.607521 3.033018,3.658667 0.02781,1.034296 -0.209615,1.510323 -0.581791,0.91716 -1.95927,-1.811888 -3.691813,-2.7764 -5.360187,-2.285422 0.562541,1.562661 1.736821,2.641818 2.95174,3.80322 -2.185999,0.03739 -4.183769,-0.954542 -5.950536,-2.920951 -1.974243,1.129002 -4.848981,0.81996 -5.933423,2.57951 -0.633126,0.904697 -0.755046,0.446117 -0.586069,-0.787561 0.46201,-1.96641 1.249141,-3.237473 2.399891,-3.73593 -1.691903,0.07477 -2.893987,-0.378825 -3.63406,-0.872297 0.861993,-0.376335 1.918629,-0.418703 3.114298,-0.570732 l -1.764629,-0.83487 c -0.312285,-0.236767 -0.175393,-0.378827 0.331535,-0.438642 2.267278,-0.0997 4.254355,0.02243 5.747336,0.548302 -0.02352,-1.472938 -0.558264,-2.945875 -1.178557,-4.418814 l 1.617041,-1.238663 z"
     id="path4"
     style="clip-rule:evenodd;fill:#75aa00;fill-rule:evenodd;stroke-width:0.230886" />
  <path
     class="st1"
     d="m 41.760247,67.603045 c 1.473732,0.505934 2.549618,1.550199 2.923933,3.52907 0.02781,0.996911 -0.09198,1.393183 -0.451317,0.81996 -1.888686,-1.747089 -3.670423,-2.61191 -5.281045,-2.138377 0.54115,1.50783 1.619177,2.68668 2.791319,3.808204 -2.108998,0.03489 -3.978432,-1.061711 -5.683168,-2.958336 -1.903659,1.089126 -4.675726,0.790052 -5.723808,2.489788 -0.611738,0.872298 -0.729378,0.431165 -0.564679,-0.760145 0.444898,-1.896626 1.204223,-3.122827 2.314333,-3.603838 -1.822376,0.07976 -3.026602,-0.209352 -3.713201,-0.807498 -0.932578,0.363872 -1.653403,0.849866 -2.153915,1.46546 v 0 c -0.01062,0.01246 -0.02352,0.02743 -0.03636,0.03988 -0.701572,0.712792 -1.247002,1.530261 -1.649123,2.429973 -0.421371,0.944574 -0.682321,1.976379 -0.797825,3.063013 -0.299452,2.796336 0.228867,5.859351 1.39673,8.513626 1.114387,2.529664 2.802012,4.6805 4.904592,5.851873 1.306892,0.730239 2.776344,1.206263 4.42547,1.380727 1.664096,0.174463 3.510001,0.04237 5.563386,-0.44363 1.525064,-0.363867 2.872598,-0.924631 4.051155,-1.654871 1.229891,-0.762634 2.269416,-1.704722 3.12927,-2.783878 1.251282,-1.572626 2.111136,-3.481713 2.496145,-5.650004 0.372175,-2.091016 0.303729,-4.428781 -0.273785,-6.953455 v 0 c -0.147588,-0.578213 -0.322981,-1.10907 -0.519762,-1.600049 -0.198923,-0.485994 -0.417095,-0.924636 -0.658795,-1.315924 -0.763602,-1.23617 -1.760349,-2.036193 -2.958155,-2.454896 -1.028831,-0.356396 -2.213805,-0.433657 -3.531394,-0.266675 z"
     id="path6"
     style="clip-rule:evenodd;fill:#f23329;fill-rule:evenodd;stroke-width:0.230886" />
  <path
     class="st2"
     d="m 31.589581,69.066014 c 0.156143,-0.112156 0.322979,-0.204367 0.496234,-0.281628 -0.162559,0.0073 -0.320841,0.01246 -0.474845,0.01246 -0.01062,0.0972 -0.01711,0.186921 -0.02138,0.269166 z m -5.800809,0.844883 c -0.517624,0.605624 -0.934717,1.278541 -1.257697,2.003793 -0.421371,0.944576 -0.682323,1.976379 -0.797824,3.063014 -0.297314,2.798831 0.231004,5.861845 1.398868,8.516121 1.114387,2.529665 2.802011,4.680501 4.90459,5.851873 1.306894,0.730239 2.776346,1.206264 4.42547,1.380727 1.664097,0.174464 3.510003,0.04237 5.563386,-0.443629 1.525066,-0.363867 2.872597,-0.924633 4.051156,-1.654871 1.229891,-0.762635 2.269417,-1.704722 3.129271,-2.783879 0.998885,-1.256113 1.749655,-2.726553 2.207387,-4.373949 -5.533442,12.012791 -27.549564,8.124837 -23.624607,-11.5592 z"
     id="path8-3"
     style="clip-rule:evenodd;fill:#d61d1d;fill-rule:evenodd;stroke:#f60d11;stroke-width:0.0498713;stroke-miterlimit:2.6131" />
  <path
     class="st3"
     d="m 47.481916,81.176002 c -0.04492,0.281629 -0.280201,0.468549 -0.524041,0.413717 -0.241702,-0.05234 -0.402121,-0.326481 -0.355065,-0.610606 0.260951,-1.617486 0.293037,-3.020639 0.14117,-4.249337 -0.151864,-1.213739 -0.485539,-2.258005 -0.960384,-3.177657 -0.128337,-0.246736 -0.05988,-0.565748 0.151865,-0.715285 0.211755,-0.149536 0.485539,-0.06977 0.613876,0.176953 0.534735,1.034295 0.90905,2.208164 1.080166,3.56396 0.168976,1.345836 0.134753,2.863631 -0.147587,4.598255 z"
     id="path10"
     style="clip-rule:evenodd;fill:#d61d1d;fill-rule:evenodd;stroke-width:0.230886" />
  <path
     class="st0"
     d="m 60.141076,32.748099 c 0.163938,-0.830617 0.382522,-1.617519 0.653019,-2.3689 0.297821,-0.825154 0.655751,-1.60659 1.076525,-2.363436 0.898925,-1.620252 2.185837,-2.330649 3.306078,-2.35524 0.486349,-0.01093 0.93991,0.103827 1.325164,0.330608 0.39345,0.229513 0.713129,0.57105 0.920783,1.008217 0.437168,0.920784 0.352467,2.262341 -0.688538,3.806089 -0.245907,0.363396 -0.464491,0.740452 -0.661216,1.133903 -0.114756,0.232245 -0.221316,0.467223 -0.316946,0.710397 0.09836,0.02459 0.193993,0.04918 0.289623,0.07651 0.500011,0.142079 0.969966,0.319679 1.409865,0.53553 1.286911,-0.267765 2.491854,-0.338804 3.590237,-0.234977 1.726811,0.163938 3.196786,0.759578 4.322493,1.699488 1.125706,0.93991 1.898945,2.218624 2.23775,3.751442 0.185796,0.841548 0.240442,1.756867 0.147544,2.726832 -0.180331,1.890749 -0.502742,4.11757 -0.945374,6.308871 -0.387986,1.920804 -0.866138,3.811553 -1.423526,5.420876 -1.147565,3.317007 -2.48639,5.28426 -4.046531,5.959137 -1.530086,0.661219 -3.17766,0.131151 -4.970047,-1.538283 -0.852476,1.109313 -1.953591,1.901681 -3.382582,1.877091 -1.341557,-0.02185 -2.423547,-0.855212 -3.28422,-1.983651 -1.836103,1.751403 -3.519197,2.316991 -5.082071,1.644843 -1.560141,-0.672149 -2.898966,-2.639401 -4.046531,-5.959141 -0.557388,-1.609323 -1.03554,-3.500072 -1.423526,-5.420876 -0.442632,-2.185836 -0.765043,-4.412657 -0.945374,-6.306138 -0.0929,-0.969966 -0.03825,-1.882553 0.147544,-2.726832 0.338804,-1.532818 1.112044,-2.811533 2.23775,-3.751443 1.125706,-0.93991 2.595682,-1.53555 4.322493,-1.699488 1.1421,-0.109292 2.398956,-0.02733 3.745978,0.267765 0.02186,0.0055 0.04372,0.01093 0.06558,0.01912 0.450829,-0.202189 0.918051,-0.398915 1.418062,-0.568317 z"
     id="path4-6"
     style="fill:#136b0a;stroke-width:0.27323" />
  <path
     class="st1"
     d="m 62.649325,32.242625 c 0.639357,-0.0055 1.319699,0.05191 2.043757,0.16667 0.125685,-0.327876 0.2623,-0.64209 0.412577,-0.945375 0.218583,-0.445364 0.464489,-0.863405 0.732255,-1.262321 0.795098,-1.183084 0.896193,-2.131191 0.609302,-2.740493 -0.109292,-0.229513 -0.278694,-0.412577 -0.489081,-0.53553 -0.218584,-0.128417 -0.478152,-0.191261 -0.759579,-0.185796 -0.775971,0.01639 -1.694023,0.557388 -2.382561,1.800583 -0.393451,0.707665 -0.726791,1.437188 -1.002753,2.202232 -0.185796,0.516403 -0.347002,1.051933 -0.478152,1.612054 0.415309,-0.07104 0.855209,-0.109292 1.314235,-0.112024 z"
     id="path6-7"
     style="fill:#8fba39;stroke-width:0.27323" />
  <path
     class="st2"
     d="m 59.108269,56.385193 c -0.803296,-1.314234 -1.371613,-2.803335 -1.743206,-3.797891 -1.030075,-2.762352 -2.584752,-8.103991 -2.475459,-12.448341 0.06558,-2.584752 0.721325,-4.836165 2.407153,-6.062965 -0.806028,-0.103828 -1.568339,-0.117489 -2.276003,-0.05191 -1.489102,0.142079 -2.74869,0.647553 -3.704994,1.445384 -0.956304,0.797831 -1.61752,1.893482 -1.907143,3.210448 -0.163938,0.743184 -0.210387,1.562874 -0.125685,2.445405 0.180331,1.87982 0.497277,4.073853 0.92898,6.215973 0.379789,1.885285 0.849744,3.73505 1.390739,5.300655 1.051934,3.038314 2.199499,4.808841 3.475481,5.358032 1.136635,0.489082 2.472728,-0.06284 4.030137,-1.614786 z"
     id="path8-5"
     style="fill:#318e23;stroke-width:0.27323" />
  <path
     class="st3"
     d="m 68.715021,34.065066 c 2.316988,1.874356 2.696777,5.292458 2.303326,8.808923 -0.382522,3.43996 -1.494566,6.970088 -2.218624,9.177783 -0.0027,0.0082 -0.0055,0.01366 -0.0082,0.02186 l -0.04098,0.128418 c -0.382521,1.163958 -0.934445,2.85525 -1.792386,4.28424 1.51096,1.469975 2.814265,1.986379 3.923577,1.508227 1.273251,-0.549191 2.423547,-2.316986 3.475481,-5.358032 0.540995,-1.562874 1.008217,-3.412638 1.390739,-5.297922 0.431702,-2.14212 0.748649,-4.336154 0.928981,-6.215973 0.0847,-0.882532 0.03825,-1.702221 -0.125686,-2.445406 -0.289624,-1.316967 -0.950839,-2.409885 -1.907143,-3.210448 -0.956303,-0.79783 -2.215892,-1.303305 -3.704994,-1.445384 -0.694002,-0.06558 -1.437187,-0.05464 -2.224089,0.04372 z"
     id="path10-3"
     style="fill:#078407;stroke-width:0.27323" />
  <path
     class="st4"
     d="m 64.938988,33.548662 c -0.825153,-0.153008 -1.587463,-0.232245 -2.284199,-0.22678 -0.407112,0.0027 -0.795098,0.03552 -1.158493,0.101094 -1.024612,0.204923 -1.89075,0.601106 -2.721368,0.983628 l -0.191261,0.08743 v 0 h -0.0027 c -1.852497,0.847011 -2.543768,3.04651 -2.612075,5.658585 -0.10656,4.199539 1.412597,9.407295 2.420814,12.106804 0.379789,1.016414 0.967233,2.557429 1.778725,3.825215 0.756846,1.183083 1.702221,2.136655 2.833391,2.15578 2.620271,0.04372 3.994616,-4.153089 4.705013,-6.322532 l 0.04372,-0.133883 c 0.0027,-0.0082 0.0055,-0.01639 0.0055,-0.02185 0.715861,-2.17764 1.808779,-5.65312 2.180372,-8.991986 0.363395,-3.2487 0.05191,-6.368982 -1.964521,-7.978305 -0.633892,-0.505474 -1.390739,-0.86887 -2.245948,-1.112045 -0.180331,-0.05191 -0.363395,-0.09563 -0.551924,-0.136614 -0.07104,0.01912 -0.153008,0.02186 -0.234977,0.0055 z"
     id="path12"
     style="fill:#2c9822;stroke-width:0.27323" />
  <path
     class="cls-1"
     d="m 83.570934,94.30075 h 1.847599 l -1.768307,-0.554955 c 2.195733,-6.7906 0.479122,-10.871855 -0.520504,-15.456369 -0.324023,-1.506345 0.02755,-3.029921 0.792805,-3.577996 -0.644586,-0.248177 -1.230571,-1.085798 -1.482207,-2.243996 -0.344701,-1.637332 0.08968,-3.291883 0.999639,-3.698631 v 0 -0.08277 A 3.9468195,3.9468195 0 0 1 83.157293,67.86909 c -0.341242,-1.502898 -0.134421,-3.422871 0.492933,-4.291522 l 0.04138,-0.0517 a 1.1306173,1.1306173 0 0 1 -0.06201,-0.210267 1.2926265,1.2926265 0 0 1 0.92036,-1.516684 1.2960735,1.2960735 0 0 1 0.761788,-2.044067 1.1375113,1.1375113 0 0 1 0.210267,-0.02755 v -0.05861 a 1.2960735,1.2960735 0 0 1 0.996179,-1.537362 1.6580088,1.6580088 0 0 1 0.182696,-0.02415 1.2960735,1.2960735 0 0 1 1.03409,-1.196107 1.3788015,1.3788015 0 0 1 0.199928,-0.02755 1.6235389,1.6235389 0 0 1 0.02076,-0.923806 1.6097508,1.6097508 0 0 1 2.616267,-0.689401 c 0,-0.04478 0.02076,-0.08968 0.03446,-0.134434 a 1.2960735,1.2960735 0 0 1 1.168536,-0.892763 1.2926265,1.2926265 0 0 0 -0.461903,-0.08277 1.2788384,1.2788384 0 0 0 -0.644586,0.172357 1.2960735,1.2960735 0 0 0 -1.751088,-0.896222 1.2960735,1.2960735 0 0 0 -2.278459,-0.275761 c -0.220619,-0.02063 -0.441225,-0.03799 -0.661831,-0.0483 a 1.2857324,1.2857324 0 0 0 -1.547701,-0.189576 1.2960735,1.2960735 0 0 0 -2.374982,0.561861 1.2926265,1.2926265 0 0 0 -1.851046,0.851406 1.2788384,1.2788384 0 0 0 -0.644586,-0.172357 1.2926265,1.2926265 0 0 0 -1.296078,1.292632 c 0,0.04478 0,0.09308 0,0.13788 a 1.6063038,1.6063038 0 0 0 -2.01305,2.340519 1.2409214,1.2409214 0 0 0 -0.17925,0.08955 1.2891794,1.2891794 0 0 0 -0.589431,1.45119 1.0927002,1.0927002 0 0 0 -0.16891,0.08276 1.2891794,1.2891794 0 0 0 -0.47223,1.764873 l 0.03107,0.0517 a 1.2340274,1.2340274 0 0 0 -0.193035,0.09308 1.2891794,1.2891794 0 0 0 -0.472229,1.764861 1.3167555,1.3167555 0 0 0 0.375718,0.413641 1.2926265,1.2926265 0 0 0 -0.410195,1.723504 1.3788015,1.3788015 0 0 0 0.124147,0.179237 l -0.02063,0.06201 c -0.320576,1.034103 0.07245,2.909272 0.878978,4.226028 a 4.1157226,4.1157226 0 0 0 0.520504,0.689402 l 0.02063,0.06201 v 0 c -0.748003,0.675617 -0.661831,2.388769 0.179249,3.853757 0.596324,1.034089 1.413267,1.644212 2.099223,1.682135 -0.558414,0.754895 -0.42398,2.316382 0.3447,3.646923 2.361198,4.057131 5.249779,7.407615 5.249779,14.546362 z"
     id="path8-56"
     style="fill:#468c1e;fill-rule:evenodd;stroke-width:0.344701" />
  <path
     class="cls-2"
     d="m 85.373717,94.286965 h -0.892763 v -0.289546 l 0.906562,0.289546 z m -0.875531,-3.988178 0.02415,-5.701343 a 18.820641,18.820641 0 0 1 -0.02415,5.701343 z M 83.036657,76.721033 a 19.878872,19.878872 0 0 1 -2.216424,-2.412892 15.356402,15.356402 0 0 1 -2.471507,-4.312214 l -0.410195,-1.203 0.689402,1.072026 a 37.644729,37.644729 0 0 0 3.35739,4.460419 c 0.437765,0.496367 0.868638,0.951377 1.282279,1.340881 a 4.0502296,4.0502296 0 0 0 -0.227499,1.05478 z m -0.24819,-7.338661 A 14.167186,14.167186 0 0 1 81.45448,68.065616 14.949656,14.949656 0 0 1 79.169115,64.535882 l -0.572199,-1.196108 0.830728,1.03409 a 43.735585,43.735585 0 0 0 2.936843,3.384961 13.908661,13.908661 0 0 0 1.089257,0.996192 v 0 a 1.5339168,1.5339168 0 0 0 -0.66183,0.627355 z m 0.489474,-5.036079 a 13.443316,13.443316 0 0 1 -1.530469,-1.575285 15.049619,15.049619 0 0 1 -2.154377,-3.574536 l -0.554968,-1.258155 0.82039,1.103043 a 41.998295,41.998295 0 0 0 2.774838,3.446995 13.512256,13.512256 0 0 0 1.034103,1.034102 v 0 l -0.04138,0.0517 a 2.7955201,2.7955201 0 0 0 -0.344701,0.768681 z m 1.658011,-4.453527 0.09308,-4.525913 h 0.306791 l 0.130988,4.363908 a 1.0341012,1.0341012 0 0 0 -0.172357,0.02415 1.3339905,1.3339905 0 0 0 -0.365379,0.13788 z"
     id="path10-2"
     style="fill:#9dd345;stroke-width:0.344701" />
  <path
     class="cls-3"
     d="m 83.650226,93.745795 3.102294,1.006519 c 2.561126,-7.928106 6.756137,-9.138012 9.996312,-12.064516 1.147858,-1.034103 1.754529,-2.468048 1.454631,-3.360824 0.665277,0.175791 1.633885,-0.162004 2.516307,-0.951376 1.27885,-1.123721 1.88897,-2.726577 1.38571,-3.588336 l -0.0208,-0.03446 a 4.0192065,4.0192065 0 0 0 0.76179,-0.527397 c 1.17199,-1.006519 2.12681,-2.685207 2.1337,-3.75034 a 0.91690304,0.91690304 0 0 0 0,-0.196468 l 0.0414,-0.04138 a 1.2926265,1.2926265 0 0 0 0.14478,-1.768319 1.2960735,1.2960735 0 0 0 0.57566,-2.106115 1.5408108,1.5408108 0 0 0 -0.15512,-0.144773 l 0.0483,-0.03786 a 1.2960735,1.2960735 0 0 0 0.0931,-1.826908 1.1616403,1.1616403 0 0 0 -0.13442,-0.127541 1.2926265,1.2926265 0 0 0 -0.12754,-1.568379 1.0892532,1.0892532 0 0 0 -0.14477,-0.137881 1.6097508,1.6097508 0 0 0 -0.51017,-2.785177 1.6200918,1.6200918 0 0 0 -0.6894,-0.06553 0.81004591,0.81004591 0 0 0 0.0483,-0.127541 1.2926265,1.2926265 0 0 0 -1.49945,-1.664904 1.2891794,1.2891794 0 0 0 -0.89276,-1.327094 1.3029675,1.3029675 0 0 0 -0.49638,-0.06201 1.2960735,1.2960735 0 0 0 -2.068194,-0.961716 c -0.199928,-0.08968 -0.406748,-0.172344 -0.613569,-0.251636 a 1.2822854,1.2822854 0 0 0 -0.744551,-0.623908 1.3167555,1.3167555 0 0 0 -0.689402,-0.03446 1.2926265,1.2926265 0 0 0 -2.392214,-0.186143 1.3133085,1.3133085 0 0 0 -0.513612,-0.324009 1.2926265,1.2926265 0 0 0 -1.499439,0.554967 1.2960735,1.2960735 0 0 0 -2.1923,0.479122 c 0,0.04478 -0.02415,0.08968 -0.03446,0.134434 a 1.6097508,1.6097508 0 0 0 -2.61628,0.689402 1.6235389,1.6235389 0 0 0 -0.02063,0.923806 1.3788015,1.3788015 0 0 0 -0.199928,0.02755 1.2960735,1.2960735 0 0 0 -1.034102,1.196107 1.6580088,1.6580088 0 0 0 -0.182696,0.02415 1.2960735,1.2960735 0 0 0 -0.99618,1.537362 v 0.05861 a 1.1375113,1.1375113 0 0 0 -0.210267,0.02755 1.2960735,1.2960735 0 0 0 -0.761788,2.044068 1.2926265,1.2926265 0 0 0 -0.920347,1.516683 1.1306173,1.1306173 0 0 0 0.06201,0.210267 l -0.04138,0.0517 c -0.617015,0.868651 -0.823835,2.788623 -0.461903,4.291522 a 3.9468195,3.9468195 0 0 0 0.282654,0.816943 v 0.06553 0 c -0.910008,0.406735 -1.354666,2.068192 -0.999626,3.698631 0.251636,1.158198 0.837621,1.995819 1.482207,2.243995 -0.765235,0.548075 -1.116828,2.068205 -0.792806,3.577996 1.016871,4.584515 2.733469,8.665757 0.527397,15.470156 z"
     id="path12-9"
     style="fill:#4ba523;fill-rule:evenodd;stroke-width:0.344701" />
  <path
     class="cls-2"
     d="m 94.680627,78.251503 a 12.771149,12.771149 0 0 1 -4.012302,1.830367 l -4.63967,14.401576 -1.499452,-0.482581 5.098126,-15.53219 a 18.193287,18.193287 0 0 1 -2.43703,-4.59142 15.280568,15.280568 0 0 1 -1.034103,-4.877507 l -0.02076,-1.27194 0.320576,1.230584 a 38.185909,38.185909 0 0 0 1.823462,5.280809 13.443316,13.443316 0 0 0 1.723504,3.06783 l 1.94411,-5.591046 a 15.087535,15.087535 0 0 1 -2.243995,-3.595228 14.99102,14.99102 0 0 1 -1.09615,-4.06401 l -0.172357,-1.31331 0.468796,1.237477 a 44.004451,44.004451 0 0 0 1.754534,4.136397 8.7691779,8.7691779 0 0 0 1.689028,2.464614 l 1.330541,-3.829619 a 14.508439,14.508439 0 0 1 -2.068205,-3.567657 15.204734,15.204734 0 0 1 -0.951364,-4.06401 l -0.13788,-1.378804 0.437765,1.302971 a 42.92554,42.92554 0 0 0 1.578731,4.136397 7.7212887,7.7212887 0 0 0 1.547701,2.388781 l 2.950629,-8.431378 0.292993,0.09308 -2.90926,9.996312 a 7.5248095,7.5248095 0 0 0 2.674868,-1.034103 40.464378,40.464378 0 0 0 3.702077,-2.412906 l 1.12373,-0.81005 -0.91346,1.034103 a 15.252992,15.252992 0 0 1 -3.154005,2.740374 14.425711,14.425711 0 0 1 -3.774464,1.682135 l -1.13752,3.908899 a 8.3072793,8.3072793 0 0 0 2.79553,-0.99618 42.42917,42.42917 0 0 0 3.843399,-2.347412 l 1.10649,-0.754895 -0.910008,0.972055 a 14.980679,14.980679 0 0 1 -3.260861,2.674881 15.104771,15.104771 0 0 1 -3.902006,1.616641 l -1.58907,5.422135 c 1.861385,-0.320576 5.13259,-2.657636 7.535138,-4.374247 l 1.447747,-1.034103 -1.061677,1.13752 a 24.363424,24.363424 0 0 1 -4.263946,3.598661 z"
     id="path14"
     style="fill:#9dd345;stroke-width:0.344701" />
</svg>
