<?xml version="1.0" encoding="UTF-8" standalone="no"?>
<svg
   id="Layer_1"
   data-name="Layer 1"
   viewBox="0 0 122.88 85.5"
   version="1.1"
   sodipodi:docname="farm.svg"
   inkscape:version="1.1.1 (3bf5ae0d25, 2021-09-20)"
   xmlns:inkscape="http://www.inkscape.org/namespaces/inkscape"
   xmlns:sodipodi="http://sodipodi.sourceforge.net/DTD/sodipodi-0.dtd"
   xmlns="http://www.w3.org/2000/svg"
   xmlns:svg="http://www.w3.org/2000/svg">
  <sodipodi:namedview
     id="namedview11"
     pagecolor="#ffffff"
     bordercolor="#666666"
     borderopacity="1.0"
     inkscape:pageshadow="2"
     inkscape:pageopacity="0.0"
     inkscape:pagecheckerboard="0"
     showgrid="false"
     inkscape:zoom="7.3684211"
     inkscape:cx="61.478571"
     inkscape:cy="42.682143"
     inkscape:window-width="1876"
     inkscape:window-height="1051"
     inkscape:window-x="44"
     inkscape:window-y="0"
     inkscape:window-maximized="1"
     inkscape:current-layer="Layer_1" />
  <defs
     id="defs4">
    <style
       id="style2">.cls-1{fill-rule:evenodd;}</style>
  </defs>
  <title
     id="title6">farm</title>
  <path
     class="cls-1"
     d="M45.44,15.53A.87.87,0,1,1,47,14.65l1.12,2a.87.87,0,0,1-1.51.87l-1.12-1.94Zm49.34,70L84.14,50H86.9L103,85.49H94.78ZM103,50V35.94H91.44c-1.94.18-2.33-1.36-1.5-2.63l7.39-8.67-.21-.21h-4c-1.44.21-2-1.34-1.1-2.44l8-9.37H97.7c-1.45,0-1.81-1.3-.88-2.57l7.26-8.62c.5-.59,1-1.45,1.89-1.43s1.19.72,1.63,1.24l7.72,9A1.5,1.5,0,0,1,114,12.71H111.9L119.81,22a1.55,1.55,0,0,1-.63,2.65h-4.6l6.9,8.09.76.89a1.47,1.47,0,0,1-1,2.32H108.85V50h14v7.2H96.08l-3-7.2H103ZM16.68,45.21v3.56H15.22V47.64h.33V45.21ZM8.23,41a6.56,6.56,0,0,1-1.47.25,5.47,5.47,0,0,1-3.09-.72,5.26,5.26,0,0,1-2.11-2.37A8.6,8.6,0,0,1,1.46,32,7.14,7.14,0,0,1,.12,27.1a6.15,6.15,0,0,1,1.65-3.42,7.88,7.88,0,0,1,3.48-2.09,11.3,11.3,0,0,1,7.85.73c.3-.24.6-.45.89-.65a7.44,7.44,0,0,1,5.27-1.35,8.44,8.44,0,0,1,5.12,3.27,15.4,15.4,0,0,1,1,1.31,7.6,7.6,0,0,1,4.69,1.28,4.5,4.5,0,0,1,1.61,2.07,4,4,0,0,1,0,2.63,7.29,7.29,0,0,1-3,3.6,9.3,9.3,0,0,1-1.1,3.78,4.79,4.79,0,0,1-2.09,2,3.81,3.81,0,0,1-2.83.13,5.17,5.17,0,0,1-.89-.38l-.59,1.39c-1.47,3.41-2,4.63-2.17,8.58H32.32l-3,7.2H0V50H11.74c-.05-3.76-.38-4.25-2.16-6.92-.38-.58-.82-1.25-1.35-2.1Zm1.07-.4,1.22,1.86c2,2.94,2.3,3.45,2.35,7.55h5c.18-4.19.72-5.45,2.26-9l.67-1.56c-.13-.1-.26-.2-.38-.31a7.78,7.78,0,0,1-.74.69,5.17,5.17,0,0,1-3.5,1.35,5.52,5.52,0,0,1-3.43-1.53c-.28-.25-.56-.52-.84-.82A9.67,9.67,0,0,1,9.3,40.59Zm3.4.24,2.3,3.8-1,.57-2.3-3.79,1-.58ZM40,85.5,46.66,50H43.37L32.75,85.5Zm-10.75,0L39.88,50H37.12L21.05,85.5Zm34.46,0V50H67L70.37,85.5ZM74,85.5,70.33,50h3.34l7,35.52Zm10,0L77.36,50h3.28L91.27,85.5Zm-23.71,0V50H57L53.64,85.5ZM50,85.5,53.68,50H50.34l-7,35.52ZM0,74.68H21.39L16.48,85.5H0V74.68Zm104,0h18.91V85.5h-14L104,74.68ZM0,62.26H27l-3.33,7.35H0V62.26Zm98.37,0h24.51v7.35H101.69l-3.32-7.35ZM52.42,18.42a7.82,7.82,0,1,1-5.54,2.29,7.83,7.83,0,0,1,5.54-2.29Zm4.35,3.47a6.15,6.15,0,0,0-10.5,4.35,6.15,6.15,0,1,0,12.3,0,6.07,6.07,0,0,0-1.8-4.35Zm-5-8.42a.88.88,0,1,1,1.75,0v2.25a.88.88,0,1,1-1.75,0V13.47Zm6.48,1.36a.88.88,0,0,1,1.19-.32.87.87,0,0,1,.32,1.19L58.6,17.65a.88.88,0,0,1-1.52-.87l1.13-2Zm4.93,4.42a.87.87,0,0,1,1.19.32.88.88,0,0,1-.32,1.2l-2,1.12a.87.87,0,0,1-.87-1.51l2-1.13Zm2.06,6.3a.88.88,0,0,1,0,1.76H63a.88.88,0,0,1,0-1.76ZM63.83,32A.88.88,0,0,1,63,33.55l-2-1.13a.87.87,0,1,1,.88-1.51L63.83,32ZM59.41,37a.87.87,0,0,1-.32,1.19.86.86,0,0,1-1.19-.32l-1.13-1.94a.87.87,0,0,1,.32-1.19.85.85,0,0,1,1.19.32L59.41,37ZM53.12,39a.88.88,0,0,1-1.76,0V36.78a.88.88,0,0,1,1.76,0V39Zm-6.48-1.37a.87.87,0,0,1-1.19.33.88.88,0,0,1-.33-1.2l1.13-1.94a.87.87,0,0,1,1.51.87l-1.12,1.94Zm-4.93-4.42a.87.87,0,1,1-.87-1.51l1.94-1.12a.87.87,0,0,1,.87,1.51l-1.94,1.12Zm-2.06-6.29a.88.88,0,1,1,0-1.75H41.9a.88.88,0,0,1,0,1.75ZM41,20.46A.87.87,0,1,1,41.89,19l1.94,1.12A.88.88,0,0,1,43,21.59L41,20.46Z"
     id="path8" />
  <path
     style="fill:#89a02c;stroke-width:0.135714"
     d="M 96.014532,56.830357 C 95.941261,56.662411 95.277317,55.074554 94.5391,53.301786 l -1.342212,-3.223215 h 4.939056 4.939056 v -7.125 -7.125 h -6.300302 -6.300301 l -0.417556,-0.351349 c -0.343318,-0.288884 -0.417465,-0.451752 -0.417048,-0.916071 2.84e-4,-0.315746 0.112573,-0.744225 0.254693,-0.971865 0.139801,-0.223929 1.887286,-2.320663 3.883298,-4.659408 2.033221,-2.382345 3.57734,-4.303348 3.511379,-4.368427 -0.06475,-0.06389 -1.207175,-0.135191 -2.538713,-0.158449 l -2.420979,-0.04229 -0.327236,-0.380781 c -0.396875,-0.461818 -0.42433,-1.090495 -0.07227,-1.654933 0.139671,-0.223929 2.0285,-2.483571 4.197398,-5.021429 l 3.943447,-4.614285 -1.414815,-0.07458 C 97.5193,12.554781 97.16762,12.485433 96.867015,12.261935 96.453256,11.954307 96.31631,11.296403 96.542306,10.70199 c 0.12032,-0.316466 6.860514,-8.44798 8.224024,-9.92163286 0.53265,-0.57568098 0.65858,-0.64464285 1.17717,-0.64464285 0.52166,0 0.63913,0.065545 1.15524,0.64464285 1.14926,1.28951536 8.00265,9.33946086 8.22915,9.66591186 0.46633,0.672099 0.20828,1.641598 -0.53861,2.023561 -0.16304,0.08338 -0.88063,0.151599 -1.59464,0.151599 -0.71402,0 -1.29821,0.04878 -1.29821,0.108407 0,0.05962 1.85571,2.287347 4.1238,4.950495 2.26809,2.663147 4.16234,4.995634 4.20944,5.183305 0.0992,0.395409 -0.1743,1.134443 -0.52901,1.429221 -0.19082,0.158578 -0.7975,0.218569 -2.74489,0.271429 l -2.49993,0.06786 3.88602,4.546428 c 2.13732,2.500536 3.94576,4.69445 4.01876,4.875362 0.18313,0.453817 0.0345,1.010321 -0.38059,1.425455 l -0.34919,0.349183 h -6.42792 -6.42792 v 7.125 7.125 h 6.98929 6.98928 v 3.528572 3.528571 H 109.45066 96.147752 Z"
     id="path50" />
  <path
     style="fill:#89a02c;stroke-width:0.135714"
     d="m 0.06785714,53.607751 v -3.52918 H 5.9035714 11.739286 l -0.0024,-1.1875 c -0.0027,-1.390695 -0.262962,-2.751597 -0.68495,-3.58204 C 10.401629,44.029275 8.3151288,40.985846 8.0947681,40.995621 7.9719314,41.00107 7.5355357,41.054714 7.125,41.114829 5.4444146,41.360915 3.7685053,40.754602 2.579524,39.470361 1.8042116,38.632931 1.4289949,37.826415 1.1463645,36.389831 0.95212378,35.402525 1.0430352,33.63764 1.3378984,32.671534 1.530718,32.03977 1.5262747,32.009198 1.1406539,31.314391 -0.82186217,27.778352 0.33503988,24.019295 3.9314387,22.24645 c 1.5165388,-0.747578 2.7357241,-0.979747 4.7542756,-0.905354 1.4213827,0.05238 1.8079317,0.121609 3.0384047,0.544132 l 1.409833,0.484111 0.761595,-0.515112 c 2.604316,-1.761455 4.924873,-1.97197 7.486498,-0.679157 1.13892,0.574796 2.025966,1.340133 3.047996,2.629788 l 0.924487,1.166571 h 0.696008 c 2.393504,0 4.966573,1.573421 5.576612,3.410074 0.577354,1.738252 -0.360177,3.97671 -2.320826,5.541223 -0.556385,0.443971 -0.738465,0.676957 -0.738465,0.944925 0,0.541896 -0.508481,2.259247 -0.894443,3.020907 -1.102823,2.17632 -3.349898,3.159514 -5.267602,2.304809 -0.366088,-0.163163 -0.677085,-0.280651 -0.691103,-0.261085 -0.124759,0.174134 -1.739678,4.167612 -1.957514,4.84067 -0.346817,1.071577 -0.64491,2.705791 -0.763557,4.185977 l -0.08975,1.119642 h 6.648287 6.648287 l -1.457133,3.494643 -1.457133,3.494643 -14.609172,0.03454 -14.60917186,0.03454 z M 18.031147,48.708218 c 0.160331,-2.446539 0.542044,-3.834311 1.997404,-7.261847 0.760678,-1.791483 0.819286,-1.995983 0.627106,-2.188162 -0.192179,-0.19218 -0.273111,-0.157642 -0.865967,0.369564 -0.831726,0.739626 -2.069146,1.324676 -3.040723,1.437652 -1.353429,0.157377 -2.815097,-0.441004 -4.167364,-1.706043 -0.320476,-0.299802 -0.606855,-0.545096 -0.636397,-0.545096 -0.02954,0 -0.516683,0.332166 -1.082535,0.738146 -0.565852,0.405979 -1.1553245,0.778295 -1.3099392,0.827368 -0.3980139,0.126326 -0.3120779,0.328091 0.9282972,2.179515 1.840699,2.747487 2.116729,3.474337 2.280806,6.005894 l 0.09809,1.513362 h 2.54071 2.540712 z"
     id="path274" />
  <path
     style="fill:#89a02c;stroke-width:0.135714"
     d="M 0.06785714,65.889286 V 62.292857 H 13.435714 c 7.352322,0 13.368214,0.0458 13.368649,0.101786 4.07e-4,0.05598 -0.710751,1.674375 -1.580415,3.596428 l -1.581207,3.494643 H 11.855299 0.06785714 Z"
     id="path313" />
  <path
     style="fill:#89a02c;stroke-width:0.135714"
     d="M 0.06785714,80.139286 V 74.778571 H 10.653961 21.240065 l -0.170033,0.399678 c -0.09352,0.219823 -1.177711,2.630343 -2.409318,5.356711 l -2.239285,4.957033 -8.1767861,0.004 -8.17678576,0.004 z"
     id="path352" />
  <path
     style="fill:#89a02c;stroke-width:0.135714"
     d="m 101.4572,68.908929 c -0.41505,-0.953761 -2.884069,-6.404692 -2.950659,-6.514286 -0.03401,-0.05598 5.407649,-0.101786 12.092589,-0.101786 h 12.15444 v 3.596429 3.596428 h -10.52268 -10.52268 z"
     id="path391" />
  <path
     style="fill:#677821;stroke-width:0.135714"
     d="m 106.60357,80.253148 c -1.30625,-2.881654 -2.39536,-5.292292 -2.42024,-5.356974 -0.0252,-0.06563 4.09822,-0.117603 9.33036,-0.117603 h 9.3756 V 80.139286 85.5 l -6.95536,-0.0037 -6.95536,-0.0037 z"
     id="path430" />
  <path
     style="fill:#677821;stroke-width:0.135714"
     d="m 100.21947,65.98951 -1.566251,-3.493081 6.044821,-0.08304 c 3.32465,-0.04567 8.74723,-0.09148 12.05017,-0.101785 l 6.00536,-0.01874 v 3.596429 3.596428 l -10.48393,-0.0016 -10.48393,-0.0016 -1.56624,-3.493082 z"
     id="path506" />
  <path
     style="fill:#677821;stroke-width:0.135714"
     d="m 94.792683,53.721973 c -0.78169,-1.877558 -1.441612,-3.465415 -1.466492,-3.528571 -0.02488,-0.06316 2.158422,-0.114831 4.851785,-0.114831 H 103.075 v -7.125 -7.125 h -6.285323 -6.285324 l -0.364676,-0.38064 c -0.443941,-0.463375 -0.490413,-1.247991 -0.110086,-1.858645 0.139467,-0.223929 1.339583,-1.689643 2.666925,-3.257143 2.817909,-3.327758 4.678484,-5.618984 4.678484,-5.761373 0,-0.108455 -2.43775,-0.276288 -4.02765,-0.277295 -0.890307,-5.43e-4 -0.998268,-0.03137 -1.255357,-0.358206 -0.170324,-0.216532 -0.281279,-0.557179 -0.281279,-0.863568 0,-0.557929 0.212481,-0.828693 5.632143,-7.177016 1.418214,-1.661226 2.596443,-3.069843 2.618283,-3.130261 0.0219,-0.06042 -0.558334,-0.154459 -1.289283,-0.208981 -1.854324,-0.138314 -2.211143,-0.355934 -2.211143,-1.348548 0,-0.35479 0.246666,-0.748774 1.246326,-1.9906858 2.15359,-2.6754774 5.84272,-7.0653407 6.74333,-8.0242033 0.77123,-0.82110945 0.91991,-0.92057733 1.37603,-0.92057733 0.29019,0 0.63216,0.10272894 0.7906,0.2375 0.30025,0.25539271 6.58518,7.59621383 7.90804,9.23662273 0.9565,1.1860967 1.06077,1.7637697 0.42675,2.3643247 -0.33356,0.315953 -0.52103,0.363769 -1.76429,0.450017 -0.76509,0.05308 -1.39107,0.149404 -1.39107,0.214062 0,0.06466 0.62707,0.865988 1.39349,1.780732 0.76642,0.914744 2.34158,2.792992 3.50036,4.173884 3.66382,4.366097 3.62011,4.294424 3.11926,5.115851 -0.321,0.526455 -0.44218,0.551269 -3.35072,0.686125 l -2.19119,0.101596 1.10547,1.301883 c 6.95078,8.185745 6.87159,8.087039 6.87257,8.566608 4.1e-4,0.219445 -0.16961,0.562532 -0.42044,0.848215 l -0.4212,0.479722 h -6.36452 -6.36451 v 7.125 7.125 h 6.98929 6.98928 v 3.528572 3.528571 H 109.48375 96.213937 Z"
     id="path545" />
  <path
     style="fill:#677821;stroke-width:0.135714"
     d="m 0.06782923,53.573214 2.791e-5,-3.494643 H 5.9199549 11.772053 l -0.06787,-1.6625 C 11.664896,47.453682 11.54429,46.462991 11.41779,46.063553 11.165538,45.267033 10.100849,43.458752 9.0300635,42.008206 L 8.2886984,41.003911 6.8586349,41.028741 C 5.7317476,41.048307 5.2778366,40.997652 4.7175644,40.789799 3.2892026,40.259898 2.1114549,39.084116 1.5536567,37.631171 1.1318774,36.532526 1.0314921,34.27986 1.3465478,32.983603 c 0.2219557,-0.913209 0.2206173,-0.9532 -0.049629,-1.482926 -1.5862606,-3.109328 -1.29856481,-5.789466 0.8421166,-7.845054 1.7267157,-1.658077 3.5578104,-2.27373 6.4788215,-2.178315 1.6063741,0.05247 2.0014121,0.114852 3.2057771,0.506215 l 1.373634,0.446368 0.628948,-0.432727 c 1.012503,-0.696621 2.527239,-1.348288 3.479658,-1.497014 2.430228,-0.379494 5.048979,0.85177 7.001988,3.29214 l 0.913383,1.141311 1.295329,0.159187 c 2.221101,0.272957 4.094027,1.408787 4.841183,2.935918 0.309949,0.633512 0.354725,0.874281 0.30995,1.666678 -0.07685,1.360038 -0.650641,2.438049 -2.015383,3.786399 -0.963349,0.951777 -1.094791,1.142749 -1.212032,1.760961 -0.731757,3.858539 -3.095945,5.860077 -5.829159,4.935008 -0.477091,-0.161473 -0.917593,-0.243435 -0.978891,-0.182137 -0.219671,0.219671 -1.88832,4.551277 -2.148113,5.576232 -0.14582,0.575306 -0.330898,1.595653 -0.411283,2.267439 -0.08038,0.671785 -0.176184,1.450446 -0.21289,1.730357 l -0.06674,0.508928 h 6.651604 c 3.658383,0 6.651282,0.01527 6.650888,0.03393 -4.07e-4,0.01866 -0.637635,1.560714 -1.41609,3.426786 l -1.415374,3.392857 -0.789267,0.0316 c -0.434097,0.01738 -7.003297,0.04792 -14.598224,0.06786 l -13.8089559,0.03626 z m 17.97446877,-4.275 c 0.322195,-3.155237 0.591833,-4.254398 1.706238,-6.955357 0.946174,-2.293224 1.124255,-2.819749 1.033595,-3.056005 -0.123183,-0.32101 -0.424504,-0.237007 -1.056791,0.294618 -0.324293,0.272665 -0.98659,0.684898 -1.471769,0.916072 -0.758507,0.361406 -1.034311,0.420315 -1.967857,0.420315 -1.294546,0 -2.097108,-0.335157 -3.392857,-1.416888 -0.447857,-0.373885 -0.872327,-0.681342 -0.943266,-0.683237 -0.200378,-0.0054 -2.6531624,1.645309 -2.6531624,1.785511 0,0.207559 0.3796109,0.875903 1.2426124,2.187745 1.558607,2.369231 2.150245,3.962262 2.150245,5.789701 0,0.357318 0.03817,0.840516 0.08482,1.073775 l 0.08482,0.424107 h 2.551841 2.551842 z"
     id="path584" />
  <path
     style="fill:#677821;stroke-width:0.135714"
     d="M 7.0232143,57.041044 0.06785714,56.997535 V 53.538053 50.078571 H 5.976103 11.884349 l -0.06851,-0.644642 c -0.03768,-0.354554 -0.102537,-1.162282 -0.144128,-1.794952 -0.07894,-1.200819 -0.301405,-2.174691 -0.496766,-2.174691 -0.06283,0 -0.100611,-0.0458 -0.08396,-0.101786 0.04768,-0.160319 -0.850156,-1.764622 -1.1970034,-2.138878 -0.1722397,-0.185849 -0.2702755,-0.33985 -0.2178575,-0.342223 0.052418,-0.0024 -0.015636,-0.08842 -0.1512316,-0.191214 -0.1355954,-0.102792 -0.240833,-0.238261 -0.2338612,-0.30104 0.00697,-0.06278 -0.2006638,-0.399905 -0.4614125,-0.749167 L 8.3555296,41.004954 7.0517534,40.997884 C 5.6651193,40.990375 4.9328724,40.847715 4.100005,40.422818 2.9507448,39.836509 1.8664326,38.508144 1.5407191,37.2875 1.446111,36.932946 1.3355673,36.642959 1.2950665,36.643084 1.1940483,36.643355 1.3637525,33.014974 1.489906,32.477252 1.570382,32.134226 1.490666,31.808602 1.1078375,30.916538 0.84176858,30.296549 0.5827283,29.529732 0.5321925,29.2125 0.48165668,28.895268 0.39925107,28.635714 0.34906892,28.635714 c -0.0501821,0 -0.0432434,-0.503839 0.0154195,-1.119643 0.14893536,-1.563424 0.75320008,-2.768904 1.94838848,-3.886944 1.7516642,-1.638596 3.198963,-2.092953 6.474011,-2.032416 1.1759617,0.02174 2.1381121,0.07312 2.1381121,0.114172 0,0.09082 1.826749,0.624309 1.845213,0.538877 0.0072,-0.03326 0.101849,0.01321 0.210357,0.10326 0.159021,0.131976 0.314425,0.0845 0.801216,-0.244795 1.43431,-0.970242 3.187419,-1.615368 4.389711,-1.615368 2.118397,0 4.250906,1.175107 6.084967,3.353086 0.79385,0.942712 1.018753,1.129036 1.438669,1.191885 2.359169,0.353099 3.537723,0.803163 4.596906,1.75546 0.988948,0.889148 1.300985,1.620023 1.239446,2.903112 -0.0728,1.517982 -0.376591,2.055034 -2.496388,4.41326 -0.54957,0.611384 -0.85247,1.417989 -0.785643,2.092126 0.0092,0.0933 -0.044,0.169643 -0.118339,0.169643 -0.07434,0 -0.100002,0.09161 -0.05704,0.203571 0.04296,0.111964 0.01243,0.203571 -0.06786,0.203571 -0.08029,0 -0.110823,0.09161 -0.06786,0.203572 0.04296,0.111964 0.03113,0.203571 -0.0263,0.203571 -0.05743,0 -0.236821,0.27254 -0.398656,0.605646 -0.726019,1.494365 -1.969364,2.383086 -3.51034,2.509127 -0.549725,0.04497 -0.999502,0.04157 -0.999502,-0.0075 0,-0.04911 -0.284573,-0.160951 -0.632385,-0.248531 -0.691536,-0.174131 -0.9323,-0.064 -1.019441,0.466299 -0.02453,0.149286 -0.09109,0.305994 -0.147917,0.34824 -0.153841,0.114376 -1.558509,3.902478 -1.788954,4.824438 -0.216449,0.865978 -0.618445,3.477255 -0.618445,4.017292 v 0.333704 l 6.534002,0.08705 c 3.593701,0.04788 6.555511,0.108558 6.581801,0.134847 0.02629,0.02629 -0.538087,1.447507 -1.25417,3.15826 -0.716084,1.710753 -1.330467,3.17973 -1.365294,3.264394 -0.04481,0.108915 -1.59884,0.178837 -5.31376,0.239089 -2.88774,0.04684 -6.319187,0.103465 -7.625437,0.125843 -1.30625,0.02238 -5.50491,0.02111 -9.3303567,-0.0028 z M 18.044364,49.824902 c 0.04428,-0.139518 0.0767,-0.429607 0.07205,-0.644642 -0.01367,-0.631654 0.348142,-2.746966 0.670046,-3.917416 0.163906,-0.595972 0.691237,-2.074353 1.171846,-3.285289 0.480609,-1.210935 0.873835,-2.356983 0.873835,-2.546771 0,-0.495443 -0.422598,-0.449328 -1.179649,0.128724 -1.045783,0.798514 -2.036332,1.211436 -3.04247,1.268288 -1.27932,0.07229 -2.160223,-0.224265 -3.334048,-1.122397 -1.202571,-0.920125 -1.500616,-1.010118 -1.965293,-0.59342 -0.191983,0.172162 -0.42561,0.330702 -0.51917,0.352312 -0.17097,0.03949 -0.9972291,0.624809 -1.3391472,0.948649 -0.2303247,0.218147 -0.1077857,0.75664 0.2546577,1.119084 C 9.8544105,41.679411 9.9425876,41.8 9.9029725,41.8 c -0.039615,0 0.1540915,0.351161 0.4304595,0.780357 1.623279,2.520938 2.189411,3.960397 2.296377,5.83881 0.104247,1.830651 -0.182,1.659404 2.773762,1.659404 2.381341,0 2.565908,-0.01773 2.640793,-0.253669 z"
     id="path623" />
  <path
     style="fill:#677821;stroke-width:0.135714"
     d="m 0.06785714,65.870039 v -3.617174 l 13.26607186,0.0998 c 7.296339,0.05489 13.285648,0.119092 13.309576,0.142667 0.02393,0.02358 -0.652516,1.590787 -1.503207,3.482693 l -1.546713,3.439829 -11.762864,0.03468 -11.76286386,0.03468 z"
     id="path662" />
  <path
     style="fill:#786721;stroke-width:0.135714"
     d="M 0.06785714,80.1583 V 74.778571 H 10.585714 c 5.784822,0 10.517857,0.03216 10.517857,0.07147 0,0.04994 -4.545279,10.236056 -4.670771,10.467346 -0.0063,0.01153 -3.690925,0.06589 -8.1881571,0.120799 l -8.17678576,0.09984 z"
     id="path701" />
  <path
     style="fill:#c8ab37;stroke-width:0.135714"
     d="m 29.15637,67.789286 8.017472,-17.710715 h 1.261293 c 0.693712,0 1.263203,0.0458 1.265537,0.101786 0.0023,0.05598 -2.364185,8.025301 -5.258928,17.709598 l -5.263173,17.60781 -4.019836,0.0011 -4.019836,0.0011 z"
     id="path777" />
  <path
     style="fill:#c8ab37;stroke-width:0.135714"
     d="m 32.906368,85.398214 c -0.0024,-0.05598 2.363145,-8.025803 5.256746,-17.710714 l 5.261092,-17.608929 h 1.571877 1.571877 L 43.558395,66.126786 C 41.903133,74.953304 40.40963,82.923125 40.239499,83.8375 L 39.93017,85.5 h -3.509728 c -1.93035,0 -3.511684,-0.0458 -3.514074,-0.101786 z"
     id="path853" />
  <path
     style="fill:#806600;stroke-width:0.135714"
     d="m 43.496429,85.3012 c 0,-0.210944 6.745603,-34.563964 6.869725,-34.985129 0.06138,-0.208259 0.261019,-0.2375 1.621563,-0.2375 h 1.551569 l -0.0073,0.441072 c -0.004,0.242589 -0.814515,8.197143 -1.801073,17.676786 l -1.793741,17.235714 -3.220355,0.03639 c -2.789209,0.03151 -3.220355,0.0091 -3.220355,-0.167328 z"
     id="path892" />
  <path
     style="fill:#806600;stroke-width:0.135714"
     d="m 34.573214,85.398688 c -0.839732,-0.02381 -1.526785,-0.08082 -1.526785,-0.126689 0,-0.15463 6.080719,-20.623629 10.122289,-34.073785 l 0.336436,-1.119643 h 1.499277 1.499278 l -0.07687,0.373215 C 46.384557,50.657054 44.911122,58.52 43.152535,67.925 c -1.758587,9.405 -3.229213,17.206875 -3.268057,17.3375 -0.07448,0.250472 -0.707967,0.266715 -5.311264,0.136188 z"
     id="path1079" />
  <path
     style="fill:#806600;stroke-width:0.135714"
     d="M 21.321157,85.308848 C 21.3615,85.203713 24.9581,77.249159 29.313601,67.632062 l 7.919092,-17.485633 1.122862,0.03802 c 0.617573,0.02091 1.14624,0.0614 1.174816,0.08997 0.02857,0.02857 -0.477151,1.843609 -1.123835,4.03341 -1.18318,4.006485 -8.337074,27.985783 -8.971725,30.072528 L 29.094289,85.5 h -3.923242 c -3.31829,0 -3.911932,-0.02948 -3.84989,-0.191152 z"
     id="path1118" />
  <path
     style="fill:#806600;stroke-width:0.135714"
     d="m 53.745708,84.991071 c 0.04065,-0.27991 0.77352,-7.959642 1.628591,-17.066071 0.855072,-9.106429 1.591655,-16.847232 1.636852,-17.201786 l 0.08218,-0.644643 h 1.54798 1.547979 V 67.789286 85.5 h -3.258747 -3.258747 z"
     id="path1157" />
  <path
     style="fill:#806600;stroke-width:0.135714"
     d="M 63.717857,67.789286 V 50.078571 h 1.628572 c 1.350667,0 1.628571,0.03443 1.628571,0.201767 0,0.110971 0.73282,7.912846 1.628489,17.3375 0.895668,9.424653 1.628525,17.30368 1.628571,17.508948 L 70.232143,85.5 H 66.975 63.717857 Z"
     id="path1196" />
  <path
     style="fill:#806600;stroke-width:0.135714"
     d="m 74.032143,85.300322 c 0,-0.24713 -3.49502,-34.170135 -3.583384,-34.780679 l -0.06384,-0.441072 h 1.610417 1.610417 l 0.145927,0.7125 c 0.455608,2.224537 6.794746,34.499434 6.794746,34.594564 0,0.0629 -1.465715,0.114365 -3.257143,0.114365 -2.776535,0 -3.257143,-0.02946 -3.257143,-0.199678 z"
     id="path1235" />
  <path
     style="fill:#806600;stroke-width:0.135714"
     d="M 84.029948,85.194643 C 83.988986,85.026696 82.513807,77.16375 80.751773,67.721429 78.989739,58.279107 77.51564,50.444717 77.475996,50.311673 c -0.06672,-0.223918 0.04689,-0.239049 1.528551,-0.203571 l 1.60063,0.03833 5.262558,17.575 c 2.894407,9.66625 5.262975,17.620803 5.263482,17.676785 C 91.13176,85.454196 89.550906,85.5 87.618284,85.5 h -3.513859 z"
     id="path1274" />
  <path
     style="fill:#806600;stroke-width:0.135714"
     d="M 94.677217,84.923214 C 94.600073,84.680625 92.273015,76.909286 89.505976,67.653571 86.738937,58.397857 84.41871,50.657054 84.349915,50.451786 l -0.125081,-0.373215 1.316154,0.0011 1.316155,0.0011 7.939286,17.508344 c 4.366607,9.629591 7.959641,17.56836 7.984521,17.641711 0.0289,0.08535 -1.39636,0.133365 -3.959115,0.133365 h -4.004357 z"
     id="path1313" />
  <path
     style="fill:#677821;stroke-width:0.135714"
     d="m 0.06785714,80.117872 v -5.381377 l 10.41416986,0.0983 c 5.727794,0.05407 10.431641,0.115773 10.452991,0.137124 0.02135,0.02135 -0.983841,2.331537 -2.233762,5.133745 l -2.272583,5.094924 -2.853622,0.07824 c -1.569493,0.04303 -5.250676,0.110229 -8.1804081,0.149328 l -5.32678576,0.07109 z"
     id="path1352" />
  <path
     style="fill:#ffcc00;stroke-width:0.135714"
     d="M 50.82829,32.082438 C 48.822267,31.54337 47.078414,29.77874 46.555747,27.758987 45.844585,25.010835 47.16235,22.112776 49.70272,20.83809 c 0.995014,-0.499271 1.819137,-0.655477 3.128046,-0.592897 1.569568,0.07504 2.691378,0.580237 3.840805,1.729664 2.144156,2.144156 2.397688,5.43315 0.60687,7.872733 -1.452384,1.978543 -4.052051,2.879275 -6.450151,2.234848 z"
     id="path1613" />
</svg>
