<?xml version="1.0" encoding="UTF-8" standalone="no"?>
<svg
   version="1.1"
   id="Layer_1"
   x="0px"
   y="0px"
   viewBox="0 0 122.88 95.94"
   style="enable-background:new 0 0 122.88 95.94"
   xml:space="preserve"
   sodipodi:docname="meat-food.svg"
   inkscape:version="1.1.1 (3bf5ae0d25, 2021-09-20)"
   xmlns:inkscape="http://www.inkscape.org/namespaces/inkscape"
   xmlns:sodipodi="http://sodipodi.sourceforge.net/DTD/sodipodi-0.dtd"
   xmlns="http://www.w3.org/2000/svg"
   xmlns:svg="http://www.w3.org/2000/svg"><defs
     id="defs11" /><sodipodi:namedview
     id="namedview9"
     pagecolor="#ffffff"
     bordercolor="#666666"
     borderopacity="1.0"
     inkscape:pageshadow="2"
     inkscape:pageopacity="0.0"
     inkscape:pagecheckerboard="0"
     showgrid="false"
     inkscape:zoom="6.566604"
     inkscape:cx="61.371144"
     inkscape:cy="47.741573"
     inkscape:window-width="1876"
     inkscape:window-height="1051"
     inkscape:window-x="44"
     inkscape:window-y="0"
     inkscape:window-maximized="1"
     inkscape:current-layer="Layer_1" /><style
     type="text/css"
     id="style2">.st0{fill-rule:evenodd;clip-rule:evenodd;}</style><g
     id="g6"><path
       class="st0"
       d="M91.88,1.54c5.26,1.4,10.28,3.83,14.67,6.98c12.89,9.25,16.75,20.66,16.3,36.29 c-0.24,8.37-2.18,16.52-4.96,22.09C96.3,110.09,7.99,102.4,0.53,61.68c-0.53-2.9-0.56-5.91-0.52-9.69 c0.06-4.9,0.14-11.56,3.19-15.52c3.09-4.03,8.54-5.63,15.32-5.85c7.41,0.51,14.26-1.92,20.74-6.81 C55.94,11.23,66.84-5.12,91.88,1.54L91.88,1.54z M94.45,47.89c0,4.12-4.74,7.45-10.59,7.45c-5.85,0-10.59-3.34-10.59-7.45 c0-4.12,4.74-7.45,10.59-7.45C89.7,40.44,94.45,43.78,94.45,47.89L94.45,47.89z M103.34,31.95c3.71,2.99,6.72,6.66,8.51,10.75 c4.92,11.24-1.06,21.35-8.56,29.62c-6.02,5.77-13.83,9.7-23.52,11.73c-8.87,1.85-19.3,2.11-31.36,0.71 c-7.78-0.9-14.4-2.53-19.92-4.87c-6.36-2.7-16.54-9.71-18.92-16.46c-1.85-5.26,0.95-9.72,9.45-9.76 c29.82,0.51,33.32-25.98,57.82-29.49C86.34,22.81,95.94,25.98,103.34,31.95L103.34,31.95z"
       id="path4" /></g><path
     style="fill:#aa0000;stroke-width:0.152286"
     d="M 58.32543,85.494355 C 46.500633,84.785276 39.088948,83.551696 31.971733,81.108126 27.289013,79.500395 23.19514,77.316837 19.095323,74.240207 13.284176,69.879343 9.9245231,65.608584 9.2133812,61.678376 8.5694869,58.119818 10.728801,55.293426 14.924,54.203572 c 0.980538,-0.25473 1.980154,-0.342891 5.122299,-0.451762 4.320127,-0.149684 7.183636,-0.497954 9.923052,-1.206875 6.097254,-1.577876 11.21934,-4.418174 17.152375,-9.511327 0.882113,-0.757241 3.386904,-3.012297 5.566201,-5.011235 4.694206,-4.305711 6.999408,-6.208211 9.806643,-8.09349 5.485468,-3.683926 11.187486,-5.628346 17.468035,-5.9567 8.895743,-0.465079 19.094838,3.620785 25.881125,10.368246 4.11961,4.096041 6.60347,8.628055 7.46998,13.629572 0.30232,1.745044 0.21694,5.366844 -0.16874,7.157429 -0.70017,3.250712 -2.36101,6.980465 -4.61121,10.355429 -4.44605,6.668396 -8.856773,10.578282 -15.875675,14.072973 -6.268398,3.121018 -13.287218,4.935895 -22.149797,5.727339 -1.835182,0.163886 -10.474282,0.31364 -12.182858,0.211184 z M 87.412002,54.983206 c 0.670057,-0.17029 1.85922,-0.625155 2.642585,-1.010811 1.749954,-0.861516 3.241166,-2.247448 3.918616,-3.641965 0.39981,-0.822996 0.44388,-1.06491 0.44388,-2.436572 0,-1.374173 -0.04353,-1.612067 -0.445888,-2.436571 -0.898002,-1.840181 -3.015978,-3.494424 -5.561874,-4.344098 -6.293123,-2.100282 -13.739114,0.561956 -15.019019,5.369896 -0.293106,1.101044 -0.270336,1.89134 0.08791,3.051198 0.867823,2.809684 3.9565,5.005793 7.99465,5.684352 1.626602,0.273329 4.364306,0.164806 5.939143,-0.235429 z"
     id="path114" /></svg>
