<?xml version="1.0" encoding="UTF-8" standalone="no"?>
<svg
   version="1.1"
   id="Layer_1"
   x="0px"
   y="0px"
   viewBox="0 0 122.88 81.64"
   style="enable-background:new 0 0 122.88 81.64"
   xml:space="preserve"
   sodipodi:docname="sewer2.svg"
   inkscape:version="1.2.1 (1:1.2.1+202210291243+9c6d41e410)"
   xmlns:inkscape="http://www.inkscape.org/namespaces/inkscape"
   xmlns:sodipodi="http://sodipodi.sourceforge.net/DTD/sodipodi-0.dtd"
   xmlns="http://www.w3.org/2000/svg"
   xmlns:svg="http://www.w3.org/2000/svg"><defs
     id="defs11" /><sodipodi:namedview
     id="namedview9"
     pagecolor="#ffffff"
     bordercolor="#666666"
     borderopacity="1.0"
     inkscape:pageshadow="2"
     inkscape:pageopacity="0.0"
     inkscape:pagecheckerboard="0"
     showgrid="false"
     inkscape:zoom="7.7168055"
     inkscape:cx="61.424381"
     inkscape:cy="40.690413"
     inkscape:window-width="1876"
     inkscape:window-height="1051"
     inkscape:window-x="44"
     inkscape:window-y="0"
     inkscape:window-maximized="1"
     inkscape:current-layer="Layer_1"
     inkscape:showpageshadow="2"
     inkscape:deskcolor="#d1d1d1" /><style
     type="text/css"
     id="style2">.st0{fill-rule:evenodd;clip-rule:evenodd;}</style><g
     id="g6"><path
       class="st0"
       d="M24.05,26.45V3.57h12.39v22.89H24.05L24.05,26.45L24.05,26.45z M78.07,23.09c-0.82-0.45-1.12-1.48-0.67-2.3 c0.45-0.82,1.48-1.12,2.3-0.67c1.87,1.03,3.6,2.07,5.19,3.18c1.63,1.13,3.11,2.32,4.47,3.65c2.24,2.19,4.11,4.73,5.6,7.88 c1.47,3.09,2.57,6.76,3.29,11.25c0.15,0.92-0.48,1.79-1.41,1.94c-0.92,0.15-1.79-0.48-1.94-1.41c-0.67-4.17-1.68-7.54-3.01-10.34 c-1.31-2.75-2.94-4.97-4.9-6.9c-1.21-1.19-2.56-2.27-4.03-3.29C81.46,25.04,79.83,24.06,78.07,23.09L78.07,23.09z M60.48,38.96 c-0.55-0.75-0.38-1.81,0.37-2.36c0.75-0.55,1.81-0.38,2.36,0.37c1.37,1.89,2.56,3.83,3.43,5.88c0.9,2.11,1.47,4.35,1.56,6.77 c0.03,0.93-0.7,1.72-1.63,1.75c-0.93,0.03-1.72-0.7-1.75-1.63c-0.08-1.96-0.55-3.8-1.3-5.56C62.75,42.35,61.7,40.63,60.48,38.96 L60.48,38.96z M62.63,26.99c-0.87-0.33-1.32-1.3-0.99-2.18c0.33-0.87,1.3-1.32,2.18-0.99c4.64,1.73,9,4.19,12.3,7.67 c2.87,3.02,4.92,6.77,5.67,11.43c0.15,0.92-0.48,1.79-1.41,1.94c-0.92,0.15-1.79-0.48-1.94-1.41c-0.63-3.93-2.36-7.09-4.77-9.63 C70.74,30.76,66.83,28.56,62.63,26.99L62.63,26.99z M42.21,70.23c1.73,0.52,3.6,1.08,5.3,1.53c1.51,0.4,3.83-0.46,6.27-1.36 c3.04-1.12,6.2-2.28,9.99-2.19c2.86,0.07,5.27,1.38,7.7,2.71c1.53,0.84,3.08,1.68,3.94,1.71c0.99,0.03,2.45-0.83,3.91-1.69 c2.39-1.41,4.77-2.81,8.09-2.93c3.56-0.12,6.32,1.11,9.06,2.32c1.56,0.69,3.11,1.38,4.41,1.48c1.22,0.1,2.86-0.95,4.45-1.96 c2.21-1.42,4.38-2.8,7.24-3.12c3.39-0.37,7.1,1.22,10.25,2.58l0.08,0.04c0,3.22,0,6.45,0,9.67c-0.68-0.2-1.38-0.47-2.1-0.76 c-0.5-0.21-1.02-0.43-1.54-0.65c-2.15-0.92-4.69-2.02-5.7-1.91c-0.81,0.09-2.09,0.91-3.39,1.74c-0.48,0.3-0.96,0.61-1.45,0.91 c-2.42,1.47-5.04,2.73-8.5,2.46c-2.81-0.21-5.1-1.23-7.4-2.26l-0.2-0.09c-1.72-0.76-3.44-1.5-4.91-1.46 c-0.9,0.03-2.19,0.76-3.49,1.52l-0.3,0.17c-2.58,1.53-5.18,3.05-8.81,2.92c-2.97-0.11-5.46-1.46-7.92-2.81l-0.31-0.17 c-1.37-0.75-2.68-1.43-3.31-1.45c-1.92-0.05-4.14,0.72-6.3,1.52l-0.37,0.14c-3.77,1.39-7.36,2.71-11.62,1.6 c-2.29-0.6-4.02-1.12-5.61-1.6l-0.05-0.02c-4.02-2.14-12.85-2.06-16.75,0l-0.05,0.02c-1.59,0.48-3.32,1-5.61,1.6 c-4.26,1.11-7.86-0.21-11.62-1.6l-0.37-0.14C3.44,78.09,1.64,77.46,0,77.27v-9.04c3.22,0.16,5.99,1.18,8.67,2.17 c2.43,0.9,4.76,1.76,6.27,1.36c1.69-0.45,3.57-1.01,5.3-1.53C30.39,67.18,32.05,67.18,42.21,70.23L42.21,70.23z M41.06,23.41V7.94 c36.81-2.89,61.7,10.47,63.76,37.93c1.31,3.31,1.28,5.69,0.17,7.33l0.32-0.2c2.21-1.42,4.38-2.8,7.24-3.12 c3.39-0.37,7.1,1.22,10.25,2.58l0.08,0.04c0,3.22,0,6.45,0,9.67c-0.68-0.2-1.38-0.47-2.1-0.76c-0.5-0.21-1.02-0.43-1.54-0.65 c-2.15-0.92-4.69-2.02-5.7-1.91c-0.81,0.09-2.09,0.91-3.39,1.74c-0.48,0.3-0.96,0.61-1.45,0.91c-2.42,1.47-5.04,2.73-8.5,2.46 c-2.81-0.21-5.1-1.23-7.4-2.26l-0.2-0.09c-1.72-0.76-3.44-1.5-4.91-1.46c-0.9,0.03-2.19,0.76-3.49,1.52l-0.3,0.17 c-2.58,1.53-5.18,3.05-8.81,2.92c-2.97-0.11-5.46-1.46-7.92-2.81l-0.31-0.17c-1.37-0.75-2.68-1.43-3.31-1.45 c-1.92-0.05-4.14,0.72-6.3,1.52L56.88,62c-3.77,1.39-7.36,2.71-11.62,1.6c-2.29-0.6-4.02-1.12-5.61-1.6l-0.05-0.02 c-3.96-1.94-12.79-1.89-16.75,0L22.8,62c-1.59,0.48-3.32,1-5.61,1.6c-4.26,1.11-7.86-0.21-11.62-1.6l-0.37-0.14 C3.44,61.22,1.64,60.59,0,60.4v-9.04c3.22,0.16,5.99,1.18,8.67,2.17c2.43,0.9,4.76,1.76,6.27,1.36c1.69-0.45,3.57-1.01,5.3-1.53 c2.54-0.76,4.81-1.44,6.96-1.87c1.36-0.34,2.69-0.47,4.03-0.46c1.34-0.02,2.66,0.12,4.03,0.46c2.15,0.42,4.42,1.11,6.96,1.87 c1.73,0.52,3.6,1.08,5.3,1.53c1.51,0.4,3.83-0.46,6.27-1.36c2.01-0.74,4.09-1.5,6.36-1.91C54.44,41.64,57.58,24.82,41.06,23.41 L41.06,23.41z M0.11,26.45V3.57h13.11v22.89H0.11L0.11,26.45L0.11,26.45z M16.24,27.49V2.08c0-1.14,0.94-2.08,2.08-2.08l0,0 c1.14,0,2.08,0.94,2.08,2.08v25.41c0,1.14-0.94,2.08-2.08,2.08l0,0C17.17,29.57,16.24,28.63,16.24,27.49L16.24,27.49L16.24,27.49z"
       id="path4" /></g><path
     style="fill:#999999;stroke-width:0.129587"
     d="m 73.216825,64.458694 c -1.389847,-0.306602 -3.261179,-1.105418 -5.896222,-2.516923 -3.062593,-1.640528 -3.301646,-1.726588 -4.535556,-1.632833 -1.447476,0.109984 -2.785944,0.47677 -5.987591,1.64081 -4.129795,1.501492 -5.434957,1.824163 -7.701484,1.904011 -1.103398,0.03887 -2.171166,0.0054 -2.685161,-0.08407 -1.141622,-0.198805 -5.015827,-1.297948 -7.34024,-2.082485 -2.522864,-0.851518 -3.77336,-1.051844 -7.062508,-1.131393 -3.755891,-0.09084 -6.369707,0.265296 -8.857923,1.206891 -1.188795,0.449866 -6.047405,1.823708 -7.09431,2.006019 -0.51994,0.09054 -1.581792,0.1241 -2.690723,0.08503 -2.177726,-0.07672 -3.5790011,-0.4071 -7.0153293,-1.654012 C 3.6590536,61.223385 1.9448764,60.685713 0.87471428,60.482427 L 0.06479365,60.328576 v -4.459104 -4.459104 l 0.87471428,0.08794 c 2.00115967,0.201179 3.72956647,0.687341 8.73740287,2.45764 2.3487302,0.830289 3.9038812,1.182097 4.7593412,1.076661 0.327732,-0.04039 2.782661,-0.711274 5.455399,-1.490845 11.303782,-3.297037 11.673611,-3.292237 23.714476,0.307754 5.276408,1.577546 5.040061,1.585515 10.487246,-0.353561 1.608772,-0.572686 3.624811,-1.217242 4.480087,-1.432345 0.855276,-0.215103 1.570345,-0.403869 1.589042,-0.419479 0.0187,-0.01561 -0.254377,-0.635104 -0.606831,-1.376652 C 58.583775,48.222647 57.959444,46.261413 56.630709,41.079174 55.38721,36.22936 54.931207,34.708178 54.14455,32.785587 52.63094,29.086319 50.401919,26.514124 47.416304,25.021475 45.750855,24.188839 44.37362,23.801909 41.565127,23.3776 L 41.143968,23.31397 V 15.684488 8.0550054 l 0.356365,-0.07012 C 42.591868,7.7701104 48.258031,7.6163872 52.480777,7.6869857 58.539688,7.7882822 62.571146,8.161586 67.429718,9.0712228 89.354379,13.176027 102.44221,25.526914 104.5745,44.124476 c 0.13069,1.139823 0.34836,2.253868 0.58557,2.996928 0.70364,2.20415 0.7328,4.00359 0.0877,5.412636 -0.18289,0.399488 -0.30129,0.726341 -0.26309,0.726341 0.0382,0 0.6872,-0.387793 1.44225,-0.86176 1.64452,-1.032321 3.18769,-1.762943 4.54008,-2.149525 1.28896,-0.368453 3.88816,-0.39575 5.27278,-0.05537 1.41342,0.347456 3.22275,0.957283 4.95671,1.67064 l 1.58745,0.65308 v 4.770457 4.770459 l -0.68034,-0.234356 c -0.37418,-0.128897 -1.87577,-0.732775 -3.33687,-1.341953 -4.20557,-1.753436 -5.03023,-1.929876 -6.28498,-1.344713 -0.35637,0.166193 -1.55181,0.869253 -2.65654,1.562357 -3.88116,2.435023 -5.92745,3.186846 -8.67385,3.186846 -2.400054,0 -4.327364,-0.511355 -8.042915,-2.133953 -2.815887,-1.229711 -3.657627,-1.503946 -4.859523,-1.583209 -1.289654,-0.08505 -1.695355,0.063 -4.345721,1.585835 -2.375444,1.364875 -4.050887,2.161739 -5.308533,2.524813 -1.302231,0.375943 -4.067205,0.467805 -5.377873,0.178669 z M 67.257133,51.259576 c 0.245606,-0.102622 0.568839,-0.379614 0.718295,-0.61554 0.243467,-0.38433 0.264725,-0.563776 0.204326,-1.72483 -0.172777,-3.321254 -1.485766,-6.85994 -3.897563,-10.504474 -1.229356,-1.857714 -1.570344,-2.151886 -2.494353,-2.151886 -0.700654,0 -1.162507,0.287995 -1.504132,0.93792 -0.383873,0.730304 -0.230222,1.245877 0.856963,2.875508 2.208505,3.310432 3.229931,5.920907 3.574515,9.13546 0.125973,1.175166 0.330415,1.596935 0.960221,1.980952 0.492826,0.300494 0.973939,0.32084 1.581728,0.06689 z m 30.268656,-3.478149 c 0.241139,-0.162503 0.51532,-0.439495 0.609288,-0.61554 0.22817,-0.42745 0.134997,-1.571443 -0.298849,-3.66932 -1.111268,-5.373587 -3.003056,-9.868863 -5.667632,-13.46746 -1.050093,-1.418184 -3.482051,-3.894578 -5.08593,-5.178858 -2.374383,-1.901248 -6.992991,-4.796087 -7.933476,-4.972523 -0.615232,-0.115419 -1.332256,0.193398 -1.697863,0.731256 -0.250309,0.36824 -0.295344,0.571447 -0.250491,1.130284 0.07023,0.875083 0.305414,1.123885 1.933945,2.045967 9.390158,5.316753 13.569006,11.201244 15.522724,21.858489 0.140116,0.764313 0.352931,1.539492 0.472921,1.722621 0.486326,0.742226 1.618731,0.938457 2.395363,0.415084 z M 80.890587,44.750388 c 0.997069,-0.473142 1.149128,-1.332035 0.621436,-3.510139 -0.978418,-4.038524 -2.702832,-7.073707 -5.765799,-10.14852 -2.956108,-2.96754 -6.301316,-5.108296 -10.806876,-6.915828 -1.554515,-0.623637 -2.23571,-0.627823 -2.901331,-0.01783 -0.456127,0.41801 -0.484049,0.488533 -0.484049,1.222571 0,1.067239 0.324345,1.389554 2.12301,2.109709 5.797354,2.321166 10.145307,5.749746 12.552227,9.898064 0.932303,1.60682 1.685909,3.679563 2.10464,5.788676 0.291864,1.470085 1.372681,2.135167 2.556742,1.573294 z"
     id="path50" /><path
     style="fill:#999999;stroke-width:0.129587"
     d="M 73.216825,81.304822 C 71.816366,80.995536 70.199747,80.30799 67.546922,78.893417 64.28834,77.155836 64.01192,77.055699 62.756357,77.157972 c -1.395433,0.113667 -2.966737,0.549416 -6.125695,1.698757 -3.815497,1.388213 -5.286301,1.753427 -7.416886,1.841684 -1.092956,0.04527 -2.079027,0.01228 -2.721333,-0.09103 -1.243955,-0.200098 -6.451198,-1.684039 -7.421872,-2.115056 -2.061893,-0.915563 -3.834097,-1.18946 -7.710444,-1.191662 -4.031313,-0.0023 -5.489846,0.225728 -8.202354,1.282305 -1.214299,0.472994 -5.796474,1.779424 -7.120257,2.030067 -1.163322,0.220262 -4.097271,0.08887 -5.476151,-0.245238 C 9.9555444,80.221007 8.6726301,79.828593 7.7104444,79.495771 4.024628,78.220837 1.7399415,77.49789 0.91810162,77.34646 L 0.06479365,77.189232 V 72.74087 c 0,-4.150343 0.01519306,-4.448328 0.22677778,-4.447842 0.54509448,0.0013 2.80599577,0.426616 4.11852307,0.774854 0.7862728,0.208613 2.5381611,0.783662 3.8930852,1.277887 2.9970043,1.093193 4.1999633,1.438776 5.3414273,1.534473 0.966064,0.08099 1.103704,0.04775 6.89498,-1.665416 9.409065,-2.783366 11.523645,-2.841554 19.491152,-0.536349 1.360642,0.393669 3.669338,1.063885 5.130435,1.489368 2.42865,0.707244 2.735786,0.768129 3.580329,0.709745 1.173992,-0.08116 2.222182,-0.37768 5.362394,-1.516965 4.167899,-1.512135 6.641853,-2.068118 9.202498,-2.068118 2.512522,0 4.355231,0.622879 8.397781,2.838646 1.84063,1.00887 3.187633,1.567323 3.780427,1.567323 0.619301,0 1.892706,-0.546743 3.693238,-1.585711 3.583661,-2.067894 5.205693,-2.713322 7.464333,-2.970155 0.945968,-0.107568 1.614574,-0.107988 2.546286,-0.0016 2.202503,0.251493 3.591611,0.695058 7.972089,2.545619 1.123909,0.474803 2.480114,0.952322 3.013791,1.061154 0.92339,0.188307 1.01312,0.184874 1.85548,-0.07099 0.48685,-0.147874 1.49237,-0.639666 2.2345,-1.092872 0.74213,-0.453205 1.90332,-1.16452 2.58041,-1.580699 2.62192,-1.611578 4.45307,-2.196318 6.86813,-2.193194 2.2492,0.0029 4.06214,0.472497 7.77832,2.014753 l 1.29279,0.536518 v 4.77732 4.77732 l -1.0043,-0.369461 c -0.55237,-0.203203 -1.9687,-0.77929 -3.14742,-1.280193 -3.70429,-1.574172 -4.92045,-1.846073 -6.02089,-1.346112 -0.28509,0.129526 -1.53884,0.867196 -2.78612,1.639268 -3.93673,2.436856 -5.46286,3.022864 -8.164,3.134852 -2.698075,0.111861 -4.561438,-0.345093 -8.552765,-2.097405 -2.846263,-1.249594 -3.639811,-1.504004 -4.924317,-1.578724 -1.08477,-0.0631 -1.118141,-0.05592 -2.1982,0.473348 -0.60319,0.295582 -1.62369,0.846958 -2.267777,1.22528 -1.903243,1.117919 -3.744808,1.99255 -4.958603,2.355037 -1.458419,0.435542 -4.119154,0.547384 -5.542753,0.232989 z"
     id="path126" /></svg>
