<?xml version="1.0" encoding="UTF-8" standalone="no"?>
<svg
   version="1.1"
   id="Layer_1"
   x="0px"
   y="0px"
   viewBox="0 0 122.88 65.27"
   style="enable-background:new 0 0 122.88 65.27"
   xml:space="preserve"
   sodipodi:docname="soil.svg"
   inkscape:version="1.1.1 (3bf5ae0d25, 2021-09-20)"
   xmlns:inkscape="http://www.inkscape.org/namespaces/inkscape"
   xmlns:sodipodi="http://sodipodi.sourceforge.net/DTD/sodipodi-0.dtd"
   xmlns="http://www.w3.org/2000/svg"
   xmlns:svg="http://www.w3.org/2000/svg"><defs
     id="defs11" /><sodipodi:namedview
     id="namedview9"
     pagecolor="#ffffff"
     bordercolor="#666666"
     borderopacity="1.0"
     inkscape:pageshadow="2"
     inkscape:pageopacity="0.0"
     inkscape:pagecheckerboard="0"
     showgrid="false"
     inkscape:zoom="9.6522144"
     inkscape:cx="61.436679"
     inkscape:cy="32.479594"
     inkscape:window-width="1876"
     inkscape:window-height="1051"
     inkscape:window-x="44"
     inkscape:window-y="0"
     inkscape:window-maximized="1"
     inkscape:current-layer="Layer_1" /><style
     type="text/css"
     id="style2">.st0{fill-rule:evenodd;clip-rule:evenodd;}</style><g
     id="g6"><path
       class="st0"
       d="M65.43,5.59c2.25-2.17,5.22-3.82,8.46-4.74c3.45-0.98,7.27-1.16,10.92-0.29c3.72,0.9,7.24,2.89,9.99,6.24 c2.7,3.29,4.63,7.87,5.2,13.96c10.85,4.17,17.39,11.18,20.56,18.83c1.46,3.53,2.2,7.21,2.3,10.79c0.1,3.59-0.43,7.11-1.51,10.32 c-0.15,0.44-0.3,0.86-0.47,1.29h-0.28c0,1.8-1.46,3.26-3.26,3.26H3.26c-1.8,0-3.26-1.46-3.26-3.26c0-0.11,0.01-0.21,0.02-0.32 C-0.02,60.53,0,59.36,0.09,58.2c0.38-5.32,2.02-10.53,4.65-14.85c2.89-4.75,6.99-8.45,11.98-10.16c-0.07-8.89,2.8-16.12,7.34-21.51 c2.81-3.34,6.26-5.96,10.05-7.81c3.78-1.85,7.89-2.94,12.03-3.24C52.84,0.17,59.68,1.76,65.43,5.59L65.43,5.59z M64.68,33.29 c3.18,0,5.77,2.58,5.77,5.77c0,3.18-2.58,5.77-5.77,5.77c-3.18,0-5.77-2.58-5.77-5.77C58.91,35.87,61.49,33.29,64.68,33.29 L64.68,33.29z M54.26,19.19c1,0,1.82,0.81,1.82,1.82c0,1-0.81,1.82-1.82,1.82s-1.82-0.81-1.82-1.82 C52.44,20,53.26,19.19,54.26,19.19L54.26,19.19z M94.27,40.81c3.18,0,5.77,2.58,5.77,5.77c0,3.18-2.58,5.77-5.77,5.77 c-3.18,0-5.77-2.58-5.77-5.77C88.5,43.39,91.08,40.81,94.27,40.81L94.27,40.81z M79.01,16.32c1.63-0.81,3.6-0.15,4.42,1.47 c0.81,1.63,0.15,6.79-1.47,7.61c-1.63,0.81-3.6-3.03-4.42-4.66C76.73,19.11,77.39,17.13,79.01,16.32L79.01,16.32L79.01,16.32z M27.48,53.13c1,0,1.82,0.81,1.82,1.82c0,1-0.81,1.82-1.82,1.82c-1,0-1.82-0.81-1.82-1.82C25.67,53.94,26.48,53.13,27.48,53.13 L27.48,53.13z M29.52,28.87c1.47-0.74,3.26-0.14,4,1.33c0.74,1.47,0.14,3.26-1.33,4c-1.47,0.74-3.26,0.14-4-1.33 C27.45,31.39,28.05,29.6,29.52,28.87L29.52,28.87L29.52,28.87z M45.56,48.3c1.65,0,2.98,1.33,2.98,2.98c0,1.65-1.33,2.98-2.98,2.98 c-1.65,0-2.98-1.33-2.98-2.98C42.58,49.63,43.91,48.3,45.56,48.3L45.56,48.3z"
       id="path4" /></g><path
     style="fill:#806600;stroke-width:0.103603"
     d="M 2.1523123,64.99517 C 1.5643425,64.786779 0.7251613,64.013445 0.38278112,63.364486 l -0.27917795,-0.529164 0.006675,-2.434674 C 0.11766058,57.707722 0.27145715,56.185899 0.78898092,53.684855 2.7422506,44.245266 8.4462126,36.603037 15.763536,33.621787 l 0.948283,-0.386352 0.06599,-1.413953 c 0.165984,-3.556474 0.592187,-6.275701 1.421773,-9.071111 2.167069,-7.302234 6.968973,-13.5410508 13.415455,-17.4298701 4.166835,-2.51363 8.695046,-4.0271354 13.616003,-4.55100149 1.9058,-0.2028841 5.465712,-0.14978323 7.33504,0.109412 4.29276,0.59522079 8.32685,2.01018469 11.849417,4.15620279 1.099826,0.6700361 0.940468,0.6929011 2.112642,-0.3031242 3.453248,-2.9343081 8.391735,-4.63798867 13.453507,-4.64119479 4.088048,-0.0025894 7.625597,1.03486349 10.826531,3.17508429 4.944337,3.3059023 8.146375,9.1585355 9.021503,16.4893615 l 0.125926,1.054869 0.839554,0.329968 c 1.22407,0.481097 4.23181,1.948206 5.41276,2.640234 4.34557,2.546458 7.72321,5.511056 10.50105,9.216924 5.51471,7.357082 7.41311,16.739774 5.17766,25.590356 -0.46607,1.845236 -1.00151,3.367103 -1.18465,3.367103 -0.0772,0 -0.15769,0.190899 -0.19483,0.461856 -0.13722,1.001101 -0.87178,1.99636 -1.81725,2.462191 l -0.47868,0.23585 -57.810573,0.01787 C 9.2881602,65.148255 2.5393584,65.132355 2.1523123,64.99517 Z M 28.314711,56.628975 c 0.387222,-0.201471 0.70697,-0.564601 0.896438,-1.01806 0.293137,-0.701575 0.142733,-1.40954 -0.418731,-1.971004 -0.681164,-0.681164 -1.787125,-0.737235 -2.511927,-0.127353 -1.039577,0.874746 -0.750006,2.717176 0.500928,3.187226 0.307786,0.115652 1.259381,0.07171 1.533292,-0.07081 z m 18.282512,-2.5041 c 0.64664,-0.220331 1.39869,-0.904325 1.695779,-1.542319 0.323845,-0.69545 0.33757,-1.861193 0.02993,-2.542225 -0.482511,-1.068159 -1.375633,-1.66632 -2.59695,-1.739286 -0.683303,-0.04082 -0.867913,-0.01234 -1.346841,0.20781 -0.749126,0.344351 -1.130256,0.686394 -1.479177,1.327476 -0.555579,1.020782 -0.458412,2.316679 0.24669,3.290043 0.716711,0.98939 2.209519,1.421369 3.450567,0.998501 z m 49.400719,-1.997964 c 1.926326,-0.662753 3.247013,-1.987922 3.834819,-3.847834 0.278179,-0.880203 0.299689,-2.387712 0.04657,-3.2635 -0.5601,-1.937917 -2.103092,-3.485205 -4.030319,-4.04154 -0.86343,-0.249246 -2.409303,-0.228616 -3.279581,0.04377 -1.882244,0.589114 -3.220107,1.945409 -3.89235,3.94597 -0.228872,0.681117 -0.258033,2.38845 -0.05304,3.105355 0.610782,2.13601 2.483818,3.869779 4.585822,4.244851 0.76256,0.136068 2.112033,0.04552 2.788074,-0.18707 z M 66.697656,44.51246 c 1.473326,-0.559949 2.475857,-1.476353 3.189823,-2.915788 1.90116,-3.832954 -0.907017,-8.329035 -5.208101,-8.338523 -2.632847,-0.0058 -4.960924,1.784843 -5.61817,4.321239 -0.208896,0.806156 -0.208296,2.153291 0.0013,2.966299 0.506863,1.965883 2.222841,3.664394 4.215401,4.172492 0.87195,0.222346 2.560712,0.120756 3.419725,-0.205719 z M 32.164413,34.258581 c 1.567433,-0.733746 2.185259,-2.763223 1.300697,-4.272614 -0.696688,-1.188809 -2.192175,-1.751963 -3.538081,-1.33233 -0.866461,0.27015 -1.713992,1.119573 -1.959413,1.963787 -0.745707,2.565147 1.792013,4.766884 4.196797,3.641157 z m 49.782598,-8.816033 c 1.173769,-0.490431 2.130054,-3.905278 1.811502,-6.468781 -0.123099,-0.990614 -0.352813,-1.511484 -0.914164,-2.072835 -0.678509,-0.678509 -1.258066,-0.89445 -2.396488,-0.892918 -0.823814,0.0011 -1.056757,0.03983 -1.429212,0.237594 -0.686737,0.364634 -1.230442,0.913739 -1.542106,1.55742 -0.377561,0.779778 -0.400863,2.071637 -0.05137,2.848277 0.748919,1.664261 2.304693,3.975947 2.997177,4.453434 0.718122,0.495164 0.999077,0.557414 1.524664,0.337809 z M 55.013283,22.700486 c 0.748737,-0.345564 1.087833,-0.887761 1.087833,-1.739384 0,-1.647546 -2.174925,-2.447701 -3.233533,-1.189616 -0.802171,0.953326 -0.531392,2.363629 0.557284,2.90251 0.547712,0.27111 1.040586,0.27933 1.588416,0.02649 z"
     id="path50" /></svg>
