<?xml version="1.0" encoding="utf-8" standalone="no"?>
<!DOCTYPE svg PUBLIC "-//W3C//DTD SVG 1.1//EN"
  "http://www.w3.org/Graphics/SVG/1.1/DTD/svg11.dtd">
<svg xmlns:xlink="http://www.w3.org/1999/xlink" width="531.985625pt" height="350.729687pt" viewBox="0 0 531.985625 350.729687" xmlns="http://www.w3.org/2000/svg" version="1.1">
 <metadata>
  <rdf:RDF xmlns:dc="http://purl.org/dc/elements/1.1/" xmlns:cc="http://creativecommons.org/ns#" xmlns:rdf="http://www.w3.org/1999/02/22-rdf-syntax-ns#">
   <cc:Work>
    <dc:type rdf:resource="http://purl.org/dc/dcmitype/StillImage"/>
    <dc:date>2022-07-26T16:43:55.664208</dc:date>
    <dc:format>image/svg+xml</dc:format>
    <dc:creator>
     <cc:Agent>
      <dc:title>Matplotlib v3.5.1, https://matplotlib.org/</dc:title>
     </cc:Agent>
    </dc:creator>
   </cc:Work>
  </rdf:RDF>
 </metadata>
 <defs>
  <style type="text/css">*{stroke-linejoin: round; stroke-linecap: butt}</style>
 </defs>
 <g id="figure_1">
  <g id="patch_1">
   <path d="M 0 350.729687 
L 531.985625 350.729687 
L 531.985625 0 
L 0 0 
z
" style="fill: #ffffff"/>
  </g>
  <g id="axes_1">
   <g id="patch_2">
    <path d="M 69.666875 312.737812 
L 508.879375 312.737812 
L 508.879375 23.837812 
L 69.666875 23.837812 
z
" style="fill: #ffffff"/>
   </g>
   <g id="matplotlib.axis_1">
    <g id="xtick_1">
     <g id="text_1">
      <!-- 1000 -->
      <g style="fill: #262626" transform="translate(88.637622 325.83625)scale(0.1 -0.1)">
       <defs>
        <path id="DejaVuSans-31" d="M 794 531 
L 1825 531 
L 1825 4091 
L 703 3866 
L 703 4441 
L 1819 4666 
L 2450 4666 
L 2450 531 
L 3481 531 
L 3481 0 
L 794 0 
L 794 531 
z
" transform="scale(0.015625)"/>
        <path id="DejaVuSans-30" d="M 2034 4250 
Q 1547 4250 1301 3770 
Q 1056 3291 1056 2328 
Q 1056 1369 1301 889 
Q 1547 409 2034 409 
Q 2525 409 2770 889 
Q 3016 1369 3016 2328 
Q 3016 3291 2770 3770 
Q 2525 4250 2034 4250 
z
M 2034 4750 
Q 2819 4750 3233 4129 
Q 3647 3509 3647 2328 
Q 3647 1150 3233 529 
Q 2819 -91 2034 -91 
Q 1250 -91 836 529 
Q 422 1150 422 2328 
Q 422 3509 836 4129 
Q 1250 4750 2034 4750 
z
" transform="scale(0.015625)"/>
       </defs>
       <use xlink:href="#DejaVuSans-31"/>
       <use xlink:href="#DejaVuSans-30" x="63.623047"/>
       <use xlink:href="#DejaVuSans-30" x="127.246094"/>
       <use xlink:href="#DejaVuSans-30" x="190.869141"/>
      </g>
     </g>
    </g>
    <g id="xtick_2">
     <g id="text_2">
      <!-- 2000 -->
      <g style="fill: #262626" transform="translate(133.917262 325.83625)scale(0.1 -0.1)">
       <defs>
        <path id="DejaVuSans-32" d="M 1228 531 
L 3431 531 
L 3431 0 
L 469 0 
L 469 531 
Q 828 903 1448 1529 
Q 2069 2156 2228 2338 
Q 2531 2678 2651 2914 
Q 2772 3150 2772 3378 
Q 2772 3750 2511 3984 
Q 2250 4219 1831 4219 
Q 1534 4219 1204 4116 
Q 875 4013 500 3803 
L 500 4441 
Q 881 4594 1212 4672 
Q 1544 4750 1819 4750 
Q 2544 4750 2975 4387 
Q 3406 4025 3406 3419 
Q 3406 3131 3298 2873 
Q 3191 2616 2906 2266 
Q 2828 2175 2409 1742 
Q 1991 1309 1228 531 
z
" transform="scale(0.015625)"/>
       </defs>
       <use xlink:href="#DejaVuSans-32"/>
       <use xlink:href="#DejaVuSans-30" x="63.623047"/>
       <use xlink:href="#DejaVuSans-30" x="127.246094"/>
       <use xlink:href="#DejaVuSans-30" x="190.869141"/>
      </g>
     </g>
    </g>
    <g id="xtick_3">
     <g id="text_3">
      <!-- 3000 -->
      <g style="fill: #262626" transform="translate(179.196901 325.83625)scale(0.1 -0.1)">
       <defs>
        <path id="DejaVuSans-33" d="M 2597 2516 
Q 3050 2419 3304 2112 
Q 3559 1806 3559 1356 
Q 3559 666 3084 287 
Q 2609 -91 1734 -91 
Q 1441 -91 1130 -33 
Q 819 25 488 141 
L 488 750 
Q 750 597 1062 519 
Q 1375 441 1716 441 
Q 2309 441 2620 675 
Q 2931 909 2931 1356 
Q 2931 1769 2642 2001 
Q 2353 2234 1838 2234 
L 1294 2234 
L 1294 2753 
L 1863 2753 
Q 2328 2753 2575 2939 
Q 2822 3125 2822 3475 
Q 2822 3834 2567 4026 
Q 2313 4219 1838 4219 
Q 1578 4219 1281 4162 
Q 984 4106 628 3988 
L 628 4550 
Q 988 4650 1302 4700 
Q 1616 4750 1894 4750 
Q 2613 4750 3031 4423 
Q 3450 4097 3450 3541 
Q 3450 3153 3228 2886 
Q 3006 2619 2597 2516 
z
" transform="scale(0.015625)"/>
       </defs>
       <use xlink:href="#DejaVuSans-33"/>
       <use xlink:href="#DejaVuSans-30" x="63.623047"/>
       <use xlink:href="#DejaVuSans-30" x="127.246094"/>
       <use xlink:href="#DejaVuSans-30" x="190.869141"/>
      </g>
     </g>
    </g>
    <g id="xtick_4">
     <g id="text_4">
      <!-- 4000 -->
      <g style="fill: #262626" transform="translate(224.47654 325.83625)scale(0.1 -0.1)">
       <defs>
        <path id="DejaVuSans-34" d="M 2419 4116 
L 825 1625 
L 2419 1625 
L 2419 4116 
z
M 2253 4666 
L 3047 4666 
L 3047 1625 
L 3713 1625 
L 3713 1100 
L 3047 1100 
L 3047 0 
L 2419 0 
L 2419 1100 
L 313 1100 
L 313 1709 
L 2253 4666 
z
" transform="scale(0.015625)"/>
       </defs>
       <use xlink:href="#DejaVuSans-34"/>
       <use xlink:href="#DejaVuSans-30" x="63.623047"/>
       <use xlink:href="#DejaVuSans-30" x="127.246094"/>
       <use xlink:href="#DejaVuSans-30" x="190.869141"/>
      </g>
     </g>
    </g>
    <g id="xtick_5">
     <g id="text_5">
      <!-- 5000 -->
      <g style="fill: #262626" transform="translate(269.756179 325.83625)scale(0.1 -0.1)">
       <defs>
        <path id="DejaVuSans-35" d="M 691 4666 
L 3169 4666 
L 3169 4134 
L 1269 4134 
L 1269 2991 
Q 1406 3038 1543 3061 
Q 1681 3084 1819 3084 
Q 2600 3084 3056 2656 
Q 3513 2228 3513 1497 
Q 3513 744 3044 326 
Q 2575 -91 1722 -91 
Q 1428 -91 1123 -41 
Q 819 9 494 109 
L 494 744 
Q 775 591 1075 516 
Q 1375 441 1709 441 
Q 2250 441 2565 725 
Q 2881 1009 2881 1497 
Q 2881 1984 2565 2268 
Q 2250 2553 1709 2553 
Q 1456 2553 1204 2497 
Q 953 2441 691 2322 
L 691 4666 
z
" transform="scale(0.015625)"/>
       </defs>
       <use xlink:href="#DejaVuSans-35"/>
       <use xlink:href="#DejaVuSans-30" x="63.623047"/>
       <use xlink:href="#DejaVuSans-30" x="127.246094"/>
       <use xlink:href="#DejaVuSans-30" x="190.869141"/>
      </g>
     </g>
    </g>
    <g id="xtick_6">
     <g id="text_6">
      <!-- 6000 -->
      <g style="fill: #262626" transform="translate(315.035818 325.83625)scale(0.1 -0.1)">
       <defs>
        <path id="DejaVuSans-36" d="M 2113 2584 
Q 1688 2584 1439 2293 
Q 1191 2003 1191 1497 
Q 1191 994 1439 701 
Q 1688 409 2113 409 
Q 2538 409 2786 701 
Q 3034 994 3034 1497 
Q 3034 2003 2786 2293 
Q 2538 2584 2113 2584 
z
M 3366 4563 
L 3366 3988 
Q 3128 4100 2886 4159 
Q 2644 4219 2406 4219 
Q 1781 4219 1451 3797 
Q 1122 3375 1075 2522 
Q 1259 2794 1537 2939 
Q 1816 3084 2150 3084 
Q 2853 3084 3261 2657 
Q 3669 2231 3669 1497 
Q 3669 778 3244 343 
Q 2819 -91 2113 -91 
Q 1303 -91 875 529 
Q 447 1150 447 2328 
Q 447 3434 972 4092 
Q 1497 4750 2381 4750 
Q 2619 4750 2861 4703 
Q 3103 4656 3366 4563 
z
" transform="scale(0.015625)"/>
       </defs>
       <use xlink:href="#DejaVuSans-36"/>
       <use xlink:href="#DejaVuSans-30" x="63.623047"/>
       <use xlink:href="#DejaVuSans-30" x="127.246094"/>
       <use xlink:href="#DejaVuSans-30" x="190.869141"/>
      </g>
     </g>
    </g>
    <g id="xtick_7">
     <g id="text_7">
      <!-- 7000 -->
      <g style="fill: #262626" transform="translate(360.315457 325.83625)scale(0.1 -0.1)">
       <defs>
        <path id="DejaVuSans-37" d="M 525 4666 
L 3525 4666 
L 3525 4397 
L 1831 0 
L 1172 0 
L 2766 4134 
L 525 4134 
L 525 4666 
z
" transform="scale(0.015625)"/>
       </defs>
       <use xlink:href="#DejaVuSans-37"/>
       <use xlink:href="#DejaVuSans-30" x="63.623047"/>
       <use xlink:href="#DejaVuSans-30" x="127.246094"/>
       <use xlink:href="#DejaVuSans-30" x="190.869141"/>
      </g>
     </g>
    </g>
    <g id="xtick_8">
     <g id="text_8">
      <!-- 8000 -->
      <g style="fill: #262626" transform="translate(405.595097 325.83625)scale(0.1 -0.1)">
       <defs>
        <path id="DejaVuSans-38" d="M 2034 2216 
Q 1584 2216 1326 1975 
Q 1069 1734 1069 1313 
Q 1069 891 1326 650 
Q 1584 409 2034 409 
Q 2484 409 2743 651 
Q 3003 894 3003 1313 
Q 3003 1734 2745 1975 
Q 2488 2216 2034 2216 
z
M 1403 2484 
Q 997 2584 770 2862 
Q 544 3141 544 3541 
Q 544 4100 942 4425 
Q 1341 4750 2034 4750 
Q 2731 4750 3128 4425 
Q 3525 4100 3525 3541 
Q 3525 3141 3298 2862 
Q 3072 2584 2669 2484 
Q 3125 2378 3379 2068 
Q 3634 1759 3634 1313 
Q 3634 634 3220 271 
Q 2806 -91 2034 -91 
Q 1263 -91 848 271 
Q 434 634 434 1313 
Q 434 1759 690 2068 
Q 947 2378 1403 2484 
z
M 1172 3481 
Q 1172 3119 1398 2916 
Q 1625 2713 2034 2713 
Q 2441 2713 2670 2916 
Q 2900 3119 2900 3481 
Q 2900 3844 2670 4047 
Q 2441 4250 2034 4250 
Q 1625 4250 1398 4047 
Q 1172 3844 1172 3481 
z
" transform="scale(0.015625)"/>
       </defs>
       <use xlink:href="#DejaVuSans-38"/>
       <use xlink:href="#DejaVuSans-30" x="63.623047"/>
       <use xlink:href="#DejaVuSans-30" x="127.246094"/>
       <use xlink:href="#DejaVuSans-30" x="190.869141"/>
      </g>
     </g>
    </g>
    <g id="xtick_9">
     <g id="text_9">
      <!-- 9000 -->
      <g style="fill: #262626" transform="translate(450.874736 325.83625)scale(0.1 -0.1)">
       <defs>
        <path id="DejaVuSans-39" d="M 703 97 
L 703 672 
Q 941 559 1184 500 
Q 1428 441 1663 441 
Q 2288 441 2617 861 
Q 2947 1281 2994 2138 
Q 2813 1869 2534 1725 
Q 2256 1581 1919 1581 
Q 1219 1581 811 2004 
Q 403 2428 403 3163 
Q 403 3881 828 4315 
Q 1253 4750 1959 4750 
Q 2769 4750 3195 4129 
Q 3622 3509 3622 2328 
Q 3622 1225 3098 567 
Q 2575 -91 1691 -91 
Q 1453 -91 1209 -44 
Q 966 3 703 97 
z
M 1959 2075 
Q 2384 2075 2632 2365 
Q 2881 2656 2881 3163 
Q 2881 3666 2632 3958 
Q 2384 4250 1959 4250 
Q 1534 4250 1286 3958 
Q 1038 3666 1038 3163 
Q 1038 2656 1286 2365 
Q 1534 2075 1959 2075 
z
" transform="scale(0.015625)"/>
       </defs>
       <use xlink:href="#DejaVuSans-39"/>
       <use xlink:href="#DejaVuSans-30" x="63.623047"/>
       <use xlink:href="#DejaVuSans-30" x="127.246094"/>
       <use xlink:href="#DejaVuSans-30" x="190.869141"/>
      </g>
     </g>
    </g>
    <g id="xtick_10">
     <g id="text_10">
      <!-- 10000 -->
      <g style="fill: #262626" transform="translate(492.973125 325.83625)scale(0.1 -0.1)">
       <use xlink:href="#DejaVuSans-31"/>
       <use xlink:href="#DejaVuSans-30" x="63.623047"/>
       <use xlink:href="#DejaVuSans-30" x="127.246094"/>
       <use xlink:href="#DejaVuSans-30" x="190.869141"/>
       <use xlink:href="#DejaVuSans-30" x="254.492188"/>
      </g>
     </g>
    </g>
    <g id="text_11">
     <!-- Animal Units -->
     <g style="fill: #262626" transform="translate(251.265937 341.034062)scale(0.12 -0.12)">
      <defs>
       <path id="DejaVuSans-41" d="M 2188 4044 
L 1331 1722 
L 3047 1722 
L 2188 4044 
z
M 1831 4666 
L 2547 4666 
L 4325 0 
L 3669 0 
L 3244 1197 
L 1141 1197 
L 716 0 
L 50 0 
L 1831 4666 
z
" transform="scale(0.015625)"/>
       <path id="DejaVuSans-6e" d="M 3513 2113 
L 3513 0 
L 2938 0 
L 2938 2094 
Q 2938 2591 2744 2837 
Q 2550 3084 2163 3084 
Q 1697 3084 1428 2787 
Q 1159 2491 1159 1978 
L 1159 0 
L 581 0 
L 581 3500 
L 1159 3500 
L 1159 2956 
Q 1366 3272 1645 3428 
Q 1925 3584 2291 3584 
Q 2894 3584 3203 3211 
Q 3513 2838 3513 2113 
z
" transform="scale(0.015625)"/>
       <path id="DejaVuSans-69" d="M 603 3500 
L 1178 3500 
L 1178 0 
L 603 0 
L 603 3500 
z
M 603 4863 
L 1178 4863 
L 1178 4134 
L 603 4134 
L 603 4863 
z
" transform="scale(0.015625)"/>
       <path id="DejaVuSans-6d" d="M 3328 2828 
Q 3544 3216 3844 3400 
Q 4144 3584 4550 3584 
Q 5097 3584 5394 3201 
Q 5691 2819 5691 2113 
L 5691 0 
L 5113 0 
L 5113 2094 
Q 5113 2597 4934 2840 
Q 4756 3084 4391 3084 
Q 3944 3084 3684 2787 
Q 3425 2491 3425 1978 
L 3425 0 
L 2847 0 
L 2847 2094 
Q 2847 2600 2669 2842 
Q 2491 3084 2119 3084 
Q 1678 3084 1418 2786 
Q 1159 2488 1159 1978 
L 1159 0 
L 581 0 
L 581 3500 
L 1159 3500 
L 1159 2956 
Q 1356 3278 1631 3431 
Q 1906 3584 2284 3584 
Q 2666 3584 2933 3390 
Q 3200 3197 3328 2828 
z
" transform="scale(0.015625)"/>
       <path id="DejaVuSans-61" d="M 2194 1759 
Q 1497 1759 1228 1600 
Q 959 1441 959 1056 
Q 959 750 1161 570 
Q 1363 391 1709 391 
Q 2188 391 2477 730 
Q 2766 1069 2766 1631 
L 2766 1759 
L 2194 1759 
z
M 3341 1997 
L 3341 0 
L 2766 0 
L 2766 531 
Q 2569 213 2275 61 
Q 1981 -91 1556 -91 
Q 1019 -91 701 211 
Q 384 513 384 1019 
Q 384 1609 779 1909 
Q 1175 2209 1959 2209 
L 2766 2209 
L 2766 2266 
Q 2766 2663 2505 2880 
Q 2244 3097 1772 3097 
Q 1472 3097 1187 3025 
Q 903 2953 641 2809 
L 641 3341 
Q 956 3463 1253 3523 
Q 1550 3584 1831 3584 
Q 2591 3584 2966 3190 
Q 3341 2797 3341 1997 
z
" transform="scale(0.015625)"/>
       <path id="DejaVuSans-6c" d="M 603 4863 
L 1178 4863 
L 1178 0 
L 603 0 
L 603 4863 
z
" transform="scale(0.015625)"/>
       <path id="DejaVuSans-20" transform="scale(0.015625)"/>
       <path id="DejaVuSans-55" d="M 556 4666 
L 1191 4666 
L 1191 1831 
Q 1191 1081 1462 751 
Q 1734 422 2344 422 
Q 2950 422 3222 751 
Q 3494 1081 3494 1831 
L 3494 4666 
L 4128 4666 
L 4128 1753 
Q 4128 841 3676 375 
Q 3225 -91 2344 -91 
Q 1459 -91 1007 375 
Q 556 841 556 1753 
L 556 4666 
z
" transform="scale(0.015625)"/>
       <path id="DejaVuSans-74" d="M 1172 4494 
L 1172 3500 
L 2356 3500 
L 2356 3053 
L 1172 3053 
L 1172 1153 
Q 1172 725 1289 603 
Q 1406 481 1766 481 
L 2356 481 
L 2356 0 
L 1766 0 
Q 1100 0 847 248 
Q 594 497 594 1153 
L 594 3053 
L 172 3053 
L 172 3500 
L 594 3500 
L 594 4494 
L 1172 4494 
z
" transform="scale(0.015625)"/>
       <path id="DejaVuSans-73" d="M 2834 3397 
L 2834 2853 
Q 2591 2978 2328 3040 
Q 2066 3103 1784 3103 
Q 1356 3103 1142 2972 
Q 928 2841 928 2578 
Q 928 2378 1081 2264 
Q 1234 2150 1697 2047 
L 1894 2003 
Q 2506 1872 2764 1633 
Q 3022 1394 3022 966 
Q 3022 478 2636 193 
Q 2250 -91 1575 -91 
Q 1294 -91 989 -36 
Q 684 19 347 128 
L 347 722 
Q 666 556 975 473 
Q 1284 391 1588 391 
Q 1994 391 2212 530 
Q 2431 669 2431 922 
Q 2431 1156 2273 1281 
Q 2116 1406 1581 1522 
L 1381 1569 
Q 847 1681 609 1914 
Q 372 2147 372 2553 
Q 372 3047 722 3315 
Q 1072 3584 1716 3584 
Q 2034 3584 2315 3537 
Q 2597 3491 2834 3397 
z
" transform="scale(0.015625)"/>
      </defs>
      <use xlink:href="#DejaVuSans-41"/>
      <use xlink:href="#DejaVuSans-6e" x="68.408203"/>
      <use xlink:href="#DejaVuSans-69" x="131.787109"/>
      <use xlink:href="#DejaVuSans-6d" x="159.570312"/>
      <use xlink:href="#DejaVuSans-61" x="256.982422"/>
      <use xlink:href="#DejaVuSans-6c" x="318.261719"/>
      <use xlink:href="#DejaVuSans-20" x="346.044922"/>
      <use xlink:href="#DejaVuSans-55" x="377.832031"/>
      <use xlink:href="#DejaVuSans-6e" x="451.025391"/>
      <use xlink:href="#DejaVuSans-69" x="514.404297"/>
      <use xlink:href="#DejaVuSans-74" x="542.1875"/>
      <use xlink:href="#DejaVuSans-73" x="581.396484"/>
     </g>
    </g>
   </g>
   <g id="matplotlib.axis_2">
    <g id="ytick_1">
     <g id="text_12">
      <!-- 0.00000 -->
      <g style="fill: #262626" transform="translate(22.81375 303.405213)scale(0.1 -0.1)">
       <defs>
        <path id="DejaVuSans-2e" d="M 684 794 
L 1344 794 
L 1344 0 
L 684 0 
L 684 794 
z
" transform="scale(0.015625)"/>
       </defs>
       <use xlink:href="#DejaVuSans-30"/>
       <use xlink:href="#DejaVuSans-2e" x="63.623047"/>
       <use xlink:href="#DejaVuSans-30" x="95.410156"/>
       <use xlink:href="#DejaVuSans-30" x="159.033203"/>
       <use xlink:href="#DejaVuSans-30" x="222.65625"/>
       <use xlink:href="#DejaVuSans-30" x="286.279297"/>
       <use xlink:href="#DejaVuSans-30" x="349.902344"/>
      </g>
     </g>
    </g>
    <g id="ytick_2">
     <g id="text_13">
      <!-- 0.00005 -->
      <g style="fill: #262626" transform="translate(22.81375 268.374476)scale(0.1 -0.1)">
       <use xlink:href="#DejaVuSans-30"/>
       <use xlink:href="#DejaVuSans-2e" x="63.623047"/>
       <use xlink:href="#DejaVuSans-30" x="95.410156"/>
       <use xlink:href="#DejaVuSans-30" x="159.033203"/>
       <use xlink:href="#DejaVuSans-30" x="222.65625"/>
       <use xlink:href="#DejaVuSans-30" x="286.279297"/>
       <use xlink:href="#DejaVuSans-35" x="349.902344"/>
      </g>
     </g>
    </g>
    <g id="ytick_3">
     <g id="text_14">
      <!-- 0.00010 -->
      <g style="fill: #262626" transform="translate(22.81375 233.343738)scale(0.1 -0.1)">
       <use xlink:href="#DejaVuSans-30"/>
       <use xlink:href="#DejaVuSans-2e" x="63.623047"/>
       <use xlink:href="#DejaVuSans-30" x="95.410156"/>
       <use xlink:href="#DejaVuSans-30" x="159.033203"/>
       <use xlink:href="#DejaVuSans-30" x="222.65625"/>
       <use xlink:href="#DejaVuSans-31" x="286.279297"/>
       <use xlink:href="#DejaVuSans-30" x="349.902344"/>
      </g>
     </g>
    </g>
    <g id="ytick_4">
     <g id="text_15">
      <!-- 0.00015 -->
      <g style="fill: #262626" transform="translate(22.81375 198.313001)scale(0.1 -0.1)">
       <use xlink:href="#DejaVuSans-30"/>
       <use xlink:href="#DejaVuSans-2e" x="63.623047"/>
       <use xlink:href="#DejaVuSans-30" x="95.410156"/>
       <use xlink:href="#DejaVuSans-30" x="159.033203"/>
       <use xlink:href="#DejaVuSans-30" x="222.65625"/>
       <use xlink:href="#DejaVuSans-31" x="286.279297"/>
       <use xlink:href="#DejaVuSans-35" x="349.902344"/>
      </g>
     </g>
    </g>
    <g id="ytick_5">
     <g id="text_16">
      <!-- 0.00020 -->
      <g style="fill: #262626" transform="translate(22.81375 163.282264)scale(0.1 -0.1)">
       <use xlink:href="#DejaVuSans-30"/>
       <use xlink:href="#DejaVuSans-2e" x="63.623047"/>
       <use xlink:href="#DejaVuSans-30" x="95.410156"/>
       <use xlink:href="#DejaVuSans-30" x="159.033203"/>
       <use xlink:href="#DejaVuSans-30" x="222.65625"/>
       <use xlink:href="#DejaVuSans-32" x="286.279297"/>
       <use xlink:href="#DejaVuSans-30" x="349.902344"/>
      </g>
     </g>
    </g>
    <g id="ytick_6">
     <g id="text_17">
      <!-- 0.00025 -->
      <g style="fill: #262626" transform="translate(22.81375 128.251526)scale(0.1 -0.1)">
       <use xlink:href="#DejaVuSans-30"/>
       <use xlink:href="#DejaVuSans-2e" x="63.623047"/>
       <use xlink:href="#DejaVuSans-30" x="95.410156"/>
       <use xlink:href="#DejaVuSans-30" x="159.033203"/>
       <use xlink:href="#DejaVuSans-30" x="222.65625"/>
       <use xlink:href="#DejaVuSans-32" x="286.279297"/>
       <use xlink:href="#DejaVuSans-35" x="349.902344"/>
      </g>
     </g>
    </g>
    <g id="ytick_7">
     <g id="text_18">
      <!-- 0.00030 -->
      <g style="fill: #262626" transform="translate(22.81375 93.220789)scale(0.1 -0.1)">
       <use xlink:href="#DejaVuSans-30"/>
       <use xlink:href="#DejaVuSans-2e" x="63.623047"/>
       <use xlink:href="#DejaVuSans-30" x="95.410156"/>
       <use xlink:href="#DejaVuSans-30" x="159.033203"/>
       <use xlink:href="#DejaVuSans-30" x="222.65625"/>
       <use xlink:href="#DejaVuSans-33" x="286.279297"/>
       <use xlink:href="#DejaVuSans-30" x="349.902344"/>
      </g>
     </g>
    </g>
    <g id="ytick_8">
     <g id="text_19">
      <!-- 0.00035 -->
      <g style="fill: #262626" transform="translate(22.81375 58.190052)scale(0.1 -0.1)">
       <use xlink:href="#DejaVuSans-30"/>
       <use xlink:href="#DejaVuSans-2e" x="63.623047"/>
       <use xlink:href="#DejaVuSans-30" x="95.410156"/>
       <use xlink:href="#DejaVuSans-30" x="159.033203"/>
       <use xlink:href="#DejaVuSans-30" x="222.65625"/>
       <use xlink:href="#DejaVuSans-33" x="286.279297"/>
       <use xlink:href="#DejaVuSans-35" x="349.902344"/>
      </g>
     </g>
    </g>
    <g id="text_20">
     <!-- Density -->
     <g style="fill: #262626" transform="translate(16.318125 191.098125)rotate(-90)scale(0.12 -0.12)">
      <defs>
       <path id="DejaVuSans-44" d="M 1259 4147 
L 1259 519 
L 2022 519 
Q 2988 519 3436 956 
Q 3884 1394 3884 2338 
Q 3884 3275 3436 3711 
Q 2988 4147 2022 4147 
L 1259 4147 
z
M 628 4666 
L 1925 4666 
Q 3281 4666 3915 4102 
Q 4550 3538 4550 2338 
Q 4550 1131 3912 565 
Q 3275 0 1925 0 
L 628 0 
L 628 4666 
z
" transform="scale(0.015625)"/>
       <path id="DejaVuSans-65" d="M 3597 1894 
L 3597 1613 
L 953 1613 
Q 991 1019 1311 708 
Q 1631 397 2203 397 
Q 2534 397 2845 478 
Q 3156 559 3463 722 
L 3463 178 
Q 3153 47 2828 -22 
Q 2503 -91 2169 -91 
Q 1331 -91 842 396 
Q 353 884 353 1716 
Q 353 2575 817 3079 
Q 1281 3584 2069 3584 
Q 2775 3584 3186 3129 
Q 3597 2675 3597 1894 
z
M 3022 2063 
Q 3016 2534 2758 2815 
Q 2500 3097 2075 3097 
Q 1594 3097 1305 2825 
Q 1016 2553 972 2059 
L 3022 2063 
z
" transform="scale(0.015625)"/>
       <path id="DejaVuSans-79" d="M 2059 -325 
Q 1816 -950 1584 -1140 
Q 1353 -1331 966 -1331 
L 506 -1331 
L 506 -850 
L 844 -850 
Q 1081 -850 1212 -737 
Q 1344 -625 1503 -206 
L 1606 56 
L 191 3500 
L 800 3500 
L 1894 763 
L 2988 3500 
L 3597 3500 
L 2059 -325 
z
" transform="scale(0.015625)"/>
      </defs>
      <use xlink:href="#DejaVuSans-44"/>
      <use xlink:href="#DejaVuSans-65" x="77.001953"/>
      <use xlink:href="#DejaVuSans-6e" x="138.525391"/>
      <use xlink:href="#DejaVuSans-73" x="201.904297"/>
      <use xlink:href="#DejaVuSans-69" x="254.003906"/>
      <use xlink:href="#DejaVuSans-74" x="281.787109"/>
      <use xlink:href="#DejaVuSans-79" x="320.996094"/>
     </g>
    </g>
   </g>
   <g id="PolyCollection_1">
    <defs>
     <path id="m583941cec1" d="M 69.666875 -51.123693 
L 69.666875 -227.989841 
L 70.053686 -229.015523 
L 70.440497 -230.039532 
L 70.827308 -231.06177 
L 71.214119 -232.082141 
L 71.60093 -233.100546 
L 71.987741 -234.116887 
L 72.374552 -235.131066 
L 72.761363 -236.142985 
L 73.148174 -237.152545 
L 73.534985 -238.159645 
L 73.921796 -239.164188 
L 74.308607 -240.166074 
L 74.695418 -241.165202 
L 75.082229 -242.161473 
L 75.46904 -243.154787 
L 75.855851 -244.145044 
L 76.242662 -245.132142 
L 76.629473 -246.115983 
L 77.016284 -247.096465 
L 77.403095 -248.073487 
L 77.789906 -249.04695 
L 78.176717 -250.016751 
L 78.563528 -250.982791 
L 78.950339 -251.944969 
L 79.33715 -252.903184 
L 79.723961 -253.857334 
L 80.110772 -254.807321 
L 80.497583 -255.753042 
L 80.884394 -256.694397 
L 81.271205 -257.631287 
L 81.658016 -258.563609 
L 82.044827 -259.491265 
L 82.431638 -260.414154 
L 82.818449 -261.332177 
L 83.20526 -262.245233 
L 83.592071 -263.153223 
L 83.978882 -264.056048 
L 84.365693 -264.953608 
L 84.752504 -265.845805 
L 85.139315 -266.732541 
L 85.526126 -267.613716 
L 85.912936 -268.489234 
L 86.299747 -269.358996 
L 86.686558 -270.222905 
L 87.073369 -271.080865 
L 87.46018 -271.932778 
L 87.846991 -272.778549 
L 88.233802 -273.618082 
L 88.620613 -274.451281 
L 89.007424 -275.278053 
L 89.394235 -276.098301 
L 89.781046 -276.911933 
L 90.167857 -277.718856 
L 90.554668 -278.518976 
L 90.941479 -279.3122 
L 91.32829 -280.098438 
L 91.715101 -280.877599 
L 92.101912 -281.64959 
L 92.488723 -282.414323 
L 92.875534 -283.171709 
L 93.262345 -283.921658 
L 93.649156 -284.664083 
L 94.035967 -285.398895 
L 94.422778 -286.12601 
L 94.809589 -286.84534 
L 95.1964 -287.5568 
L 95.583211 -288.260306 
L 95.970022 -288.955775 
L 96.356833 -289.643123 
L 96.743644 -290.322268 
L 97.130455 -290.993129 
L 97.517266 -291.655625 
L 97.904077 -292.309678 
L 98.290888 -292.955207 
L 98.677699 -293.592136 
L 99.06451 -294.220387 
L 99.451321 -294.839884 
L 99.838132 -295.450552 
L 100.224943 -296.052317 
L 100.611754 -296.645106 
L 100.998565 -297.228845 
L 101.385376 -297.803465 
L 101.772187 -298.368894 
L 102.158998 -298.925064 
L 102.545809 -299.471906 
L 102.93262 -300.009353 
L 103.319431 -300.537338 
L 103.706242 -301.055797 
L 104.093053 -301.564666 
L 104.479864 -302.063881 
L 104.866675 -302.553381 
L 105.253486 -303.033105 
L 105.640297 -303.502994 
L 106.027108 -303.962989 
L 106.413919 -304.413033 
L 106.80073 -304.85307 
L 107.187541 -305.283045 
L 107.574352 -305.702904 
L 107.961163 -306.112595 
L 108.347974 -306.512066 
L 108.734785 -306.901268 
L 109.121596 -307.280151 
L 109.508407 -307.648668 
L 109.895218 -308.006773 
L 110.282029 -308.35442 
L 110.66884 -308.691566 
L 111.055651 -309.018169 
L 111.442462 -309.334186 
L 111.829273 -309.639578 
L 112.216084 -309.934307 
L 112.602895 -310.218336 
L 112.989706 -310.491627 
L 113.376517 -310.754147 
L 113.763328 -311.005863 
L 114.150139 -311.246742 
L 114.53695 -311.476754 
L 114.923761 -311.69587 
L 115.310572 -311.904062 
L 115.697383 -312.101303 
L 116.084194 -312.287568 
L 116.471005 -312.462834 
L 116.857816 -312.627078 
L 117.244627 -312.780279 
L 117.631438 -312.922418 
L 118.018248 -313.053477 
L 118.405059 -313.173439 
L 118.79187 -313.282289 
L 119.178681 -313.380012 
L 119.565492 -313.466597 
L 119.952303 -313.542032 
L 120.339114 -313.606307 
L 120.725925 -313.659415 
L 121.112736 -313.701349 
L 121.499547 -313.732103 
L 121.886358 -313.751673 
L 122.273169 -313.760057 
L 122.65998 -313.757254 
L 123.046791 -313.743263 
L 123.433602 -313.718088 
L 123.820413 -313.681731 
L 124.207224 -313.634197 
L 124.594035 -313.575491 
L 124.980846 -313.505622 
L 125.367657 -313.424598 
L 125.754468 -313.33243 
L 126.141279 -313.229129 
L 126.52809 -313.114709 
L 126.914901 -312.989184 
L 127.301712 -312.85257 
L 127.688523 -312.704885 
L 128.075334 -312.546147 
L 128.462145 -312.376376 
L 128.848956 -312.195595 
L 129.235767 -312.003827 
L 129.622578 -311.801095 
L 130.009389 -311.587425 
L 130.3962 -311.362845 
L 130.783011 -311.127383 
L 131.169822 -310.88107 
L 131.556633 -310.623935 
L 131.943444 -310.356013 
L 132.330255 -310.077336 
L 132.717066 -309.787941 
L 133.103877 -309.487863 
L 133.490688 -309.177141 
L 133.877499 -308.855814 
L 134.26431 -308.523922 
L 134.651121 -308.181508 
L 135.037932 -307.828615 
L 135.424743 -307.465286 
L 135.811554 -307.091568 
L 136.198365 -306.707508 
L 136.585176 -306.313154 
L 136.971987 -305.908555 
L 137.358798 -305.493762 
L 137.745609 -305.068826 
L 138.13242 -304.633802 
L 138.519231 -304.188743 
L 138.906042 -303.733705 
L 139.292853 -303.268745 
L 139.679664 -302.793919 
L 140.066475 -302.309288 
L 140.453286 -301.814912 
L 140.840097 -301.310851 
L 141.226908 -300.797168 
L 141.613719 -300.273927 
L 142.00053 -299.741192 
L 142.387341 -299.199029 
L 142.774152 -298.647504 
L 143.160963 -298.086685 
L 143.547774 -297.516641 
L 143.934585 -296.937442 
L 144.321396 -296.349159 
L 144.708207 -295.751863 
L 145.095018 -295.145627 
L 145.481829 -294.530525 
L 145.86864 -293.906631 
L 146.255451 -293.274022 
L 146.642262 -292.632773 
L 146.642262 -51.123693 
L 146.642262 -51.123693 
L 146.255451 -51.123693 
L 145.86864 -51.123693 
L 145.481829 -51.123693 
L 145.095018 -51.123693 
L 144.708207 -51.123693 
L 144.321396 -51.123693 
L 143.934585 -51.123693 
L 143.547774 -51.123693 
L 143.160963 -51.123693 
L 142.774152 -51.123693 
L 142.387341 -51.123693 
L 142.00053 -51.123693 
L 141.613719 -51.123693 
L 141.226908 -51.123693 
L 140.840097 -51.123693 
L 140.453286 -51.123693 
L 140.066475 -51.123693 
L 139.679664 -51.123693 
L 139.292853 -51.123693 
L 138.906042 -51.123693 
L 138.519231 -51.123693 
L 138.13242 -51.123693 
L 137.745609 -51.123693 
L 137.358798 -51.123693 
L 136.971987 -51.123693 
L 136.585176 -51.123693 
L 136.198365 -51.123693 
L 135.811554 -51.123693 
L 135.424743 -51.123693 
L 135.037932 -51.123693 
L 134.651121 -51.123693 
L 134.26431 -51.123693 
L 133.877499 -51.123693 
L 133.490688 -51.123693 
L 133.103877 -51.123693 
L 132.717066 -51.123693 
L 132.330255 -51.123693 
L 131.943444 -51.123693 
L 131.556633 -51.123693 
L 131.169822 -51.123693 
L 130.783011 -51.123693 
L 130.3962 -51.123693 
L 130.009389 -51.123693 
L 129.622578 -51.123693 
L 129.235767 -51.123693 
L 128.848956 -51.123693 
L 128.462145 -51.123693 
L 128.075334 -51.123693 
L 127.688523 -51.123693 
L 127.301712 -51.123693 
L 126.914901 -51.123693 
L 126.52809 -51.123693 
L 126.141279 -51.123693 
L 125.754468 -51.123693 
L 125.367657 -51.123693 
L 124.980846 -51.123693 
L 124.594035 -51.123693 
L 124.207224 -51.123693 
L 123.820413 -51.123693 
L 123.433602 -51.123693 
L 123.046791 -51.123693 
L 122.65998 -51.123693 
L 122.273169 -51.123693 
L 121.886358 -51.123693 
L 121.499547 -51.123693 
L 121.112736 -51.123693 
L 120.725925 -51.123693 
L 120.339114 -51.123693 
L 119.952303 -51.123693 
L 119.565492 -51.123693 
L 119.178681 -51.123693 
L 118.79187 -51.123693 
L 118.405059 -51.123693 
L 118.018248 -51.123693 
L 117.631438 -51.123693 
L 117.244627 -51.123693 
L 116.857816 -51.123693 
L 116.471005 -51.123693 
L 116.084194 -51.123693 
L 115.697383 -51.123693 
L 115.310572 -51.123693 
L 114.923761 -51.123693 
L 114.53695 -51.123693 
L 114.150139 -51.123693 
L 113.763328 -51.123693 
L 113.376517 -51.123693 
L 112.989706 -51.123693 
L 112.602895 -51.123693 
L 112.216084 -51.123693 
L 111.829273 -51.123693 
L 111.442462 -51.123693 
L 111.055651 -51.123693 
L 110.66884 -51.123693 
L 110.282029 -51.123693 
L 109.895218 -51.123693 
L 109.508407 -51.123693 
L 109.121596 -51.123693 
L 108.734785 -51.123693 
L 108.347974 -51.123693 
L 107.961163 -51.123693 
L 107.574352 -51.123693 
L 107.187541 -51.123693 
L 106.80073 -51.123693 
L 106.413919 -51.123693 
L 106.027108 -51.123693 
L 105.640297 -51.123693 
L 105.253486 -51.123693 
L 104.866675 -51.123693 
L 104.479864 -51.123693 
L 104.093053 -51.123693 
L 103.706242 -51.123693 
L 103.319431 -51.123693 
L 102.93262 -51.123693 
L 102.545809 -51.123693 
L 102.158998 -51.123693 
L 101.772187 -51.123693 
L 101.385376 -51.123693 
L 100.998565 -51.123693 
L 100.611754 -51.123693 
L 100.224943 -51.123693 
L 99.838132 -51.123693 
L 99.451321 -51.123693 
L 99.06451 -51.123693 
L 98.677699 -51.123693 
L 98.290888 -51.123693 
L 97.904077 -51.123693 
L 97.517266 -51.123693 
L 97.130455 -51.123693 
L 96.743644 -51.123693 
L 96.356833 -51.123693 
L 95.970022 -51.123693 
L 95.583211 -51.123693 
L 95.1964 -51.123693 
L 94.809589 -51.123693 
L 94.422778 -51.123693 
L 94.035967 -51.123693 
L 93.649156 -51.123693 
L 93.262345 -51.123693 
L 92.875534 -51.123693 
L 92.488723 -51.123693 
L 92.101912 -51.123693 
L 91.715101 -51.123693 
L 91.32829 -51.123693 
L 90.941479 -51.123693 
L 90.554668 -51.123693 
L 90.167857 -51.123693 
L 89.781046 -51.123693 
L 89.394235 -51.123693 
L 89.007424 -51.123693 
L 88.620613 -51.123693 
L 88.233802 -51.123693 
L 87.846991 -51.123693 
L 87.46018 -51.123693 
L 87.073369 -51.123693 
L 86.686558 -51.123693 
L 86.299747 -51.123693 
L 85.912936 -51.123693 
L 85.526126 -51.123693 
L 85.139315 -51.123693 
L 84.752504 -51.123693 
L 84.365693 -51.123693 
L 83.978882 -51.123693 
L 83.592071 -51.123693 
L 83.20526 -51.123693 
L 82.818449 -51.123693 
L 82.431638 -51.123693 
L 82.044827 -51.123693 
L 81.658016 -51.123693 
L 81.271205 -51.123693 
L 80.884394 -51.123693 
L 80.497583 -51.123693 
L 80.110772 -51.123693 
L 79.723961 -51.123693 
L 79.33715 -51.123693 
L 78.950339 -51.123693 
L 78.563528 -51.123693 
L 78.176717 -51.123693 
L 77.789906 -51.123693 
L 77.403095 -51.123693 
L 77.016284 -51.123693 
L 76.629473 -51.123693 
L 76.242662 -51.123693 
L 75.855851 -51.123693 
L 75.46904 -51.123693 
L 75.082229 -51.123693 
L 74.695418 -51.123693 
L 74.308607 -51.123693 
L 73.921796 -51.123693 
L 73.534985 -51.123693 
L 73.148174 -51.123693 
L 72.761363 -51.123693 
L 72.374552 -51.123693 
L 71.987741 -51.123693 
L 71.60093 -51.123693 
L 71.214119 -51.123693 
L 70.827308 -51.123693 
L 70.440497 -51.123693 
L 70.053686 -51.123693 
L 69.666875 -51.123693 
z
" style="stroke: #f5f0bb; stroke-opacity: 0.99"/>
    </defs>
    <g clip-path="url(#p6eaeeb6b18)">
     <use xlink:href="#m583941cec1" x="0" y="350.729687" style="fill: #f5f0bb; fill-opacity: 0.99; stroke: #f5f0bb; stroke-opacity: 0.99"/>
    </g>
   </g>
   <g id="PolyCollection_2">
    <defs>
     <path id="mee13ef0c02" d="M 146.642262 -51.123693 
L 146.642262 -292.632773 
L 147.324869 -291.480321 
L 148.007477 -290.301637 
L 148.690084 -289.097164 
L 149.372692 -287.86735 
L 150.0553 -286.61265 
L 150.737907 -285.333529 
L 151.420515 -284.030459 
L 152.103123 -282.703916 
L 152.78573 -281.354386 
L 153.468338 -279.982359 
L 154.150945 -278.588333 
L 154.833553 -277.17281 
L 155.516161 -275.736298 
L 156.198768 -274.27931 
L 156.881376 -272.802366 
L 157.563984 -271.305986 
L 158.246591 -269.790699 
L 158.929199 -268.257034 
L 159.611806 -266.705526 
L 160.294414 -265.136714 
L 160.977022 -263.551136 
L 161.659629 -261.949337 
L 162.342237 -260.331863 
L 163.024845 -258.69926 
L 163.707452 -257.052079 
L 164.39006 -255.39087 
L 165.072667 -253.716186 
L 165.755275 -252.028579 
L 166.437883 -250.328603 
L 167.12049 -248.616811 
L 167.803098 -246.893758 
L 168.485706 -245.159997 
L 169.168313 -243.41608 
L 169.850921 -241.66256 
L 170.533528 -239.899986 
L 171.216136 -238.128909 
L 171.898744 -236.349875 
L 172.581351 -234.56343 
L 173.263959 -232.770117 
L 173.946567 -230.970476 
L 174.629174 -229.165046 
L 175.311782 -227.354361 
L 175.99439 -225.538953 
L 176.676997 -223.719348 
L 177.359605 -221.896072 
L 178.042212 -220.069644 
L 178.72482 -218.24058 
L 179.407428 -216.40939 
L 180.090035 -214.576582 
L 180.772643 -212.742656 
L 181.455251 -210.90811 
L 182.137858 -209.073434 
L 182.820466 -207.239113 
L 183.503073 -205.405628 
L 184.185681 -203.573451 
L 184.868289 -201.743051 
L 185.550896 -199.914889 
L 186.233504 -198.089419 
L 186.916112 -196.267091 
L 187.598719 -194.448345 
L 188.281327 -192.633616 
L 188.963934 -190.823332 
L 189.646542 -189.017913 
L 190.32915 -187.217772 
L 191.011757 -185.423314 
L 191.694365 -183.634938 
L 192.376973 -181.853033 
L 193.05958 -180.077983 
L 193.742188 -178.310161 
L 194.424795 -176.549935 
L 195.107403 -174.797664 
L 195.790011 -173.053697 
L 196.472618 -171.318377 
L 197.155226 -169.592038 
L 197.837834 -167.875005 
L 198.520441 -166.167597 
L 199.203049 -164.470121 
L 199.885656 -162.782879 
L 200.568264 -161.106162 
L 201.250872 -159.440254 
L 201.933479 -157.785429 
L 202.616087 -156.141955 
L 203.298695 -154.510088 
L 203.981302 -152.890078 
L 204.66391 -151.282165 
L 205.346517 -149.686582 
L 206.029125 -148.103551 
L 206.711733 -146.533289 
L 207.39434 -144.976002 
L 208.076948 -143.431886 
L 208.759556 -141.901133 
L 209.442163 -140.383923 
L 210.124771 -138.880429 
L 210.807378 -137.390815 
L 211.489986 -135.915237 
L 212.172594 -134.453845 
L 212.855201 -133.006777 
L 213.537809 -131.574165 
L 214.220417 -130.156133 
L 214.903024 -128.752797 
L 215.585632 -127.364265 
L 216.268239 -125.990638 
L 216.950847 -124.632007 
L 217.633455 -123.288459 
L 218.316062 -121.960069 
L 218.99867 -120.64691 
L 219.681278 -119.349042 
L 220.363885 -118.066523 
L 221.046493 -116.7994 
L 221.7291 -115.547715 
L 222.411708 -114.311503 
L 223.094316 -113.090791 
L 223.776923 -111.885601 
L 224.459531 -110.695948 
L 225.142139 -109.52184 
L 225.824746 -108.363278 
L 226.507354 -107.22026 
L 227.189961 -106.092774 
L 227.872569 -104.980805 
L 228.555177 -103.88433 
L 229.237784 -102.803323 
L 229.920392 -101.737749 
L 230.603 -100.687571 
L 231.285607 -99.652745 
L 231.968215 -98.633223 
L 232.650822 -97.628949 
L 233.33343 -96.639866 
L 234.016038 -95.665909 
L 234.698645 -94.707012 
L 235.381253 -93.763101 
L 236.063861 -92.834099 
L 236.746468 -91.919926 
L 237.429076 -91.020496 
L 238.111683 -90.13572 
L 238.794291 -89.265506 
L 239.476899 -88.409756 
L 240.159506 -87.568371 
L 240.842114 -86.741248 
L 241.524722 -85.928279 
L 242.207329 -85.129355 
L 242.889937 -84.344362 
L 243.572544 -83.573186 
L 244.255152 -82.815707 
L 244.93776 -82.071805 
L 245.620367 -81.341356 
L 246.302975 -80.624233 
L 246.985583 -79.920308 
L 247.66819 -79.229452 
L 248.350798 -78.551532 
L 249.033405 -77.886412 
L 249.716013 -77.233958 
L 250.398621 -76.594031 
L 251.081228 -75.966492 
L 251.763836 -75.351201 
L 252.446444 -74.748014 
L 253.129051 -74.15679 
L 253.811659 -73.577382 
L 254.494266 -73.009647 
L 255.176874 -72.453436 
L 255.859482 -71.908604 
L 256.542089 -71.375003 
L 257.224697 -70.852483 
L 257.907305 -70.340895 
L 258.589912 -69.84009 
L 259.27252 -69.349919 
L 259.955127 -68.870231 
L 260.637735 -68.400875 
L 261.320343 -67.941701 
L 262.00295 -67.49256 
L 262.685558 -67.0533 
L 263.368166 -66.623771 
L 264.050773 -66.203824 
L 264.733381 -65.793308 
L 265.415988 -65.392074 
L 266.098596 -64.999974 
L 266.781204 -64.616859 
L 267.463811 -64.242581 
L 268.146419 -63.876994 
L 268.829027 -63.519949 
L 269.511634 -63.171302 
L 270.194242 -62.830908 
L 270.876849 -62.498622 
L 271.559457 -62.174302 
L 272.242065 -61.857804 
L 272.924672 -61.548989 
L 273.60728 -61.247714 
L 274.289888 -60.953842 
L 274.972495 -60.667234 
L 275.655103 -60.387754 
L 276.33771 -60.115265 
L 277.020318 -59.849633 
L 277.702926 -59.590726 
L 278.385533 -59.338411 
L 279.068141 -59.092557 
L 279.750749 -58.853036 
L 280.433356 -58.61972 
L 281.115964 -58.392483 
L 281.798571 -58.171199 
L 282.481179 -57.955745 
L 282.481179 -51.123693 
L 282.481179 -51.123693 
L 281.798571 -51.123693 
L 281.115964 -51.123693 
L 280.433356 -51.123693 
L 279.750749 -51.123693 
L 279.068141 -51.123693 
L 278.385533 -51.123693 
L 277.702926 -51.123693 
L 277.020318 -51.123693 
L 276.33771 -51.123693 
L 275.655103 -51.123693 
L 274.972495 -51.123693 
L 274.289888 -51.123693 
L 273.60728 -51.123693 
L 272.924672 -51.123693 
L 272.242065 -51.123693 
L 271.559457 -51.123693 
L 270.876849 -51.123693 
L 270.194242 -51.123693 
L 269.511634 -51.123693 
L 268.829027 -51.123693 
L 268.146419 -51.123693 
L 267.463811 -51.123693 
L 266.781204 -51.123693 
L 266.098596 -51.123693 
L 265.415988 -51.123693 
L 264.733381 -51.123693 
L 264.050773 -51.123693 
L 263.368166 -51.123693 
L 262.685558 -51.123693 
L 262.00295 -51.123693 
L 261.320343 -51.123693 
L 260.637735 -51.123693 
L 259.955127 -51.123693 
L 259.27252 -51.123693 
L 258.589912 -51.123693 
L 257.907305 -51.123693 
L 257.224697 -51.123693 
L 256.542089 -51.123693 
L 255.859482 -51.123693 
L 255.176874 -51.123693 
L 254.494266 -51.123693 
L 253.811659 -51.123693 
L 253.129051 -51.123693 
L 252.446444 -51.123693 
L 251.763836 -51.123693 
L 251.081228 -51.123693 
L 250.398621 -51.123693 
L 249.716013 -51.123693 
L 249.033405 -51.123693 
L 248.350798 -51.123693 
L 247.66819 -51.123693 
L 246.985583 -51.123693 
L 246.302975 -51.123693 
L 245.620367 -51.123693 
L 244.93776 -51.123693 
L 244.255152 -51.123693 
L 243.572544 -51.123693 
L 242.889937 -51.123693 
L 242.207329 -51.123693 
L 241.524722 -51.123693 
L 240.842114 -51.123693 
L 240.159506 -51.123693 
L 239.476899 -51.123693 
L 238.794291 -51.123693 
L 238.111683 -51.123693 
L 237.429076 -51.123693 
L 236.746468 -51.123693 
L 236.063861 -51.123693 
L 235.381253 -51.123693 
L 234.698645 -51.123693 
L 234.016038 -51.123693 
L 233.33343 -51.123693 
L 232.650822 -51.123693 
L 231.968215 -51.123693 
L 231.285607 -51.123693 
L 230.603 -51.123693 
L 229.920392 -51.123693 
L 229.237784 -51.123693 
L 228.555177 -51.123693 
L 227.872569 -51.123693 
L 227.189961 -51.123693 
L 226.507354 -51.123693 
L 225.824746 -51.123693 
L 225.142139 -51.123693 
L 224.459531 -51.123693 
L 223.776923 -51.123693 
L 223.094316 -51.123693 
L 222.411708 -51.123693 
L 221.7291 -51.123693 
L 221.046493 -51.123693 
L 220.363885 -51.123693 
L 219.681278 -51.123693 
L 218.99867 -51.123693 
L 218.316062 -51.123693 
L 217.633455 -51.123693 
L 216.950847 -51.123693 
L 216.268239 -51.123693 
L 215.585632 -51.123693 
L 214.903024 -51.123693 
L 214.220417 -51.123693 
L 213.537809 -51.123693 
L 212.855201 -51.123693 
L 212.172594 -51.123693 
L 211.489986 -51.123693 
L 210.807378 -51.123693 
L 210.124771 -51.123693 
L 209.442163 -51.123693 
L 208.759556 -51.123693 
L 208.076948 -51.123693 
L 207.39434 -51.123693 
L 206.711733 -51.123693 
L 206.029125 -51.123693 
L 205.346517 -51.123693 
L 204.66391 -51.123693 
L 203.981302 -51.123693 
L 203.298695 -51.123693 
L 202.616087 -51.123693 
L 201.933479 -51.123693 
L 201.250872 -51.123693 
L 200.568264 -51.123693 
L 199.885656 -51.123693 
L 199.203049 -51.123693 
L 198.520441 -51.123693 
L 197.837834 -51.123693 
L 197.155226 -51.123693 
L 196.472618 -51.123693 
L 195.790011 -51.123693 
L 195.107403 -51.123693 
L 194.424795 -51.123693 
L 193.742188 -51.123693 
L 193.05958 -51.123693 
L 192.376973 -51.123693 
L 191.694365 -51.123693 
L 191.011757 -51.123693 
L 190.32915 -51.123693 
L 189.646542 -51.123693 
L 188.963934 -51.123693 
L 188.281327 -51.123693 
L 187.598719 -51.123693 
L 186.916112 -51.123693 
L 186.233504 -51.123693 
L 185.550896 -51.123693 
L 184.868289 -51.123693 
L 184.185681 -51.123693 
L 183.503073 -51.123693 
L 182.820466 -51.123693 
L 182.137858 -51.123693 
L 181.455251 -51.123693 
L 180.772643 -51.123693 
L 180.090035 -51.123693 
L 179.407428 -51.123693 
L 178.72482 -51.123693 
L 178.042212 -51.123693 
L 177.359605 -51.123693 
L 176.676997 -51.123693 
L 175.99439 -51.123693 
L 175.311782 -51.123693 
L 174.629174 -51.123693 
L 173.946567 -51.123693 
L 173.263959 -51.123693 
L 172.581351 -51.123693 
L 171.898744 -51.123693 
L 171.216136 -51.123693 
L 170.533528 -51.123693 
L 169.850921 -51.123693 
L 169.168313 -51.123693 
L 168.485706 -51.123693 
L 167.803098 -51.123693 
L 167.12049 -51.123693 
L 166.437883 -51.123693 
L 165.755275 -51.123693 
L 165.072667 -51.123693 
L 164.39006 -51.123693 
L 163.707452 -51.123693 
L 163.024845 -51.123693 
L 162.342237 -51.123693 
L 161.659629 -51.123693 
L 160.977022 -51.123693 
L 160.294414 -51.123693 
L 159.611806 -51.123693 
L 158.929199 -51.123693 
L 158.246591 -51.123693 
L 157.563984 -51.123693 
L 156.881376 -51.123693 
L 156.198768 -51.123693 
L 155.516161 -51.123693 
L 154.833553 -51.123693 
L 154.150945 -51.123693 
L 153.468338 -51.123693 
L 152.78573 -51.123693 
L 152.103123 -51.123693 
L 151.420515 -51.123693 
L 150.737907 -51.123693 
L 150.0553 -51.123693 
L 149.372692 -51.123693 
L 148.690084 -51.123693 
L 148.007477 -51.123693 
L 147.324869 -51.123693 
L 146.642262 -51.123693 
z
" style="stroke: #c4dfaa; stroke-opacity: 0.99"/>
    </defs>
    <g clip-path="url(#p6eaeeb6b18)">
     <use xlink:href="#mee13ef0c02" x="0" y="350.729687" style="fill: #c4dfaa; fill-opacity: 0.99; stroke: #c4dfaa; stroke-opacity: 0.99"/>
    </g>
   </g>
   <g id="PolyCollection_3">
    <defs>
     <path id="md9b74faf90" d="M 282.481179 -51.123693 
L 282.481179 -57.955745 
L 283.618858 -57.609281 
L 284.756538 -57.278119 
L 285.894217 -56.961714 
L 287.031897 -56.659536 
L 288.169576 -56.371065 
L 289.307255 -56.095794 
L 290.444935 -55.833227 
L 291.582614 -55.582883 
L 292.720294 -55.34429 
L 293.857973 -55.116992 
L 294.995652 -54.900543 
L 296.133332 -54.69451 
L 297.271011 -54.498473 
L 298.40869 -54.312023 
L 299.54637 -54.134764 
L 300.684049 -53.966313 
L 301.821729 -53.806297 
L 302.959408 -53.654355 
L 304.097087 -53.51014 
L 305.234767 -53.373315 
L 306.372446 -53.243553 
L 307.510125 -53.12054 
L 308.647805 -53.003972 
L 309.785484 -52.893556 
L 310.923164 -52.789011 
L 312.060843 -52.690064 
L 313.198522 -52.596454 
L 314.336202 -52.507927 
L 315.473881 -52.424243 
L 316.61156 -52.345167 
L 317.74924 -52.270477 
L 318.886919 -52.199957 
L 320.024599 -52.133402 
L 321.162278 -52.070613 
L 322.299957 -52.011402 
L 323.437637 -51.955586 
L 324.575316 -51.902993 
L 325.712995 -51.853456 
L 326.850675 -51.806816 
L 327.988354 -51.762921 
L 329.126034 -51.721627 
L 330.263713 -51.682794 
L 331.401392 -51.64629 
L 332.539072 -51.61199 
L 333.676751 -51.579773 
L 334.81443 -51.549524 
L 335.95211 -51.521136 
L 337.089789 -51.494503 
L 338.227469 -51.469527 
L 339.365148 -51.446115 
L 340.502827 -51.424177 
L 341.640507 -51.403629 
L 342.778186 -51.384389 
L 343.915865 -51.366383 
L 345.053545 -51.349537 
L 346.191224 -51.333783 
L 347.328904 -51.319056 
L 348.466583 -51.305294 
L 349.604262 -51.292439 
L 350.741942 -51.280437 
L 351.879621 -51.269235 
L 353.0173 -51.258783 
L 354.15498 -51.249036 
L 355.292659 -51.239949 
L 356.430339 -51.231482 
L 357.568018 -51.223594 
L 358.705697 -51.216249 
L 359.843377 -51.209413 
L 360.981056 -51.203052 
L 362.118735 -51.197137 
L 363.256415 -51.191637 
L 364.394094 -51.186526 
L 365.531774 -51.181778 
L 366.669453 -51.177369 
L 367.807132 -51.173276 
L 368.944812 -51.169479 
L 370.082491 -51.165957 
L 371.22017 -51.162691 
L 372.35785 -51.159665 
L 373.495529 -51.156861 
L 374.633209 -51.154264 
L 375.770888 -51.15186 
L 376.908567 -51.149636 
L 378.046247 -51.147579 
L 379.183926 -51.145676 
L 380.321605 -51.143918 
L 381.459285 -51.142294 
L 382.596964 -51.140793 
L 383.734644 -51.139408 
L 384.872323 -51.13813 
L 386.010002 -51.136951 
L 387.147682 -51.135863 
L 388.285361 -51.134861 
L 389.42304 -51.133938 
L 390.56072 -51.133087 
L 391.698399 -51.132304 
L 392.836079 -51.131583 
L 393.973758 -51.13092 
L 395.111437 -51.13031 
L 396.249117 -51.12975 
L 397.386796 -51.129235 
L 398.524476 -51.128761 
L 399.662155 -51.128327 
L 400.799834 -51.127928 
L 401.937514 -51.127562 
L 403.075193 -51.127227 
L 404.212872 -51.126919 
L 405.350552 -51.126637 
L 406.488231 -51.126379 
L 407.625911 -51.126142 
L 408.76359 -51.125926 
L 409.901269 -51.125727 
L 411.038949 -51.125546 
L 412.176628 -51.12538 
L 413.314307 -51.125229 
L 414.451987 -51.125091 
L 415.589666 -51.124964 
L 416.727346 -51.124849 
L 417.865025 -51.124744 
L 419.002704 -51.124648 
L 420.140384 -51.12456 
L 421.278063 -51.12448 
L 422.415742 -51.124407 
L 423.553422 -51.124341 
L 424.691101 -51.124281 
L 425.828781 -51.124226 
L 426.96646 -51.124176 
L 428.104139 -51.124131 
L 429.241819 -51.124089 
L 430.379498 -51.124052 
L 431.517177 -51.124018 
L 432.654857 -51.123987 
L 433.792536 -51.123959 
L 434.930216 -51.123933 
L 436.067895 -51.12391 
L 437.205574 -51.123889 
L 438.343254 -51.12387 
L 439.480933 -51.123853 
L 440.618612 -51.123837 
L 441.756292 -51.123823 
L 442.893971 -51.12381 
L 444.031651 -51.123799 
L 445.16933 -51.123788 
L 446.307009 -51.123779 
L 447.444689 -51.12377 
L 448.582368 -51.123762 
L 449.720047 -51.123756 
L 450.857727 -51.123749 
L 451.995406 -51.123744 
L 453.133086 -51.123738 
L 454.270765 -51.123734 
L 455.408444 -51.12373 
L 456.546124 -51.123726 
L 457.683803 -51.123723 
L 458.821482 -51.12372 
L 459.959162 -51.123717 
L 461.096841 -51.123714 
L 462.234521 -51.123712 
L 463.3722 -51.12371 
L 464.509879 -51.123708 
L 465.647559 -51.123707 
L 466.785238 -51.123705 
L 467.922917 -51.123704 
L 469.060597 -51.123703 
L 470.198276 -51.123702 
L 471.335956 -51.123701 
L 472.473635 -51.1237 
L 473.611314 -51.123699 
L 474.748994 -51.123699 
L 475.886673 -51.123698 
L 477.024352 -51.123698 
L 478.162032 -51.123697 
L 479.299711 -51.123697 
L 480.437391 -51.123696 
L 481.57507 -51.123696 
L 482.712749 -51.123696 
L 483.850429 -51.123695 
L 484.988108 -51.123695 
L 486.125787 -51.123695 
L 487.263467 -51.123695 
L 488.401146 -51.123695 
L 489.538826 -51.123694 
L 490.676505 -51.123694 
L 491.814184 -51.123694 
L 492.951864 -51.123694 
L 494.089543 -51.123694 
L 495.227222 -51.123694 
L 496.364902 -51.123694 
L 497.502581 -51.123694 
L 498.640261 -51.123694 
L 499.77794 -51.123694 
L 500.915619 -51.123694 
L 502.053299 -51.123694 
L 503.190978 -51.123693 
L 504.328657 -51.123693 
L 505.466337 -51.123693 
L 506.604016 -51.123693 
L 507.741696 -51.123693 
L 508.879375 -51.123693 
L 508.879375 -51.123693 
L 508.879375 -51.123693 
L 507.741696 -51.123693 
L 506.604016 -51.123693 
L 505.466337 -51.123693 
L 504.328657 -51.123693 
L 503.190978 -51.123693 
L 502.053299 -51.123693 
L 500.915619 -51.123693 
L 499.77794 -51.123693 
L 498.640261 -51.123693 
L 497.502581 -51.123693 
L 496.364902 -51.123693 
L 495.227222 -51.123693 
L 494.089543 -51.123693 
L 492.951864 -51.123693 
L 491.814184 -51.123693 
L 490.676505 -51.123693 
L 489.538826 -51.123693 
L 488.401146 -51.123693 
L 487.263467 -51.123693 
L 486.125787 -51.123693 
L 484.988108 -51.123693 
L 483.850429 -51.123693 
L 482.712749 -51.123693 
L 481.57507 -51.123693 
L 480.437391 -51.123693 
L 479.299711 -51.123693 
L 478.162032 -51.123693 
L 477.024352 -51.123693 
L 475.886673 -51.123693 
L 474.748994 -51.123693 
L 473.611314 -51.123693 
L 472.473635 -51.123693 
L 471.335956 -51.123693 
L 470.198276 -51.123693 
L 469.060597 -51.123693 
L 467.922917 -51.123693 
L 466.785238 -51.123693 
L 465.647559 -51.123693 
L 464.509879 -51.123693 
L 463.3722 -51.123693 
L 462.234521 -51.123693 
L 461.096841 -51.123693 
L 459.959162 -51.123693 
L 458.821482 -51.123693 
L 457.683803 -51.123693 
L 456.546124 -51.123693 
L 455.408444 -51.123693 
L 454.270765 -51.123693 
L 453.133086 -51.123693 
L 451.995406 -51.123693 
L 450.857727 -51.123693 
L 449.720047 -51.123693 
L 448.582368 -51.123693 
L 447.444689 -51.123693 
L 446.307009 -51.123693 
L 445.16933 -51.123693 
L 444.031651 -51.123693 
L 442.893971 -51.123693 
L 441.756292 -51.123693 
L 440.618612 -51.123693 
L 439.480933 -51.123693 
L 438.343254 -51.123693 
L 437.205574 -51.123693 
L 436.067895 -51.123693 
L 434.930216 -51.123693 
L 433.792536 -51.123693 
L 432.654857 -51.123693 
L 431.517177 -51.123693 
L 430.379498 -51.123693 
L 429.241819 -51.123693 
L 428.104139 -51.123693 
L 426.96646 -51.123693 
L 425.828781 -51.123693 
L 424.691101 -51.123693 
L 423.553422 -51.123693 
L 422.415742 -51.123693 
L 421.278063 -51.123693 
L 420.140384 -51.123693 
L 419.002704 -51.123693 
L 417.865025 -51.123693 
L 416.727346 -51.123693 
L 415.589666 -51.123693 
L 414.451987 -51.123693 
L 413.314307 -51.123693 
L 412.176628 -51.123693 
L 411.038949 -51.123693 
L 409.901269 -51.123693 
L 408.76359 -51.123693 
L 407.625911 -51.123693 
L 406.488231 -51.123693 
L 405.350552 -51.123693 
L 404.212872 -51.123693 
L 403.075193 -51.123693 
L 401.937514 -51.123693 
L 400.799834 -51.123693 
L 399.662155 -51.123693 
L 398.524476 -51.123693 
L 397.386796 -51.123693 
L 396.249117 -51.123693 
L 395.111437 -51.123693 
L 393.973758 -51.123693 
L 392.836079 -51.123693 
L 391.698399 -51.123693 
L 390.56072 -51.123693 
L 389.42304 -51.123693 
L 388.285361 -51.123693 
L 387.147682 -51.123693 
L 386.010002 -51.123693 
L 384.872323 -51.123693 
L 383.734644 -51.123693 
L 382.596964 -51.123693 
L 381.459285 -51.123693 
L 380.321605 -51.123693 
L 379.183926 -51.123693 
L 378.046247 -51.123693 
L 376.908567 -51.123693 
L 375.770888 -51.123693 
L 374.633209 -51.123693 
L 373.495529 -51.123693 
L 372.35785 -51.123693 
L 371.22017 -51.123693 
L 370.082491 -51.123693 
L 368.944812 -51.123693 
L 367.807132 -51.123693 
L 366.669453 -51.123693 
L 365.531774 -51.123693 
L 364.394094 -51.123693 
L 363.256415 -51.123693 
L 362.118735 -51.123693 
L 360.981056 -51.123693 
L 359.843377 -51.123693 
L 358.705697 -51.123693 
L 357.568018 -51.123693 
L 356.430339 -51.123693 
L 355.292659 -51.123693 
L 354.15498 -51.123693 
L 353.0173 -51.123693 
L 351.879621 -51.123693 
L 350.741942 -51.123693 
L 349.604262 -51.123693 
L 348.466583 -51.123693 
L 347.328904 -51.123693 
L 346.191224 -51.123693 
L 345.053545 -51.123693 
L 343.915865 -51.123693 
L 342.778186 -51.123693 
L 341.640507 -51.123693 
L 340.502827 -51.123693 
L 339.365148 -51.123693 
L 338.227469 -51.123693 
L 337.089789 -51.123693 
L 335.95211 -51.123693 
L 334.81443 -51.123693 
L 333.676751 -51.123693 
L 332.539072 -51.123693 
L 331.401392 -51.123693 
L 330.263713 -51.123693 
L 329.126034 -51.123693 
L 327.988354 -51.123693 
L 326.850675 -51.123693 
L 325.712995 -51.123693 
L 324.575316 -51.123693 
L 323.437637 -51.123693 
L 322.299957 -51.123693 
L 321.162278 -51.123693 
L 320.024599 -51.123693 
L 318.886919 -51.123693 
L 317.74924 -51.123693 
L 316.61156 -51.123693 
L 315.473881 -51.123693 
L 314.336202 -51.123693 
L 313.198522 -51.123693 
L 312.060843 -51.123693 
L 310.923164 -51.123693 
L 309.785484 -51.123693 
L 308.647805 -51.123693 
L 307.510125 -51.123693 
L 306.372446 -51.123693 
L 305.234767 -51.123693 
L 304.097087 -51.123693 
L 302.959408 -51.123693 
L 301.821729 -51.123693 
L 300.684049 -51.123693 
L 299.54637 -51.123693 
L 298.40869 -51.123693 
L 297.271011 -51.123693 
L 296.133332 -51.123693 
L 294.995652 -51.123693 
L 293.857973 -51.123693 
L 292.720294 -51.123693 
L 291.582614 -51.123693 
L 290.444935 -51.123693 
L 289.307255 -51.123693 
L 288.169576 -51.123693 
L 287.031897 -51.123693 
L 285.894217 -51.123693 
L 284.756538 -51.123693 
L 283.618858 -51.123693 
L 282.481179 -51.123693 
z
" style="stroke: #90c8ac; stroke-opacity: 0.99"/>
    </defs>
    <g clip-path="url(#p6eaeeb6b18)">
     <use xlink:href="#md9b74faf90" x="0" y="350.729687" style="fill: #90c8ac; fill-opacity: 0.99; stroke: #90c8ac; stroke-opacity: 0.99"/>
    </g>
   </g>
   <g id="line2d_1">
    <path d="M 69.666875 122.739846 
L 76.288169 105.481628 
L 80.702365 94.477731 
L 85.116561 84.049155 
L 89.530757 74.343462 
L 93.944953 65.503 
L 96.152051 61.449438 
L 98.359149 57.661454 
L 100.566247 54.153854 
L 102.773345 50.940494 
L 104.980443 48.034194 
L 107.187541 45.446642 
L 109.394639 43.188328 
L 111.601737 41.268463 
L 113.808835 39.694923 
L 116.015933 38.474191 
L 118.223031 37.611318 
L 120.430129 37.109879 
L 122.637227 36.971959 
L 124.844325 37.198131 
L 127.051423 37.787455 
L 129.258521 38.737483 
L 131.465619 40.044278 
L 133.672717 41.702441 
L 135.879815 43.705144 
L 138.086913 46.044184 
L 140.294011 48.710032 
L 142.501109 51.691903 
L 144.708207 54.977825 
L 146.915305 58.55472 
L 149.122403 62.408492 
L 151.329501 66.524119 
L 155.743697 75.476803 
L 160.157893 85.277853 
L 164.572089 95.784105 
L 168.986285 106.847601 
L 175.607579 124.161454 
L 195.47146 176.863195 
L 199.885656 187.946808 
L 204.299852 198.591489 
L 208.714048 208.726924 
L 213.128244 218.297698 
L 217.54244 227.262963 
L 221.956636 235.595764 
L 226.370832 243.282067 
L 230.785028 250.319569 
L 235.199224 256.716338 
L 239.61342 262.489354 
L 244.027616 267.663002 
L 248.441812 272.267575 
L 252.856008 276.337834 
L 257.270204 279.911649 
L 261.6844 283.028767 
L 266.098596 285.729713 
L 270.512792 288.054846 
L 274.926988 290.043569 
L 279.341184 291.733691 
L 283.75538 293.160943 
L 288.169576 294.358622 
L 292.583772 295.357372 
L 296.997968 296.185055 
L 303.619262 297.159896 
L 310.240556 297.878638 
L 316.86185 298.401321 
L 325.690242 298.87527 
L 336.725732 299.226847 
L 352.175418 299.46324 
L 376.453496 299.579182 
L 451.494827 299.605942 
L 508.879375 299.605994 
L 508.879375 299.605994 
" clip-path="url(#p6eaeeb6b18)" style="fill: none; stroke: #000000; stroke-linecap: round"/>
   </g>
   <g id="patch_3">
    <path d="M 69.666875 312.737812 
L 69.666875 23.837812 
" style="fill: none; stroke: #262626; stroke-width: 0.8; stroke-linejoin: miter; stroke-linecap: square"/>
   </g>
   <g id="patch_4">
    <path d="M 508.879375 312.737812 
L 508.879375 23.837812 
" style="fill: none; stroke: #262626; stroke-width: 0.8; stroke-linejoin: miter; stroke-linecap: square"/>
   </g>
   <g id="patch_5">
    <path d="M 69.666875 312.737812 
L 508.879375 312.737812 
" style="fill: none; stroke: #262626; stroke-width: 0.8; stroke-linejoin: miter; stroke-linecap: square"/>
   </g>
   <g id="patch_6">
    <path d="M 69.666875 23.837812 
L 508.879375 23.837812 
" style="fill: none; stroke: #262626; stroke-width: 0.8; stroke-linejoin: miter; stroke-linecap: square"/>
   </g>
   <g id="text_21">
    <!-- 58.1% -->
    <g style="fill: #262626" transform="translate(80.476836 292.599847)scale(0.16 -0.16)">
     <defs>
      <path id="DejaVuSans-25" d="M 4653 2053 
Q 4381 2053 4226 1822 
Q 4072 1591 4072 1178 
Q 4072 772 4226 539 
Q 4381 306 4653 306 
Q 4919 306 5073 539 
Q 5228 772 5228 1178 
Q 5228 1588 5073 1820 
Q 4919 2053 4653 2053 
z
M 4653 2450 
Q 5147 2450 5437 2106 
Q 5728 1763 5728 1178 
Q 5728 594 5436 251 
Q 5144 -91 4653 -91 
Q 4153 -91 3862 251 
Q 3572 594 3572 1178 
Q 3572 1766 3864 2108 
Q 4156 2450 4653 2450 
z
M 1428 4353 
Q 1159 4353 1004 4120 
Q 850 3888 850 3481 
Q 850 3069 1003 2837 
Q 1156 2606 1428 2606 
Q 1700 2606 1854 2837 
Q 2009 3069 2009 3481 
Q 2009 3884 1853 4118 
Q 1697 4353 1428 4353 
z
M 4250 4750 
L 4750 4750 
L 1831 -91 
L 1331 -91 
L 4250 4750 
z
M 1428 4750 
Q 1922 4750 2215 4408 
Q 2509 4066 2509 3481 
Q 2509 2891 2217 2550 
Q 1925 2209 1428 2209 
Q 931 2209 642 2551 
Q 353 2894 353 3481 
Q 353 4063 643 4406 
Q 934 4750 1428 4750 
z
" transform="scale(0.015625)"/>
     </defs>
     <use xlink:href="#DejaVuSans-35"/>
     <use xlink:href="#DejaVuSans-38" x="63.623047"/>
     <use xlink:href="#DejaVuSans-2e" x="127.246094"/>
     <use xlink:href="#DejaVuSans-31" x="159.033203"/>
     <use xlink:href="#DejaVuSans-25" x="222.65625"/>
    </g>
   </g>
   <g id="text_22">
    <!-- 41.5% -->
    <g style="fill: #262626" transform="translate(193.675934 292.599847)scale(0.16 -0.16)">
     <use xlink:href="#DejaVuSans-34"/>
     <use xlink:href="#DejaVuSans-31" x="63.623047"/>
     <use xlink:href="#DejaVuSans-2e" x="127.246094"/>
     <use xlink:href="#DejaVuSans-35" x="159.033203"/>
     <use xlink:href="#DejaVuSans-25" x="222.65625"/>
    </g>
   </g>
   <g id="text_23">
    <!-- 0.4% -->
    <g style="fill: #262626" transform="translate(284.797249 292.599847)scale(0.16 -0.16)">
     <use xlink:href="#DejaVuSans-30"/>
     <use xlink:href="#DejaVuSans-2e" x="63.623047"/>
     <use xlink:href="#DejaVuSans-34" x="95.410156"/>
     <use xlink:href="#DejaVuSans-25" x="159.033203"/>
    </g>
   </g>
   <g id="text_24">
    <!-- Scenario 2 -->
    <g style="fill: #262626" transform="translate(252.163281 17.837812)scale(0.14 -0.14)">
     <defs>
      <path id="DejaVuSans-53" d="M 3425 4513 
L 3425 3897 
Q 3066 4069 2747 4153 
Q 2428 4238 2131 4238 
Q 1616 4238 1336 4038 
Q 1056 3838 1056 3469 
Q 1056 3159 1242 3001 
Q 1428 2844 1947 2747 
L 2328 2669 
Q 3034 2534 3370 2195 
Q 3706 1856 3706 1288 
Q 3706 609 3251 259 
Q 2797 -91 1919 -91 
Q 1588 -91 1214 -16 
Q 841 59 441 206 
L 441 856 
Q 825 641 1194 531 
Q 1563 422 1919 422 
Q 2459 422 2753 634 
Q 3047 847 3047 1241 
Q 3047 1584 2836 1778 
Q 2625 1972 2144 2069 
L 1759 2144 
Q 1053 2284 737 2584 
Q 422 2884 422 3419 
Q 422 4038 858 4394 
Q 1294 4750 2059 4750 
Q 2388 4750 2728 4690 
Q 3069 4631 3425 4513 
z
" transform="scale(0.015625)"/>
      <path id="DejaVuSans-63" d="M 3122 3366 
L 3122 2828 
Q 2878 2963 2633 3030 
Q 2388 3097 2138 3097 
Q 1578 3097 1268 2742 
Q 959 2388 959 1747 
Q 959 1106 1268 751 
Q 1578 397 2138 397 
Q 2388 397 2633 464 
Q 2878 531 3122 666 
L 3122 134 
Q 2881 22 2623 -34 
Q 2366 -91 2075 -91 
Q 1284 -91 818 406 
Q 353 903 353 1747 
Q 353 2603 823 3093 
Q 1294 3584 2113 3584 
Q 2378 3584 2631 3529 
Q 2884 3475 3122 3366 
z
" transform="scale(0.015625)"/>
      <path id="DejaVuSans-72" d="M 2631 2963 
Q 2534 3019 2420 3045 
Q 2306 3072 2169 3072 
Q 1681 3072 1420 2755 
Q 1159 2438 1159 1844 
L 1159 0 
L 581 0 
L 581 3500 
L 1159 3500 
L 1159 2956 
Q 1341 3275 1631 3429 
Q 1922 3584 2338 3584 
Q 2397 3584 2469 3576 
Q 2541 3569 2628 3553 
L 2631 2963 
z
" transform="scale(0.015625)"/>
      <path id="DejaVuSans-6f" d="M 1959 3097 
Q 1497 3097 1228 2736 
Q 959 2375 959 1747 
Q 959 1119 1226 758 
Q 1494 397 1959 397 
Q 2419 397 2687 759 
Q 2956 1122 2956 1747 
Q 2956 2369 2687 2733 
Q 2419 3097 1959 3097 
z
M 1959 3584 
Q 2709 3584 3137 3096 
Q 3566 2609 3566 1747 
Q 3566 888 3137 398 
Q 2709 -91 1959 -91 
Q 1206 -91 779 398 
Q 353 888 353 1747 
Q 353 2609 779 3096 
Q 1206 3584 1959 3584 
z
" transform="scale(0.015625)"/>
     </defs>
     <use xlink:href="#DejaVuSans-53"/>
     <use xlink:href="#DejaVuSans-63" x="63.476562"/>
     <use xlink:href="#DejaVuSans-65" x="118.457031"/>
     <use xlink:href="#DejaVuSans-6e" x="179.980469"/>
     <use xlink:href="#DejaVuSans-61" x="243.359375"/>
     <use xlink:href="#DejaVuSans-72" x="304.638672"/>
     <use xlink:href="#DejaVuSans-69" x="345.751953"/>
     <use xlink:href="#DejaVuSans-6f" x="373.535156"/>
     <use xlink:href="#DejaVuSans-20" x="434.716797"/>
     <use xlink:href="#DejaVuSans-32" x="466.503906"/>
    </g>
   </g>
   <g id="legend_1">
    <g id="patch_7">
     <path d="M 394.971562 91.307187 
L 501.879375 91.307187 
Q 503.879375 91.307187 503.879375 89.307187 
L 503.879375 30.837812 
Q 503.879375 28.837812 501.879375 28.837812 
L 394.971562 28.837812 
Q 392.971562 28.837812 392.971562 30.837812 
L 392.971562 89.307187 
Q 392.971562 91.307187 394.971562 91.307187 
z
" style="fill: #ffffff; opacity: 0.8; stroke: #cccccc; stroke-linejoin: miter"/>
    </g>
    <g id="line2d_2">
     <path d="M 396.971562 60.371719 
L 406.971562 60.371719 
L 416.971562 60.371719 
" style="fill: none; stroke: #000000; stroke-linecap: round"/>
    </g>
    <g id="text_25">
     <!-- Fit:  -->
     <g style="fill: #262626" transform="translate(424.971562 40.43625)scale(0.1 -0.1)">
      <defs>
       <path id="DejaVuSans-46" d="M 628 4666 
L 3309 4666 
L 3309 4134 
L 1259 4134 
L 1259 2759 
L 3109 2759 
L 3109 2228 
L 1259 2228 
L 1259 0 
L 628 0 
L 628 4666 
z
" transform="scale(0.015625)"/>
       <path id="DejaVuSans-3a" d="M 750 794 
L 1409 794 
L 1409 0 
L 750 0 
L 750 794 
z
M 750 3309 
L 1409 3309 
L 1409 2516 
L 750 2516 
L 750 3309 
z
" transform="scale(0.015625)"/>
      </defs>
      <use xlink:href="#DejaVuSans-46"/>
      <use xlink:href="#DejaVuSans-69" x="50.269531"/>
      <use xlink:href="#DejaVuSans-74" x="78.052734"/>
      <use xlink:href="#DejaVuSans-3a" x="117.261719"/>
      <use xlink:href="#DejaVuSans-20" x="150.953125"/>
     </g>
     <!-- a=300  -->
     <g style="fill: #262626" transform="translate(424.971562 51.634062)scale(0.1 -0.1)">
      <defs>
       <path id="DejaVuSans-3d" d="M 678 2906 
L 4684 2906 
L 4684 2381 
L 678 2381 
L 678 2906 
z
M 678 1631 
L 4684 1631 
L 4684 1100 
L 678 1100 
L 678 1631 
z
" transform="scale(0.015625)"/>
      </defs>
      <use xlink:href="#DejaVuSans-61"/>
      <use xlink:href="#DejaVuSans-3d" x="61.279297"/>
      <use xlink:href="#DejaVuSans-33" x="145.068359"/>
      <use xlink:href="#DejaVuSans-30" x="208.691406"/>
      <use xlink:href="#DejaVuSans-30" x="272.314453"/>
      <use xlink:href="#DejaVuSans-20" x="335.9375"/>
     </g>
     <!-- b=10000  -->
     <g style="fill: #262626" transform="translate(424.971562 62.831875)scale(0.1 -0.1)">
      <defs>
       <path id="DejaVuSans-62" d="M 3116 1747 
Q 3116 2381 2855 2742 
Q 2594 3103 2138 3103 
Q 1681 3103 1420 2742 
Q 1159 2381 1159 1747 
Q 1159 1113 1420 752 
Q 1681 391 2138 391 
Q 2594 391 2855 752 
Q 3116 1113 3116 1747 
z
M 1159 2969 
Q 1341 3281 1617 3432 
Q 1894 3584 2278 3584 
Q 2916 3584 3314 3078 
Q 3713 2572 3713 1747 
Q 3713 922 3314 415 
Q 2916 -91 2278 -91 
Q 1894 -91 1617 61 
Q 1341 213 1159 525 
L 1159 0 
L 581 0 
L 581 4863 
L 1159 4863 
L 1159 2969 
z
" transform="scale(0.015625)"/>
      </defs>
      <use xlink:href="#DejaVuSans-62"/>
      <use xlink:href="#DejaVuSans-3d" x="63.476562"/>
      <use xlink:href="#DejaVuSans-31" x="147.265625"/>
      <use xlink:href="#DejaVuSans-30" x="210.888672"/>
      <use xlink:href="#DejaVuSans-30" x="274.511719"/>
      <use xlink:href="#DejaVuSans-30" x="338.134766"/>
      <use xlink:href="#DejaVuSans-30" x="401.757812"/>
      <use xlink:href="#DejaVuSans-20" x="465.380859"/>
     </g>
     <!-- mean=1463.9  -->
     <g style="fill: #262626" transform="translate(424.971562 74.029687)scale(0.1 -0.1)">
      <use xlink:href="#DejaVuSans-6d"/>
      <use xlink:href="#DejaVuSans-65" x="97.412109"/>
      <use xlink:href="#DejaVuSans-61" x="158.935547"/>
      <use xlink:href="#DejaVuSans-6e" x="220.214844"/>
      <use xlink:href="#DejaVuSans-3d" x="283.59375"/>
      <use xlink:href="#DejaVuSans-31" x="367.382812"/>
      <use xlink:href="#DejaVuSans-34" x="431.005859"/>
      <use xlink:href="#DejaVuSans-36" x="494.628906"/>
      <use xlink:href="#DejaVuSans-33" x="558.251953"/>
      <use xlink:href="#DejaVuSans-2e" x="621.875"/>
      <use xlink:href="#DejaVuSans-39" x="653.662109"/>
      <use xlink:href="#DejaVuSans-20" x="717.285156"/>
     </g>
     <!-- std=1308.9 -->
     <g style="fill: #262626" transform="translate(424.971562 85.2275)scale(0.1 -0.1)">
      <defs>
       <path id="DejaVuSans-64" d="M 2906 2969 
L 2906 4863 
L 3481 4863 
L 3481 0 
L 2906 0 
L 2906 525 
Q 2725 213 2448 61 
Q 2172 -91 1784 -91 
Q 1150 -91 751 415 
Q 353 922 353 1747 
Q 353 2572 751 3078 
Q 1150 3584 1784 3584 
Q 2172 3584 2448 3432 
Q 2725 3281 2906 2969 
z
M 947 1747 
Q 947 1113 1208 752 
Q 1469 391 1925 391 
Q 2381 391 2643 752 
Q 2906 1113 2906 1747 
Q 2906 2381 2643 2742 
Q 2381 3103 1925 3103 
Q 1469 3103 1208 2742 
Q 947 2381 947 1747 
z
" transform="scale(0.015625)"/>
      </defs>
      <use xlink:href="#DejaVuSans-73"/>
      <use xlink:href="#DejaVuSans-74" x="52.099609"/>
      <use xlink:href="#DejaVuSans-64" x="91.308594"/>
      <use xlink:href="#DejaVuSans-3d" x="154.785156"/>
      <use xlink:href="#DejaVuSans-31" x="238.574219"/>
      <use xlink:href="#DejaVuSans-33" x="302.197266"/>
      <use xlink:href="#DejaVuSans-30" x="365.820312"/>
      <use xlink:href="#DejaVuSans-38" x="429.443359"/>
      <use xlink:href="#DejaVuSans-2e" x="493.066406"/>
      <use xlink:href="#DejaVuSans-39" x="524.853516"/>
     </g>
    </g>
   </g>
  </g>
 </g>
 <defs>
  <clipPath id="p6eaeeb6b18">
   <rect x="69.666875" y="23.837812" width="439.2125" height="288.9"/>
  </clipPath>
 </defs>
</svg>
