<?xml version="1.0" encoding="utf-8" standalone="no"?>
<!DOCTYPE svg PUBLIC "-//W3C//DTD SVG 1.1//EN"
  "http://www.w3.org/Graphics/SVG/1.1/DTD/svg11.dtd">
<svg xmlns:xlink="http://www.w3.org/1999/xlink" width="531.869055pt" height="350.729687pt" viewBox="0 0 531.869055 350.729687" xmlns="http://www.w3.org/2000/svg" version="1.1">
 <metadata>
  <rdf:RDF xmlns:dc="http://purl.org/dc/elements/1.1/" xmlns:cc="http://creativecommons.org/ns#" xmlns:rdf="http://www.w3.org/1999/02/22-rdf-syntax-ns#">
   <cc:Work>
    <dc:type rdf:resource="http://purl.org/dc/dcmitype/StillImage"/>
    <dc:date>2022-07-27T10:26:50.625487</dc:date>
    <dc:format>image/svg+xml</dc:format>
    <dc:creator>
     <cc:Agent>
      <dc:title>Matplotlib v3.5.1, https://matplotlib.org/</dc:title>
     </cc:Agent>
    </dc:creator>
   </cc:Work>
  </rdf:RDF>
 </metadata>
 <defs>
  <style type="text/css">*{stroke-linejoin: round; stroke-linecap: butt}</style>
 </defs>
 <g id="figure_1">
  <g id="patch_1">
   <path d="M 0 350.729687 
L 531.869055 350.729687 
L 531.869055 0 
L 0 0 
z
" style="fill: #ffffff"/>
  </g>
  <g id="axes_1">
   <g id="patch_2">
    <path d="M 69.666875 312.737812 
L 511.014579 312.737812 
L 511.014579 23.837812 
L 69.666875 23.837812 
z
" style="fill: #ffffff"/>
   </g>
   <g id="matplotlib.axis_1">
    <g id="xtick_1">
     <g id="text_1">
      <!-- 1000 -->
      <g style="fill: #262626" transform="translate(90.718485 325.83625)scale(0.1 -0.1)">
       <defs>
        <path id="DejaVuSans-31" d="M 794 531 
L 1825 531 
L 1825 4091 
L 703 3866 
L 703 4441 
L 1819 4666 
L 2450 4666 
L 2450 531 
L 3481 531 
L 3481 0 
L 794 0 
L 794 531 
z
" transform="scale(0.015625)"/>
        <path id="DejaVuSans-30" d="M 2034 4250 
Q 1547 4250 1301 3770 
Q 1056 3291 1056 2328 
Q 1056 1369 1301 889 
Q 1547 409 2034 409 
Q 2525 409 2770 889 
Q 3016 1369 3016 2328 
Q 3016 3291 2770 3770 
Q 2525 4250 2034 4250 
z
M 2034 4750 
Q 2819 4750 3233 4129 
Q 3647 3509 3647 2328 
Q 3647 1150 3233 529 
Q 2819 -91 2034 -91 
Q 1250 -91 836 529 
Q 422 1150 422 2328 
Q 422 3509 836 4129 
Q 1250 4750 2034 4750 
z
" transform="scale(0.015625)"/>
       </defs>
       <use xlink:href="#DejaVuSans-31"/>
       <use xlink:href="#DejaVuSans-30" x="63.623047"/>
       <use xlink:href="#DejaVuSans-30" x="127.246094"/>
       <use xlink:href="#DejaVuSans-30" x="190.869141"/>
      </g>
     </g>
    </g>
    <g id="xtick_2">
     <g id="text_2">
      <!-- 2000 -->
      <g style="fill: #262626" transform="translate(135.753965 325.83625)scale(0.1 -0.1)">
       <defs>
        <path id="DejaVuSans-32" d="M 1228 531 
L 3431 531 
L 3431 0 
L 469 0 
L 469 531 
Q 828 903 1448 1529 
Q 2069 2156 2228 2338 
Q 2531 2678 2651 2914 
Q 2772 3150 2772 3378 
Q 2772 3750 2511 3984 
Q 2250 4219 1831 4219 
Q 1534 4219 1204 4116 
Q 875 4013 500 3803 
L 500 4441 
Q 881 4594 1212 4672 
Q 1544 4750 1819 4750 
Q 2544 4750 2975 4387 
Q 3406 4025 3406 3419 
Q 3406 3131 3298 2873 
Q 3191 2616 2906 2266 
Q 2828 2175 2409 1742 
Q 1991 1309 1228 531 
z
" transform="scale(0.015625)"/>
       </defs>
       <use xlink:href="#DejaVuSans-32"/>
       <use xlink:href="#DejaVuSans-30" x="63.623047"/>
       <use xlink:href="#DejaVuSans-30" x="127.246094"/>
       <use xlink:href="#DejaVuSans-30" x="190.869141"/>
      </g>
     </g>
    </g>
    <g id="xtick_3">
     <g id="text_3">
      <!-- 3000 -->
      <g style="fill: #262626" transform="translate(180.789445 325.83625)scale(0.1 -0.1)">
       <defs>
        <path id="DejaVuSans-33" d="M 2597 2516 
Q 3050 2419 3304 2112 
Q 3559 1806 3559 1356 
Q 3559 666 3084 287 
Q 2609 -91 1734 -91 
Q 1441 -91 1130 -33 
Q 819 25 488 141 
L 488 750 
Q 750 597 1062 519 
Q 1375 441 1716 441 
Q 2309 441 2620 675 
Q 2931 909 2931 1356 
Q 2931 1769 2642 2001 
Q 2353 2234 1838 2234 
L 1294 2234 
L 1294 2753 
L 1863 2753 
Q 2328 2753 2575 2939 
Q 2822 3125 2822 3475 
Q 2822 3834 2567 4026 
Q 2313 4219 1838 4219 
Q 1578 4219 1281 4162 
Q 984 4106 628 3988 
L 628 4550 
Q 988 4650 1302 4700 
Q 1616 4750 1894 4750 
Q 2613 4750 3031 4423 
Q 3450 4097 3450 3541 
Q 3450 3153 3228 2886 
Q 3006 2619 2597 2516 
z
" transform="scale(0.015625)"/>
       </defs>
       <use xlink:href="#DejaVuSans-33"/>
       <use xlink:href="#DejaVuSans-30" x="63.623047"/>
       <use xlink:href="#DejaVuSans-30" x="127.246094"/>
       <use xlink:href="#DejaVuSans-30" x="190.869141"/>
      </g>
     </g>
    </g>
    <g id="xtick_4">
     <g id="text_4">
      <!-- 4000 -->
      <g style="fill: #262626" transform="translate(225.824925 325.83625)scale(0.1 -0.1)">
       <defs>
        <path id="DejaVuSans-34" d="M 2419 4116 
L 825 1625 
L 2419 1625 
L 2419 4116 
z
M 2253 4666 
L 3047 4666 
L 3047 1625 
L 3713 1625 
L 3713 1100 
L 3047 1100 
L 3047 0 
L 2419 0 
L 2419 1100 
L 313 1100 
L 313 1709 
L 2253 4666 
z
" transform="scale(0.015625)"/>
       </defs>
       <use xlink:href="#DejaVuSans-34"/>
       <use xlink:href="#DejaVuSans-30" x="63.623047"/>
       <use xlink:href="#DejaVuSans-30" x="127.246094"/>
       <use xlink:href="#DejaVuSans-30" x="190.869141"/>
      </g>
     </g>
    </g>
    <g id="xtick_5">
     <g id="text_5">
      <!-- 5000 -->
      <g style="fill: #262626" transform="translate(270.860405 325.83625)scale(0.1 -0.1)">
       <defs>
        <path id="DejaVuSans-35" d="M 691 4666 
L 3169 4666 
L 3169 4134 
L 1269 4134 
L 1269 2991 
Q 1406 3038 1543 3061 
Q 1681 3084 1819 3084 
Q 2600 3084 3056 2656 
Q 3513 2228 3513 1497 
Q 3513 744 3044 326 
Q 2575 -91 1722 -91 
Q 1428 -91 1123 -41 
Q 819 9 494 109 
L 494 744 
Q 775 591 1075 516 
Q 1375 441 1709 441 
Q 2250 441 2565 725 
Q 2881 1009 2881 1497 
Q 2881 1984 2565 2268 
Q 2250 2553 1709 2553 
Q 1456 2553 1204 2497 
Q 953 2441 691 2322 
L 691 4666 
z
" transform="scale(0.015625)"/>
       </defs>
       <use xlink:href="#DejaVuSans-35"/>
       <use xlink:href="#DejaVuSans-30" x="63.623047"/>
       <use xlink:href="#DejaVuSans-30" x="127.246094"/>
       <use xlink:href="#DejaVuSans-30" x="190.869141"/>
      </g>
     </g>
    </g>
    <g id="xtick_6">
     <g id="text_6">
      <!-- 6000 -->
      <g style="fill: #262626" transform="translate(315.895885 325.83625)scale(0.1 -0.1)">
       <defs>
        <path id="DejaVuSans-36" d="M 2113 2584 
Q 1688 2584 1439 2293 
Q 1191 2003 1191 1497 
Q 1191 994 1439 701 
Q 1688 409 2113 409 
Q 2538 409 2786 701 
Q 3034 994 3034 1497 
Q 3034 2003 2786 2293 
Q 2538 2584 2113 2584 
z
M 3366 4563 
L 3366 3988 
Q 3128 4100 2886 4159 
Q 2644 4219 2406 4219 
Q 1781 4219 1451 3797 
Q 1122 3375 1075 2522 
Q 1259 2794 1537 2939 
Q 1816 3084 2150 3084 
Q 2853 3084 3261 2657 
Q 3669 2231 3669 1497 
Q 3669 778 3244 343 
Q 2819 -91 2113 -91 
Q 1303 -91 875 529 
Q 447 1150 447 2328 
Q 447 3434 972 4092 
Q 1497 4750 2381 4750 
Q 2619 4750 2861 4703 
Q 3103 4656 3366 4563 
z
" transform="scale(0.015625)"/>
       </defs>
       <use xlink:href="#DejaVuSans-36"/>
       <use xlink:href="#DejaVuSans-30" x="63.623047"/>
       <use xlink:href="#DejaVuSans-30" x="127.246094"/>
       <use xlink:href="#DejaVuSans-30" x="190.869141"/>
      </g>
     </g>
    </g>
    <g id="xtick_7">
     <g id="text_7">
      <!-- 7000 -->
      <g style="fill: #262626" transform="translate(360.931365 325.83625)scale(0.1 -0.1)">
       <defs>
        <path id="DejaVuSans-37" d="M 525 4666 
L 3525 4666 
L 3525 4397 
L 1831 0 
L 1172 0 
L 2766 4134 
L 525 4134 
L 525 4666 
z
" transform="scale(0.015625)"/>
       </defs>
       <use xlink:href="#DejaVuSans-37"/>
       <use xlink:href="#DejaVuSans-30" x="63.623047"/>
       <use xlink:href="#DejaVuSans-30" x="127.246094"/>
       <use xlink:href="#DejaVuSans-30" x="190.869141"/>
      </g>
     </g>
    </g>
    <g id="xtick_8">
     <g id="text_8">
      <!-- 8000 -->
      <g style="fill: #262626" transform="translate(405.966845 325.83625)scale(0.1 -0.1)">
       <defs>
        <path id="DejaVuSans-38" d="M 2034 2216 
Q 1584 2216 1326 1975 
Q 1069 1734 1069 1313 
Q 1069 891 1326 650 
Q 1584 409 2034 409 
Q 2484 409 2743 651 
Q 3003 894 3003 1313 
Q 3003 1734 2745 1975 
Q 2488 2216 2034 2216 
z
M 1403 2484 
Q 997 2584 770 2862 
Q 544 3141 544 3541 
Q 544 4100 942 4425 
Q 1341 4750 2034 4750 
Q 2731 4750 3128 4425 
Q 3525 4100 3525 3541 
Q 3525 3141 3298 2862 
Q 3072 2584 2669 2484 
Q 3125 2378 3379 2068 
Q 3634 1759 3634 1313 
Q 3634 634 3220 271 
Q 2806 -91 2034 -91 
Q 1263 -91 848 271 
Q 434 634 434 1313 
Q 434 1759 690 2068 
Q 947 2378 1403 2484 
z
M 1172 3481 
Q 1172 3119 1398 2916 
Q 1625 2713 2034 2713 
Q 2441 2713 2670 2916 
Q 2900 3119 2900 3481 
Q 2900 3844 2670 4047 
Q 2441 4250 2034 4250 
Q 1625 4250 1398 4047 
Q 1172 3844 1172 3481 
z
" transform="scale(0.015625)"/>
       </defs>
       <use xlink:href="#DejaVuSans-38"/>
       <use xlink:href="#DejaVuSans-30" x="63.623047"/>
       <use xlink:href="#DejaVuSans-30" x="127.246094"/>
       <use xlink:href="#DejaVuSans-30" x="190.869141"/>
      </g>
     </g>
    </g>
    <g id="xtick_9">
     <g id="text_9">
      <!-- 9000 -->
      <g style="fill: #262626" transform="translate(451.002325 325.83625)scale(0.1 -0.1)">
       <defs>
        <path id="DejaVuSans-39" d="M 703 97 
L 703 672 
Q 941 559 1184 500 
Q 1428 441 1663 441 
Q 2288 441 2617 861 
Q 2947 1281 2994 2138 
Q 2813 1869 2534 1725 
Q 2256 1581 1919 1581 
Q 1219 1581 811 2004 
Q 403 2428 403 3163 
Q 403 3881 828 4315 
Q 1253 4750 1959 4750 
Q 2769 4750 3195 4129 
Q 3622 3509 3622 2328 
Q 3622 1225 3098 567 
Q 2575 -91 1691 -91 
Q 1453 -91 1209 -44 
Q 966 3 703 97 
z
M 1959 2075 
Q 2384 2075 2632 2365 
Q 2881 2656 2881 3163 
Q 2881 3666 2632 3958 
Q 2384 4250 1959 4250 
Q 1534 4250 1286 3958 
Q 1038 3666 1038 3163 
Q 1038 2656 1286 2365 
Q 1534 2075 1959 2075 
z
" transform="scale(0.015625)"/>
       </defs>
       <use xlink:href="#DejaVuSans-39"/>
       <use xlink:href="#DejaVuSans-30" x="63.623047"/>
       <use xlink:href="#DejaVuSans-30" x="127.246094"/>
       <use xlink:href="#DejaVuSans-30" x="190.869141"/>
      </g>
     </g>
    </g>
    <g id="xtick_10">
     <g id="text_10">
      <!-- 10000 -->
      <g style="fill: #262626" transform="translate(492.856555 325.83625)scale(0.1 -0.1)">
       <use xlink:href="#DejaVuSans-31"/>
       <use xlink:href="#DejaVuSans-30" x="63.623047"/>
       <use xlink:href="#DejaVuSans-30" x="127.246094"/>
       <use xlink:href="#DejaVuSans-30" x="190.869141"/>
       <use xlink:href="#DejaVuSans-30" x="254.492188"/>
      </g>
     </g>
    </g>
    <g id="text_11">
     <!-- Animal Units -->
     <g style="fill: #262626" transform="translate(252.33354 341.034062)scale(0.12 -0.12)">
      <defs>
       <path id="DejaVuSans-41" d="M 2188 4044 
L 1331 1722 
L 3047 1722 
L 2188 4044 
z
M 1831 4666 
L 2547 4666 
L 4325 0 
L 3669 0 
L 3244 1197 
L 1141 1197 
L 716 0 
L 50 0 
L 1831 4666 
z
" transform="scale(0.015625)"/>
       <path id="DejaVuSans-6e" d="M 3513 2113 
L 3513 0 
L 2938 0 
L 2938 2094 
Q 2938 2591 2744 2837 
Q 2550 3084 2163 3084 
Q 1697 3084 1428 2787 
Q 1159 2491 1159 1978 
L 1159 0 
L 581 0 
L 581 3500 
L 1159 3500 
L 1159 2956 
Q 1366 3272 1645 3428 
Q 1925 3584 2291 3584 
Q 2894 3584 3203 3211 
Q 3513 2838 3513 2113 
z
" transform="scale(0.015625)"/>
       <path id="DejaVuSans-69" d="M 603 3500 
L 1178 3500 
L 1178 0 
L 603 0 
L 603 3500 
z
M 603 4863 
L 1178 4863 
L 1178 4134 
L 603 4134 
L 603 4863 
z
" transform="scale(0.015625)"/>
       <path id="DejaVuSans-6d" d="M 3328 2828 
Q 3544 3216 3844 3400 
Q 4144 3584 4550 3584 
Q 5097 3584 5394 3201 
Q 5691 2819 5691 2113 
L 5691 0 
L 5113 0 
L 5113 2094 
Q 5113 2597 4934 2840 
Q 4756 3084 4391 3084 
Q 3944 3084 3684 2787 
Q 3425 2491 3425 1978 
L 3425 0 
L 2847 0 
L 2847 2094 
Q 2847 2600 2669 2842 
Q 2491 3084 2119 3084 
Q 1678 3084 1418 2786 
Q 1159 2488 1159 1978 
L 1159 0 
L 581 0 
L 581 3500 
L 1159 3500 
L 1159 2956 
Q 1356 3278 1631 3431 
Q 1906 3584 2284 3584 
Q 2666 3584 2933 3390 
Q 3200 3197 3328 2828 
z
" transform="scale(0.015625)"/>
       <path id="DejaVuSans-61" d="M 2194 1759 
Q 1497 1759 1228 1600 
Q 959 1441 959 1056 
Q 959 750 1161 570 
Q 1363 391 1709 391 
Q 2188 391 2477 730 
Q 2766 1069 2766 1631 
L 2766 1759 
L 2194 1759 
z
M 3341 1997 
L 3341 0 
L 2766 0 
L 2766 531 
Q 2569 213 2275 61 
Q 1981 -91 1556 -91 
Q 1019 -91 701 211 
Q 384 513 384 1019 
Q 384 1609 779 1909 
Q 1175 2209 1959 2209 
L 2766 2209 
L 2766 2266 
Q 2766 2663 2505 2880 
Q 2244 3097 1772 3097 
Q 1472 3097 1187 3025 
Q 903 2953 641 2809 
L 641 3341 
Q 956 3463 1253 3523 
Q 1550 3584 1831 3584 
Q 2591 3584 2966 3190 
Q 3341 2797 3341 1997 
z
" transform="scale(0.015625)"/>
       <path id="DejaVuSans-6c" d="M 603 4863 
L 1178 4863 
L 1178 0 
L 603 0 
L 603 4863 
z
" transform="scale(0.015625)"/>
       <path id="DejaVuSans-20" transform="scale(0.015625)"/>
       <path id="DejaVuSans-55" d="M 556 4666 
L 1191 4666 
L 1191 1831 
Q 1191 1081 1462 751 
Q 1734 422 2344 422 
Q 2950 422 3222 751 
Q 3494 1081 3494 1831 
L 3494 4666 
L 4128 4666 
L 4128 1753 
Q 4128 841 3676 375 
Q 3225 -91 2344 -91 
Q 1459 -91 1007 375 
Q 556 841 556 1753 
L 556 4666 
z
" transform="scale(0.015625)"/>
       <path id="DejaVuSans-74" d="M 1172 4494 
L 1172 3500 
L 2356 3500 
L 2356 3053 
L 1172 3053 
L 1172 1153 
Q 1172 725 1289 603 
Q 1406 481 1766 481 
L 2356 481 
L 2356 0 
L 1766 0 
Q 1100 0 847 248 
Q 594 497 594 1153 
L 594 3053 
L 172 3053 
L 172 3500 
L 594 3500 
L 594 4494 
L 1172 4494 
z
" transform="scale(0.015625)"/>
       <path id="DejaVuSans-73" d="M 2834 3397 
L 2834 2853 
Q 2591 2978 2328 3040 
Q 2066 3103 1784 3103 
Q 1356 3103 1142 2972 
Q 928 2841 928 2578 
Q 928 2378 1081 2264 
Q 1234 2150 1697 2047 
L 1894 2003 
Q 2506 1872 2764 1633 
Q 3022 1394 3022 966 
Q 3022 478 2636 193 
Q 2250 -91 1575 -91 
Q 1294 -91 989 -36 
Q 684 19 347 128 
L 347 722 
Q 666 556 975 473 
Q 1284 391 1588 391 
Q 1994 391 2212 530 
Q 2431 669 2431 922 
Q 2431 1156 2273 1281 
Q 2116 1406 1581 1522 
L 1381 1569 
Q 847 1681 609 1914 
Q 372 2147 372 2553 
Q 372 3047 722 3315 
Q 1072 3584 1716 3584 
Q 2034 3584 2315 3537 
Q 2597 3491 2834 3397 
z
" transform="scale(0.015625)"/>
      </defs>
      <use xlink:href="#DejaVuSans-41"/>
      <use xlink:href="#DejaVuSans-6e" x="68.408203"/>
      <use xlink:href="#DejaVuSans-69" x="131.787109"/>
      <use xlink:href="#DejaVuSans-6d" x="159.570312"/>
      <use xlink:href="#DejaVuSans-61" x="256.982422"/>
      <use xlink:href="#DejaVuSans-6c" x="318.261719"/>
      <use xlink:href="#DejaVuSans-20" x="346.044922"/>
      <use xlink:href="#DejaVuSans-55" x="377.832031"/>
      <use xlink:href="#DejaVuSans-6e" x="451.025391"/>
      <use xlink:href="#DejaVuSans-69" x="514.404297"/>
      <use xlink:href="#DejaVuSans-74" x="542.1875"/>
      <use xlink:href="#DejaVuSans-73" x="581.396484"/>
     </g>
    </g>
   </g>
   <g id="matplotlib.axis_2">
    <g id="ytick_1">
     <g id="text_12">
      <!-- 0.00000 -->
      <g style="fill: #262626" transform="translate(22.81375 303.405213)scale(0.1 -0.1)">
       <defs>
        <path id="DejaVuSans-2e" d="M 684 794 
L 1344 794 
L 1344 0 
L 684 0 
L 684 794 
z
" transform="scale(0.015625)"/>
       </defs>
       <use xlink:href="#DejaVuSans-30"/>
       <use xlink:href="#DejaVuSans-2e" x="63.623047"/>
       <use xlink:href="#DejaVuSans-30" x="95.410156"/>
       <use xlink:href="#DejaVuSans-30" x="159.033203"/>
       <use xlink:href="#DejaVuSans-30" x="222.65625"/>
       <use xlink:href="#DejaVuSans-30" x="286.279297"/>
       <use xlink:href="#DejaVuSans-30" x="349.902344"/>
      </g>
     </g>
    </g>
    <g id="ytick_2">
     <g id="text_13">
      <!-- 0.00005 -->
      <g style="fill: #262626" transform="translate(22.81375 270.575668)scale(0.1 -0.1)">
       <use xlink:href="#DejaVuSans-30"/>
       <use xlink:href="#DejaVuSans-2e" x="63.623047"/>
       <use xlink:href="#DejaVuSans-30" x="95.410156"/>
       <use xlink:href="#DejaVuSans-30" x="159.033203"/>
       <use xlink:href="#DejaVuSans-30" x="222.65625"/>
       <use xlink:href="#DejaVuSans-30" x="286.279297"/>
       <use xlink:href="#DejaVuSans-35" x="349.902344"/>
      </g>
     </g>
    </g>
    <g id="ytick_3">
     <g id="text_14">
      <!-- 0.00010 -->
      <g style="fill: #262626" transform="translate(22.81375 237.746122)scale(0.1 -0.1)">
       <use xlink:href="#DejaVuSans-30"/>
       <use xlink:href="#DejaVuSans-2e" x="63.623047"/>
       <use xlink:href="#DejaVuSans-30" x="95.410156"/>
       <use xlink:href="#DejaVuSans-30" x="159.033203"/>
       <use xlink:href="#DejaVuSans-30" x="222.65625"/>
       <use xlink:href="#DejaVuSans-31" x="286.279297"/>
       <use xlink:href="#DejaVuSans-30" x="349.902344"/>
      </g>
     </g>
    </g>
    <g id="ytick_4">
     <g id="text_15">
      <!-- 0.00015 -->
      <g style="fill: #262626" transform="translate(22.81375 204.916577)scale(0.1 -0.1)">
       <use xlink:href="#DejaVuSans-30"/>
       <use xlink:href="#DejaVuSans-2e" x="63.623047"/>
       <use xlink:href="#DejaVuSans-30" x="95.410156"/>
       <use xlink:href="#DejaVuSans-30" x="159.033203"/>
       <use xlink:href="#DejaVuSans-30" x="222.65625"/>
       <use xlink:href="#DejaVuSans-31" x="286.279297"/>
       <use xlink:href="#DejaVuSans-35" x="349.902344"/>
      </g>
     </g>
    </g>
    <g id="ytick_5">
     <g id="text_16">
      <!-- 0.00020 -->
      <g style="fill: #262626" transform="translate(22.81375 172.087031)scale(0.1 -0.1)">
       <use xlink:href="#DejaVuSans-30"/>
       <use xlink:href="#DejaVuSans-2e" x="63.623047"/>
       <use xlink:href="#DejaVuSans-30" x="95.410156"/>
       <use xlink:href="#DejaVuSans-30" x="159.033203"/>
       <use xlink:href="#DejaVuSans-30" x="222.65625"/>
       <use xlink:href="#DejaVuSans-32" x="286.279297"/>
       <use xlink:href="#DejaVuSans-30" x="349.902344"/>
      </g>
     </g>
    </g>
    <g id="ytick_6">
     <g id="text_17">
      <!-- 0.00025 -->
      <g style="fill: #262626" transform="translate(22.81375 139.257486)scale(0.1 -0.1)">
       <use xlink:href="#DejaVuSans-30"/>
       <use xlink:href="#DejaVuSans-2e" x="63.623047"/>
       <use xlink:href="#DejaVuSans-30" x="95.410156"/>
       <use xlink:href="#DejaVuSans-30" x="159.033203"/>
       <use xlink:href="#DejaVuSans-30" x="222.65625"/>
       <use xlink:href="#DejaVuSans-32" x="286.279297"/>
       <use xlink:href="#DejaVuSans-35" x="349.902344"/>
      </g>
     </g>
    </g>
    <g id="ytick_7">
     <g id="text_18">
      <!-- 0.00030 -->
      <g style="fill: #262626" transform="translate(22.81375 106.42794)scale(0.1 -0.1)">
       <use xlink:href="#DejaVuSans-30"/>
       <use xlink:href="#DejaVuSans-2e" x="63.623047"/>
       <use xlink:href="#DejaVuSans-30" x="95.410156"/>
       <use xlink:href="#DejaVuSans-30" x="159.033203"/>
       <use xlink:href="#DejaVuSans-30" x="222.65625"/>
       <use xlink:href="#DejaVuSans-33" x="286.279297"/>
       <use xlink:href="#DejaVuSans-30" x="349.902344"/>
      </g>
     </g>
    </g>
    <g id="ytick_8">
     <g id="text_19">
      <!-- 0.00035 -->
      <g style="fill: #262626" transform="translate(22.81375 73.598395)scale(0.1 -0.1)">
       <use xlink:href="#DejaVuSans-30"/>
       <use xlink:href="#DejaVuSans-2e" x="63.623047"/>
       <use xlink:href="#DejaVuSans-30" x="95.410156"/>
       <use xlink:href="#DejaVuSans-30" x="159.033203"/>
       <use xlink:href="#DejaVuSans-30" x="222.65625"/>
       <use xlink:href="#DejaVuSans-33" x="286.279297"/>
       <use xlink:href="#DejaVuSans-35" x="349.902344"/>
      </g>
     </g>
    </g>
    <g id="ytick_9">
     <g id="text_20">
      <!-- 0.00040 -->
      <g style="fill: #262626" transform="translate(22.81375 40.768849)scale(0.1 -0.1)">
       <use xlink:href="#DejaVuSans-30"/>
       <use xlink:href="#DejaVuSans-2e" x="63.623047"/>
       <use xlink:href="#DejaVuSans-30" x="95.410156"/>
       <use xlink:href="#DejaVuSans-30" x="159.033203"/>
       <use xlink:href="#DejaVuSans-30" x="222.65625"/>
       <use xlink:href="#DejaVuSans-34" x="286.279297"/>
       <use xlink:href="#DejaVuSans-30" x="349.902344"/>
      </g>
     </g>
    </g>
    <g id="text_21">
     <!-- Density -->
     <g style="fill: #262626" transform="translate(16.318125 191.098125)rotate(-90)scale(0.12 -0.12)">
      <defs>
       <path id="DejaVuSans-44" d="M 1259 4147 
L 1259 519 
L 2022 519 
Q 2988 519 3436 956 
Q 3884 1394 3884 2338 
Q 3884 3275 3436 3711 
Q 2988 4147 2022 4147 
L 1259 4147 
z
M 628 4666 
L 1925 4666 
Q 3281 4666 3915 4102 
Q 4550 3538 4550 2338 
Q 4550 1131 3912 565 
Q 3275 0 1925 0 
L 628 0 
L 628 4666 
z
" transform="scale(0.015625)"/>
       <path id="DejaVuSans-65" d="M 3597 1894 
L 3597 1613 
L 953 1613 
Q 991 1019 1311 708 
Q 1631 397 2203 397 
Q 2534 397 2845 478 
Q 3156 559 3463 722 
L 3463 178 
Q 3153 47 2828 -22 
Q 2503 -91 2169 -91 
Q 1331 -91 842 396 
Q 353 884 353 1716 
Q 353 2575 817 3079 
Q 1281 3584 2069 3584 
Q 2775 3584 3186 3129 
Q 3597 2675 3597 1894 
z
M 3022 2063 
Q 3016 2534 2758 2815 
Q 2500 3097 2075 3097 
Q 1594 3097 1305 2825 
Q 1016 2553 972 2059 
L 3022 2063 
z
" transform="scale(0.015625)"/>
       <path id="DejaVuSans-79" d="M 2059 -325 
Q 1816 -950 1584 -1140 
Q 1353 -1331 966 -1331 
L 506 -1331 
L 506 -850 
L 844 -850 
Q 1081 -850 1212 -737 
Q 1344 -625 1503 -206 
L 1606 56 
L 191 3500 
L 800 3500 
L 1894 763 
L 2988 3500 
L 3597 3500 
L 2059 -325 
z
" transform="scale(0.015625)"/>
      </defs>
      <use xlink:href="#DejaVuSans-44"/>
      <use xlink:href="#DejaVuSans-65" x="77.001953"/>
      <use xlink:href="#DejaVuSans-6e" x="138.525391"/>
      <use xlink:href="#DejaVuSans-73" x="201.904297"/>
      <use xlink:href="#DejaVuSans-69" x="254.003906"/>
      <use xlink:href="#DejaVuSans-74" x="281.787109"/>
      <use xlink:href="#DejaVuSans-79" x="320.996094"/>
     </g>
    </g>
   </g>
   <g id="PolyCollection_1">
    <defs>
     <path id="ma93308d584" d="M 71.918649 -51.123693 
L 71.918649 -216.876277 
L 72.303374 -217.837509 
L 72.688099 -218.797174 
L 73.072825 -219.755178 
L 73.45755 -220.711433 
L 73.842275 -221.665845 
L 74.227 -222.618324 
L 74.611725 -223.568776 
L 74.996451 -224.51711 
L 75.381176 -225.463233 
L 75.765901 -226.407052 
L 76.150626 -227.348473 
L 76.535351 -228.287404 
L 76.920077 -229.223751 
L 77.304802 -230.15742 
L 77.689527 -231.088318 
L 78.074252 -232.016351 
L 78.458978 -232.941425 
L 78.843703 -233.863445 
L 79.228428 -234.782317 
L 79.613153 -235.697947 
L 79.997878 -236.610241 
L 80.382604 -237.519104 
L 80.767329 -238.424442 
L 81.152054 -239.32616 
L 81.536779 -240.224165 
L 81.921504 -241.118361 
L 82.30623 -242.008653 
L 82.690955 -242.894949 
L 83.07568 -243.777154 
L 83.460405 -244.655173 
L 83.84513 -245.528912 
L 84.229856 -246.398278 
L 84.614581 -247.263176 
L 84.999306 -248.123514 
L 85.384031 -248.979197 
L 85.768756 -249.830132 
L 86.153482 -250.676227 
L 86.538207 -251.517389 
L 86.922932 -252.353524 
L 87.307657 -253.18454 
L 87.692382 -254.010346 
L 88.077108 -254.83085 
L 88.461833 -255.645959 
L 88.846558 -256.455584 
L 89.231283 -257.259633 
L 89.616008 -258.058015 
L 90.000734 -258.850641 
L 90.385459 -259.637421 
L 90.770184 -260.418266 
L 91.154909 -261.193086 
L 91.539635 -261.961794 
L 91.92436 -262.7243 
L 92.309085 -263.480519 
L 92.69381 -264.230362 
L 93.078535 -264.973744 
L 93.463261 -265.710578 
L 93.847986 -266.440779 
L 94.232711 -267.164262 
L 94.617436 -267.880942 
L 95.002161 -268.590737 
L 95.386887 -269.293562 
L 95.771612 -269.989336 
L 96.156337 -270.677976 
L 96.541062 -271.359401 
L 96.925787 -272.033531 
L 97.310513 -272.700286 
L 97.695238 -273.359587 
L 98.079963 -274.011355 
L 98.464688 -274.655512 
L 98.849413 -275.291983 
L 99.234139 -275.92069 
L 99.618864 -276.541557 
L 100.003589 -277.154512 
L 100.388314 -277.759479 
L 100.773039 -278.356385 
L 101.157765 -278.94516 
L 101.54249 -279.52573 
L 101.927215 -280.098026 
L 102.31194 -280.661979 
L 102.696665 -281.217519 
L 103.081391 -281.764579 
L 103.466116 -282.303091 
L 103.850841 -282.832991 
L 104.235566 -283.354214 
L 104.620292 -283.866694 
L 105.005017 -284.37037 
L 105.389742 -284.865179 
L 105.774467 -285.35106 
L 106.159192 -285.827953 
L 106.543918 -286.2958 
L 106.928643 -286.754542 
L 107.313368 -287.204122 
L 107.698093 -287.644485 
L 108.082818 -288.075576 
L 108.467544 -288.497341 
L 108.852269 -288.909728 
L 109.236994 -289.312685 
L 109.621719 -289.706161 
L 110.006444 -290.090109 
L 110.39117 -290.464479 
L 110.775895 -290.829225 
L 111.16062 -291.1843 
L 111.545345 -291.529661 
L 111.93007 -291.865264 
L 112.314796 -292.191067 
L 112.699521 -292.507028 
L 113.084246 -292.813108 
L 113.468971 -293.109268 
L 113.853696 -293.395471 
L 114.238422 -293.67168 
L 114.623147 -293.937861 
L 115.007872 -294.19398 
L 115.392597 -294.440005 
L 115.777322 -294.675903 
L 116.162048 -294.901647 
L 116.546773 -295.117206 
L 116.931498 -295.322553 
L 117.316223 -295.517663 
L 117.700949 -295.70251 
L 118.085674 -295.877071 
L 118.470399 -296.041324 
L 118.855124 -296.195247 
L 119.239849 -296.338822 
L 119.624575 -296.47203 
L 120.0093 -296.594854 
L 120.394025 -296.707278 
L 120.77875 -296.809288 
L 121.163475 -296.900871 
L 121.548201 -296.982015 
L 121.932926 -297.052709 
L 122.317651 -297.112946 
L 122.702376 -297.162717 
L 123.087101 -297.202016 
L 123.471827 -297.230837 
L 123.856552 -297.249177 
L 124.241277 -297.257035 
L 124.626002 -297.254408 
L 125.010727 -297.241296 
L 125.395453 -297.217703 
L 125.780178 -297.183631 
L 126.164903 -297.139083 
L 126.549628 -297.084067 
L 126.934353 -297.018588 
L 127.319079 -296.942655 
L 127.703804 -296.856278 
L 128.088529 -296.759469 
L 128.473254 -296.652238 
L 128.85798 -296.5346 
L 129.242705 -296.406571 
L 129.62743 -296.268165 
L 130.012155 -296.119402 
L 130.39688 -295.960299 
L 130.781606 -295.790878 
L 131.166331 -295.611159 
L 131.551056 -295.421166 
L 131.935781 -295.220922 
L 132.320506 -295.010454 
L 132.705232 -294.789788 
L 133.089957 -294.558951 
L 133.474682 -294.317974 
L 133.859407 -294.066887 
L 134.244132 -293.805721 
L 134.628858 -293.53451 
L 135.013583 -293.253288 
L 135.398308 -292.962091 
L 135.783033 -292.660955 
L 136.167758 -292.349918 
L 136.552484 -292.02902 
L 136.937209 -291.698301 
L 137.321934 -291.357802 
L 137.706659 -291.007567 
L 138.091384 -290.64764 
L 138.47611 -290.278065 
L 138.860835 -289.89889 
L 139.24556 -289.51016 
L 139.630285 -289.111927 
L 140.01501 -288.704237 
L 140.399736 -288.287144 
L 140.784461 -287.860699 
L 141.169186 -287.424955 
L 141.553911 -286.979966 
L 141.938637 -286.525787 
L 142.323362 -286.062475 
L 142.708087 -285.590087 
L 143.092812 -285.108682 
L 143.477537 -284.61832 
L 143.862263 -284.11906 
L 144.246988 -283.610964 
L 144.631713 -283.094094 
L 145.016438 -282.568515 
L 145.401163 -282.034291 
L 145.785889 -281.491486 
L 146.170614 -280.940168 
L 146.555339 -280.380404 
L 146.940064 -279.812261 
L 147.324789 -279.23581 
L 147.709515 -278.651119 
L 148.09424 -278.05826 
L 148.478965 -277.457305 
L 148.478965 -51.123693 
L 148.478965 -51.123693 
L 148.09424 -51.123693 
L 147.709515 -51.123693 
L 147.324789 -51.123693 
L 146.940064 -51.123693 
L 146.555339 -51.123693 
L 146.170614 -51.123693 
L 145.785889 -51.123693 
L 145.401163 -51.123693 
L 145.016438 -51.123693 
L 144.631713 -51.123693 
L 144.246988 -51.123693 
L 143.862263 -51.123693 
L 143.477537 -51.123693 
L 143.092812 -51.123693 
L 142.708087 -51.123693 
L 142.323362 -51.123693 
L 141.938637 -51.123693 
L 141.553911 -51.123693 
L 141.169186 -51.123693 
L 140.784461 -51.123693 
L 140.399736 -51.123693 
L 140.01501 -51.123693 
L 139.630285 -51.123693 
L 139.24556 -51.123693 
L 138.860835 -51.123693 
L 138.47611 -51.123693 
L 138.091384 -51.123693 
L 137.706659 -51.123693 
L 137.321934 -51.123693 
L 136.937209 -51.123693 
L 136.552484 -51.123693 
L 136.167758 -51.123693 
L 135.783033 -51.123693 
L 135.398308 -51.123693 
L 135.013583 -51.123693 
L 134.628858 -51.123693 
L 134.244132 -51.123693 
L 133.859407 -51.123693 
L 133.474682 -51.123693 
L 133.089957 -51.123693 
L 132.705232 -51.123693 
L 132.320506 -51.123693 
L 131.935781 -51.123693 
L 131.551056 -51.123693 
L 131.166331 -51.123693 
L 130.781606 -51.123693 
L 130.39688 -51.123693 
L 130.012155 -51.123693 
L 129.62743 -51.123693 
L 129.242705 -51.123693 
L 128.85798 -51.123693 
L 128.473254 -51.123693 
L 128.088529 -51.123693 
L 127.703804 -51.123693 
L 127.319079 -51.123693 
L 126.934353 -51.123693 
L 126.549628 -51.123693 
L 126.164903 -51.123693 
L 125.780178 -51.123693 
L 125.395453 -51.123693 
L 125.010727 -51.123693 
L 124.626002 -51.123693 
L 124.241277 -51.123693 
L 123.856552 -51.123693 
L 123.471827 -51.123693 
L 123.087101 -51.123693 
L 122.702376 -51.123693 
L 122.317651 -51.123693 
L 121.932926 -51.123693 
L 121.548201 -51.123693 
L 121.163475 -51.123693 
L 120.77875 -51.123693 
L 120.394025 -51.123693 
L 120.0093 -51.123693 
L 119.624575 -51.123693 
L 119.239849 -51.123693 
L 118.855124 -51.123693 
L 118.470399 -51.123693 
L 118.085674 -51.123693 
L 117.700949 -51.123693 
L 117.316223 -51.123693 
L 116.931498 -51.123693 
L 116.546773 -51.123693 
L 116.162048 -51.123693 
L 115.777322 -51.123693 
L 115.392597 -51.123693 
L 115.007872 -51.123693 
L 114.623147 -51.123693 
L 114.238422 -51.123693 
L 113.853696 -51.123693 
L 113.468971 -51.123693 
L 113.084246 -51.123693 
L 112.699521 -51.123693 
L 112.314796 -51.123693 
L 111.93007 -51.123693 
L 111.545345 -51.123693 
L 111.16062 -51.123693 
L 110.775895 -51.123693 
L 110.39117 -51.123693 
L 110.006444 -51.123693 
L 109.621719 -51.123693 
L 109.236994 -51.123693 
L 108.852269 -51.123693 
L 108.467544 -51.123693 
L 108.082818 -51.123693 
L 107.698093 -51.123693 
L 107.313368 -51.123693 
L 106.928643 -51.123693 
L 106.543918 -51.123693 
L 106.159192 -51.123693 
L 105.774467 -51.123693 
L 105.389742 -51.123693 
L 105.005017 -51.123693 
L 104.620292 -51.123693 
L 104.235566 -51.123693 
L 103.850841 -51.123693 
L 103.466116 -51.123693 
L 103.081391 -51.123693 
L 102.696665 -51.123693 
L 102.31194 -51.123693 
L 101.927215 -51.123693 
L 101.54249 -51.123693 
L 101.157765 -51.123693 
L 100.773039 -51.123693 
L 100.388314 -51.123693 
L 100.003589 -51.123693 
L 99.618864 -51.123693 
L 99.234139 -51.123693 
L 98.849413 -51.123693 
L 98.464688 -51.123693 
L 98.079963 -51.123693 
L 97.695238 -51.123693 
L 97.310513 -51.123693 
L 96.925787 -51.123693 
L 96.541062 -51.123693 
L 96.156337 -51.123693 
L 95.771612 -51.123693 
L 95.386887 -51.123693 
L 95.002161 -51.123693 
L 94.617436 -51.123693 
L 94.232711 -51.123693 
L 93.847986 -51.123693 
L 93.463261 -51.123693 
L 93.078535 -51.123693 
L 92.69381 -51.123693 
L 92.309085 -51.123693 
L 91.92436 -51.123693 
L 91.539635 -51.123693 
L 91.154909 -51.123693 
L 90.770184 -51.123693 
L 90.385459 -51.123693 
L 90.000734 -51.123693 
L 89.616008 -51.123693 
L 89.231283 -51.123693 
L 88.846558 -51.123693 
L 88.461833 -51.123693 
L 88.077108 -51.123693 
L 87.692382 -51.123693 
L 87.307657 -51.123693 
L 86.922932 -51.123693 
L 86.538207 -51.123693 
L 86.153482 -51.123693 
L 85.768756 -51.123693 
L 85.384031 -51.123693 
L 84.999306 -51.123693 
L 84.614581 -51.123693 
L 84.229856 -51.123693 
L 83.84513 -51.123693 
L 83.460405 -51.123693 
L 83.07568 -51.123693 
L 82.690955 -51.123693 
L 82.30623 -51.123693 
L 81.921504 -51.123693 
L 81.536779 -51.123693 
L 81.152054 -51.123693 
L 80.767329 -51.123693 
L 80.382604 -51.123693 
L 79.997878 -51.123693 
L 79.613153 -51.123693 
L 79.228428 -51.123693 
L 78.843703 -51.123693 
L 78.458978 -51.123693 
L 78.074252 -51.123693 
L 77.689527 -51.123693 
L 77.304802 -51.123693 
L 76.920077 -51.123693 
L 76.535351 -51.123693 
L 76.150626 -51.123693 
L 75.765901 -51.123693 
L 75.381176 -51.123693 
L 74.996451 -51.123693 
L 74.611725 -51.123693 
L 74.227 -51.123693 
L 73.842275 -51.123693 
L 73.45755 -51.123693 
L 73.072825 -51.123693 
L 72.688099 -51.123693 
L 72.303374 -51.123693 
L 71.918649 -51.123693 
z
" style="stroke: #f5f0bb; stroke-opacity: 0.99"/>
    </defs>
    <g clip-path="url(#p7b4e052219)">
     <use xlink:href="#ma93308d584" x="0" y="350.729687" style="fill: #f5f0bb; fill-opacity: 0.99; stroke: #f5f0bb; stroke-opacity: 0.99"/>
    </g>
   </g>
   <g id="PolyCollection_2">
    <defs>
     <path id="m0b84d1cb7b" d="M 148.478965 -51.123693 
L 148.478965 -277.457305 
L 149.157892 -276.377268 
L 149.836819 -275.272649 
L 150.515746 -274.14386 
L 151.194672 -272.991322 
L 151.873599 -271.815463 
L 152.552526 -270.616717 
L 153.231453 -269.395526 
L 153.91038 -268.152338 
L 154.589307 -266.887607 
L 155.268233 -265.601793 
L 155.94716 -264.295362 
L 156.626087 -262.968784 
L 157.305014 -261.622537 
L 157.983941 -260.257101 
L 158.662868 -258.872962 
L 159.341794 -257.470609 
L 160.020721 -256.050536 
L 160.699648 -254.61324 
L 161.378575 -253.159223 
L 162.057502 -251.688988 
L 162.736429 -250.203042 
L 163.415355 -248.701894 
L 164.094282 -247.186055 
L 164.773209 -245.656039 
L 165.452136 -244.11236 
L 166.131063 -242.555535 
L 166.80999 -240.986081 
L 167.488916 -239.404517 
L 168.167843 -237.81136 
L 168.84677 -236.207131 
L 169.525697 -234.592348 
L 170.204624 -232.967529 
L 170.883551 -231.333193 
L 171.562477 -229.689857 
L 172.241404 -228.038036 
L 172.920331 -226.378246 
L 173.599258 -224.711 
L 174.278185 -223.036808 
L 174.957112 -221.356179 
L 175.636038 -219.669621 
L 176.314965 -217.977637 
L 176.993892 -216.280728 
L 177.672819 -214.579393 
L 178.351746 -212.874125 
L 179.030673 -211.165416 
L 179.709599 -209.453754 
L 180.388526 -207.739621 
L 181.067453 -206.023496 
L 181.74638 -204.305854 
L 182.425307 -202.587165 
L 183.104234 -200.867894 
L 183.78316 -199.148502 
L 184.462087 -197.429443 
L 185.141014 -195.711166 
L 185.819941 -193.994116 
L 186.498868 -192.278731 
L 187.177795 -190.565443 
L 187.856721 -188.854679 
L 188.535648 -187.146858 
L 189.214575 -185.442395 
L 189.893502 -183.741697 
L 190.572429 -182.045164 
L 191.251356 -180.35319 
L 191.930282 -178.666162 
L 192.609209 -176.984461 
L 193.288136 -175.308459 
L 193.967063 -173.638522 
L 194.64599 -171.975009 
L 195.324917 -170.318271 
L 196.003843 -168.66865 
L 196.68277 -167.026484 
L 197.361697 -165.392101 
L 198.040624 -163.765822 
L 198.719551 -162.147959 
L 199.398478 -160.538818 
L 200.077404 -158.938696 
L 200.756331 -157.347883 
L 201.435258 -155.766661 
L 202.114185 -154.195302 
L 202.793112 -152.634073 
L 203.472039 -151.083231 
L 204.150965 -149.543026 
L 204.829892 -148.013699 
L 205.508819 -146.495484 
L 206.187746 -144.988606 
L 206.866673 -143.493283 
L 207.5456 -142.009724 
L 208.224526 -140.538131 
L 208.903453 -139.078697 
L 209.58238 -137.631607 
L 210.261307 -136.19704 
L 210.940234 -134.775166 
L 211.619161 -133.366145 
L 212.298087 -131.970133 
L 212.977014 -130.587275 
L 213.655941 -129.21771 
L 214.334868 -127.86157 
L 215.013795 -126.518978 
L 215.692722 -125.190049 
L 216.371648 -123.874894 
L 217.050575 -122.573612 
L 217.729502 -121.286298 
L 218.408429 -120.013038 
L 219.087356 -118.753913 
L 219.766283 -117.508994 
L 220.445209 -116.278348 
L 221.124136 -115.062033 
L 221.803063 -113.860102 
L 222.48199 -112.6726 
L 223.160917 -111.499566 
L 223.839844 -110.341033 
L 224.51877 -109.197026 
L 225.197697 -108.067565 
L 225.876624 -106.952665 
L 226.555551 -105.852333 
L 227.234478 -104.766571 
L 227.913405 -103.695375 
L 228.592331 -102.638736 
L 229.271258 -101.596638 
L 229.950185 -100.569062 
L 230.629112 -99.555981 
L 231.308039 -98.557364 
L 231.986966 -97.573175 
L 232.665892 -96.603373 
L 233.344819 -95.647913 
L 234.023746 -94.706744 
L 234.702673 -93.779811 
L 235.3816 -92.867054 
L 236.060527 -91.96841 
L 236.739453 -91.08381 
L 237.41838 -90.213183 
L 238.097307 -89.356453 
L 238.776234 -88.51354 
L 239.455161 -87.68436 
L 240.134088 -86.868826 
L 240.813014 -86.066849 
L 241.491941 -85.278333 
L 242.170868 -84.503183 
L 242.849795 -83.741298 
L 243.528722 -82.992575 
L 244.207649 -82.256908 
L 244.886575 -81.534189 
L 245.565502 -80.824308 
L 246.244429 -80.127149 
L 246.923356 -79.442598 
L 247.602283 -78.770536 
L 248.28121 -78.110844 
L 248.960136 -77.463398 
L 249.639063 -76.828076 
L 250.31799 -76.20475 
L 250.996917 -75.593293 
L 251.675844 -74.993577 
L 252.354771 -74.40547 
L 253.033697 -73.828841 
L 253.712624 -73.263556 
L 254.391551 -72.709482 
L 255.070478 -72.166482 
L 255.749405 -71.634421 
L 256.428332 -71.11316 
L 257.107259 -70.602563 
L 257.786185 -70.102491 
L 258.465112 -69.612804 
L 259.144039 -69.133363 
L 259.822966 -68.664027 
L 260.501893 -68.204656 
L 261.18082 -67.755109 
L 261.859746 -67.315246 
L 262.538673 -66.884925 
L 263.2176 -66.464006 
L 263.896527 -66.052347 
L 264.575454 -65.649808 
L 265.254381 -65.256248 
L 265.933307 -64.871528 
L 266.612234 -64.495506 
L 267.291161 -64.128044 
L 267.970088 -63.769003 
L 268.649015 -63.418243 
L 269.327942 -63.075627 
L 270.006868 -62.741018 
L 270.685795 -62.414278 
L 271.364722 -62.095273 
L 272.043649 -61.783867 
L 272.722576 -61.479926 
L 273.401503 -61.183316 
L 274.080429 -60.893905 
L 274.759356 -60.611561 
L 275.438283 -60.336155 
L 276.11721 -60.067556 
L 276.796137 -59.805637 
L 277.475064 -59.55027 
L 278.15399 -59.30133 
L 278.832917 -59.058691 
L 279.511844 -58.822231 
L 280.190771 -58.591826 
L 280.869698 -58.367355 
L 281.548625 -58.1487 
L 282.227551 -57.935741 
L 282.906478 -57.728362 
L 283.585405 -57.526446 
L 283.585405 -51.123693 
L 283.585405 -51.123693 
L 282.906478 -51.123693 
L 282.227551 -51.123693 
L 281.548625 -51.123693 
L 280.869698 -51.123693 
L 280.190771 -51.123693 
L 279.511844 -51.123693 
L 278.832917 -51.123693 
L 278.15399 -51.123693 
L 277.475064 -51.123693 
L 276.796137 -51.123693 
L 276.11721 -51.123693 
L 275.438283 -51.123693 
L 274.759356 -51.123693 
L 274.080429 -51.123693 
L 273.401503 -51.123693 
L 272.722576 -51.123693 
L 272.043649 -51.123693 
L 271.364722 -51.123693 
L 270.685795 -51.123693 
L 270.006868 -51.123693 
L 269.327942 -51.123693 
L 268.649015 -51.123693 
L 267.970088 -51.123693 
L 267.291161 -51.123693 
L 266.612234 -51.123693 
L 265.933307 -51.123693 
L 265.254381 -51.123693 
L 264.575454 -51.123693 
L 263.896527 -51.123693 
L 263.2176 -51.123693 
L 262.538673 -51.123693 
L 261.859746 -51.123693 
L 261.18082 -51.123693 
L 260.501893 -51.123693 
L 259.822966 -51.123693 
L 259.144039 -51.123693 
L 258.465112 -51.123693 
L 257.786185 -51.123693 
L 257.107259 -51.123693 
L 256.428332 -51.123693 
L 255.749405 -51.123693 
L 255.070478 -51.123693 
L 254.391551 -51.123693 
L 253.712624 -51.123693 
L 253.033697 -51.123693 
L 252.354771 -51.123693 
L 251.675844 -51.123693 
L 250.996917 -51.123693 
L 250.31799 -51.123693 
L 249.639063 -51.123693 
L 248.960136 -51.123693 
L 248.28121 -51.123693 
L 247.602283 -51.123693 
L 246.923356 -51.123693 
L 246.244429 -51.123693 
L 245.565502 -51.123693 
L 244.886575 -51.123693 
L 244.207649 -51.123693 
L 243.528722 -51.123693 
L 242.849795 -51.123693 
L 242.170868 -51.123693 
L 241.491941 -51.123693 
L 240.813014 -51.123693 
L 240.134088 -51.123693 
L 239.455161 -51.123693 
L 238.776234 -51.123693 
L 238.097307 -51.123693 
L 237.41838 -51.123693 
L 236.739453 -51.123693 
L 236.060527 -51.123693 
L 235.3816 -51.123693 
L 234.702673 -51.123693 
L 234.023746 -51.123693 
L 233.344819 -51.123693 
L 232.665892 -51.123693 
L 231.986966 -51.123693 
L 231.308039 -51.123693 
L 230.629112 -51.123693 
L 229.950185 -51.123693 
L 229.271258 -51.123693 
L 228.592331 -51.123693 
L 227.913405 -51.123693 
L 227.234478 -51.123693 
L 226.555551 -51.123693 
L 225.876624 -51.123693 
L 225.197697 -51.123693 
L 224.51877 -51.123693 
L 223.839844 -51.123693 
L 223.160917 -51.123693 
L 222.48199 -51.123693 
L 221.803063 -51.123693 
L 221.124136 -51.123693 
L 220.445209 -51.123693 
L 219.766283 -51.123693 
L 219.087356 -51.123693 
L 218.408429 -51.123693 
L 217.729502 -51.123693 
L 217.050575 -51.123693 
L 216.371648 -51.123693 
L 215.692722 -51.123693 
L 215.013795 -51.123693 
L 214.334868 -51.123693 
L 213.655941 -51.123693 
L 212.977014 -51.123693 
L 212.298087 -51.123693 
L 211.619161 -51.123693 
L 210.940234 -51.123693 
L 210.261307 -51.123693 
L 209.58238 -51.123693 
L 208.903453 -51.123693 
L 208.224526 -51.123693 
L 207.5456 -51.123693 
L 206.866673 -51.123693 
L 206.187746 -51.123693 
L 205.508819 -51.123693 
L 204.829892 -51.123693 
L 204.150965 -51.123693 
L 203.472039 -51.123693 
L 202.793112 -51.123693 
L 202.114185 -51.123693 
L 201.435258 -51.123693 
L 200.756331 -51.123693 
L 200.077404 -51.123693 
L 199.398478 -51.123693 
L 198.719551 -51.123693 
L 198.040624 -51.123693 
L 197.361697 -51.123693 
L 196.68277 -51.123693 
L 196.003843 -51.123693 
L 195.324917 -51.123693 
L 194.64599 -51.123693 
L 193.967063 -51.123693 
L 193.288136 -51.123693 
L 192.609209 -51.123693 
L 191.930282 -51.123693 
L 191.251356 -51.123693 
L 190.572429 -51.123693 
L 189.893502 -51.123693 
L 189.214575 -51.123693 
L 188.535648 -51.123693 
L 187.856721 -51.123693 
L 187.177795 -51.123693 
L 186.498868 -51.123693 
L 185.819941 -51.123693 
L 185.141014 -51.123693 
L 184.462087 -51.123693 
L 183.78316 -51.123693 
L 183.104234 -51.123693 
L 182.425307 -51.123693 
L 181.74638 -51.123693 
L 181.067453 -51.123693 
L 180.388526 -51.123693 
L 179.709599 -51.123693 
L 179.030673 -51.123693 
L 178.351746 -51.123693 
L 177.672819 -51.123693 
L 176.993892 -51.123693 
L 176.314965 -51.123693 
L 175.636038 -51.123693 
L 174.957112 -51.123693 
L 174.278185 -51.123693 
L 173.599258 -51.123693 
L 172.920331 -51.123693 
L 172.241404 -51.123693 
L 171.562477 -51.123693 
L 170.883551 -51.123693 
L 170.204624 -51.123693 
L 169.525697 -51.123693 
L 168.84677 -51.123693 
L 168.167843 -51.123693 
L 167.488916 -51.123693 
L 166.80999 -51.123693 
L 166.131063 -51.123693 
L 165.452136 -51.123693 
L 164.773209 -51.123693 
L 164.094282 -51.123693 
L 163.415355 -51.123693 
L 162.736429 -51.123693 
L 162.057502 -51.123693 
L 161.378575 -51.123693 
L 160.699648 -51.123693 
L 160.020721 -51.123693 
L 159.341794 -51.123693 
L 158.662868 -51.123693 
L 157.983941 -51.123693 
L 157.305014 -51.123693 
L 156.626087 -51.123693 
L 155.94716 -51.123693 
L 155.268233 -51.123693 
L 154.589307 -51.123693 
L 153.91038 -51.123693 
L 153.231453 -51.123693 
L 152.552526 -51.123693 
L 151.873599 -51.123693 
L 151.194672 -51.123693 
L 150.515746 -51.123693 
L 149.836819 -51.123693 
L 149.157892 -51.123693 
L 148.478965 -51.123693 
z
" style="stroke: #c4dfaa; stroke-opacity: 0.99"/>
    </defs>
    <g clip-path="url(#p7b4e052219)">
     <use xlink:href="#m0b84d1cb7b" x="0" y="350.729687" style="fill: #c4dfaa; fill-opacity: 0.99; stroke: #c4dfaa; stroke-opacity: 0.99"/>
    </g>
   </g>
   <g id="PolyCollection_3">
    <defs>
     <path id="m76930d3c6d" d="M 283.585405 -51.123693 
L 283.585405 -57.526446 
L 284.71695 -57.201753 
L 285.848494 -56.891399 
L 286.980039 -56.594876 
L 288.111584 -56.311686 
L 289.243129 -56.041341 
L 290.374673 -55.783367 
L 291.506218 -55.537299 
L 292.637763 -55.302685 
L 293.769308 -55.079085 
L 294.900852 -54.866069 
L 296.032397 -54.663221 
L 297.163942 -54.470134 
L 298.295486 -54.286415 
L 299.427031 -54.111681 
L 300.558576 -53.945561 
L 301.690121 -53.787694 
L 302.821665 -53.637733 
L 303.95321 -53.495339 
L 305.084755 -53.360186 
L 306.2163 -53.231957 
L 307.347844 -53.110349 
L 308.479389 -52.995066 
L 309.610934 -52.885823 
L 310.742478 -52.782345 
L 311.874023 -52.684369 
L 313.005568 -52.59164 
L 314.137113 -52.503911 
L 315.268657 -52.420947 
L 316.400202 -52.342521 
L 317.531747 -52.268414 
L 318.663291 -52.198418 
L 319.794836 -52.132329 
L 320.926381 -52.069956 
L 322.057926 -52.011112 
L 323.18947 -51.955622 
L 324.321015 -51.903314 
L 325.45256 -51.854025 
L 326.584105 -51.807601 
L 327.715649 -51.763891 
L 328.847194 -51.722755 
L 329.978739 -51.684055 
L 331.110283 -51.647662 
L 332.241828 -51.613452 
L 333.373373 -51.581307 
L 334.504918 -51.551115 
L 335.636462 -51.522767 
L 336.768007 -51.496162 
L 337.899552 -51.471203 
L 339.031097 -51.447797 
L 340.162641 -51.425856 
L 341.294186 -51.405296 
L 342.425731 -51.386039 
L 343.557275 -51.368008 
L 344.68882 -51.351133 
L 345.820365 -51.335346 
L 346.95191 -51.320582 
L 348.083454 -51.30678 
L 349.214999 -51.293883 
L 350.346544 -51.281836 
L 351.478088 -51.270588 
L 352.609633 -51.260089 
L 353.741178 -51.250295 
L 354.872723 -51.24116 
L 356.004267 -51.232644 
L 357.135812 -51.224709 
L 358.267357 -51.217317 
L 359.398902 -51.210433 
L 360.530446 -51.204027 
L 361.661991 -51.198066 
L 362.793536 -51.192522 
L 363.92508 -51.187368 
L 365.056625 -51.182578 
L 366.18817 -51.178128 
L 367.319715 -51.173996 
L 368.451259 -51.170161 
L 369.582804 -51.166602 
L 370.714349 -51.163301 
L 371.845893 -51.160241 
L 372.977438 -51.157404 
L 374.108983 -51.154777 
L 375.240528 -51.152343 
L 376.372072 -51.150091 
L 377.503617 -51.148006 
L 378.635162 -51.146078 
L 379.766707 -51.144295 
L 380.898251 -51.142647 
L 382.029796 -51.141125 
L 383.161341 -51.139719 
L 384.292885 -51.138421 
L 385.42443 -51.137223 
L 386.555975 -51.136118 
L 387.68752 -51.135099 
L 388.819064 -51.134159 
L 389.950609 -51.133294 
L 391.082154 -51.132497 
L 392.213699 -51.131763 
L 393.345243 -51.131087 
L 394.476788 -51.130466 
L 395.608333 -51.129895 
L 396.739877 -51.129369 
L 397.871422 -51.128886 
L 399.002967 -51.128443 
L 400.134512 -51.128036 
L 401.266056 -51.127662 
L 402.397601 -51.127319 
L 403.529146 -51.127005 
L 404.66069 -51.126716 
L 405.792235 -51.126452 
L 406.92378 -51.12621 
L 408.055325 -51.125988 
L 409.186869 -51.125785 
L 410.318414 -51.1256 
L 411.449959 -51.12543 
L 412.581504 -51.125274 
L 413.713048 -51.125133 
L 414.844593 -51.125003 
L 415.976138 -51.124884 
L 417.107682 -51.124776 
L 418.239227 -51.124678 
L 419.370772 -51.124588 
L 420.502317 -51.124506 
L 421.633861 -51.124431 
L 422.765406 -51.124363 
L 423.896951 -51.1243 
L 425.028496 -51.124244 
L 426.16004 -51.124192 
L 427.291585 -51.124146 
L 428.42313 -51.124103 
L 429.554674 -51.124064 
L 430.686219 -51.124029 
L 431.817764 -51.123997 
L 432.949309 -51.123968 
L 434.080853 -51.123942 
L 435.212398 -51.123918 
L 436.343943 -51.123896 
L 437.475487 -51.123877 
L 438.607032 -51.123859 
L 439.738577 -51.123843 
L 440.870122 -51.123828 
L 442.001666 -51.123815 
L 443.133211 -51.123803 
L 444.264756 -51.123792 
L 445.396301 -51.123782 
L 446.527845 -51.123773 
L 447.65939 -51.123765 
L 448.790935 -51.123758 
L 449.922479 -51.123752 
L 451.054024 -51.123746 
L 452.185569 -51.12374 
L 453.317114 -51.123736 
L 454.448658 -51.123731 
L 455.580203 -51.123727 
L 456.711748 -51.123724 
L 457.843293 -51.123721 
L 458.974837 -51.123718 
L 460.106382 -51.123715 
L 461.237927 -51.123713 
L 462.369471 -51.123711 
L 463.501016 -51.123709 
L 464.632561 -51.123707 
L 465.764106 -51.123706 
L 466.89565 -51.123705 
L 468.027195 -51.123703 
L 469.15874 -51.123702 
L 470.290284 -51.123701 
L 471.421829 -51.1237 
L 472.553374 -51.1237 
L 473.684919 -51.123699 
L 474.816463 -51.123698 
L 475.948008 -51.123698 
L 477.079553 -51.123697 
L 478.211098 -51.123697 
L 479.342642 -51.123696 
L 480.474187 -51.123696 
L 481.605732 -51.123696 
L 482.737276 -51.123695 
L 483.868821 -51.123695 
L 485.000366 -51.123695 
L 486.131911 -51.123695 
L 487.263455 -51.123695 
L 488.395 -51.123694 
L 489.526545 -51.123694 
L 490.658089 -51.123694 
L 491.789634 -51.123694 
L 492.921179 -51.123694 
L 494.052724 -51.123694 
L 495.184268 -51.123694 
L 496.315813 -51.123694 
L 497.447358 -51.123694 
L 498.578903 -51.123694 
L 499.710447 -51.123694 
L 500.841992 -51.123694 
L 501.973537 -51.123693 
L 503.105081 -51.123693 
L 504.236626 -51.123693 
L 505.368171 -51.123693 
L 506.499716 -51.123693 
L 507.63126 -51.123693 
L 508.762805 -51.123693 
L 508.762805 -51.123693 
L 508.762805 -51.123693 
L 507.63126 -51.123693 
L 506.499716 -51.123693 
L 505.368171 -51.123693 
L 504.236626 -51.123693 
L 503.105081 -51.123693 
L 501.973537 -51.123693 
L 500.841992 -51.123693 
L 499.710447 -51.123693 
L 498.578903 -51.123693 
L 497.447358 -51.123693 
L 496.315813 -51.123693 
L 495.184268 -51.123693 
L 494.052724 -51.123693 
L 492.921179 -51.123693 
L 491.789634 -51.123693 
L 490.658089 -51.123693 
L 489.526545 -51.123693 
L 488.395 -51.123693 
L 487.263455 -51.123693 
L 486.131911 -51.123693 
L 485.000366 -51.123693 
L 483.868821 -51.123693 
L 482.737276 -51.123693 
L 481.605732 -51.123693 
L 480.474187 -51.123693 
L 479.342642 -51.123693 
L 478.211098 -51.123693 
L 477.079553 -51.123693 
L 475.948008 -51.123693 
L 474.816463 -51.123693 
L 473.684919 -51.123693 
L 472.553374 -51.123693 
L 471.421829 -51.123693 
L 470.290284 -51.123693 
L 469.15874 -51.123693 
L 468.027195 -51.123693 
L 466.89565 -51.123693 
L 465.764106 -51.123693 
L 464.632561 -51.123693 
L 463.501016 -51.123693 
L 462.369471 -51.123693 
L 461.237927 -51.123693 
L 460.106382 -51.123693 
L 458.974837 -51.123693 
L 457.843293 -51.123693 
L 456.711748 -51.123693 
L 455.580203 -51.123693 
L 454.448658 -51.123693 
L 453.317114 -51.123693 
L 452.185569 -51.123693 
L 451.054024 -51.123693 
L 449.922479 -51.123693 
L 448.790935 -51.123693 
L 447.65939 -51.123693 
L 446.527845 -51.123693 
L 445.396301 -51.123693 
L 444.264756 -51.123693 
L 443.133211 -51.123693 
L 442.001666 -51.123693 
L 440.870122 -51.123693 
L 439.738577 -51.123693 
L 438.607032 -51.123693 
L 437.475487 -51.123693 
L 436.343943 -51.123693 
L 435.212398 -51.123693 
L 434.080853 -51.123693 
L 432.949309 -51.123693 
L 431.817764 -51.123693 
L 430.686219 -51.123693 
L 429.554674 -51.123693 
L 428.42313 -51.123693 
L 427.291585 -51.123693 
L 426.16004 -51.123693 
L 425.028496 -51.123693 
L 423.896951 -51.123693 
L 422.765406 -51.123693 
L 421.633861 -51.123693 
L 420.502317 -51.123693 
L 419.370772 -51.123693 
L 418.239227 -51.123693 
L 417.107682 -51.123693 
L 415.976138 -51.123693 
L 414.844593 -51.123693 
L 413.713048 -51.123693 
L 412.581504 -51.123693 
L 411.449959 -51.123693 
L 410.318414 -51.123693 
L 409.186869 -51.123693 
L 408.055325 -51.123693 
L 406.92378 -51.123693 
L 405.792235 -51.123693 
L 404.66069 -51.123693 
L 403.529146 -51.123693 
L 402.397601 -51.123693 
L 401.266056 -51.123693 
L 400.134512 -51.123693 
L 399.002967 -51.123693 
L 397.871422 -51.123693 
L 396.739877 -51.123693 
L 395.608333 -51.123693 
L 394.476788 -51.123693 
L 393.345243 -51.123693 
L 392.213699 -51.123693 
L 391.082154 -51.123693 
L 389.950609 -51.123693 
L 388.819064 -51.123693 
L 387.68752 -51.123693 
L 386.555975 -51.123693 
L 385.42443 -51.123693 
L 384.292885 -51.123693 
L 383.161341 -51.123693 
L 382.029796 -51.123693 
L 380.898251 -51.123693 
L 379.766707 -51.123693 
L 378.635162 -51.123693 
L 377.503617 -51.123693 
L 376.372072 -51.123693 
L 375.240528 -51.123693 
L 374.108983 -51.123693 
L 372.977438 -51.123693 
L 371.845893 -51.123693 
L 370.714349 -51.123693 
L 369.582804 -51.123693 
L 368.451259 -51.123693 
L 367.319715 -51.123693 
L 366.18817 -51.123693 
L 365.056625 -51.123693 
L 363.92508 -51.123693 
L 362.793536 -51.123693 
L 361.661991 -51.123693 
L 360.530446 -51.123693 
L 359.398902 -51.123693 
L 358.267357 -51.123693 
L 357.135812 -51.123693 
L 356.004267 -51.123693 
L 354.872723 -51.123693 
L 353.741178 -51.123693 
L 352.609633 -51.123693 
L 351.478088 -51.123693 
L 350.346544 -51.123693 
L 349.214999 -51.123693 
L 348.083454 -51.123693 
L 346.95191 -51.123693 
L 345.820365 -51.123693 
L 344.68882 -51.123693 
L 343.557275 -51.123693 
L 342.425731 -51.123693 
L 341.294186 -51.123693 
L 340.162641 -51.123693 
L 339.031097 -51.123693 
L 337.899552 -51.123693 
L 336.768007 -51.123693 
L 335.636462 -51.123693 
L 334.504918 -51.123693 
L 333.373373 -51.123693 
L 332.241828 -51.123693 
L 331.110283 -51.123693 
L 329.978739 -51.123693 
L 328.847194 -51.123693 
L 327.715649 -51.123693 
L 326.584105 -51.123693 
L 325.45256 -51.123693 
L 324.321015 -51.123693 
L 323.18947 -51.123693 
L 322.057926 -51.123693 
L 320.926381 -51.123693 
L 319.794836 -51.123693 
L 318.663291 -51.123693 
L 317.531747 -51.123693 
L 316.400202 -51.123693 
L 315.268657 -51.123693 
L 314.137113 -51.123693 
L 313.005568 -51.123693 
L 311.874023 -51.123693 
L 310.742478 -51.123693 
L 309.610934 -51.123693 
L 308.479389 -51.123693 
L 307.347844 -51.123693 
L 306.2163 -51.123693 
L 305.084755 -51.123693 
L 303.95321 -51.123693 
L 302.821665 -51.123693 
L 301.690121 -51.123693 
L 300.558576 -51.123693 
L 299.427031 -51.123693 
L 298.295486 -51.123693 
L 297.163942 -51.123693 
L 296.032397 -51.123693 
L 294.900852 -51.123693 
L 293.769308 -51.123693 
L 292.637763 -51.123693 
L 291.506218 -51.123693 
L 290.374673 -51.123693 
L 289.243129 -51.123693 
L 288.111584 -51.123693 
L 286.980039 -51.123693 
L 285.848494 -51.123693 
L 284.71695 -51.123693 
L 283.585405 -51.123693 
z
" style="stroke: #90c8ac; stroke-opacity: 0.99"/>
    </defs>
    <g clip-path="url(#p7b4e052219)">
     <use xlink:href="#m76930d3c6d" x="0" y="350.729687" style="fill: #90c8ac; fill-opacity: 0.99; stroke: #90c8ac; stroke-opacity: 0.99"/>
    </g>
   </g>
   <g id="patch_3">
    <path d="M 148.478965 69.799176 
L 134.968321 73.082131 
L 134.968321 70.619915 
L 71.918649 70.619915 
L 71.918649 68.978437 
L 134.968321 68.978437 
L 134.968321 66.516222 
z
" clip-path="url(#p7b4e052219)" style="stroke: #000000; stroke-linejoin: miter"/>
   </g>
   <g id="patch_4">
    <path d="M 71.918649 69.799176 
L 85.429293 66.516222 
L 85.429293 68.978437 
L 148.478965 68.978437 
L 148.478965 70.619915 
L 85.429293 70.619915 
L 85.429293 73.082131 
z
" clip-path="url(#p7b4e052219)" style="stroke: #000000; stroke-linejoin: miter"/>
   </g>
   <g id="patch_5">
    <path d="M 283.585405 69.799176 
L 270.074761 73.082131 
L 270.074761 70.619915 
L 148.478965 70.619915 
L 148.478965 68.978437 
L 270.074761 68.978437 
L 270.074761 66.516222 
z
" clip-path="url(#p7b4e052219)" style="stroke: #000000; stroke-linejoin: miter"/>
   </g>
   <g id="patch_6">
    <path d="M 148.478965 69.799176 
L 161.989609 66.516222 
L 161.989609 68.978437 
L 283.585405 68.978437 
L 283.585405 70.619915 
L 161.989609 70.619915 
L 161.989609 73.082131 
z
" clip-path="url(#p7b4e052219)" style="stroke: #000000; stroke-linejoin: miter"/>
   </g>
   <g id="patch_7">
    <path d="M 508.762805 69.799176 
L 495.252161 73.082131 
L 495.252161 70.619915 
L 283.585405 70.619915 
L 283.585405 68.978437 
L 495.252161 68.978437 
L 495.252161 66.516222 
z
" clip-path="url(#p7b4e052219)" style="stroke: #000000; stroke-linejoin: miter"/>
   </g>
   <g id="patch_8">
    <path d="M 283.585405 69.799176 
L 297.096049 66.516222 
L 297.096049 68.978437 
L 508.762805 68.978437 
L 508.762805 70.619915 
L 297.096049 70.619915 
L 297.096049 73.082131 
z
" clip-path="url(#p7b4e052219)" style="stroke: #000000; stroke-linejoin: miter"/>
   </g>
   <g id="line2d_1">
    <path d="M 71.918649 133.85341 
L 78.504239 117.67963 
L 82.894633 107.367173 
L 87.285026 97.593887 
L 91.67542 88.498061 
L 96.065813 80.213099 
L 98.26101 76.414247 
L 100.456207 72.864284 
L 102.651404 69.577088 
L 104.8466 66.565643 
L 107.041797 63.841963 
L 109.236994 61.417003 
L 111.432191 59.300592 
L 113.627388 57.501364 
L 115.822584 56.026698 
L 118.017781 54.882673 
L 120.212978 54.074019 
L 122.408175 53.604089 
L 124.603371 53.474835 
L 126.798568 53.686795 
L 128.993765 54.239088 
L 131.188962 55.12942 
L 133.384158 56.354102 
L 135.579355 57.908072 
L 137.774552 59.784934 
L 139.969749 61.976997 
L 142.164945 64.475335 
L 144.360142 67.269836 
L 146.555339 70.349284 
L 148.750536 73.701421 
L 150.945733 77.313038 
L 153.140929 81.170055 
L 157.531323 89.560188 
L 161.921716 98.745379 
L 166.31211 108.59146 
L 170.702503 118.95977 
L 177.288094 135.18569 
L 197.044865 184.575863 
L 201.435258 194.963027 
L 205.825652 204.938838 
L 210.216045 214.437402 
L 214.606439 223.406787 
L 218.996832 231.808711 
L 223.387226 239.617912 
L 227.777619 246.821238 
L 232.168013 253.416531 
L 236.558406 259.411353 
L 240.9488 264.821616 
L 245.339193 269.670172 
L 249.729587 273.985412 
L 254.11998 277.799913 
L 258.510374 281.149163 
L 262.900767 284.070414 
L 267.291161 286.601643 
L 271.681555 288.780675 
L 276.071948 290.644434 
L 280.462342 292.228356 
L 284.852735 293.565924 
L 289.243129 294.688346 
L 293.633522 295.624338 
L 300.219112 296.735174 
L 306.804703 297.561774 
L 313.390293 298.168425 
L 322.17108 298.724272 
L 333.147064 299.142111 
L 346.318245 299.40096 
L 366.075015 299.551129 
L 412.174147 299.604359 
L 508.762805 299.605994 
L 508.762805 299.605994 
" clip-path="url(#p7b4e052219)" style="fill: none; stroke: #000000; stroke-linecap: round"/>
   </g>
   <g id="LineCollection_1">
    <path d="M 71.918649 299.605994 
L 71.918649 36.969631 
" clip-path="url(#p7b4e052219)" style="fill: none; stroke-dasharray: 7.4,3.2; stroke-dashoffset: 0; stroke: #ff0000; stroke-width: 2"/>
    <path d="M 148.478965 299.605994 
L 148.478965 36.969631 
" clip-path="url(#p7b4e052219)" style="fill: none; stroke-dasharray: 7.4,3.2; stroke-dashoffset: 0; stroke: #ff0000; stroke-width: 2"/>
    <path d="M 283.585405 299.605994 
L 283.585405 36.969631 
" clip-path="url(#p7b4e052219)" style="fill: none; stroke-dasharray: 7.4,3.2; stroke-dashoffset: 0; stroke: #ff0000; stroke-width: 2"/>
    <path d="M 508.762805 299.605994 
L 508.762805 36.969631 
" clip-path="url(#p7b4e052219)" style="fill: none; stroke-dasharray: 7.4,3.2; stroke-dashoffset: 0; stroke: #ff0000; stroke-width: 2"/>
   </g>
   <g id="patch_9">
    <path d="M 69.666875 312.737812 
L 69.666875 23.837812 
" style="fill: none; stroke: #262626; stroke-width: 0.8; stroke-linejoin: miter; stroke-linecap: square"/>
   </g>
   <g id="patch_10">
    <path d="M 511.014579 312.737812 
L 511.014579 23.837812 
" style="fill: none; stroke: #262626; stroke-width: 0.8; stroke-linejoin: miter; stroke-linecap: square"/>
   </g>
   <g id="patch_11">
    <path d="M 69.666875 312.737812 
L 511.014579 312.737812 
" style="fill: none; stroke: #262626; stroke-width: 0.8; stroke-linejoin: miter; stroke-linecap: square"/>
   </g>
   <g id="patch_12">
    <path d="M 69.666875 23.837812 
L 511.014579 23.837812 
" style="fill: none; stroke: #262626; stroke-width: 0.8; stroke-linejoin: miter; stroke-linecap: square"/>
   </g>
   <g id="text_22">
    <!-- 58.1% -->
    <g style="fill: #262626" transform="translate(82.533283 293.040085)scale(0.16 -0.16)">
     <defs>
      <path id="DejaVuSans-25" d="M 4653 2053 
Q 4381 2053 4226 1822 
Q 4072 1591 4072 1178 
Q 4072 772 4226 539 
Q 4381 306 4653 306 
Q 4919 306 5073 539 
Q 5228 772 5228 1178 
Q 5228 1588 5073 1820 
Q 4919 2053 4653 2053 
z
M 4653 2450 
Q 5147 2450 5437 2106 
Q 5728 1763 5728 1178 
Q 5728 594 5436 251 
Q 5144 -91 4653 -91 
Q 4153 -91 3862 251 
Q 3572 594 3572 1178 
Q 3572 1766 3864 2108 
Q 4156 2450 4653 2450 
z
M 1428 4353 
Q 1159 4353 1004 4120 
Q 850 3888 850 3481 
Q 850 3069 1003 2837 
Q 1156 2606 1428 2606 
Q 1700 2606 1854 2837 
Q 2009 3069 2009 3481 
Q 2009 3884 1853 4118 
Q 1697 4353 1428 4353 
z
M 4250 4750 
L 4750 4750 
L 1831 -91 
L 1331 -91 
L 4250 4750 
z
M 1428 4750 
Q 1922 4750 2215 4408 
Q 2509 4066 2509 3481 
Q 2509 2891 2217 2550 
Q 1925 2209 1428 2209 
Q 931 2209 642 2551 
Q 353 2894 353 3481 
Q 353 4063 643 4406 
Q 934 4750 1428 4750 
z
" transform="scale(0.015625)"/>
     </defs>
     <use xlink:href="#DejaVuSans-35"/>
     <use xlink:href="#DejaVuSans-38" x="63.623047"/>
     <use xlink:href="#DejaVuSans-2e" x="127.246094"/>
     <use xlink:href="#DejaVuSans-31" x="159.033203"/>
     <use xlink:href="#DejaVuSans-25" x="222.65625"/>
    </g>
   </g>
   <g id="text_23">
    <!-- 41.5% -->
    <g style="fill: #262626" transform="translate(195.121983 293.040085)scale(0.16 -0.16)">
     <use xlink:href="#DejaVuSans-34"/>
     <use xlink:href="#DejaVuSans-31" x="63.623047"/>
     <use xlink:href="#DejaVuSans-2e" x="127.246094"/>
     <use xlink:href="#DejaVuSans-35" x="159.033203"/>
     <use xlink:href="#DejaVuSans-25" x="222.65625"/>
    </g>
   </g>
   <g id="text_24">
    <!-- 0.4% -->
    <g style="fill: #262626" transform="translate(285.779395 293.040085)scale(0.16 -0.16)">
     <use xlink:href="#DejaVuSans-30"/>
     <use xlink:href="#DejaVuSans-2e" x="63.623047"/>
     <use xlink:href="#DejaVuSans-34" x="95.410156"/>
     <use xlink:href="#DejaVuSans-25" x="159.033203"/>
    </g>
   </g>
   <g id="text_25">
    <!-- 300-2000 -->
    <g style="fill: #262626" transform="translate(83.718885 44.349764)scale(0.11 -0.11)">
     <defs>
      <path id="DejaVuSans-2d" d="M 313 2009 
L 1997 2009 
L 1997 1497 
L 313 1497 
L 313 2009 
z
" transform="scale(0.015625)"/>
     </defs>
     <use xlink:href="#DejaVuSans-33"/>
     <use xlink:href="#DejaVuSans-30" x="63.623047"/>
     <use xlink:href="#DejaVuSans-30" x="127.246094"/>
     <use xlink:href="#DejaVuSans-2d" x="190.869141"/>
     <use xlink:href="#DejaVuSans-32" x="226.953125"/>
     <use xlink:href="#DejaVuSans-30" x="290.576172"/>
     <use xlink:href="#DejaVuSans-30" x="354.199219"/>
     <use xlink:href="#DejaVuSans-30" x="417.822266"/>
    </g>
    <!-- animal units -->
    <g style="fill: #262626" transform="translate(76.290448 56.667358)scale(0.11 -0.11)">
     <defs>
      <path id="DejaVuSans-75" d="M 544 1381 
L 544 3500 
L 1119 3500 
L 1119 1403 
Q 1119 906 1312 657 
Q 1506 409 1894 409 
Q 2359 409 2629 706 
Q 2900 1003 2900 1516 
L 2900 3500 
L 3475 3500 
L 3475 0 
L 2900 0 
L 2900 538 
Q 2691 219 2414 64 
Q 2138 -91 1772 -91 
Q 1169 -91 856 284 
Q 544 659 544 1381 
z
M 1991 3584 
L 1991 3584 
z
" transform="scale(0.015625)"/>
     </defs>
     <use xlink:href="#DejaVuSans-61"/>
     <use xlink:href="#DejaVuSans-6e" x="61.279297"/>
     <use xlink:href="#DejaVuSans-69" x="124.658203"/>
     <use xlink:href="#DejaVuSans-6d" x="152.441406"/>
     <use xlink:href="#DejaVuSans-61" x="249.853516"/>
     <use xlink:href="#DejaVuSans-6c" x="311.132812"/>
     <use xlink:href="#DejaVuSans-20" x="338.916016"/>
     <use xlink:href="#DejaVuSans-75" x="370.703125"/>
     <use xlink:href="#DejaVuSans-6e" x="434.082031"/>
     <use xlink:href="#DejaVuSans-69" x="497.460938"/>
     <use xlink:href="#DejaVuSans-74" x="525.244141"/>
     <use xlink:href="#DejaVuSans-73" x="564.453125"/>
    </g>
   </g>
   <g id="text_26">
    <!-- 2000-5000 -->
    <g style="fill: #262626" transform="translate(186.052888 44.349764)scale(0.11 -0.11)">
     <use xlink:href="#DejaVuSans-32"/>
     <use xlink:href="#DejaVuSans-30" x="63.623047"/>
     <use xlink:href="#DejaVuSans-30" x="127.246094"/>
     <use xlink:href="#DejaVuSans-30" x="190.869141"/>
     <use xlink:href="#DejaVuSans-2d" x="254.492188"/>
     <use xlink:href="#DejaVuSans-35" x="290.576172"/>
     <use xlink:href="#DejaVuSans-30" x="354.199219"/>
     <use xlink:href="#DejaVuSans-30" x="417.822266"/>
     <use xlink:href="#DejaVuSans-30" x="481.445312"/>
    </g>
    <!-- animal units -->
    <g style="fill: #262626" transform="translate(182.123826 56.667358)scale(0.11 -0.11)">
     <use xlink:href="#DejaVuSans-61"/>
     <use xlink:href="#DejaVuSans-6e" x="61.279297"/>
     <use xlink:href="#DejaVuSans-69" x="124.658203"/>
     <use xlink:href="#DejaVuSans-6d" x="152.441406"/>
     <use xlink:href="#DejaVuSans-61" x="249.853516"/>
     <use xlink:href="#DejaVuSans-6c" x="311.132812"/>
     <use xlink:href="#DejaVuSans-20" x="338.916016"/>
     <use xlink:href="#DejaVuSans-75" x="370.703125"/>
     <use xlink:href="#DejaVuSans-6e" x="434.082031"/>
     <use xlink:href="#DejaVuSans-69" x="497.460938"/>
     <use xlink:href="#DejaVuSans-74" x="525.244141"/>
     <use xlink:href="#DejaVuSans-73" x="564.453125"/>
    </g>
   </g>
   <g id="text_27">
    <!-- 5000-10000 -->
    <g style="fill: #262626" transform="translate(362.695433 44.349764)scale(0.11 -0.11)">
     <use xlink:href="#DejaVuSans-35"/>
     <use xlink:href="#DejaVuSans-30" x="63.623047"/>
     <use xlink:href="#DejaVuSans-30" x="127.246094"/>
     <use xlink:href="#DejaVuSans-30" x="190.869141"/>
     <use xlink:href="#DejaVuSans-2d" x="254.492188"/>
     <use xlink:href="#DejaVuSans-31" x="290.576172"/>
     <use xlink:href="#DejaVuSans-30" x="354.199219"/>
     <use xlink:href="#DejaVuSans-30" x="417.822266"/>
     <use xlink:href="#DejaVuSans-30" x="481.445312"/>
     <use xlink:href="#DejaVuSans-30" x="545.068359"/>
    </g>
    <!-- animal units -->
    <g style="fill: #262626" transform="translate(362.265746 56.667358)scale(0.11 -0.11)">
     <use xlink:href="#DejaVuSans-61"/>
     <use xlink:href="#DejaVuSans-6e" x="61.279297"/>
     <use xlink:href="#DejaVuSans-69" x="124.658203"/>
     <use xlink:href="#DejaVuSans-6d" x="152.441406"/>
     <use xlink:href="#DejaVuSans-61" x="249.853516"/>
     <use xlink:href="#DejaVuSans-6c" x="311.132812"/>
     <use xlink:href="#DejaVuSans-20" x="338.916016"/>
     <use xlink:href="#DejaVuSans-75" x="370.703125"/>
     <use xlink:href="#DejaVuSans-6e" x="434.082031"/>
     <use xlink:href="#DejaVuSans-69" x="497.460938"/>
     <use xlink:href="#DejaVuSans-74" x="525.244141"/>
     <use xlink:href="#DejaVuSans-73" x="564.453125"/>
    </g>
   </g>
   <g id="text_28">
    <!-- Scenario 2 -->
    <g style="fill: #262626" transform="translate(253.230883 17.837812)scale(0.14 -0.14)">
     <defs>
      <path id="DejaVuSans-53" d="M 3425 4513 
L 3425 3897 
Q 3066 4069 2747 4153 
Q 2428 4238 2131 4238 
Q 1616 4238 1336 4038 
Q 1056 3838 1056 3469 
Q 1056 3159 1242 3001 
Q 1428 2844 1947 2747 
L 2328 2669 
Q 3034 2534 3370 2195 
Q 3706 1856 3706 1288 
Q 3706 609 3251 259 
Q 2797 -91 1919 -91 
Q 1588 -91 1214 -16 
Q 841 59 441 206 
L 441 856 
Q 825 641 1194 531 
Q 1563 422 1919 422 
Q 2459 422 2753 634 
Q 3047 847 3047 1241 
Q 3047 1584 2836 1778 
Q 2625 1972 2144 2069 
L 1759 2144 
Q 1053 2284 737 2584 
Q 422 2884 422 3419 
Q 422 4038 858 4394 
Q 1294 4750 2059 4750 
Q 2388 4750 2728 4690 
Q 3069 4631 3425 4513 
z
" transform="scale(0.015625)"/>
      <path id="DejaVuSans-63" d="M 3122 3366 
L 3122 2828 
Q 2878 2963 2633 3030 
Q 2388 3097 2138 3097 
Q 1578 3097 1268 2742 
Q 959 2388 959 1747 
Q 959 1106 1268 751 
Q 1578 397 2138 397 
Q 2388 397 2633 464 
Q 2878 531 3122 666 
L 3122 134 
Q 2881 22 2623 -34 
Q 2366 -91 2075 -91 
Q 1284 -91 818 406 
Q 353 903 353 1747 
Q 353 2603 823 3093 
Q 1294 3584 2113 3584 
Q 2378 3584 2631 3529 
Q 2884 3475 3122 3366 
z
" transform="scale(0.015625)"/>
      <path id="DejaVuSans-72" d="M 2631 2963 
Q 2534 3019 2420 3045 
Q 2306 3072 2169 3072 
Q 1681 3072 1420 2755 
Q 1159 2438 1159 1844 
L 1159 0 
L 581 0 
L 581 3500 
L 1159 3500 
L 1159 2956 
Q 1341 3275 1631 3429 
Q 1922 3584 2338 3584 
Q 2397 3584 2469 3576 
Q 2541 3569 2628 3553 
L 2631 2963 
z
" transform="scale(0.015625)"/>
      <path id="DejaVuSans-6f" d="M 1959 3097 
Q 1497 3097 1228 2736 
Q 959 2375 959 1747 
Q 959 1119 1226 758 
Q 1494 397 1959 397 
Q 2419 397 2687 759 
Q 2956 1122 2956 1747 
Q 2956 2369 2687 2733 
Q 2419 3097 1959 3097 
z
M 1959 3584 
Q 2709 3584 3137 3096 
Q 3566 2609 3566 1747 
Q 3566 888 3137 398 
Q 2709 -91 1959 -91 
Q 1206 -91 779 398 
Q 353 888 353 1747 
Q 353 2609 779 3096 
Q 1206 3584 1959 3584 
z
" transform="scale(0.015625)"/>
     </defs>
     <use xlink:href="#DejaVuSans-53"/>
     <use xlink:href="#DejaVuSans-63" x="63.476562"/>
     <use xlink:href="#DejaVuSans-65" x="118.457031"/>
     <use xlink:href="#DejaVuSans-6e" x="179.980469"/>
     <use xlink:href="#DejaVuSans-61" x="243.359375"/>
     <use xlink:href="#DejaVuSans-72" x="304.638672"/>
     <use xlink:href="#DejaVuSans-69" x="345.751953"/>
     <use xlink:href="#DejaVuSans-6f" x="373.535156"/>
     <use xlink:href="#DejaVuSans-20" x="434.716797"/>
     <use xlink:href="#DejaVuSans-32" x="466.503906"/>
    </g>
   </g>
  </g>
 </g>
 <defs>
  <clipPath id="p7b4e052219">
   <rect x="69.666875" y="23.837812" width="441.347704" height="288.9"/>
  </clipPath>
 </defs>
</svg>
