<?xml version="1.0" encoding="utf-8" standalone="no"?>
<!DOCTYPE svg PUBLIC "-//W3C//DTD SVG 1.1//EN"
  "http://www.w3.org/Graphics/SVG/1.1/DTD/svg11.dtd">
<svg xmlns:xlink="http://www.w3.org/1999/xlink" width="531.985625pt" height="350.729687pt" viewBox="0 0 531.985625 350.729687" xmlns="http://www.w3.org/2000/svg" version="1.1">
 <metadata>
  <rdf:RDF xmlns:dc="http://purl.org/dc/elements/1.1/" xmlns:cc="http://creativecommons.org/ns#" xmlns:rdf="http://www.w3.org/1999/02/22-rdf-syntax-ns#">
   <cc:Work>
    <dc:type rdf:resource="http://purl.org/dc/dcmitype/StillImage"/>
    <dc:date>2022-07-25T14:14:14.611315</dc:date>
    <dc:format>image/svg+xml</dc:format>
    <dc:creator>
     <cc:Agent>
      <dc:title>Matplotlib v3.5.1, https://matplotlib.org/</dc:title>
     </cc:Agent>
    </dc:creator>
   </cc:Work>
  </rdf:RDF>
 </metadata>
 <defs>
  <style type="text/css">*{stroke-linejoin: round; stroke-linecap: butt}</style>
 </defs>
 <g id="figure_1">
  <g id="patch_1">
   <path d="M 0 350.729687 
L 531.985625 350.729687 
L 531.985625 0 
L 0 0 
z
" style="fill: #ffffff"/>
  </g>
  <g id="axes_1">
   <g id="patch_2">
    <path d="M 69.666875 312.737812 
L 508.879375 312.737812 
L 508.879375 23.837812 
L 69.666875 23.837812 
z
" style="fill: #ffffff"/>
   </g>
   <g id="matplotlib.axis_1">
    <g id="xtick_1">
     <g id="text_1">
      <!-- 1000 -->
      <g style="fill: #262626" transform="translate(88.637622 325.83625)scale(0.1 -0.1)">
       <defs>
        <path id="DejaVuSans-31" d="M 794 531 
L 1825 531 
L 1825 4091 
L 703 3866 
L 703 4441 
L 1819 4666 
L 2450 4666 
L 2450 531 
L 3481 531 
L 3481 0 
L 794 0 
L 794 531 
z
" transform="scale(0.015625)"/>
        <path id="DejaVuSans-30" d="M 2034 4250 
Q 1547 4250 1301 3770 
Q 1056 3291 1056 2328 
Q 1056 1369 1301 889 
Q 1547 409 2034 409 
Q 2525 409 2770 889 
Q 3016 1369 3016 2328 
Q 3016 3291 2770 3770 
Q 2525 4250 2034 4250 
z
M 2034 4750 
Q 2819 4750 3233 4129 
Q 3647 3509 3647 2328 
Q 3647 1150 3233 529 
Q 2819 -91 2034 -91 
Q 1250 -91 836 529 
Q 422 1150 422 2328 
Q 422 3509 836 4129 
Q 1250 4750 2034 4750 
z
" transform="scale(0.015625)"/>
       </defs>
       <use xlink:href="#DejaVuSans-31"/>
       <use xlink:href="#DejaVuSans-30" x="63.623047"/>
       <use xlink:href="#DejaVuSans-30" x="127.246094"/>
       <use xlink:href="#DejaVuSans-30" x="190.869141"/>
      </g>
     </g>
    </g>
    <g id="xtick_2">
     <g id="text_2">
      <!-- 2000 -->
      <g style="fill: #262626" transform="translate(133.917262 325.83625)scale(0.1 -0.1)">
       <defs>
        <path id="DejaVuSans-32" d="M 1228 531 
L 3431 531 
L 3431 0 
L 469 0 
L 469 531 
Q 828 903 1448 1529 
Q 2069 2156 2228 2338 
Q 2531 2678 2651 2914 
Q 2772 3150 2772 3378 
Q 2772 3750 2511 3984 
Q 2250 4219 1831 4219 
Q 1534 4219 1204 4116 
Q 875 4013 500 3803 
L 500 4441 
Q 881 4594 1212 4672 
Q 1544 4750 1819 4750 
Q 2544 4750 2975 4387 
Q 3406 4025 3406 3419 
Q 3406 3131 3298 2873 
Q 3191 2616 2906 2266 
Q 2828 2175 2409 1742 
Q 1991 1309 1228 531 
z
" transform="scale(0.015625)"/>
       </defs>
       <use xlink:href="#DejaVuSans-32"/>
       <use xlink:href="#DejaVuSans-30" x="63.623047"/>
       <use xlink:href="#DejaVuSans-30" x="127.246094"/>
       <use xlink:href="#DejaVuSans-30" x="190.869141"/>
      </g>
     </g>
    </g>
    <g id="xtick_3">
     <g id="text_3">
      <!-- 3000 -->
      <g style="fill: #262626" transform="translate(179.196901 325.83625)scale(0.1 -0.1)">
       <defs>
        <path id="DejaVuSans-33" d="M 2597 2516 
Q 3050 2419 3304 2112 
Q 3559 1806 3559 1356 
Q 3559 666 3084 287 
Q 2609 -91 1734 -91 
Q 1441 -91 1130 -33 
Q 819 25 488 141 
L 488 750 
Q 750 597 1062 519 
Q 1375 441 1716 441 
Q 2309 441 2620 675 
Q 2931 909 2931 1356 
Q 2931 1769 2642 2001 
Q 2353 2234 1838 2234 
L 1294 2234 
L 1294 2753 
L 1863 2753 
Q 2328 2753 2575 2939 
Q 2822 3125 2822 3475 
Q 2822 3834 2567 4026 
Q 2313 4219 1838 4219 
Q 1578 4219 1281 4162 
Q 984 4106 628 3988 
L 628 4550 
Q 988 4650 1302 4700 
Q 1616 4750 1894 4750 
Q 2613 4750 3031 4423 
Q 3450 4097 3450 3541 
Q 3450 3153 3228 2886 
Q 3006 2619 2597 2516 
z
" transform="scale(0.015625)"/>
       </defs>
       <use xlink:href="#DejaVuSans-33"/>
       <use xlink:href="#DejaVuSans-30" x="63.623047"/>
       <use xlink:href="#DejaVuSans-30" x="127.246094"/>
       <use xlink:href="#DejaVuSans-30" x="190.869141"/>
      </g>
     </g>
    </g>
    <g id="xtick_4">
     <g id="text_4">
      <!-- 4000 -->
      <g style="fill: #262626" transform="translate(224.47654 325.83625)scale(0.1 -0.1)">
       <defs>
        <path id="DejaVuSans-34" d="M 2419 4116 
L 825 1625 
L 2419 1625 
L 2419 4116 
z
M 2253 4666 
L 3047 4666 
L 3047 1625 
L 3713 1625 
L 3713 1100 
L 3047 1100 
L 3047 0 
L 2419 0 
L 2419 1100 
L 313 1100 
L 313 1709 
L 2253 4666 
z
" transform="scale(0.015625)"/>
       </defs>
       <use xlink:href="#DejaVuSans-34"/>
       <use xlink:href="#DejaVuSans-30" x="63.623047"/>
       <use xlink:href="#DejaVuSans-30" x="127.246094"/>
       <use xlink:href="#DejaVuSans-30" x="190.869141"/>
      </g>
     </g>
    </g>
    <g id="xtick_5">
     <g id="text_5">
      <!-- 5000 -->
      <g style="fill: #262626" transform="translate(269.756179 325.83625)scale(0.1 -0.1)">
       <defs>
        <path id="DejaVuSans-35" d="M 691 4666 
L 3169 4666 
L 3169 4134 
L 1269 4134 
L 1269 2991 
Q 1406 3038 1543 3061 
Q 1681 3084 1819 3084 
Q 2600 3084 3056 2656 
Q 3513 2228 3513 1497 
Q 3513 744 3044 326 
Q 2575 -91 1722 -91 
Q 1428 -91 1123 -41 
Q 819 9 494 109 
L 494 744 
Q 775 591 1075 516 
Q 1375 441 1709 441 
Q 2250 441 2565 725 
Q 2881 1009 2881 1497 
Q 2881 1984 2565 2268 
Q 2250 2553 1709 2553 
Q 1456 2553 1204 2497 
Q 953 2441 691 2322 
L 691 4666 
z
" transform="scale(0.015625)"/>
       </defs>
       <use xlink:href="#DejaVuSans-35"/>
       <use xlink:href="#DejaVuSans-30" x="63.623047"/>
       <use xlink:href="#DejaVuSans-30" x="127.246094"/>
       <use xlink:href="#DejaVuSans-30" x="190.869141"/>
      </g>
     </g>
    </g>
    <g id="xtick_6">
     <g id="text_6">
      <!-- 6000 -->
      <g style="fill: #262626" transform="translate(315.035818 325.83625)scale(0.1 -0.1)">
       <defs>
        <path id="DejaVuSans-36" d="M 2113 2584 
Q 1688 2584 1439 2293 
Q 1191 2003 1191 1497 
Q 1191 994 1439 701 
Q 1688 409 2113 409 
Q 2538 409 2786 701 
Q 3034 994 3034 1497 
Q 3034 2003 2786 2293 
Q 2538 2584 2113 2584 
z
M 3366 4563 
L 3366 3988 
Q 3128 4100 2886 4159 
Q 2644 4219 2406 4219 
Q 1781 4219 1451 3797 
Q 1122 3375 1075 2522 
Q 1259 2794 1537 2939 
Q 1816 3084 2150 3084 
Q 2853 3084 3261 2657 
Q 3669 2231 3669 1497 
Q 3669 778 3244 343 
Q 2819 -91 2113 -91 
Q 1303 -91 875 529 
Q 447 1150 447 2328 
Q 447 3434 972 4092 
Q 1497 4750 2381 4750 
Q 2619 4750 2861 4703 
Q 3103 4656 3366 4563 
z
" transform="scale(0.015625)"/>
       </defs>
       <use xlink:href="#DejaVuSans-36"/>
       <use xlink:href="#DejaVuSans-30" x="63.623047"/>
       <use xlink:href="#DejaVuSans-30" x="127.246094"/>
       <use xlink:href="#DejaVuSans-30" x="190.869141"/>
      </g>
     </g>
    </g>
    <g id="xtick_7">
     <g id="text_7">
      <!-- 7000 -->
      <g style="fill: #262626" transform="translate(360.315457 325.83625)scale(0.1 -0.1)">
       <defs>
        <path id="DejaVuSans-37" d="M 525 4666 
L 3525 4666 
L 3525 4397 
L 1831 0 
L 1172 0 
L 2766 4134 
L 525 4134 
L 525 4666 
z
" transform="scale(0.015625)"/>
       </defs>
       <use xlink:href="#DejaVuSans-37"/>
       <use xlink:href="#DejaVuSans-30" x="63.623047"/>
       <use xlink:href="#DejaVuSans-30" x="127.246094"/>
       <use xlink:href="#DejaVuSans-30" x="190.869141"/>
      </g>
     </g>
    </g>
    <g id="xtick_8">
     <g id="text_8">
      <!-- 8000 -->
      <g style="fill: #262626" transform="translate(405.595097 325.83625)scale(0.1 -0.1)">
       <defs>
        <path id="DejaVuSans-38" d="M 2034 2216 
Q 1584 2216 1326 1975 
Q 1069 1734 1069 1313 
Q 1069 891 1326 650 
Q 1584 409 2034 409 
Q 2484 409 2743 651 
Q 3003 894 3003 1313 
Q 3003 1734 2745 1975 
Q 2488 2216 2034 2216 
z
M 1403 2484 
Q 997 2584 770 2862 
Q 544 3141 544 3541 
Q 544 4100 942 4425 
Q 1341 4750 2034 4750 
Q 2731 4750 3128 4425 
Q 3525 4100 3525 3541 
Q 3525 3141 3298 2862 
Q 3072 2584 2669 2484 
Q 3125 2378 3379 2068 
Q 3634 1759 3634 1313 
Q 3634 634 3220 271 
Q 2806 -91 2034 -91 
Q 1263 -91 848 271 
Q 434 634 434 1313 
Q 434 1759 690 2068 
Q 947 2378 1403 2484 
z
M 1172 3481 
Q 1172 3119 1398 2916 
Q 1625 2713 2034 2713 
Q 2441 2713 2670 2916 
Q 2900 3119 2900 3481 
Q 2900 3844 2670 4047 
Q 2441 4250 2034 4250 
Q 1625 4250 1398 4047 
Q 1172 3844 1172 3481 
z
" transform="scale(0.015625)"/>
       </defs>
       <use xlink:href="#DejaVuSans-38"/>
       <use xlink:href="#DejaVuSans-30" x="63.623047"/>
       <use xlink:href="#DejaVuSans-30" x="127.246094"/>
       <use xlink:href="#DejaVuSans-30" x="190.869141"/>
      </g>
     </g>
    </g>
    <g id="xtick_9">
     <g id="text_9">
      <!-- 9000 -->
      <g style="fill: #262626" transform="translate(450.874736 325.83625)scale(0.1 -0.1)">
       <defs>
        <path id="DejaVuSans-39" d="M 703 97 
L 703 672 
Q 941 559 1184 500 
Q 1428 441 1663 441 
Q 2288 441 2617 861 
Q 2947 1281 2994 2138 
Q 2813 1869 2534 1725 
Q 2256 1581 1919 1581 
Q 1219 1581 811 2004 
Q 403 2428 403 3163 
Q 403 3881 828 4315 
Q 1253 4750 1959 4750 
Q 2769 4750 3195 4129 
Q 3622 3509 3622 2328 
Q 3622 1225 3098 567 
Q 2575 -91 1691 -91 
Q 1453 -91 1209 -44 
Q 966 3 703 97 
z
M 1959 2075 
Q 2384 2075 2632 2365 
Q 2881 2656 2881 3163 
Q 2881 3666 2632 3958 
Q 2384 4250 1959 4250 
Q 1534 4250 1286 3958 
Q 1038 3666 1038 3163 
Q 1038 2656 1286 2365 
Q 1534 2075 1959 2075 
z
" transform="scale(0.015625)"/>
       </defs>
       <use xlink:href="#DejaVuSans-39"/>
       <use xlink:href="#DejaVuSans-30" x="63.623047"/>
       <use xlink:href="#DejaVuSans-30" x="127.246094"/>
       <use xlink:href="#DejaVuSans-30" x="190.869141"/>
      </g>
     </g>
    </g>
    <g id="xtick_10">
     <g id="text_10">
      <!-- 10000 -->
      <g style="fill: #262626" transform="translate(492.973125 325.83625)scale(0.1 -0.1)">
       <use xlink:href="#DejaVuSans-31"/>
       <use xlink:href="#DejaVuSans-30" x="63.623047"/>
       <use xlink:href="#DejaVuSans-30" x="127.246094"/>
       <use xlink:href="#DejaVuSans-30" x="190.869141"/>
       <use xlink:href="#DejaVuSans-30" x="254.492188"/>
      </g>
     </g>
    </g>
    <g id="text_11">
     <!-- Animal Units -->
     <g style="fill: #262626" transform="translate(251.265937 341.034062)scale(0.12 -0.12)">
      <defs>
       <path id="DejaVuSans-41" d="M 2188 4044 
L 1331 1722 
L 3047 1722 
L 2188 4044 
z
M 1831 4666 
L 2547 4666 
L 4325 0 
L 3669 0 
L 3244 1197 
L 1141 1197 
L 716 0 
L 50 0 
L 1831 4666 
z
" transform="scale(0.015625)"/>
       <path id="DejaVuSans-6e" d="M 3513 2113 
L 3513 0 
L 2938 0 
L 2938 2094 
Q 2938 2591 2744 2837 
Q 2550 3084 2163 3084 
Q 1697 3084 1428 2787 
Q 1159 2491 1159 1978 
L 1159 0 
L 581 0 
L 581 3500 
L 1159 3500 
L 1159 2956 
Q 1366 3272 1645 3428 
Q 1925 3584 2291 3584 
Q 2894 3584 3203 3211 
Q 3513 2838 3513 2113 
z
" transform="scale(0.015625)"/>
       <path id="DejaVuSans-69" d="M 603 3500 
L 1178 3500 
L 1178 0 
L 603 0 
L 603 3500 
z
M 603 4863 
L 1178 4863 
L 1178 4134 
L 603 4134 
L 603 4863 
z
" transform="scale(0.015625)"/>
       <path id="DejaVuSans-6d" d="M 3328 2828 
Q 3544 3216 3844 3400 
Q 4144 3584 4550 3584 
Q 5097 3584 5394 3201 
Q 5691 2819 5691 2113 
L 5691 0 
L 5113 0 
L 5113 2094 
Q 5113 2597 4934 2840 
Q 4756 3084 4391 3084 
Q 3944 3084 3684 2787 
Q 3425 2491 3425 1978 
L 3425 0 
L 2847 0 
L 2847 2094 
Q 2847 2600 2669 2842 
Q 2491 3084 2119 3084 
Q 1678 3084 1418 2786 
Q 1159 2488 1159 1978 
L 1159 0 
L 581 0 
L 581 3500 
L 1159 3500 
L 1159 2956 
Q 1356 3278 1631 3431 
Q 1906 3584 2284 3584 
Q 2666 3584 2933 3390 
Q 3200 3197 3328 2828 
z
" transform="scale(0.015625)"/>
       <path id="DejaVuSans-61" d="M 2194 1759 
Q 1497 1759 1228 1600 
Q 959 1441 959 1056 
Q 959 750 1161 570 
Q 1363 391 1709 391 
Q 2188 391 2477 730 
Q 2766 1069 2766 1631 
L 2766 1759 
L 2194 1759 
z
M 3341 1997 
L 3341 0 
L 2766 0 
L 2766 531 
Q 2569 213 2275 61 
Q 1981 -91 1556 -91 
Q 1019 -91 701 211 
Q 384 513 384 1019 
Q 384 1609 779 1909 
Q 1175 2209 1959 2209 
L 2766 2209 
L 2766 2266 
Q 2766 2663 2505 2880 
Q 2244 3097 1772 3097 
Q 1472 3097 1187 3025 
Q 903 2953 641 2809 
L 641 3341 
Q 956 3463 1253 3523 
Q 1550 3584 1831 3584 
Q 2591 3584 2966 3190 
Q 3341 2797 3341 1997 
z
" transform="scale(0.015625)"/>
       <path id="DejaVuSans-6c" d="M 603 4863 
L 1178 4863 
L 1178 0 
L 603 0 
L 603 4863 
z
" transform="scale(0.015625)"/>
       <path id="DejaVuSans-20" transform="scale(0.015625)"/>
       <path id="DejaVuSans-55" d="M 556 4666 
L 1191 4666 
L 1191 1831 
Q 1191 1081 1462 751 
Q 1734 422 2344 422 
Q 2950 422 3222 751 
Q 3494 1081 3494 1831 
L 3494 4666 
L 4128 4666 
L 4128 1753 
Q 4128 841 3676 375 
Q 3225 -91 2344 -91 
Q 1459 -91 1007 375 
Q 556 841 556 1753 
L 556 4666 
z
" transform="scale(0.015625)"/>
       <path id="DejaVuSans-74" d="M 1172 4494 
L 1172 3500 
L 2356 3500 
L 2356 3053 
L 1172 3053 
L 1172 1153 
Q 1172 725 1289 603 
Q 1406 481 1766 481 
L 2356 481 
L 2356 0 
L 1766 0 
Q 1100 0 847 248 
Q 594 497 594 1153 
L 594 3053 
L 172 3053 
L 172 3500 
L 594 3500 
L 594 4494 
L 1172 4494 
z
" transform="scale(0.015625)"/>
       <path id="DejaVuSans-73" d="M 2834 3397 
L 2834 2853 
Q 2591 2978 2328 3040 
Q 2066 3103 1784 3103 
Q 1356 3103 1142 2972 
Q 928 2841 928 2578 
Q 928 2378 1081 2264 
Q 1234 2150 1697 2047 
L 1894 2003 
Q 2506 1872 2764 1633 
Q 3022 1394 3022 966 
Q 3022 478 2636 193 
Q 2250 -91 1575 -91 
Q 1294 -91 989 -36 
Q 684 19 347 128 
L 347 722 
Q 666 556 975 473 
Q 1284 391 1588 391 
Q 1994 391 2212 530 
Q 2431 669 2431 922 
Q 2431 1156 2273 1281 
Q 2116 1406 1581 1522 
L 1381 1569 
Q 847 1681 609 1914 
Q 372 2147 372 2553 
Q 372 3047 722 3315 
Q 1072 3584 1716 3584 
Q 2034 3584 2315 3537 
Q 2597 3491 2834 3397 
z
" transform="scale(0.015625)"/>
      </defs>
      <use xlink:href="#DejaVuSans-41"/>
      <use xlink:href="#DejaVuSans-6e" x="68.408203"/>
      <use xlink:href="#DejaVuSans-69" x="131.787109"/>
      <use xlink:href="#DejaVuSans-6d" x="159.570312"/>
      <use xlink:href="#DejaVuSans-61" x="256.982422"/>
      <use xlink:href="#DejaVuSans-6c" x="318.261719"/>
      <use xlink:href="#DejaVuSans-20" x="346.044922"/>
      <use xlink:href="#DejaVuSans-55" x="377.832031"/>
      <use xlink:href="#DejaVuSans-6e" x="451.025391"/>
      <use xlink:href="#DejaVuSans-69" x="514.404297"/>
      <use xlink:href="#DejaVuSans-74" x="542.1875"/>
      <use xlink:href="#DejaVuSans-73" x="581.396484"/>
     </g>
    </g>
   </g>
   <g id="matplotlib.axis_2">
    <g id="ytick_1">
     <g id="text_12">
      <!-- 0.00000 -->
      <g style="fill: #262626" transform="translate(22.81375 303.405213)scale(0.1 -0.1)">
       <defs>
        <path id="DejaVuSans-2e" d="M 684 794 
L 1344 794 
L 1344 0 
L 684 0 
L 684 794 
z
" transform="scale(0.015625)"/>
       </defs>
       <use xlink:href="#DejaVuSans-30"/>
       <use xlink:href="#DejaVuSans-2e" x="63.623047"/>
       <use xlink:href="#DejaVuSans-30" x="95.410156"/>
       <use xlink:href="#DejaVuSans-30" x="159.033203"/>
       <use xlink:href="#DejaVuSans-30" x="222.65625"/>
       <use xlink:href="#DejaVuSans-30" x="286.279297"/>
       <use xlink:href="#DejaVuSans-30" x="349.902344"/>
      </g>
     </g>
    </g>
    <g id="ytick_2">
     <g id="text_13">
      <!-- 0.00005 -->
      <g style="fill: #262626" transform="translate(22.81375 258.858607)scale(0.1 -0.1)">
       <use xlink:href="#DejaVuSans-30"/>
       <use xlink:href="#DejaVuSans-2e" x="63.623047"/>
       <use xlink:href="#DejaVuSans-30" x="95.410156"/>
       <use xlink:href="#DejaVuSans-30" x="159.033203"/>
       <use xlink:href="#DejaVuSans-30" x="222.65625"/>
       <use xlink:href="#DejaVuSans-30" x="286.279297"/>
       <use xlink:href="#DejaVuSans-35" x="349.902344"/>
      </g>
     </g>
    </g>
    <g id="ytick_3">
     <g id="text_14">
      <!-- 0.00010 -->
      <g style="fill: #262626" transform="translate(22.81375 214.312001)scale(0.1 -0.1)">
       <use xlink:href="#DejaVuSans-30"/>
       <use xlink:href="#DejaVuSans-2e" x="63.623047"/>
       <use xlink:href="#DejaVuSans-30" x="95.410156"/>
       <use xlink:href="#DejaVuSans-30" x="159.033203"/>
       <use xlink:href="#DejaVuSans-30" x="222.65625"/>
       <use xlink:href="#DejaVuSans-31" x="286.279297"/>
       <use xlink:href="#DejaVuSans-30" x="349.902344"/>
      </g>
     </g>
    </g>
    <g id="ytick_4">
     <g id="text_15">
      <!-- 0.00015 -->
      <g style="fill: #262626" transform="translate(22.81375 169.765395)scale(0.1 -0.1)">
       <use xlink:href="#DejaVuSans-30"/>
       <use xlink:href="#DejaVuSans-2e" x="63.623047"/>
       <use xlink:href="#DejaVuSans-30" x="95.410156"/>
       <use xlink:href="#DejaVuSans-30" x="159.033203"/>
       <use xlink:href="#DejaVuSans-30" x="222.65625"/>
       <use xlink:href="#DejaVuSans-31" x="286.279297"/>
       <use xlink:href="#DejaVuSans-35" x="349.902344"/>
      </g>
     </g>
    </g>
    <g id="ytick_5">
     <g id="text_16">
      <!-- 0.00020 -->
      <g style="fill: #262626" transform="translate(22.81375 125.218789)scale(0.1 -0.1)">
       <use xlink:href="#DejaVuSans-30"/>
       <use xlink:href="#DejaVuSans-2e" x="63.623047"/>
       <use xlink:href="#DejaVuSans-30" x="95.410156"/>
       <use xlink:href="#DejaVuSans-30" x="159.033203"/>
       <use xlink:href="#DejaVuSans-30" x="222.65625"/>
       <use xlink:href="#DejaVuSans-32" x="286.279297"/>
       <use xlink:href="#DejaVuSans-30" x="349.902344"/>
      </g>
     </g>
    </g>
    <g id="ytick_6">
     <g id="text_17">
      <!-- 0.00025 -->
      <g style="fill: #262626" transform="translate(22.81375 80.672183)scale(0.1 -0.1)">
       <use xlink:href="#DejaVuSans-30"/>
       <use xlink:href="#DejaVuSans-2e" x="63.623047"/>
       <use xlink:href="#DejaVuSans-30" x="95.410156"/>
       <use xlink:href="#DejaVuSans-30" x="159.033203"/>
       <use xlink:href="#DejaVuSans-30" x="222.65625"/>
       <use xlink:href="#DejaVuSans-32" x="286.279297"/>
       <use xlink:href="#DejaVuSans-35" x="349.902344"/>
      </g>
     </g>
    </g>
    <g id="ytick_7">
     <g id="text_18">
      <!-- 0.00030 -->
      <g style="fill: #262626" transform="translate(22.81375 36.125576)scale(0.1 -0.1)">
       <use xlink:href="#DejaVuSans-30"/>
       <use xlink:href="#DejaVuSans-2e" x="63.623047"/>
       <use xlink:href="#DejaVuSans-30" x="95.410156"/>
       <use xlink:href="#DejaVuSans-30" x="159.033203"/>
       <use xlink:href="#DejaVuSans-30" x="222.65625"/>
       <use xlink:href="#DejaVuSans-33" x="286.279297"/>
       <use xlink:href="#DejaVuSans-30" x="349.902344"/>
      </g>
     </g>
    </g>
    <g id="text_19">
     <!-- Density -->
     <g style="fill: #262626" transform="translate(16.318125 191.098125)rotate(-90)scale(0.12 -0.12)">
      <defs>
       <path id="DejaVuSans-44" d="M 1259 4147 
L 1259 519 
L 2022 519 
Q 2988 519 3436 956 
Q 3884 1394 3884 2338 
Q 3884 3275 3436 3711 
Q 2988 4147 2022 4147 
L 1259 4147 
z
M 628 4666 
L 1925 4666 
Q 3281 4666 3915 4102 
Q 4550 3538 4550 2338 
Q 4550 1131 3912 565 
Q 3275 0 1925 0 
L 628 0 
L 628 4666 
z
" transform="scale(0.015625)"/>
       <path id="DejaVuSans-65" d="M 3597 1894 
L 3597 1613 
L 953 1613 
Q 991 1019 1311 708 
Q 1631 397 2203 397 
Q 2534 397 2845 478 
Q 3156 559 3463 722 
L 3463 178 
Q 3153 47 2828 -22 
Q 2503 -91 2169 -91 
Q 1331 -91 842 396 
Q 353 884 353 1716 
Q 353 2575 817 3079 
Q 1281 3584 2069 3584 
Q 2775 3584 3186 3129 
Q 3597 2675 3597 1894 
z
M 3022 2063 
Q 3016 2534 2758 2815 
Q 2500 3097 2075 3097 
Q 1594 3097 1305 2825 
Q 1016 2553 972 2059 
L 3022 2063 
z
" transform="scale(0.015625)"/>
       <path id="DejaVuSans-79" d="M 2059 -325 
Q 1816 -950 1584 -1140 
Q 1353 -1331 966 -1331 
L 506 -1331 
L 506 -850 
L 844 -850 
Q 1081 -850 1212 -737 
Q 1344 -625 1503 -206 
L 1606 56 
L 191 3500 
L 800 3500 
L 1894 763 
L 2988 3500 
L 3597 3500 
L 2059 -325 
z
" transform="scale(0.015625)"/>
      </defs>
      <use xlink:href="#DejaVuSans-44"/>
      <use xlink:href="#DejaVuSans-65" x="77.001953"/>
      <use xlink:href="#DejaVuSans-6e" x="138.525391"/>
      <use xlink:href="#DejaVuSans-73" x="201.904297"/>
      <use xlink:href="#DejaVuSans-69" x="254.003906"/>
      <use xlink:href="#DejaVuSans-74" x="281.787109"/>
      <use xlink:href="#DejaVuSans-79" x="320.996094"/>
     </g>
    </g>
   </g>
   <g id="PolyCollection_1">
    <defs>
     <path id="m62bbcb4b80" d="M 69.666875 -51.123693 
L 69.666875 -142.292728 
L 70.053686 -143.070623 
L 70.440497 -143.85198 
L 70.827308 -144.636774 
L 71.214119 -145.42498 
L 71.60093 -146.216573 
L 71.987741 -147.011526 
L 72.374552 -147.809813 
L 72.761363 -148.611407 
L 73.148174 -149.41628 
L 73.534985 -150.224405 
L 73.921796 -151.035751 
L 74.308607 -151.850289 
L 74.695418 -152.667991 
L 75.082229 -153.488824 
L 75.46904 -154.312758 
L 75.855851 -155.139761 
L 76.242662 -155.969801 
L 76.629473 -156.802846 
L 77.016284 -157.63886 
L 77.403095 -158.477812 
L 77.789906 -159.319665 
L 78.176717 -160.164386 
L 78.563528 -161.011937 
L 78.950339 -161.862284 
L 79.33715 -162.715389 
L 79.723961 -163.571214 
L 80.110772 -164.429722 
L 80.497583 -165.290874 
L 80.884394 -166.154632 
L 81.271205 -167.020954 
L 81.658016 -167.889802 
L 82.044827 -168.761134 
L 82.431638 -169.634909 
L 82.818449 -170.511085 
L 83.20526 -171.389619 
L 83.592071 -172.270469 
L 83.978882 -173.153591 
L 84.365693 -174.03894 
L 84.752504 -174.926473 
L 85.139315 -175.816143 
L 85.526126 -176.707905 
L 85.912936 -177.601713 
L 86.299747 -178.49752 
L 86.686558 -179.395277 
L 87.073369 -180.294939 
L 87.46018 -181.196455 
L 87.846991 -182.099776 
L 88.233802 -183.004854 
L 88.620613 -183.911639 
L 89.007424 -184.820079 
L 89.394235 -185.730123 
L 89.781046 -186.64172 
L 90.167857 -187.554818 
L 90.554668 -188.469364 
L 90.941479 -189.385305 
L 91.32829 -190.302588 
L 91.715101 -191.221157 
L 92.101912 -192.140959 
L 92.488723 -193.061938 
L 92.875534 -193.984039 
L 93.262345 -194.907206 
L 93.649156 -195.831382 
L 94.035967 -196.75651 
L 94.422778 -197.682532 
L 94.809589 -198.609392 
L 95.1964 -199.537029 
L 95.583211 -200.465386 
L 95.970022 -201.394403 
L 96.356833 -202.324021 
L 96.743644 -203.254179 
L 97.130455 -204.184816 
L 97.517266 -205.115872 
L 97.904077 -206.047286 
L 98.290888 -206.978995 
L 98.677699 -207.910937 
L 99.06451 -208.843049 
L 99.451321 -209.775269 
L 99.838132 -210.707533 
L 100.224943 -211.639778 
L 100.611754 -212.571938 
L 100.998565 -213.503951 
L 101.385376 -214.435749 
L 101.772187 -215.36727 
L 102.158998 -216.298446 
L 102.545809 -217.229213 
L 102.93262 -218.159503 
L 103.319431 -219.08925 
L 103.706242 -220.018388 
L 104.093053 -220.946848 
L 104.479864 -221.874565 
L 104.866675 -222.801469 
L 105.253486 -223.727493 
L 105.640297 -224.652568 
L 106.027108 -225.576626 
L 106.413919 -226.499598 
L 106.80073 -227.421415 
L 107.187541 -228.342007 
L 107.574352 -229.261305 
L 107.961163 -230.179239 
L 108.347974 -231.095739 
L 108.734785 -232.010734 
L 109.121596 -232.924154 
L 109.508407 -233.835929 
L 109.895218 -234.745987 
L 110.282029 -235.654258 
L 110.66884 -236.56067 
L 111.055651 -237.465151 
L 111.442462 -238.367632 
L 111.829273 -239.268039 
L 112.216084 -240.166301 
L 112.602895 -241.062345 
L 112.989706 -241.956101 
L 113.376517 -242.847496 
L 113.763328 -243.736457 
L 114.150139 -244.622913 
L 114.53695 -245.50679 
L 114.923761 -246.388017 
L 115.310572 -247.266521 
L 115.697383 -248.142229 
L 116.084194 -249.015069 
L 116.471005 -249.884968 
L 116.857816 -250.751854 
L 117.244627 -251.615653 
L 117.631438 -252.476293 
L 118.018248 -253.333702 
L 118.405059 -254.187807 
L 118.79187 -255.038535 
L 119.178681 -255.885814 
L 119.565492 -256.729572 
L 119.952303 -257.569735 
L 120.339114 -258.406232 
L 120.725925 -259.23899 
L 121.112736 -260.067936 
L 121.499547 -260.893 
L 121.886358 -261.714109 
L 122.273169 -262.531191 
L 122.65998 -263.344175 
L 123.046791 -264.152989 
L 123.433602 -264.957561 
L 123.820413 -265.75782 
L 124.207224 -266.553696 
L 124.594035 -267.345116 
L 124.980846 -268.132012 
L 125.367657 -268.914312 
L 125.754468 -269.691946 
L 126.141279 -270.464843 
L 126.52809 -271.232935 
L 126.914901 -271.996151 
L 127.301712 -272.754423 
L 127.688523 -273.507681 
L 128.075334 -274.255857 
L 128.462145 -274.998882 
L 128.848956 -275.736688 
L 129.235767 -276.469207 
L 129.622578 -277.196372 
L 130.009389 -277.918115 
L 130.3962 -278.63437 
L 130.783011 -279.34507 
L 131.169822 -280.05015 
L 131.556633 -280.749543 
L 131.943444 -281.443183 
L 132.330255 -282.131007 
L 132.717066 -282.81295 
L 133.103877 -283.488947 
L 133.490688 -284.158934 
L 133.877499 -284.822849 
L 134.26431 -285.480628 
L 134.651121 -286.13221 
L 135.037932 -286.777532 
L 135.424743 -287.416532 
L 135.811554 -288.049151 
L 136.198365 -288.675326 
L 136.585176 -289.294999 
L 136.971987 -289.90811 
L 137.358798 -290.514599 
L 137.745609 -291.11441 
L 138.13242 -291.707482 
L 138.519231 -292.29376 
L 138.906042 -292.873187 
L 139.292853 -293.445706 
L 139.679664 -294.011262 
L 140.066475 -294.569799 
L 140.453286 -295.121264 
L 140.840097 -295.665602 
L 141.226908 -296.20276 
L 141.613719 -296.732686 
L 142.00053 -297.255327 
L 142.387341 -297.770632 
L 142.774152 -298.278552 
L 143.160963 -298.779034 
L 143.547774 -299.272031 
L 143.934585 -299.757493 
L 144.321396 -300.235373 
L 144.708207 -300.705622 
L 145.095018 -301.168195 
L 145.481829 -301.623046 
L 145.86864 -302.070129 
L 146.255451 -302.509399 
L 146.642262 -302.940814 
L 146.642262 -51.123693 
L 146.642262 -51.123693 
L 146.255451 -51.123693 
L 145.86864 -51.123693 
L 145.481829 -51.123693 
L 145.095018 -51.123693 
L 144.708207 -51.123693 
L 144.321396 -51.123693 
L 143.934585 -51.123693 
L 143.547774 -51.123693 
L 143.160963 -51.123693 
L 142.774152 -51.123693 
L 142.387341 -51.123693 
L 142.00053 -51.123693 
L 141.613719 -51.123693 
L 141.226908 -51.123693 
L 140.840097 -51.123693 
L 140.453286 -51.123693 
L 140.066475 -51.123693 
L 139.679664 -51.123693 
L 139.292853 -51.123693 
L 138.906042 -51.123693 
L 138.519231 -51.123693 
L 138.13242 -51.123693 
L 137.745609 -51.123693 
L 137.358798 -51.123693 
L 136.971987 -51.123693 
L 136.585176 -51.123693 
L 136.198365 -51.123693 
L 135.811554 -51.123693 
L 135.424743 -51.123693 
L 135.037932 -51.123693 
L 134.651121 -51.123693 
L 134.26431 -51.123693 
L 133.877499 -51.123693 
L 133.490688 -51.123693 
L 133.103877 -51.123693 
L 132.717066 -51.123693 
L 132.330255 -51.123693 
L 131.943444 -51.123693 
L 131.556633 -51.123693 
L 131.169822 -51.123693 
L 130.783011 -51.123693 
L 130.3962 -51.123693 
L 130.009389 -51.123693 
L 129.622578 -51.123693 
L 129.235767 -51.123693 
L 128.848956 -51.123693 
L 128.462145 -51.123693 
L 128.075334 -51.123693 
L 127.688523 -51.123693 
L 127.301712 -51.123693 
L 126.914901 -51.123693 
L 126.52809 -51.123693 
L 126.141279 -51.123693 
L 125.754468 -51.123693 
L 125.367657 -51.123693 
L 124.980846 -51.123693 
L 124.594035 -51.123693 
L 124.207224 -51.123693 
L 123.820413 -51.123693 
L 123.433602 -51.123693 
L 123.046791 -51.123693 
L 122.65998 -51.123693 
L 122.273169 -51.123693 
L 121.886358 -51.123693 
L 121.499547 -51.123693 
L 121.112736 -51.123693 
L 120.725925 -51.123693 
L 120.339114 -51.123693 
L 119.952303 -51.123693 
L 119.565492 -51.123693 
L 119.178681 -51.123693 
L 118.79187 -51.123693 
L 118.405059 -51.123693 
L 118.018248 -51.123693 
L 117.631438 -51.123693 
L 117.244627 -51.123693 
L 116.857816 -51.123693 
L 116.471005 -51.123693 
L 116.084194 -51.123693 
L 115.697383 -51.123693 
L 115.310572 -51.123693 
L 114.923761 -51.123693 
L 114.53695 -51.123693 
L 114.150139 -51.123693 
L 113.763328 -51.123693 
L 113.376517 -51.123693 
L 112.989706 -51.123693 
L 112.602895 -51.123693 
L 112.216084 -51.123693 
L 111.829273 -51.123693 
L 111.442462 -51.123693 
L 111.055651 -51.123693 
L 110.66884 -51.123693 
L 110.282029 -51.123693 
L 109.895218 -51.123693 
L 109.508407 -51.123693 
L 109.121596 -51.123693 
L 108.734785 -51.123693 
L 108.347974 -51.123693 
L 107.961163 -51.123693 
L 107.574352 -51.123693 
L 107.187541 -51.123693 
L 106.80073 -51.123693 
L 106.413919 -51.123693 
L 106.027108 -51.123693 
L 105.640297 -51.123693 
L 105.253486 -51.123693 
L 104.866675 -51.123693 
L 104.479864 -51.123693 
L 104.093053 -51.123693 
L 103.706242 -51.123693 
L 103.319431 -51.123693 
L 102.93262 -51.123693 
L 102.545809 -51.123693 
L 102.158998 -51.123693 
L 101.772187 -51.123693 
L 101.385376 -51.123693 
L 100.998565 -51.123693 
L 100.611754 -51.123693 
L 100.224943 -51.123693 
L 99.838132 -51.123693 
L 99.451321 -51.123693 
L 99.06451 -51.123693 
L 98.677699 -51.123693 
L 98.290888 -51.123693 
L 97.904077 -51.123693 
L 97.517266 -51.123693 
L 97.130455 -51.123693 
L 96.743644 -51.123693 
L 96.356833 -51.123693 
L 95.970022 -51.123693 
L 95.583211 -51.123693 
L 95.1964 -51.123693 
L 94.809589 -51.123693 
L 94.422778 -51.123693 
L 94.035967 -51.123693 
L 93.649156 -51.123693 
L 93.262345 -51.123693 
L 92.875534 -51.123693 
L 92.488723 -51.123693 
L 92.101912 -51.123693 
L 91.715101 -51.123693 
L 91.32829 -51.123693 
L 90.941479 -51.123693 
L 90.554668 -51.123693 
L 90.167857 -51.123693 
L 89.781046 -51.123693 
L 89.394235 -51.123693 
L 89.007424 -51.123693 
L 88.620613 -51.123693 
L 88.233802 -51.123693 
L 87.846991 -51.123693 
L 87.46018 -51.123693 
L 87.073369 -51.123693 
L 86.686558 -51.123693 
L 86.299747 -51.123693 
L 85.912936 -51.123693 
L 85.526126 -51.123693 
L 85.139315 -51.123693 
L 84.752504 -51.123693 
L 84.365693 -51.123693 
L 83.978882 -51.123693 
L 83.592071 -51.123693 
L 83.20526 -51.123693 
L 82.818449 -51.123693 
L 82.431638 -51.123693 
L 82.044827 -51.123693 
L 81.658016 -51.123693 
L 81.271205 -51.123693 
L 80.884394 -51.123693 
L 80.497583 -51.123693 
L 80.110772 -51.123693 
L 79.723961 -51.123693 
L 79.33715 -51.123693 
L 78.950339 -51.123693 
L 78.563528 -51.123693 
L 78.176717 -51.123693 
L 77.789906 -51.123693 
L 77.403095 -51.123693 
L 77.016284 -51.123693 
L 76.629473 -51.123693 
L 76.242662 -51.123693 
L 75.855851 -51.123693 
L 75.46904 -51.123693 
L 75.082229 -51.123693 
L 74.695418 -51.123693 
L 74.308607 -51.123693 
L 73.921796 -51.123693 
L 73.534985 -51.123693 
L 73.148174 -51.123693 
L 72.761363 -51.123693 
L 72.374552 -51.123693 
L 71.987741 -51.123693 
L 71.60093 -51.123693 
L 71.214119 -51.123693 
L 70.827308 -51.123693 
L 70.440497 -51.123693 
L 70.053686 -51.123693 
L 69.666875 -51.123693 
z
" style="stroke: #0000ff; stroke-opacity: 0.2"/>
    </defs>
    <g clip-path="url(#p985b44f6ae)">
     <use xlink:href="#m62bbcb4b80" x="0" y="350.729687" style="fill: #0000ff; fill-opacity: 0.2; stroke: #0000ff; stroke-opacity: 0.2"/>
    </g>
   </g>
   <g id="PolyCollection_2">
    <defs>
     <path id="m7daf644591" d="M 146.642262 -51.123693 
L 146.642262 -302.940814 
L 147.324869 -303.682837 
L 148.007477 -304.400031 
L 148.690084 -305.092171 
L 149.372692 -305.759041 
L 150.0553 -306.400433 
L 150.737907 -307.016144 
L 151.420515 -307.605982 
L 152.103123 -308.169761 
L 152.78573 -308.707304 
L 153.468338 -309.21844 
L 154.150945 -309.703008 
L 154.833553 -310.160855 
L 155.516161 -310.591836 
L 156.198768 -310.995814 
L 156.881376 -311.372661 
L 157.563984 -311.722256 
L 158.246591 -312.04449 
L 158.929199 -312.339258 
L 159.611806 -312.606468 
L 160.294414 -312.846033 
L 160.977022 -313.057879 
L 161.659629 -313.241936 
L 162.342237 -313.398146 
L 163.024845 -313.526459 
L 163.707452 -313.626834 
L 164.39006 -313.69924 
L 165.072667 -313.743652 
L 165.755275 -313.760057 
L 166.437883 -313.748449 
L 167.12049 -313.708832 
L 167.803098 -313.64122 
L 168.485706 -313.545632 
L 169.168313 -313.422101 
L 169.850921 -313.270665 
L 170.533528 -313.091373 
L 171.216136 -312.884282 
L 171.898744 -312.649458 
L 172.581351 -312.386977 
L 173.263959 -312.096921 
L 173.946567 -311.779384 
L 174.629174 -311.434467 
L 175.311782 -311.062279 
L 175.99439 -310.662938 
L 176.676997 -310.236572 
L 177.359605 -309.783316 
L 178.042212 -309.303313 
L 178.72482 -308.796716 
L 179.407428 -308.263684 
L 180.090035 -307.704385 
L 180.772643 -307.118997 
L 181.455251 -306.507703 
L 182.137858 -305.870695 
L 182.820466 -305.208174 
L 183.503073 -304.520346 
L 184.185681 -303.807427 
L 184.868289 -303.06964 
L 185.550896 -302.307213 
L 186.233504 -301.520384 
L 186.916112 -300.709397 
L 187.598719 -299.874503 
L 188.281327 -299.01596 
L 188.963934 -298.134032 
L 189.646542 -297.22899 
L 190.32915 -296.301111 
L 191.011757 -295.35068 
L 191.694365 -294.377985 
L 192.376973 -293.383324 
L 193.05958 -292.366996 
L 193.742188 -291.32931 
L 194.424795 -290.270578 
L 195.107403 -289.191118 
L 195.790011 -288.091254 
L 196.472618 -286.971314 
L 197.155226 -285.831632 
L 197.837834 -284.672544 
L 198.520441 -283.494394 
L 199.203049 -282.297528 
L 199.885656 -281.082298 
L 200.568264 -279.849058 
L 201.250872 -278.598168 
L 201.933479 -277.32999 
L 202.616087 -276.04489 
L 203.298695 -274.743238 
L 203.981302 -273.425406 
L 204.66391 -272.091771 
L 205.346517 -270.742709 
L 206.029125 -269.378604 
L 206.711733 -267.999837 
L 207.39434 -266.606795 
L 208.076948 -265.199866 
L 208.759556 -263.77944 
L 209.442163 -262.345908 
L 210.124771 -260.899662 
L 210.807378 -259.441099 
L 211.489986 -257.970613 
L 212.172594 -256.488601 
L 212.855201 -254.995461 
L 213.537809 -253.491591 
L 214.220417 -251.977389 
L 214.903024 -250.453256 
L 215.585632 -248.919589 
L 216.268239 -247.376789 
L 216.950847 -245.825254 
L 217.633455 -244.265383 
L 218.316062 -242.697574 
L 218.99867 -241.122226 
L 219.681278 -239.539733 
L 220.363885 -237.950493 
L 221.046493 -236.3549 
L 221.7291 -234.753346 
L 222.411708 -233.146223 
L 223.094316 -231.533923 
L 223.776923 -229.916832 
L 224.459531 -228.295337 
L 225.142139 -226.669822 
L 225.824746 -225.04067 
L 226.507354 -223.40826 
L 227.189961 -221.772969 
L 227.872569 -220.135172 
L 228.555177 -218.49524 
L 229.237784 -216.853543 
L 229.920392 -215.210446 
L 230.603 -213.566312 
L 231.285607 -211.921499 
L 231.968215 -210.276365 
L 232.650822 -208.631261 
L 233.33343 -206.986537 
L 234.016038 -205.342537 
L 234.698645 -203.699602 
L 235.381253 -202.058071 
L 236.063861 -200.418275 
L 236.746468 -198.780544 
L 237.429076 -197.145203 
L 238.111683 -195.512572 
L 238.794291 -193.882967 
L 239.476899 -192.2567 
L 240.159506 -190.634078 
L 240.842114 -189.015402 
L 241.524722 -187.400971 
L 242.207329 -185.791077 
L 242.889937 -184.186008 
L 243.572544 -182.586046 
L 244.255152 -180.99147 
L 244.93776 -179.402552 
L 245.620367 -177.81956 
L 246.302975 -176.242756 
L 246.985583 -174.672397 
L 247.66819 -173.108737 
L 248.350798 -171.55202 
L 249.033405 -170.002489 
L 249.716013 -168.46038 
L 250.398621 -166.925922 
L 251.081228 -165.399342 
L 251.763836 -163.880858 
L 252.446444 -162.370686 
L 253.129051 -160.869033 
L 253.811659 -159.376103 
L 254.494266 -157.892093 
L 255.176874 -156.417196 
L 255.859482 -154.951598 
L 256.542089 -153.49548 
L 257.224697 -152.049018 
L 257.907305 -150.612381 
L 258.589912 -149.185735 
L 259.27252 -147.769237 
L 259.955127 -146.363041 
L 260.637735 -144.967295 
L 261.320343 -143.582142 
L 262.00295 -142.207718 
L 262.685558 -140.844156 
L 263.368166 -139.49158 
L 264.050773 -138.150112 
L 264.733381 -136.819867 
L 265.415988 -135.500955 
L 266.098596 -134.193481 
L 266.781204 -132.897545 
L 267.463811 -131.61324 
L 268.146419 -130.340657 
L 268.829027 -129.079877 
L 269.511634 -127.830982 
L 270.194242 -126.594044 
L 270.876849 -125.369133 
L 271.559457 -124.156313 
L 272.242065 -122.955642 
L 272.924672 -121.767175 
L 273.60728 -120.590961 
L 274.289888 -119.427045 
L 274.972495 -118.275468 
L 275.655103 -117.136265 
L 276.33771 -116.009466 
L 277.020318 -114.895099 
L 277.702926 -113.793186 
L 278.385533 -112.703744 
L 279.068141 -111.626787 
L 279.750749 -110.562325 
L 280.433356 -109.510362 
L 281.115964 -108.4709 
L 281.798571 -107.443936 
L 282.481179 -106.429464 
L 282.481179 -51.123693 
L 282.481179 -51.123693 
L 281.798571 -51.123693 
L 281.115964 -51.123693 
L 280.433356 -51.123693 
L 279.750749 -51.123693 
L 279.068141 -51.123693 
L 278.385533 -51.123693 
L 277.702926 -51.123693 
L 277.020318 -51.123693 
L 276.33771 -51.123693 
L 275.655103 -51.123693 
L 274.972495 -51.123693 
L 274.289888 -51.123693 
L 273.60728 -51.123693 
L 272.924672 -51.123693 
L 272.242065 -51.123693 
L 271.559457 -51.123693 
L 270.876849 -51.123693 
L 270.194242 -51.123693 
L 269.511634 -51.123693 
L 268.829027 -51.123693 
L 268.146419 -51.123693 
L 267.463811 -51.123693 
L 266.781204 -51.123693 
L 266.098596 -51.123693 
L 265.415988 -51.123693 
L 264.733381 -51.123693 
L 264.050773 -51.123693 
L 263.368166 -51.123693 
L 262.685558 -51.123693 
L 262.00295 -51.123693 
L 261.320343 -51.123693 
L 260.637735 -51.123693 
L 259.955127 -51.123693 
L 259.27252 -51.123693 
L 258.589912 -51.123693 
L 257.907305 -51.123693 
L 257.224697 -51.123693 
L 256.542089 -51.123693 
L 255.859482 -51.123693 
L 255.176874 -51.123693 
L 254.494266 -51.123693 
L 253.811659 -51.123693 
L 253.129051 -51.123693 
L 252.446444 -51.123693 
L 251.763836 -51.123693 
L 251.081228 -51.123693 
L 250.398621 -51.123693 
L 249.716013 -51.123693 
L 249.033405 -51.123693 
L 248.350798 -51.123693 
L 247.66819 -51.123693 
L 246.985583 -51.123693 
L 246.302975 -51.123693 
L 245.620367 -51.123693 
L 244.93776 -51.123693 
L 244.255152 -51.123693 
L 243.572544 -51.123693 
L 242.889937 -51.123693 
L 242.207329 -51.123693 
L 241.524722 -51.123693 
L 240.842114 -51.123693 
L 240.159506 -51.123693 
L 239.476899 -51.123693 
L 238.794291 -51.123693 
L 238.111683 -51.123693 
L 237.429076 -51.123693 
L 236.746468 -51.123693 
L 236.063861 -51.123693 
L 235.381253 -51.123693 
L 234.698645 -51.123693 
L 234.016038 -51.123693 
L 233.33343 -51.123693 
L 232.650822 -51.123693 
L 231.968215 -51.123693 
L 231.285607 -51.123693 
L 230.603 -51.123693 
L 229.920392 -51.123693 
L 229.237784 -51.123693 
L 228.555177 -51.123693 
L 227.872569 -51.123693 
L 227.189961 -51.123693 
L 226.507354 -51.123693 
L 225.824746 -51.123693 
L 225.142139 -51.123693 
L 224.459531 -51.123693 
L 223.776923 -51.123693 
L 223.094316 -51.123693 
L 222.411708 -51.123693 
L 221.7291 -51.123693 
L 221.046493 -51.123693 
L 220.363885 -51.123693 
L 219.681278 -51.123693 
L 218.99867 -51.123693 
L 218.316062 -51.123693 
L 217.633455 -51.123693 
L 216.950847 -51.123693 
L 216.268239 -51.123693 
L 215.585632 -51.123693 
L 214.903024 -51.123693 
L 214.220417 -51.123693 
L 213.537809 -51.123693 
L 212.855201 -51.123693 
L 212.172594 -51.123693 
L 211.489986 -51.123693 
L 210.807378 -51.123693 
L 210.124771 -51.123693 
L 209.442163 -51.123693 
L 208.759556 -51.123693 
L 208.076948 -51.123693 
L 207.39434 -51.123693 
L 206.711733 -51.123693 
L 206.029125 -51.123693 
L 205.346517 -51.123693 
L 204.66391 -51.123693 
L 203.981302 -51.123693 
L 203.298695 -51.123693 
L 202.616087 -51.123693 
L 201.933479 -51.123693 
L 201.250872 -51.123693 
L 200.568264 -51.123693 
L 199.885656 -51.123693 
L 199.203049 -51.123693 
L 198.520441 -51.123693 
L 197.837834 -51.123693 
L 197.155226 -51.123693 
L 196.472618 -51.123693 
L 195.790011 -51.123693 
L 195.107403 -51.123693 
L 194.424795 -51.123693 
L 193.742188 -51.123693 
L 193.05958 -51.123693 
L 192.376973 -51.123693 
L 191.694365 -51.123693 
L 191.011757 -51.123693 
L 190.32915 -51.123693 
L 189.646542 -51.123693 
L 188.963934 -51.123693 
L 188.281327 -51.123693 
L 187.598719 -51.123693 
L 186.916112 -51.123693 
L 186.233504 -51.123693 
L 185.550896 -51.123693 
L 184.868289 -51.123693 
L 184.185681 -51.123693 
L 183.503073 -51.123693 
L 182.820466 -51.123693 
L 182.137858 -51.123693 
L 181.455251 -51.123693 
L 180.772643 -51.123693 
L 180.090035 -51.123693 
L 179.407428 -51.123693 
L 178.72482 -51.123693 
L 178.042212 -51.123693 
L 177.359605 -51.123693 
L 176.676997 -51.123693 
L 175.99439 -51.123693 
L 175.311782 -51.123693 
L 174.629174 -51.123693 
L 173.946567 -51.123693 
L 173.263959 -51.123693 
L 172.581351 -51.123693 
L 171.898744 -51.123693 
L 171.216136 -51.123693 
L 170.533528 -51.123693 
L 169.850921 -51.123693 
L 169.168313 -51.123693 
L 168.485706 -51.123693 
L 167.803098 -51.123693 
L 167.12049 -51.123693 
L 166.437883 -51.123693 
L 165.755275 -51.123693 
L 165.072667 -51.123693 
L 164.39006 -51.123693 
L 163.707452 -51.123693 
L 163.024845 -51.123693 
L 162.342237 -51.123693 
L 161.659629 -51.123693 
L 160.977022 -51.123693 
L 160.294414 -51.123693 
L 159.611806 -51.123693 
L 158.929199 -51.123693 
L 158.246591 -51.123693 
L 157.563984 -51.123693 
L 156.881376 -51.123693 
L 156.198768 -51.123693 
L 155.516161 -51.123693 
L 154.833553 -51.123693 
L 154.150945 -51.123693 
L 153.468338 -51.123693 
L 152.78573 -51.123693 
L 152.103123 -51.123693 
L 151.420515 -51.123693 
L 150.737907 -51.123693 
L 150.0553 -51.123693 
L 149.372692 -51.123693 
L 148.690084 -51.123693 
L 148.007477 -51.123693 
L 147.324869 -51.123693 
L 146.642262 -51.123693 
z
" style="stroke: #0000ff; stroke-opacity: 0.2"/>
    </defs>
    <g clip-path="url(#p985b44f6ae)">
     <use xlink:href="#m7daf644591" x="0" y="350.729687" style="fill: #0000ff; fill-opacity: 0.2; stroke: #0000ff; stroke-opacity: 0.2"/>
    </g>
   </g>
   <g id="PolyCollection_3">
    <defs>
     <path id="m4be8888217" d="M 282.481179 -51.123693 
L 282.481179 -106.429464 
L 283.618858 -104.766404 
L 284.756538 -103.13794 
L 285.894217 -101.543972 
L 287.031897 -99.984371 
L 288.169576 -98.458985 
L 289.307255 -96.967636 
L 290.444935 -95.51012 
L 291.582614 -94.086212 
L 292.720294 -92.695664 
L 293.857973 -91.338206 
L 294.995652 -90.01355 
L 296.133332 -88.721386 
L 297.271011 -87.461388 
L 298.40869 -86.233212 
L 299.54637 -85.036498 
L 300.684049 -83.87087 
L 301.821729 -82.735939 
L 302.959408 -81.631301 
L 304.097087 -80.556541 
L 305.234767 -79.511232 
L 306.372446 -78.494936 
L 307.510125 -77.507207 
L 308.647805 -76.547587 
L 309.785484 -75.615613 
L 310.923164 -74.710813 
L 312.060843 -73.832709 
L 313.198522 -72.980819 
L 314.336202 -72.154654 
L 315.473881 -71.353722 
L 316.61156 -70.577527 
L 317.74924 -69.825572 
L 318.886919 -69.097357 
L 320.024599 -68.39238 
L 321.162278 -67.710138 
L 322.299957 -67.050131 
L 323.437637 -66.411857 
L 324.575316 -65.794815 
L 325.712995 -65.198506 
L 326.850675 -64.622434 
L 327.988354 -64.066106 
L 329.126034 -63.529029 
L 330.263713 -63.010717 
L 331.401392 -62.510687 
L 332.539072 -62.028459 
L 333.676751 -61.56356 
L 334.81443 -61.11552 
L 335.95211 -60.683874 
L 337.089789 -60.268166 
L 338.227469 -59.867944 
L 339.365148 -59.48276 
L 340.502827 -59.112177 
L 341.640507 -58.755761 
L 342.778186 -58.413087 
L 343.915865 -58.083737 
L 345.053545 -57.767298 
L 346.191224 -57.463368 
L 347.328904 -57.17155 
L 348.466583 -56.891455 
L 349.604262 -56.622703 
L 350.741942 -56.36492 
L 351.879621 -56.117742 
L 353.0173 -55.880811 
L 354.15498 -55.653778 
L 355.292659 -55.436302 
L 356.430339 -55.228051 
L 357.568018 -55.028699 
L 358.705697 -54.837928 
L 359.843377 -54.655431 
L 360.981056 -54.480906 
L 362.118735 -54.31406 
L 363.256415 -54.154608 
L 364.394094 -54.002272 
L 365.531774 -53.856782 
L 366.669453 -53.717877 
L 367.807132 -53.585303 
L 368.944812 -53.458811 
L 370.082491 -53.338164 
L 371.22017 -53.223127 
L 372.35785 -53.113477 
L 373.495529 -53.008995 
L 374.633209 -52.90947 
L 375.770888 -52.814698 
L 376.908567 -52.724481 
L 378.046247 -52.638628 
L 379.183926 -52.556956 
L 380.321605 -52.479284 
L 381.459285 -52.405442 
L 382.596964 -52.335263 
L 383.734644 -52.268588 
L 384.872323 -52.205261 
L 386.010002 -52.145134 
L 387.147682 -52.088064 
L 388.285361 -52.033913 
L 389.42304 -51.982548 
L 390.56072 -51.933842 
L 391.698399 -51.887671 
L 392.836079 -51.843919 
L 393.973758 -51.80247 
L 395.111437 -51.763218 
L 396.249117 -51.726057 
L 397.386796 -51.690887 
L 398.524476 -51.657613 
L 399.662155 -51.626142 
L 400.799834 -51.596385 
L 401.937514 -51.568259 
L 403.075193 -51.541683 
L 404.212872 -51.516579 
L 405.350552 -51.492874 
L 406.488231 -51.470496 
L 407.625911 -51.449378 
L 408.76359 -51.429455 
L 409.901269 -51.410666 
L 411.038949 -51.392951 
L 412.176628 -51.376256 
L 413.314307 -51.360525 
L 414.451987 -51.345709 
L 415.589666 -51.331757 
L 416.727346 -51.318625 
L 417.865025 -51.306267 
L 419.002704 -51.294642 
L 420.140384 -51.28371 
L 421.278063 -51.273433 
L 422.415742 -51.263774 
L 423.553422 -51.2547 
L 424.691101 -51.246177 
L 425.828781 -51.238174 
L 426.96646 -51.230663 
L 428.104139 -51.223615 
L 429.241819 -51.217003 
L 430.379498 -51.210804 
L 431.517177 -51.204992 
L 432.654857 -51.199545 
L 433.792536 -51.194442 
L 434.930216 -51.189664 
L 436.067895 -51.185189 
L 437.205574 -51.181001 
L 438.343254 -51.177083 
L 439.480933 -51.173417 
L 440.618612 -51.16999 
L 441.756292 -51.166786 
L 442.893971 -51.163792 
L 444.031651 -51.160995 
L 445.16933 -51.158383 
L 446.307009 -51.155944 
L 447.444689 -51.153667 
L 448.582368 -51.151544 
L 449.720047 -51.149562 
L 450.857727 -51.147715 
L 451.995406 -51.145993 
L 453.133086 -51.144389 
L 454.270765 -51.142894 
L 455.408444 -51.141502 
L 456.546124 -51.140205 
L 457.683803 -51.138999 
L 458.821482 -51.137877 
L 459.959162 -51.136833 
L 461.096841 -51.135862 
L 462.234521 -51.13496 
L 463.3722 -51.134121 
L 464.509879 -51.133342 
L 465.647559 -51.132619 
L 466.785238 -51.131947 
L 467.922917 -51.131324 
L 469.060597 -51.130745 
L 470.198276 -51.130209 
L 471.335956 -51.129711 
L 472.473635 -51.12925 
L 473.611314 -51.128823 
L 474.748994 -51.128427 
L 475.886673 -51.12806 
L 477.024352 -51.127721 
L 478.162032 -51.127407 
L 479.299711 -51.127116 
L 480.437391 -51.126847 
L 481.57507 -51.126599 
L 482.712749 -51.126369 
L 483.850429 -51.126157 
L 484.988108 -51.125961 
L 486.125787 -51.125779 
L 487.263467 -51.125612 
L 488.401146 -51.125458 
L 489.538826 -51.125315 
L 490.676505 -51.125184 
L 491.814184 -51.125063 
L 492.951864 -51.124951 
L 494.089543 -51.124848 
L 495.227222 -51.124753 
L 496.364902 -51.124666 
L 497.502581 -51.124586 
L 498.640261 -51.124512 
L 499.77794 -51.124444 
L 500.915619 -51.124381 
L 502.053299 -51.124324 
L 503.190978 -51.124271 
L 504.328657 -51.124222 
L 505.466337 -51.124177 
L 506.604016 -51.124136 
L 507.741696 -51.124099 
L 508.879375 -51.124064 
L 508.879375 -51.123693 
L 508.879375 -51.123693 
L 507.741696 -51.123693 
L 506.604016 -51.123693 
L 505.466337 -51.123693 
L 504.328657 -51.123693 
L 503.190978 -51.123693 
L 502.053299 -51.123693 
L 500.915619 -51.123693 
L 499.77794 -51.123693 
L 498.640261 -51.123693 
L 497.502581 -51.123693 
L 496.364902 -51.123693 
L 495.227222 -51.123693 
L 494.089543 -51.123693 
L 492.951864 -51.123693 
L 491.814184 -51.123693 
L 490.676505 -51.123693 
L 489.538826 -51.123693 
L 488.401146 -51.123693 
L 487.263467 -51.123693 
L 486.125787 -51.123693 
L 484.988108 -51.123693 
L 483.850429 -51.123693 
L 482.712749 -51.123693 
L 481.57507 -51.123693 
L 480.437391 -51.123693 
L 479.299711 -51.123693 
L 478.162032 -51.123693 
L 477.024352 -51.123693 
L 475.886673 -51.123693 
L 474.748994 -51.123693 
L 473.611314 -51.123693 
L 472.473635 -51.123693 
L 471.335956 -51.123693 
L 470.198276 -51.123693 
L 469.060597 -51.123693 
L 467.922917 -51.123693 
L 466.785238 -51.123693 
L 465.647559 -51.123693 
L 464.509879 -51.123693 
L 463.3722 -51.123693 
L 462.234521 -51.123693 
L 461.096841 -51.123693 
L 459.959162 -51.123693 
L 458.821482 -51.123693 
L 457.683803 -51.123693 
L 456.546124 -51.123693 
L 455.408444 -51.123693 
L 454.270765 -51.123693 
L 453.133086 -51.123693 
L 451.995406 -51.123693 
L 450.857727 -51.123693 
L 449.720047 -51.123693 
L 448.582368 -51.123693 
L 447.444689 -51.123693 
L 446.307009 -51.123693 
L 445.16933 -51.123693 
L 444.031651 -51.123693 
L 442.893971 -51.123693 
L 441.756292 -51.123693 
L 440.618612 -51.123693 
L 439.480933 -51.123693 
L 438.343254 -51.123693 
L 437.205574 -51.123693 
L 436.067895 -51.123693 
L 434.930216 -51.123693 
L 433.792536 -51.123693 
L 432.654857 -51.123693 
L 431.517177 -51.123693 
L 430.379498 -51.123693 
L 429.241819 -51.123693 
L 428.104139 -51.123693 
L 426.96646 -51.123693 
L 425.828781 -51.123693 
L 424.691101 -51.123693 
L 423.553422 -51.123693 
L 422.415742 -51.123693 
L 421.278063 -51.123693 
L 420.140384 -51.123693 
L 419.002704 -51.123693 
L 417.865025 -51.123693 
L 416.727346 -51.123693 
L 415.589666 -51.123693 
L 414.451987 -51.123693 
L 413.314307 -51.123693 
L 412.176628 -51.123693 
L 411.038949 -51.123693 
L 409.901269 -51.123693 
L 408.76359 -51.123693 
L 407.625911 -51.123693 
L 406.488231 -51.123693 
L 405.350552 -51.123693 
L 404.212872 -51.123693 
L 403.075193 -51.123693 
L 401.937514 -51.123693 
L 400.799834 -51.123693 
L 399.662155 -51.123693 
L 398.524476 -51.123693 
L 397.386796 -51.123693 
L 396.249117 -51.123693 
L 395.111437 -51.123693 
L 393.973758 -51.123693 
L 392.836079 -51.123693 
L 391.698399 -51.123693 
L 390.56072 -51.123693 
L 389.42304 -51.123693 
L 388.285361 -51.123693 
L 387.147682 -51.123693 
L 386.010002 -51.123693 
L 384.872323 -51.123693 
L 383.734644 -51.123693 
L 382.596964 -51.123693 
L 381.459285 -51.123693 
L 380.321605 -51.123693 
L 379.183926 -51.123693 
L 378.046247 -51.123693 
L 376.908567 -51.123693 
L 375.770888 -51.123693 
L 374.633209 -51.123693 
L 373.495529 -51.123693 
L 372.35785 -51.123693 
L 371.22017 -51.123693 
L 370.082491 -51.123693 
L 368.944812 -51.123693 
L 367.807132 -51.123693 
L 366.669453 -51.123693 
L 365.531774 -51.123693 
L 364.394094 -51.123693 
L 363.256415 -51.123693 
L 362.118735 -51.123693 
L 360.981056 -51.123693 
L 359.843377 -51.123693 
L 358.705697 -51.123693 
L 357.568018 -51.123693 
L 356.430339 -51.123693 
L 355.292659 -51.123693 
L 354.15498 -51.123693 
L 353.0173 -51.123693 
L 351.879621 -51.123693 
L 350.741942 -51.123693 
L 349.604262 -51.123693 
L 348.466583 -51.123693 
L 347.328904 -51.123693 
L 346.191224 -51.123693 
L 345.053545 -51.123693 
L 343.915865 -51.123693 
L 342.778186 -51.123693 
L 341.640507 -51.123693 
L 340.502827 -51.123693 
L 339.365148 -51.123693 
L 338.227469 -51.123693 
L 337.089789 -51.123693 
L 335.95211 -51.123693 
L 334.81443 -51.123693 
L 333.676751 -51.123693 
L 332.539072 -51.123693 
L 331.401392 -51.123693 
L 330.263713 -51.123693 
L 329.126034 -51.123693 
L 327.988354 -51.123693 
L 326.850675 -51.123693 
L 325.712995 -51.123693 
L 324.575316 -51.123693 
L 323.437637 -51.123693 
L 322.299957 -51.123693 
L 321.162278 -51.123693 
L 320.024599 -51.123693 
L 318.886919 -51.123693 
L 317.74924 -51.123693 
L 316.61156 -51.123693 
L 315.473881 -51.123693 
L 314.336202 -51.123693 
L 313.198522 -51.123693 
L 312.060843 -51.123693 
L 310.923164 -51.123693 
L 309.785484 -51.123693 
L 308.647805 -51.123693 
L 307.510125 -51.123693 
L 306.372446 -51.123693 
L 305.234767 -51.123693 
L 304.097087 -51.123693 
L 302.959408 -51.123693 
L 301.821729 -51.123693 
L 300.684049 -51.123693 
L 299.54637 -51.123693 
L 298.40869 -51.123693 
L 297.271011 -51.123693 
L 296.133332 -51.123693 
L 294.995652 -51.123693 
L 293.857973 -51.123693 
L 292.720294 -51.123693 
L 291.582614 -51.123693 
L 290.444935 -51.123693 
L 289.307255 -51.123693 
L 288.169576 -51.123693 
L 287.031897 -51.123693 
L 285.894217 -51.123693 
L 284.756538 -51.123693 
L 283.618858 -51.123693 
L 282.481179 -51.123693 
z
" style="stroke: #0000ff; stroke-opacity: 0.2"/>
    </defs>
    <g clip-path="url(#p985b44f6ae)">
     <use xlink:href="#m4be8888217" x="0" y="350.729687" style="fill: #0000ff; fill-opacity: 0.2; stroke: #0000ff; stroke-opacity: 0.2"/>
    </g>
   </g>
   <g id="line2d_1">
    <path d="M 69.666875 208.43696 
L 74.081071 199.358924 
L 78.495267 189.867522 
L 85.116561 174.965936 
L 91.737855 159.454458 
L 113.808835 106.88881 
L 118.223031 96.943396 
L 122.637227 87.43322 
L 127.051423 78.465343 
L 131.465619 70.144193 
L 135.879815 62.569566 
L 138.086913 59.091627 
L 140.294011 55.834637 
L 142.501109 52.808898 
L 144.708207 50.024065 
L 146.915305 47.4891 
L 149.122403 45.212218 
L 151.329501 43.200849 
L 153.536599 41.461593 
L 155.743697 40.000185 
L 157.950795 38.821466 
L 160.157893 37.929352 
L 162.364991 37.326815 
L 164.572089 37.015867 
L 166.779187 36.997546 
L 168.986285 37.271915 
L 171.193383 37.838056 
L 173.400481 38.694078 
L 175.607579 39.83713 
L 177.814677 41.263411 
L 180.021774 42.968195 
L 182.228872 44.945859 
L 184.43597 47.189907 
L 186.643068 49.693012 
L 188.850166 52.447055 
L 191.057264 55.443165 
L 193.264362 58.671769 
L 195.47146 62.122645 
L 199.885656 69.64739 
L 204.299852 77.924701 
L 208.714048 86.85514 
L 213.128244 96.334509 
L 217.54244 106.255854 
L 224.163734 121.731187 
L 248.441812 179.384692 
L 255.063106 194.067316 
L 259.477302 203.383398 
L 263.891498 212.267566 
L 268.305694 220.684272 
L 272.71989 228.607257 
L 277.134086 236.019106 
L 281.548282 242.910649 
L 285.962478 249.28026 
L 290.376674 255.133066 
L 294.79087 260.480106 
L 299.205066 265.337457 
L 303.619262 269.72536 
L 308.033458 273.667369 
L 312.447654 277.189538 
L 316.86185 280.319652 
L 321.276046 283.086542 
L 325.690242 285.519455 
L 330.104438 287.647518 
L 334.518634 289.499273 
L 338.93283 291.102301 
L 343.347026 292.482915 
L 347.761222 293.665934 
L 352.175418 294.674519 
L 358.796712 295.906659 
L 365.418006 296.858657 
L 372.0393 297.586039 
L 380.867692 298.286315 
L 389.696084 298.759067 
L 400.731573 299.131564 
L 416.181259 299.404858 
L 440.459337 299.559231 
L 495.636787 299.604966 
L 508.879375 299.605624 
L 508.879375 299.605624 
" clip-path="url(#p985b44f6ae)" style="fill: none; stroke: #ff0000; stroke-linecap: round"/>
   </g>
   <g id="patch_3">
    <path d="M 69.666875 312.737812 
L 69.666875 23.837812 
" style="fill: none; stroke: #262626; stroke-width: 0.8; stroke-linejoin: miter; stroke-linecap: square"/>
   </g>
   <g id="patch_4">
    <path d="M 508.879375 312.737812 
L 508.879375 23.837812 
" style="fill: none; stroke: #262626; stroke-width: 0.8; stroke-linejoin: miter; stroke-linecap: square"/>
   </g>
   <g id="patch_5">
    <path d="M 69.666875 312.737812 
L 508.879375 312.737812 
" style="fill: none; stroke: #262626; stroke-width: 0.8; stroke-linejoin: miter; stroke-linecap: square"/>
   </g>
   <g id="patch_6">
    <path d="M 69.666875 23.837812 
L 508.879375 23.837812 
" style="fill: none; stroke: #262626; stroke-width: 0.8; stroke-linejoin: miter; stroke-linecap: square"/>
   </g>
   <g id="text_20">
    <!-- Scenario 1 -->
    <g style="fill: #262626" transform="translate(252.163281 17.837812)scale(0.14 -0.14)">
     <defs>
      <path id="DejaVuSans-53" d="M 3425 4513 
L 3425 3897 
Q 3066 4069 2747 4153 
Q 2428 4238 2131 4238 
Q 1616 4238 1336 4038 
Q 1056 3838 1056 3469 
Q 1056 3159 1242 3001 
Q 1428 2844 1947 2747 
L 2328 2669 
Q 3034 2534 3370 2195 
Q 3706 1856 3706 1288 
Q 3706 609 3251 259 
Q 2797 -91 1919 -91 
Q 1588 -91 1214 -16 
Q 841 59 441 206 
L 441 856 
Q 825 641 1194 531 
Q 1563 422 1919 422 
Q 2459 422 2753 634 
Q 3047 847 3047 1241 
Q 3047 1584 2836 1778 
Q 2625 1972 2144 2069 
L 1759 2144 
Q 1053 2284 737 2584 
Q 422 2884 422 3419 
Q 422 4038 858 4394 
Q 1294 4750 2059 4750 
Q 2388 4750 2728 4690 
Q 3069 4631 3425 4513 
z
" transform="scale(0.015625)"/>
      <path id="DejaVuSans-63" d="M 3122 3366 
L 3122 2828 
Q 2878 2963 2633 3030 
Q 2388 3097 2138 3097 
Q 1578 3097 1268 2742 
Q 959 2388 959 1747 
Q 959 1106 1268 751 
Q 1578 397 2138 397 
Q 2388 397 2633 464 
Q 2878 531 3122 666 
L 3122 134 
Q 2881 22 2623 -34 
Q 2366 -91 2075 -91 
Q 1284 -91 818 406 
Q 353 903 353 1747 
Q 353 2603 823 3093 
Q 1294 3584 2113 3584 
Q 2378 3584 2631 3529 
Q 2884 3475 3122 3366 
z
" transform="scale(0.015625)"/>
      <path id="DejaVuSans-72" d="M 2631 2963 
Q 2534 3019 2420 3045 
Q 2306 3072 2169 3072 
Q 1681 3072 1420 2755 
Q 1159 2438 1159 1844 
L 1159 0 
L 581 0 
L 581 3500 
L 1159 3500 
L 1159 2956 
Q 1341 3275 1631 3429 
Q 1922 3584 2338 3584 
Q 2397 3584 2469 3576 
Q 2541 3569 2628 3553 
L 2631 2963 
z
" transform="scale(0.015625)"/>
      <path id="DejaVuSans-6f" d="M 1959 3097 
Q 1497 3097 1228 2736 
Q 959 2375 959 1747 
Q 959 1119 1226 758 
Q 1494 397 1959 397 
Q 2419 397 2687 759 
Q 2956 1122 2956 1747 
Q 2956 2369 2687 2733 
Q 2419 3097 1959 3097 
z
M 1959 3584 
Q 2709 3584 3137 3096 
Q 3566 2609 3566 1747 
Q 3566 888 3137 398 
Q 2709 -91 1959 -91 
Q 1206 -91 779 398 
Q 353 888 353 1747 
Q 353 2609 779 3096 
Q 1206 3584 1959 3584 
z
" transform="scale(0.015625)"/>
     </defs>
     <use xlink:href="#DejaVuSans-53"/>
     <use xlink:href="#DejaVuSans-63" x="63.476562"/>
     <use xlink:href="#DejaVuSans-65" x="118.457031"/>
     <use xlink:href="#DejaVuSans-6e" x="179.980469"/>
     <use xlink:href="#DejaVuSans-61" x="243.359375"/>
     <use xlink:href="#DejaVuSans-72" x="304.638672"/>
     <use xlink:href="#DejaVuSans-69" x="345.751953"/>
     <use xlink:href="#DejaVuSans-6f" x="373.535156"/>
     <use xlink:href="#DejaVuSans-20" x="434.716797"/>
     <use xlink:href="#DejaVuSans-31" x="466.503906"/>
    </g>
   </g>
   <g id="legend_1">
    <g id="patch_7">
     <path d="M 394.971562 91.307187 
L 501.879375 91.307187 
Q 503.879375 91.307187 503.879375 89.307187 
L 503.879375 30.837812 
Q 503.879375 28.837812 501.879375 28.837812 
L 394.971562 28.837812 
Q 392.971562 28.837812 392.971562 30.837812 
L 392.971562 89.307187 
Q 392.971562 91.307187 394.971562 91.307187 
z
" style="fill: #ffffff; opacity: 0.8; stroke: #cccccc; stroke-linejoin: miter"/>
    </g>
    <g id="line2d_2">
     <path d="M 396.971562 60.371719 
L 406.971562 60.371719 
L 416.971562 60.371719 
" style="fill: none; stroke: #ff0000; stroke-linecap: round"/>
    </g>
    <g id="text_21">
     <!-- Fit:  -->
     <g style="fill: #262626" transform="translate(424.971562 40.43625)scale(0.1 -0.1)">
      <defs>
       <path id="DejaVuSans-46" d="M 628 4666 
L 3309 4666 
L 3309 4134 
L 1259 4134 
L 1259 2759 
L 3109 2759 
L 3109 2228 
L 1259 2228 
L 1259 0 
L 628 0 
L 628 4666 
z
" transform="scale(0.015625)"/>
       <path id="DejaVuSans-3a" d="M 750 794 
L 1409 794 
L 1409 0 
L 750 0 
L 750 794 
z
M 750 3309 
L 1409 3309 
L 1409 2516 
L 750 2516 
L 750 3309 
z
" transform="scale(0.015625)"/>
      </defs>
      <use xlink:href="#DejaVuSans-46"/>
      <use xlink:href="#DejaVuSans-69" x="50.269531"/>
      <use xlink:href="#DejaVuSans-74" x="78.052734"/>
      <use xlink:href="#DejaVuSans-3a" x="117.261719"/>
      <use xlink:href="#DejaVuSans-20" x="150.953125"/>
     </g>
     <!-- a=300  -->
     <g style="fill: #262626" transform="translate(424.971562 51.634062)scale(0.1 -0.1)">
      <defs>
       <path id="DejaVuSans-3d" d="M 678 2906 
L 4684 2906 
L 4684 2381 
L 678 2381 
L 678 2906 
z
M 678 1631 
L 4684 1631 
L 4684 1100 
L 678 1100 
L 678 1631 
z
" transform="scale(0.015625)"/>
      </defs>
      <use xlink:href="#DejaVuSans-61"/>
      <use xlink:href="#DejaVuSans-3d" x="61.279297"/>
      <use xlink:href="#DejaVuSans-33" x="145.068359"/>
      <use xlink:href="#DejaVuSans-30" x="208.691406"/>
      <use xlink:href="#DejaVuSans-30" x="272.314453"/>
      <use xlink:href="#DejaVuSans-20" x="335.9375"/>
     </g>
     <!-- b=10000  -->
     <g style="fill: #262626" transform="translate(424.971562 62.831875)scale(0.1 -0.1)">
      <defs>
       <path id="DejaVuSans-62" d="M 3116 1747 
Q 3116 2381 2855 2742 
Q 2594 3103 2138 3103 
Q 1681 3103 1420 2742 
Q 1159 2381 1159 1747 
Q 1159 1113 1420 752 
Q 1681 391 2138 391 
Q 2594 391 2855 752 
Q 3116 1113 3116 1747 
z
M 1159 2969 
Q 1341 3281 1617 3432 
Q 1894 3584 2278 3584 
Q 2916 3584 3314 3078 
Q 3713 2572 3713 1747 
Q 3713 922 3314 415 
Q 2916 -91 2278 -91 
Q 1894 -91 1617 61 
Q 1341 213 1159 525 
L 1159 0 
L 581 0 
L 581 4863 
L 1159 4863 
L 1159 2969 
z
" transform="scale(0.015625)"/>
      </defs>
      <use xlink:href="#DejaVuSans-62"/>
      <use xlink:href="#DejaVuSans-3d" x="63.476562"/>
      <use xlink:href="#DejaVuSans-31" x="147.265625"/>
      <use xlink:href="#DejaVuSans-30" x="210.888672"/>
      <use xlink:href="#DejaVuSans-30" x="274.511719"/>
      <use xlink:href="#DejaVuSans-30" x="338.134766"/>
      <use xlink:href="#DejaVuSans-30" x="401.757812"/>
      <use xlink:href="#DejaVuSans-20" x="465.380859"/>
     </g>
     <!-- mean=2423.4  -->
     <g style="fill: #262626" transform="translate(424.971562 74.029687)scale(0.1 -0.1)">
      <use xlink:href="#DejaVuSans-6d"/>
      <use xlink:href="#DejaVuSans-65" x="97.412109"/>
      <use xlink:href="#DejaVuSans-61" x="158.935547"/>
      <use xlink:href="#DejaVuSans-6e" x="220.214844"/>
      <use xlink:href="#DejaVuSans-3d" x="283.59375"/>
      <use xlink:href="#DejaVuSans-32" x="367.382812"/>
      <use xlink:href="#DejaVuSans-34" x="431.005859"/>
      <use xlink:href="#DejaVuSans-32" x="494.628906"/>
      <use xlink:href="#DejaVuSans-33" x="558.251953"/>
      <use xlink:href="#DejaVuSans-2e" x="621.875"/>
      <use xlink:href="#DejaVuSans-34" x="653.662109"/>
      <use xlink:href="#DejaVuSans-20" x="717.285156"/>
     </g>
     <!-- std=1459.7 -->
     <g style="fill: #262626" transform="translate(424.971562 85.2275)scale(0.1 -0.1)">
      <defs>
       <path id="DejaVuSans-64" d="M 2906 2969 
L 2906 4863 
L 3481 4863 
L 3481 0 
L 2906 0 
L 2906 525 
Q 2725 213 2448 61 
Q 2172 -91 1784 -91 
Q 1150 -91 751 415 
Q 353 922 353 1747 
Q 353 2572 751 3078 
Q 1150 3584 1784 3584 
Q 2172 3584 2448 3432 
Q 2725 3281 2906 2969 
z
M 947 1747 
Q 947 1113 1208 752 
Q 1469 391 1925 391 
Q 2381 391 2643 752 
Q 2906 1113 2906 1747 
Q 2906 2381 2643 2742 
Q 2381 3103 1925 3103 
Q 1469 3103 1208 2742 
Q 947 2381 947 1747 
z
" transform="scale(0.015625)"/>
      </defs>
      <use xlink:href="#DejaVuSans-73"/>
      <use xlink:href="#DejaVuSans-74" x="52.099609"/>
      <use xlink:href="#DejaVuSans-64" x="91.308594"/>
      <use xlink:href="#DejaVuSans-3d" x="154.785156"/>
      <use xlink:href="#DejaVuSans-31" x="238.574219"/>
      <use xlink:href="#DejaVuSans-34" x="302.197266"/>
      <use xlink:href="#DejaVuSans-35" x="365.820312"/>
      <use xlink:href="#DejaVuSans-39" x="429.443359"/>
      <use xlink:href="#DejaVuSans-2e" x="493.066406"/>
      <use xlink:href="#DejaVuSans-37" x="524.853516"/>
     </g>
    </g>
   </g>
  </g>
 </g>
 <defs>
  <clipPath id="p985b44f6ae">
   <rect x="69.666875" y="23.837812" width="439.2125" height="288.9"/>
  </clipPath>
 </defs>
</svg>
