<?xml version="1.0" encoding="utf-8" standalone="no"?>
<!DOCTYPE svg PUBLIC "-//W3C//DTD SVG 1.1//EN"
  "http://www.w3.org/Graphics/SVG/1.1/DTD/svg11.dtd">
<svg xmlns:xlink="http://www.w3.org/1999/xlink" width="531.869055pt" height="350.729687pt" viewBox="0 0 531.869055 350.729687" xmlns="http://www.w3.org/2000/svg" version="1.1">
 <metadata>
  <rdf:RDF xmlns:dc="http://purl.org/dc/elements/1.1/" xmlns:cc="http://creativecommons.org/ns#" xmlns:rdf="http://www.w3.org/1999/02/22-rdf-syntax-ns#">
   <cc:Work>
    <dc:type rdf:resource="http://purl.org/dc/dcmitype/StillImage"/>
    <dc:date>2022-07-27T10:25:05.253278</dc:date>
    <dc:format>image/svg+xml</dc:format>
    <dc:creator>
     <cc:Agent>
      <dc:title>Matplotlib v3.5.1, https://matplotlib.org/</dc:title>
     </cc:Agent>
    </dc:creator>
   </cc:Work>
  </rdf:RDF>
 </metadata>
 <defs>
  <style type="text/css">*{stroke-linejoin: round; stroke-linecap: butt}</style>
 </defs>
 <g id="figure_1">
  <g id="patch_1">
   <path d="M 0 350.729687 
L 531.869055 350.729687 
L 531.869055 0 
L 0 0 
z
" style="fill: #ffffff"/>
  </g>
  <g id="axes_1">
   <g id="patch_2">
    <path d="M 69.666875 312.737812 
L 511.014579 312.737812 
L 511.014579 23.837812 
L 69.666875 23.837812 
z
" style="fill: #ffffff"/>
   </g>
   <g id="matplotlib.axis_1">
    <g id="xtick_1">
     <g id="text_1">
      <!-- 1000 -->
      <g style="fill: #262626" transform="translate(90.718485 325.83625)scale(0.1 -0.1)">
       <defs>
        <path id="DejaVuSans-31" d="M 794 531 
L 1825 531 
L 1825 4091 
L 703 3866 
L 703 4441 
L 1819 4666 
L 2450 4666 
L 2450 531 
L 3481 531 
L 3481 0 
L 794 0 
L 794 531 
z
" transform="scale(0.015625)"/>
        <path id="DejaVuSans-30" d="M 2034 4250 
Q 1547 4250 1301 3770 
Q 1056 3291 1056 2328 
Q 1056 1369 1301 889 
Q 1547 409 2034 409 
Q 2525 409 2770 889 
Q 3016 1369 3016 2328 
Q 3016 3291 2770 3770 
Q 2525 4250 2034 4250 
z
M 2034 4750 
Q 2819 4750 3233 4129 
Q 3647 3509 3647 2328 
Q 3647 1150 3233 529 
Q 2819 -91 2034 -91 
Q 1250 -91 836 529 
Q 422 1150 422 2328 
Q 422 3509 836 4129 
Q 1250 4750 2034 4750 
z
" transform="scale(0.015625)"/>
       </defs>
       <use xlink:href="#DejaVuSans-31"/>
       <use xlink:href="#DejaVuSans-30" x="63.623047"/>
       <use xlink:href="#DejaVuSans-30" x="127.246094"/>
       <use xlink:href="#DejaVuSans-30" x="190.869141"/>
      </g>
     </g>
    </g>
    <g id="xtick_2">
     <g id="text_2">
      <!-- 2000 -->
      <g style="fill: #262626" transform="translate(135.753965 325.83625)scale(0.1 -0.1)">
       <defs>
        <path id="DejaVuSans-32" d="M 1228 531 
L 3431 531 
L 3431 0 
L 469 0 
L 469 531 
Q 828 903 1448 1529 
Q 2069 2156 2228 2338 
Q 2531 2678 2651 2914 
Q 2772 3150 2772 3378 
Q 2772 3750 2511 3984 
Q 2250 4219 1831 4219 
Q 1534 4219 1204 4116 
Q 875 4013 500 3803 
L 500 4441 
Q 881 4594 1212 4672 
Q 1544 4750 1819 4750 
Q 2544 4750 2975 4387 
Q 3406 4025 3406 3419 
Q 3406 3131 3298 2873 
Q 3191 2616 2906 2266 
Q 2828 2175 2409 1742 
Q 1991 1309 1228 531 
z
" transform="scale(0.015625)"/>
       </defs>
       <use xlink:href="#DejaVuSans-32"/>
       <use xlink:href="#DejaVuSans-30" x="63.623047"/>
       <use xlink:href="#DejaVuSans-30" x="127.246094"/>
       <use xlink:href="#DejaVuSans-30" x="190.869141"/>
      </g>
     </g>
    </g>
    <g id="xtick_3">
     <g id="text_3">
      <!-- 3000 -->
      <g style="fill: #262626" transform="translate(180.789445 325.83625)scale(0.1 -0.1)">
       <defs>
        <path id="DejaVuSans-33" d="M 2597 2516 
Q 3050 2419 3304 2112 
Q 3559 1806 3559 1356 
Q 3559 666 3084 287 
Q 2609 -91 1734 -91 
Q 1441 -91 1130 -33 
Q 819 25 488 141 
L 488 750 
Q 750 597 1062 519 
Q 1375 441 1716 441 
Q 2309 441 2620 675 
Q 2931 909 2931 1356 
Q 2931 1769 2642 2001 
Q 2353 2234 1838 2234 
L 1294 2234 
L 1294 2753 
L 1863 2753 
Q 2328 2753 2575 2939 
Q 2822 3125 2822 3475 
Q 2822 3834 2567 4026 
Q 2313 4219 1838 4219 
Q 1578 4219 1281 4162 
Q 984 4106 628 3988 
L 628 4550 
Q 988 4650 1302 4700 
Q 1616 4750 1894 4750 
Q 2613 4750 3031 4423 
Q 3450 4097 3450 3541 
Q 3450 3153 3228 2886 
Q 3006 2619 2597 2516 
z
" transform="scale(0.015625)"/>
       </defs>
       <use xlink:href="#DejaVuSans-33"/>
       <use xlink:href="#DejaVuSans-30" x="63.623047"/>
       <use xlink:href="#DejaVuSans-30" x="127.246094"/>
       <use xlink:href="#DejaVuSans-30" x="190.869141"/>
      </g>
     </g>
    </g>
    <g id="xtick_4">
     <g id="text_4">
      <!-- 4000 -->
      <g style="fill: #262626" transform="translate(225.824925 325.83625)scale(0.1 -0.1)">
       <defs>
        <path id="DejaVuSans-34" d="M 2419 4116 
L 825 1625 
L 2419 1625 
L 2419 4116 
z
M 2253 4666 
L 3047 4666 
L 3047 1625 
L 3713 1625 
L 3713 1100 
L 3047 1100 
L 3047 0 
L 2419 0 
L 2419 1100 
L 313 1100 
L 313 1709 
L 2253 4666 
z
" transform="scale(0.015625)"/>
       </defs>
       <use xlink:href="#DejaVuSans-34"/>
       <use xlink:href="#DejaVuSans-30" x="63.623047"/>
       <use xlink:href="#DejaVuSans-30" x="127.246094"/>
       <use xlink:href="#DejaVuSans-30" x="190.869141"/>
      </g>
     </g>
    </g>
    <g id="xtick_5">
     <g id="text_5">
      <!-- 5000 -->
      <g style="fill: #262626" transform="translate(270.860405 325.83625)scale(0.1 -0.1)">
       <defs>
        <path id="DejaVuSans-35" d="M 691 4666 
L 3169 4666 
L 3169 4134 
L 1269 4134 
L 1269 2991 
Q 1406 3038 1543 3061 
Q 1681 3084 1819 3084 
Q 2600 3084 3056 2656 
Q 3513 2228 3513 1497 
Q 3513 744 3044 326 
Q 2575 -91 1722 -91 
Q 1428 -91 1123 -41 
Q 819 9 494 109 
L 494 744 
Q 775 591 1075 516 
Q 1375 441 1709 441 
Q 2250 441 2565 725 
Q 2881 1009 2881 1497 
Q 2881 1984 2565 2268 
Q 2250 2553 1709 2553 
Q 1456 2553 1204 2497 
Q 953 2441 691 2322 
L 691 4666 
z
" transform="scale(0.015625)"/>
       </defs>
       <use xlink:href="#DejaVuSans-35"/>
       <use xlink:href="#DejaVuSans-30" x="63.623047"/>
       <use xlink:href="#DejaVuSans-30" x="127.246094"/>
       <use xlink:href="#DejaVuSans-30" x="190.869141"/>
      </g>
     </g>
    </g>
    <g id="xtick_6">
     <g id="text_6">
      <!-- 6000 -->
      <g style="fill: #262626" transform="translate(315.895885 325.83625)scale(0.1 -0.1)">
       <defs>
        <path id="DejaVuSans-36" d="M 2113 2584 
Q 1688 2584 1439 2293 
Q 1191 2003 1191 1497 
Q 1191 994 1439 701 
Q 1688 409 2113 409 
Q 2538 409 2786 701 
Q 3034 994 3034 1497 
Q 3034 2003 2786 2293 
Q 2538 2584 2113 2584 
z
M 3366 4563 
L 3366 3988 
Q 3128 4100 2886 4159 
Q 2644 4219 2406 4219 
Q 1781 4219 1451 3797 
Q 1122 3375 1075 2522 
Q 1259 2794 1537 2939 
Q 1816 3084 2150 3084 
Q 2853 3084 3261 2657 
Q 3669 2231 3669 1497 
Q 3669 778 3244 343 
Q 2819 -91 2113 -91 
Q 1303 -91 875 529 
Q 447 1150 447 2328 
Q 447 3434 972 4092 
Q 1497 4750 2381 4750 
Q 2619 4750 2861 4703 
Q 3103 4656 3366 4563 
z
" transform="scale(0.015625)"/>
       </defs>
       <use xlink:href="#DejaVuSans-36"/>
       <use xlink:href="#DejaVuSans-30" x="63.623047"/>
       <use xlink:href="#DejaVuSans-30" x="127.246094"/>
       <use xlink:href="#DejaVuSans-30" x="190.869141"/>
      </g>
     </g>
    </g>
    <g id="xtick_7">
     <g id="text_7">
      <!-- 7000 -->
      <g style="fill: #262626" transform="translate(360.931365 325.83625)scale(0.1 -0.1)">
       <defs>
        <path id="DejaVuSans-37" d="M 525 4666 
L 3525 4666 
L 3525 4397 
L 1831 0 
L 1172 0 
L 2766 4134 
L 525 4134 
L 525 4666 
z
" transform="scale(0.015625)"/>
       </defs>
       <use xlink:href="#DejaVuSans-37"/>
       <use xlink:href="#DejaVuSans-30" x="63.623047"/>
       <use xlink:href="#DejaVuSans-30" x="127.246094"/>
       <use xlink:href="#DejaVuSans-30" x="190.869141"/>
      </g>
     </g>
    </g>
    <g id="xtick_8">
     <g id="text_8">
      <!-- 8000 -->
      <g style="fill: #262626" transform="translate(405.966845 325.83625)scale(0.1 -0.1)">
       <defs>
        <path id="DejaVuSans-38" d="M 2034 2216 
Q 1584 2216 1326 1975 
Q 1069 1734 1069 1313 
Q 1069 891 1326 650 
Q 1584 409 2034 409 
Q 2484 409 2743 651 
Q 3003 894 3003 1313 
Q 3003 1734 2745 1975 
Q 2488 2216 2034 2216 
z
M 1403 2484 
Q 997 2584 770 2862 
Q 544 3141 544 3541 
Q 544 4100 942 4425 
Q 1341 4750 2034 4750 
Q 2731 4750 3128 4425 
Q 3525 4100 3525 3541 
Q 3525 3141 3298 2862 
Q 3072 2584 2669 2484 
Q 3125 2378 3379 2068 
Q 3634 1759 3634 1313 
Q 3634 634 3220 271 
Q 2806 -91 2034 -91 
Q 1263 -91 848 271 
Q 434 634 434 1313 
Q 434 1759 690 2068 
Q 947 2378 1403 2484 
z
M 1172 3481 
Q 1172 3119 1398 2916 
Q 1625 2713 2034 2713 
Q 2441 2713 2670 2916 
Q 2900 3119 2900 3481 
Q 2900 3844 2670 4047 
Q 2441 4250 2034 4250 
Q 1625 4250 1398 4047 
Q 1172 3844 1172 3481 
z
" transform="scale(0.015625)"/>
       </defs>
       <use xlink:href="#DejaVuSans-38"/>
       <use xlink:href="#DejaVuSans-30" x="63.623047"/>
       <use xlink:href="#DejaVuSans-30" x="127.246094"/>
       <use xlink:href="#DejaVuSans-30" x="190.869141"/>
      </g>
     </g>
    </g>
    <g id="xtick_9">
     <g id="text_9">
      <!-- 9000 -->
      <g style="fill: #262626" transform="translate(451.002325 325.83625)scale(0.1 -0.1)">
       <defs>
        <path id="DejaVuSans-39" d="M 703 97 
L 703 672 
Q 941 559 1184 500 
Q 1428 441 1663 441 
Q 2288 441 2617 861 
Q 2947 1281 2994 2138 
Q 2813 1869 2534 1725 
Q 2256 1581 1919 1581 
Q 1219 1581 811 2004 
Q 403 2428 403 3163 
Q 403 3881 828 4315 
Q 1253 4750 1959 4750 
Q 2769 4750 3195 4129 
Q 3622 3509 3622 2328 
Q 3622 1225 3098 567 
Q 2575 -91 1691 -91 
Q 1453 -91 1209 -44 
Q 966 3 703 97 
z
M 1959 2075 
Q 2384 2075 2632 2365 
Q 2881 2656 2881 3163 
Q 2881 3666 2632 3958 
Q 2384 4250 1959 4250 
Q 1534 4250 1286 3958 
Q 1038 3666 1038 3163 
Q 1038 2656 1286 2365 
Q 1534 2075 1959 2075 
z
" transform="scale(0.015625)"/>
       </defs>
       <use xlink:href="#DejaVuSans-39"/>
       <use xlink:href="#DejaVuSans-30" x="63.623047"/>
       <use xlink:href="#DejaVuSans-30" x="127.246094"/>
       <use xlink:href="#DejaVuSans-30" x="190.869141"/>
      </g>
     </g>
    </g>
    <g id="xtick_10">
     <g id="text_10">
      <!-- 10000 -->
      <g style="fill: #262626" transform="translate(492.856555 325.83625)scale(0.1 -0.1)">
       <use xlink:href="#DejaVuSans-31"/>
       <use xlink:href="#DejaVuSans-30" x="63.623047"/>
       <use xlink:href="#DejaVuSans-30" x="127.246094"/>
       <use xlink:href="#DejaVuSans-30" x="190.869141"/>
       <use xlink:href="#DejaVuSans-30" x="254.492188"/>
      </g>
     </g>
    </g>
    <g id="text_11">
     <!-- Animal Units -->
     <g style="fill: #262626" transform="translate(252.33354 341.034062)scale(0.12 -0.12)">
      <defs>
       <path id="DejaVuSans-41" d="M 2188 4044 
L 1331 1722 
L 3047 1722 
L 2188 4044 
z
M 1831 4666 
L 2547 4666 
L 4325 0 
L 3669 0 
L 3244 1197 
L 1141 1197 
L 716 0 
L 50 0 
L 1831 4666 
z
" transform="scale(0.015625)"/>
       <path id="DejaVuSans-6e" d="M 3513 2113 
L 3513 0 
L 2938 0 
L 2938 2094 
Q 2938 2591 2744 2837 
Q 2550 3084 2163 3084 
Q 1697 3084 1428 2787 
Q 1159 2491 1159 1978 
L 1159 0 
L 581 0 
L 581 3500 
L 1159 3500 
L 1159 2956 
Q 1366 3272 1645 3428 
Q 1925 3584 2291 3584 
Q 2894 3584 3203 3211 
Q 3513 2838 3513 2113 
z
" transform="scale(0.015625)"/>
       <path id="DejaVuSans-69" d="M 603 3500 
L 1178 3500 
L 1178 0 
L 603 0 
L 603 3500 
z
M 603 4863 
L 1178 4863 
L 1178 4134 
L 603 4134 
L 603 4863 
z
" transform="scale(0.015625)"/>
       <path id="DejaVuSans-6d" d="M 3328 2828 
Q 3544 3216 3844 3400 
Q 4144 3584 4550 3584 
Q 5097 3584 5394 3201 
Q 5691 2819 5691 2113 
L 5691 0 
L 5113 0 
L 5113 2094 
Q 5113 2597 4934 2840 
Q 4756 3084 4391 3084 
Q 3944 3084 3684 2787 
Q 3425 2491 3425 1978 
L 3425 0 
L 2847 0 
L 2847 2094 
Q 2847 2600 2669 2842 
Q 2491 3084 2119 3084 
Q 1678 3084 1418 2786 
Q 1159 2488 1159 1978 
L 1159 0 
L 581 0 
L 581 3500 
L 1159 3500 
L 1159 2956 
Q 1356 3278 1631 3431 
Q 1906 3584 2284 3584 
Q 2666 3584 2933 3390 
Q 3200 3197 3328 2828 
z
" transform="scale(0.015625)"/>
       <path id="DejaVuSans-61" d="M 2194 1759 
Q 1497 1759 1228 1600 
Q 959 1441 959 1056 
Q 959 750 1161 570 
Q 1363 391 1709 391 
Q 2188 391 2477 730 
Q 2766 1069 2766 1631 
L 2766 1759 
L 2194 1759 
z
M 3341 1997 
L 3341 0 
L 2766 0 
L 2766 531 
Q 2569 213 2275 61 
Q 1981 -91 1556 -91 
Q 1019 -91 701 211 
Q 384 513 384 1019 
Q 384 1609 779 1909 
Q 1175 2209 1959 2209 
L 2766 2209 
L 2766 2266 
Q 2766 2663 2505 2880 
Q 2244 3097 1772 3097 
Q 1472 3097 1187 3025 
Q 903 2953 641 2809 
L 641 3341 
Q 956 3463 1253 3523 
Q 1550 3584 1831 3584 
Q 2591 3584 2966 3190 
Q 3341 2797 3341 1997 
z
" transform="scale(0.015625)"/>
       <path id="DejaVuSans-6c" d="M 603 4863 
L 1178 4863 
L 1178 0 
L 603 0 
L 603 4863 
z
" transform="scale(0.015625)"/>
       <path id="DejaVuSans-20" transform="scale(0.015625)"/>
       <path id="DejaVuSans-55" d="M 556 4666 
L 1191 4666 
L 1191 1831 
Q 1191 1081 1462 751 
Q 1734 422 2344 422 
Q 2950 422 3222 751 
Q 3494 1081 3494 1831 
L 3494 4666 
L 4128 4666 
L 4128 1753 
Q 4128 841 3676 375 
Q 3225 -91 2344 -91 
Q 1459 -91 1007 375 
Q 556 841 556 1753 
L 556 4666 
z
" transform="scale(0.015625)"/>
       <path id="DejaVuSans-74" d="M 1172 4494 
L 1172 3500 
L 2356 3500 
L 2356 3053 
L 1172 3053 
L 1172 1153 
Q 1172 725 1289 603 
Q 1406 481 1766 481 
L 2356 481 
L 2356 0 
L 1766 0 
Q 1100 0 847 248 
Q 594 497 594 1153 
L 594 3053 
L 172 3053 
L 172 3500 
L 594 3500 
L 594 4494 
L 1172 4494 
z
" transform="scale(0.015625)"/>
       <path id="DejaVuSans-73" d="M 2834 3397 
L 2834 2853 
Q 2591 2978 2328 3040 
Q 2066 3103 1784 3103 
Q 1356 3103 1142 2972 
Q 928 2841 928 2578 
Q 928 2378 1081 2264 
Q 1234 2150 1697 2047 
L 1894 2003 
Q 2506 1872 2764 1633 
Q 3022 1394 3022 966 
Q 3022 478 2636 193 
Q 2250 -91 1575 -91 
Q 1294 -91 989 -36 
Q 684 19 347 128 
L 347 722 
Q 666 556 975 473 
Q 1284 391 1588 391 
Q 1994 391 2212 530 
Q 2431 669 2431 922 
Q 2431 1156 2273 1281 
Q 2116 1406 1581 1522 
L 1381 1569 
Q 847 1681 609 1914 
Q 372 2147 372 2553 
Q 372 3047 722 3315 
Q 1072 3584 1716 3584 
Q 2034 3584 2315 3537 
Q 2597 3491 2834 3397 
z
" transform="scale(0.015625)"/>
      </defs>
      <use xlink:href="#DejaVuSans-41"/>
      <use xlink:href="#DejaVuSans-6e" x="68.408203"/>
      <use xlink:href="#DejaVuSans-69" x="131.787109"/>
      <use xlink:href="#DejaVuSans-6d" x="159.570312"/>
      <use xlink:href="#DejaVuSans-61" x="256.982422"/>
      <use xlink:href="#DejaVuSans-6c" x="318.261719"/>
      <use xlink:href="#DejaVuSans-20" x="346.044922"/>
      <use xlink:href="#DejaVuSans-55" x="377.832031"/>
      <use xlink:href="#DejaVuSans-6e" x="451.025391"/>
      <use xlink:href="#DejaVuSans-69" x="514.404297"/>
      <use xlink:href="#DejaVuSans-74" x="542.1875"/>
      <use xlink:href="#DejaVuSans-73" x="581.396484"/>
     </g>
    </g>
   </g>
   <g id="matplotlib.axis_2">
    <g id="ytick_1">
     <g id="text_12">
      <!-- 0.00000 -->
      <g style="fill: #262626" transform="translate(22.81375 303.405213)scale(0.1 -0.1)">
       <defs>
        <path id="DejaVuSans-2e" d="M 684 794 
L 1344 794 
L 1344 0 
L 684 0 
L 684 794 
z
" transform="scale(0.015625)"/>
       </defs>
       <use xlink:href="#DejaVuSans-30"/>
       <use xlink:href="#DejaVuSans-2e" x="63.623047"/>
       <use xlink:href="#DejaVuSans-30" x="95.410156"/>
       <use xlink:href="#DejaVuSans-30" x="159.033203"/>
       <use xlink:href="#DejaVuSans-30" x="222.65625"/>
       <use xlink:href="#DejaVuSans-30" x="286.279297"/>
       <use xlink:href="#DejaVuSans-30" x="349.902344"/>
      </g>
     </g>
    </g>
    <g id="ytick_2">
     <g id="text_13">
      <!-- 0.00005 -->
      <g style="fill: #262626" transform="translate(22.81375 259.632486)scale(0.1 -0.1)">
       <use xlink:href="#DejaVuSans-30"/>
       <use xlink:href="#DejaVuSans-2e" x="63.623047"/>
       <use xlink:href="#DejaVuSans-30" x="95.410156"/>
       <use xlink:href="#DejaVuSans-30" x="159.033203"/>
       <use xlink:href="#DejaVuSans-30" x="222.65625"/>
       <use xlink:href="#DejaVuSans-30" x="286.279297"/>
       <use xlink:href="#DejaVuSans-35" x="349.902344"/>
      </g>
     </g>
    </g>
    <g id="ytick_3">
     <g id="text_14">
      <!-- 0.00010 -->
      <g style="fill: #262626" transform="translate(22.81375 215.859759)scale(0.1 -0.1)">
       <use xlink:href="#DejaVuSans-30"/>
       <use xlink:href="#DejaVuSans-2e" x="63.623047"/>
       <use xlink:href="#DejaVuSans-30" x="95.410156"/>
       <use xlink:href="#DejaVuSans-30" x="159.033203"/>
       <use xlink:href="#DejaVuSans-30" x="222.65625"/>
       <use xlink:href="#DejaVuSans-31" x="286.279297"/>
       <use xlink:href="#DejaVuSans-30" x="349.902344"/>
      </g>
     </g>
    </g>
    <g id="ytick_4">
     <g id="text_15">
      <!-- 0.00015 -->
      <g style="fill: #262626" transform="translate(22.81375 172.087031)scale(0.1 -0.1)">
       <use xlink:href="#DejaVuSans-30"/>
       <use xlink:href="#DejaVuSans-2e" x="63.623047"/>
       <use xlink:href="#DejaVuSans-30" x="95.410156"/>
       <use xlink:href="#DejaVuSans-30" x="159.033203"/>
       <use xlink:href="#DejaVuSans-30" x="222.65625"/>
       <use xlink:href="#DejaVuSans-31" x="286.279297"/>
       <use xlink:href="#DejaVuSans-35" x="349.902344"/>
      </g>
     </g>
    </g>
    <g id="ytick_5">
     <g id="text_16">
      <!-- 0.00020 -->
      <g style="fill: #262626" transform="translate(22.81375 128.314304)scale(0.1 -0.1)">
       <use xlink:href="#DejaVuSans-30"/>
       <use xlink:href="#DejaVuSans-2e" x="63.623047"/>
       <use xlink:href="#DejaVuSans-30" x="95.410156"/>
       <use xlink:href="#DejaVuSans-30" x="159.033203"/>
       <use xlink:href="#DejaVuSans-30" x="222.65625"/>
       <use xlink:href="#DejaVuSans-32" x="286.279297"/>
       <use xlink:href="#DejaVuSans-30" x="349.902344"/>
      </g>
     </g>
    </g>
    <g id="ytick_6">
     <g id="text_17">
      <!-- 0.00025 -->
      <g style="fill: #262626" transform="translate(22.81375 84.541577)scale(0.1 -0.1)">
       <use xlink:href="#DejaVuSans-30"/>
       <use xlink:href="#DejaVuSans-2e" x="63.623047"/>
       <use xlink:href="#DejaVuSans-30" x="95.410156"/>
       <use xlink:href="#DejaVuSans-30" x="159.033203"/>
       <use xlink:href="#DejaVuSans-30" x="222.65625"/>
       <use xlink:href="#DejaVuSans-32" x="286.279297"/>
       <use xlink:href="#DejaVuSans-35" x="349.902344"/>
      </g>
     </g>
    </g>
    <g id="ytick_7">
     <g id="text_18">
      <!-- 0.00030 -->
      <g style="fill: #262626" transform="translate(22.81375 40.768849)scale(0.1 -0.1)">
       <use xlink:href="#DejaVuSans-30"/>
       <use xlink:href="#DejaVuSans-2e" x="63.623047"/>
       <use xlink:href="#DejaVuSans-30" x="95.410156"/>
       <use xlink:href="#DejaVuSans-30" x="159.033203"/>
       <use xlink:href="#DejaVuSans-30" x="222.65625"/>
       <use xlink:href="#DejaVuSans-33" x="286.279297"/>
       <use xlink:href="#DejaVuSans-30" x="349.902344"/>
      </g>
     </g>
    </g>
    <g id="text_19">
     <!-- Density -->
     <g style="fill: #262626" transform="translate(16.318125 191.098125)rotate(-90)scale(0.12 -0.12)">
      <defs>
       <path id="DejaVuSans-44" d="M 1259 4147 
L 1259 519 
L 2022 519 
Q 2988 519 3436 956 
Q 3884 1394 3884 2338 
Q 3884 3275 3436 3711 
Q 2988 4147 2022 4147 
L 1259 4147 
z
M 628 4666 
L 1925 4666 
Q 3281 4666 3915 4102 
Q 4550 3538 4550 2338 
Q 4550 1131 3912 565 
Q 3275 0 1925 0 
L 628 0 
L 628 4666 
z
" transform="scale(0.015625)"/>
       <path id="DejaVuSans-65" d="M 3597 1894 
L 3597 1613 
L 953 1613 
Q 991 1019 1311 708 
Q 1631 397 2203 397 
Q 2534 397 2845 478 
Q 3156 559 3463 722 
L 3463 178 
Q 3153 47 2828 -22 
Q 2503 -91 2169 -91 
Q 1331 -91 842 396 
Q 353 884 353 1716 
Q 353 2575 817 3079 
Q 1281 3584 2069 3584 
Q 2775 3584 3186 3129 
Q 3597 2675 3597 1894 
z
M 3022 2063 
Q 3016 2534 2758 2815 
Q 2500 3097 2075 3097 
Q 1594 3097 1305 2825 
Q 1016 2553 972 2059 
L 3022 2063 
z
" transform="scale(0.015625)"/>
       <path id="DejaVuSans-79" d="M 2059 -325 
Q 1816 -950 1584 -1140 
Q 1353 -1331 966 -1331 
L 506 -1331 
L 506 -850 
L 844 -850 
Q 1081 -850 1212 -737 
Q 1344 -625 1503 -206 
L 1606 56 
L 191 3500 
L 800 3500 
L 1894 763 
L 2988 3500 
L 3597 3500 
L 2059 -325 
z
" transform="scale(0.015625)"/>
      </defs>
      <use xlink:href="#DejaVuSans-44"/>
      <use xlink:href="#DejaVuSans-65" x="77.001953"/>
      <use xlink:href="#DejaVuSans-6e" x="138.525391"/>
      <use xlink:href="#DejaVuSans-73" x="201.904297"/>
      <use xlink:href="#DejaVuSans-69" x="254.003906"/>
      <use xlink:href="#DejaVuSans-74" x="281.787109"/>
      <use xlink:href="#DejaVuSans-79" x="320.996094"/>
     </g>
    </g>
   </g>
   <g id="PolyCollection_1">
    <defs>
     <path id="me8e303dd9c" d="M 71.918649 -51.123693 
L 71.918649 -140.708908 
L 72.303374 -141.47329 
L 72.688099 -142.241073 
L 73.072825 -143.012233 
L 73.45755 -143.786746 
L 73.842275 -144.564587 
L 74.227 -145.34573 
L 74.611725 -146.130149 
L 74.996451 -146.917817 
L 75.381176 -147.708708 
L 75.765901 -148.502793 
L 76.150626 -149.300044 
L 76.535351 -150.100433 
L 76.920077 -150.903928 
L 77.304802 -151.710502 
L 77.689527 -152.520122 
L 78.074252 -153.332759 
L 78.458978 -154.148379 
L 78.843703 -154.966951 
L 79.228428 -155.788443 
L 79.613153 -156.61282 
L 79.997878 -157.440048 
L 80.382604 -158.270094 
L 80.767329 -159.102921 
L 81.152054 -159.938496 
L 81.536779 -160.77678 
L 81.921504 -161.617737 
L 82.30623 -162.461331 
L 82.690955 -163.307523 
L 83.07568 -164.156275 
L 83.460405 -165.007548 
L 83.84513 -165.861301 
L 84.229856 -166.717496 
L 84.614581 -167.576092 
L 84.999306 -168.437046 
L 85.384031 -169.300319 
L 85.768756 -170.165866 
L 86.153482 -171.033646 
L 86.538207 -171.903615 
L 86.922932 -172.775729 
L 87.307657 -173.649943 
L 87.692382 -174.526214 
L 88.077108 -175.404494 
L 88.461833 -176.284738 
L 88.846558 -177.1669 
L 89.231283 -178.050932 
L 89.616008 -178.936786 
L 90.000734 -179.824415 
L 90.385459 -180.71377 
L 90.770184 -181.604801 
L 91.154909 -182.497459 
L 91.539635 -183.391694 
L 91.92436 -184.287455 
L 92.309085 -185.18469 
L 92.69381 -186.083349 
L 93.078535 -186.983377 
L 93.463261 -187.884724 
L 93.847986 -188.787336 
L 94.232711 -189.691159 
L 94.617436 -190.596138 
L 95.002161 -191.50222 
L 95.386887 -192.40935 
L 95.771612 -193.31747 
L 96.156337 -194.226527 
L 96.541062 -195.136462 
L 96.925787 -196.04722 
L 97.310513 -196.958742 
L 97.695238 -197.870971 
L 98.079963 -198.783849 
L 98.464688 -199.697317 
L 98.849413 -200.611316 
L 99.234139 -201.525786 
L 99.618864 -202.440668 
L 100.003589 -203.3559 
L 100.388314 -204.271423 
L 100.773039 -205.187175 
L 101.157765 -206.103095 
L 101.54249 -207.01912 
L 101.927215 -207.935188 
L 102.31194 -208.851238 
L 102.696665 -209.767204 
L 103.081391 -210.683025 
L 103.466116 -211.598637 
L 103.850841 -212.513974 
L 104.235566 -213.428974 
L 104.620292 -214.343571 
L 105.005017 -215.2577 
L 105.389742 -216.171295 
L 105.774467 -217.084291 
L 106.159192 -217.996623 
L 106.543918 -218.908222 
L 106.928643 -219.819024 
L 107.313368 -220.728961 
L 107.698093 -221.637965 
L 108.082818 -222.54597 
L 108.467544 -223.452908 
L 108.852269 -224.358711 
L 109.236994 -225.26331 
L 109.621719 -226.166638 
L 110.006444 -227.068625 
L 110.39117 -227.969203 
L 110.775895 -228.868302 
L 111.16062 -229.765854 
L 111.545345 -230.661789 
L 111.93007 -231.556038 
L 112.314796 -232.44853 
L 112.699521 -233.339195 
L 113.084246 -234.227964 
L 113.468971 -235.114766 
L 113.853696 -235.999531 
L 114.238422 -236.882188 
L 114.623147 -237.762666 
L 115.007872 -238.640896 
L 115.392597 -239.516805 
L 115.777322 -240.390323 
L 116.162048 -241.261378 
L 116.546773 -242.129901 
L 116.931498 -242.995819 
L 117.316223 -243.859061 
L 117.700949 -244.719556 
L 118.085674 -245.577233 
L 118.470399 -246.432019 
L 118.855124 -247.283845 
L 119.239849 -248.132638 
L 119.624575 -248.978327 
L 120.0093 -249.820841 
L 120.394025 -250.660108 
L 120.77875 -251.496057 
L 121.163475 -252.328617 
L 121.548201 -253.157716 
L 121.932926 -253.983284 
L 122.317651 -254.805249 
L 122.702376 -255.62354 
L 123.087101 -256.438086 
L 123.471827 -257.248816 
L 123.856552 -258.055661 
L 124.241277 -258.858548 
L 124.626002 -259.657409 
L 125.010727 -260.452171 
L 125.395453 -261.242766 
L 125.780178 -262.029123 
L 126.164903 -262.811172 
L 126.549628 -263.588844 
L 126.934353 -264.36207 
L 127.319079 -265.130779 
L 127.703804 -265.894903 
L 128.088529 -266.654374 
L 128.473254 -267.409122 
L 128.85798 -268.15908 
L 129.242705 -268.904179 
L 129.62743 -269.644351 
L 130.012155 -270.379529 
L 130.39688 -271.109646 
L 130.781606 -271.834634 
L 131.166331 -272.554428 
L 131.551056 -273.26896 
L 131.935781 -273.978165 
L 132.320506 -274.681977 
L 132.705232 -275.380331 
L 133.089957 -276.073161 
L 133.474682 -276.760404 
L 133.859407 -277.441995 
L 134.244132 -278.11787 
L 134.628858 -278.787965 
L 135.013583 -279.452218 
L 135.398308 -280.110567 
L 135.783033 -280.762948 
L 136.167758 -281.4093 
L 136.552484 -282.049562 
L 136.937209 -282.683673 
L 137.321934 -283.311572 
L 137.706659 -283.933201 
L 138.091384 -284.548498 
L 138.47611 -285.157406 
L 138.860835 -285.759865 
L 139.24556 -286.355819 
L 139.630285 -286.945209 
L 140.01501 -287.527979 
L 140.399736 -288.104072 
L 140.784461 -288.673433 
L 141.169186 -289.236005 
L 141.553911 -289.791736 
L 141.938637 -290.34057 
L 142.323362 -290.882455 
L 142.708087 -291.417336 
L 143.092812 -291.945163 
L 143.477537 -292.465882 
L 143.862263 -292.979444 
L 144.246988 -293.485798 
L 144.631713 -293.984893 
L 145.016438 -294.476681 
L 145.401163 -294.961113 
L 145.785889 -295.438142 
L 146.170614 -295.90772 
L 146.555339 -296.3698 
L 146.940064 -296.824337 
L 147.324789 -297.271286 
L 147.709515 -297.710602 
L 148.09424 -298.142241 
L 148.478965 -298.566161 
L 148.478965 -51.123693 
L 148.478965 -51.123693 
L 148.09424 -51.123693 
L 147.709515 -51.123693 
L 147.324789 -51.123693 
L 146.940064 -51.123693 
L 146.555339 -51.123693 
L 146.170614 -51.123693 
L 145.785889 -51.123693 
L 145.401163 -51.123693 
L 145.016438 -51.123693 
L 144.631713 -51.123693 
L 144.246988 -51.123693 
L 143.862263 -51.123693 
L 143.477537 -51.123693 
L 143.092812 -51.123693 
L 142.708087 -51.123693 
L 142.323362 -51.123693 
L 141.938637 -51.123693 
L 141.553911 -51.123693 
L 141.169186 -51.123693 
L 140.784461 -51.123693 
L 140.399736 -51.123693 
L 140.01501 -51.123693 
L 139.630285 -51.123693 
L 139.24556 -51.123693 
L 138.860835 -51.123693 
L 138.47611 -51.123693 
L 138.091384 -51.123693 
L 137.706659 -51.123693 
L 137.321934 -51.123693 
L 136.937209 -51.123693 
L 136.552484 -51.123693 
L 136.167758 -51.123693 
L 135.783033 -51.123693 
L 135.398308 -51.123693 
L 135.013583 -51.123693 
L 134.628858 -51.123693 
L 134.244132 -51.123693 
L 133.859407 -51.123693 
L 133.474682 -51.123693 
L 133.089957 -51.123693 
L 132.705232 -51.123693 
L 132.320506 -51.123693 
L 131.935781 -51.123693 
L 131.551056 -51.123693 
L 131.166331 -51.123693 
L 130.781606 -51.123693 
L 130.39688 -51.123693 
L 130.012155 -51.123693 
L 129.62743 -51.123693 
L 129.242705 -51.123693 
L 128.85798 -51.123693 
L 128.473254 -51.123693 
L 128.088529 -51.123693 
L 127.703804 -51.123693 
L 127.319079 -51.123693 
L 126.934353 -51.123693 
L 126.549628 -51.123693 
L 126.164903 -51.123693 
L 125.780178 -51.123693 
L 125.395453 -51.123693 
L 125.010727 -51.123693 
L 124.626002 -51.123693 
L 124.241277 -51.123693 
L 123.856552 -51.123693 
L 123.471827 -51.123693 
L 123.087101 -51.123693 
L 122.702376 -51.123693 
L 122.317651 -51.123693 
L 121.932926 -51.123693 
L 121.548201 -51.123693 
L 121.163475 -51.123693 
L 120.77875 -51.123693 
L 120.394025 -51.123693 
L 120.0093 -51.123693 
L 119.624575 -51.123693 
L 119.239849 -51.123693 
L 118.855124 -51.123693 
L 118.470399 -51.123693 
L 118.085674 -51.123693 
L 117.700949 -51.123693 
L 117.316223 -51.123693 
L 116.931498 -51.123693 
L 116.546773 -51.123693 
L 116.162048 -51.123693 
L 115.777322 -51.123693 
L 115.392597 -51.123693 
L 115.007872 -51.123693 
L 114.623147 -51.123693 
L 114.238422 -51.123693 
L 113.853696 -51.123693 
L 113.468971 -51.123693 
L 113.084246 -51.123693 
L 112.699521 -51.123693 
L 112.314796 -51.123693 
L 111.93007 -51.123693 
L 111.545345 -51.123693 
L 111.16062 -51.123693 
L 110.775895 -51.123693 
L 110.39117 -51.123693 
L 110.006444 -51.123693 
L 109.621719 -51.123693 
L 109.236994 -51.123693 
L 108.852269 -51.123693 
L 108.467544 -51.123693 
L 108.082818 -51.123693 
L 107.698093 -51.123693 
L 107.313368 -51.123693 
L 106.928643 -51.123693 
L 106.543918 -51.123693 
L 106.159192 -51.123693 
L 105.774467 -51.123693 
L 105.389742 -51.123693 
L 105.005017 -51.123693 
L 104.620292 -51.123693 
L 104.235566 -51.123693 
L 103.850841 -51.123693 
L 103.466116 -51.123693 
L 103.081391 -51.123693 
L 102.696665 -51.123693 
L 102.31194 -51.123693 
L 101.927215 -51.123693 
L 101.54249 -51.123693 
L 101.157765 -51.123693 
L 100.773039 -51.123693 
L 100.388314 -51.123693 
L 100.003589 -51.123693 
L 99.618864 -51.123693 
L 99.234139 -51.123693 
L 98.849413 -51.123693 
L 98.464688 -51.123693 
L 98.079963 -51.123693 
L 97.695238 -51.123693 
L 97.310513 -51.123693 
L 96.925787 -51.123693 
L 96.541062 -51.123693 
L 96.156337 -51.123693 
L 95.771612 -51.123693 
L 95.386887 -51.123693 
L 95.002161 -51.123693 
L 94.617436 -51.123693 
L 94.232711 -51.123693 
L 93.847986 -51.123693 
L 93.463261 -51.123693 
L 93.078535 -51.123693 
L 92.69381 -51.123693 
L 92.309085 -51.123693 
L 91.92436 -51.123693 
L 91.539635 -51.123693 
L 91.154909 -51.123693 
L 90.770184 -51.123693 
L 90.385459 -51.123693 
L 90.000734 -51.123693 
L 89.616008 -51.123693 
L 89.231283 -51.123693 
L 88.846558 -51.123693 
L 88.461833 -51.123693 
L 88.077108 -51.123693 
L 87.692382 -51.123693 
L 87.307657 -51.123693 
L 86.922932 -51.123693 
L 86.538207 -51.123693 
L 86.153482 -51.123693 
L 85.768756 -51.123693 
L 85.384031 -51.123693 
L 84.999306 -51.123693 
L 84.614581 -51.123693 
L 84.229856 -51.123693 
L 83.84513 -51.123693 
L 83.460405 -51.123693 
L 83.07568 -51.123693 
L 82.690955 -51.123693 
L 82.30623 -51.123693 
L 81.921504 -51.123693 
L 81.536779 -51.123693 
L 81.152054 -51.123693 
L 80.767329 -51.123693 
L 80.382604 -51.123693 
L 79.997878 -51.123693 
L 79.613153 -51.123693 
L 79.228428 -51.123693 
L 78.843703 -51.123693 
L 78.458978 -51.123693 
L 78.074252 -51.123693 
L 77.689527 -51.123693 
L 77.304802 -51.123693 
L 76.920077 -51.123693 
L 76.535351 -51.123693 
L 76.150626 -51.123693 
L 75.765901 -51.123693 
L 75.381176 -51.123693 
L 74.996451 -51.123693 
L 74.611725 -51.123693 
L 74.227 -51.123693 
L 73.842275 -51.123693 
L 73.45755 -51.123693 
L 73.072825 -51.123693 
L 72.688099 -51.123693 
L 72.303374 -51.123693 
L 71.918649 -51.123693 
z
" style="stroke: #f5f0bb; stroke-opacity: 0.99"/>
    </defs>
    <g clip-path="url(#pd0aff0c3b4)">
     <use xlink:href="#me8e303dd9c" x="0" y="350.729687" style="fill: #f5f0bb; fill-opacity: 0.99; stroke: #f5f0bb; stroke-opacity: 0.99"/>
    </g>
   </g>
   <g id="PolyCollection_2">
    <defs>
     <path id="m89f84637a2" d="M 148.478965 -51.123693 
L 148.478965 -298.566161 
L 149.157892 -299.295294 
L 149.836819 -300.000028 
L 150.515746 -300.680144 
L 151.194672 -301.335429 
L 151.873599 -301.965678 
L 152.552526 -302.570693 
L 153.231453 -303.150284 
L 153.91038 -303.704269 
L 154.589307 -304.232473 
L 155.268233 -304.73473 
L 155.94716 -305.21088 
L 156.626087 -305.660773 
L 157.305014 -306.084267 
L 157.983941 -306.481227 
L 158.662868 -306.851527 
L 159.341794 -307.195049 
L 160.020721 -307.511685 
L 160.699648 -307.801332 
L 161.378575 -308.0639 
L 162.057502 -308.299304 
L 162.736429 -308.507469 
L 163.415355 -308.688328 
L 164.094282 -308.841825 
L 164.773209 -308.967909 
L 165.452136 -309.06654 
L 166.131063 -309.137688 
L 166.80999 -309.181329 
L 167.488916 -309.197448 
L 168.167843 -309.186042 
L 168.84677 -309.147114 
L 169.525697 -309.080676 
L 170.204624 -308.986749 
L 170.883551 -308.865363 
L 171.562477 -308.716558 
L 172.241404 -308.540381 
L 172.920331 -308.336888 
L 173.599258 -308.106143 
L 174.278185 -307.848222 
L 174.957112 -307.563205 
L 175.636038 -307.251185 
L 176.314965 -306.912259 
L 176.993892 -306.546537 
L 177.672819 -306.154134 
L 178.351746 -305.735175 
L 179.030673 -305.289793 
L 179.709599 -304.818129 
L 180.388526 -304.320332 
L 181.067453 -303.79656 
L 181.74638 -303.246978 
L 182.425307 -302.671759 
L 183.104234 -302.071085 
L 183.78316 -301.445144 
L 184.462087 -300.794132 
L 185.141014 -300.118253 
L 185.819941 -299.417719 
L 186.498868 -298.692749 
L 187.177795 -297.943567 
L 187.856721 -297.170407 
L 188.535648 -296.373509 
L 189.214575 -295.553119 
L 189.893502 -294.709491 
L 190.572429 -293.842884 
L 191.251356 -292.953565 
L 191.930282 -292.041806 
L 192.609209 -291.107885 
L 193.288136 -290.152089 
L 193.967063 -289.174707 
L 194.64599 -288.176035 
L 195.324917 -287.156376 
L 196.003843 -286.116037 
L 196.68277 -285.05533 
L 197.361697 -283.974573 
L 198.040624 -282.874089 
L 198.719551 -281.754205 
L 199.398478 -280.615254 
L 200.077404 -279.457571 
L 200.756331 -278.281497 
L 201.435258 -277.087379 
L 202.114185 -275.875563 
L 202.793112 -274.646404 
L 203.472039 -273.400257 
L 204.150965 -272.137482 
L 204.829892 -270.858443 
L 205.508819 -269.563505 
L 206.187746 -268.253038 
L 206.866673 -266.927413 
L 207.5456 -265.587005 
L 208.224526 -264.232191 
L 208.903453 -262.863349 
L 209.58238 -261.480862 
L 210.261307 -260.085112 
L 210.940234 -258.676483 
L 211.619161 -257.255363 
L 212.298087 -255.822138 
L 212.977014 -254.377198 
L 213.655941 -252.920932 
L 214.334868 -251.453731 
L 215.013795 -249.975987 
L 215.692722 -248.48809 
L 216.371648 -246.990434 
L 217.050575 -245.483411 
L 217.729502 -243.967413 
L 218.408429 -242.442832 
L 219.087356 -240.91006 
L 219.766283 -239.369488 
L 220.445209 -237.821506 
L 221.124136 -236.266506 
L 221.803063 -234.704874 
L 222.48199 -233.137 
L 223.160917 -231.563269 
L 223.839844 -229.984066 
L 224.51877 -228.399775 
L 225.197697 -226.810776 
L 225.876624 -225.21745 
L 226.555551 -223.620175 
L 227.234478 -222.019325 
L 227.913405 -220.415274 
L 228.592331 -218.808392 
L 229.271258 -217.199047 
L 229.950185 -215.587605 
L 230.629112 -213.974428 
L 231.308039 -212.359875 
L 231.986966 -210.744303 
L 232.665892 -209.128065 
L 233.344819 -207.511511 
L 234.023746 -205.894986 
L 234.702673 -204.278835 
L 235.3816 -202.663395 
L 236.060527 -201.049002 
L 236.739453 -199.435987 
L 237.41838 -197.824678 
L 238.097307 -196.215399 
L 238.776234 -194.608467 
L 239.455161 -193.004199 
L 240.134088 -191.402904 
L 240.813014 -189.804889 
L 241.491941 -188.210456 
L 242.170868 -186.619901 
L 242.849795 -185.033516 
L 243.528722 -183.451589 
L 244.207649 -181.874404 
L 244.886575 -180.302237 
L 245.565502 -178.735362 
L 246.244429 -177.174048 
L 246.923356 -175.618556 
L 247.602283 -174.069145 
L 248.28121 -172.526067 
L 248.960136 -170.989571 
L 249.639063 -169.459898 
L 250.31799 -167.937286 
L 250.996917 -166.421967 
L 251.675844 -164.914166 
L 252.354771 -163.414106 
L 253.033697 -161.922002 
L 253.712624 -160.438065 
L 254.391551 -158.9625 
L 255.070478 -157.495505 
L 255.749405 -156.037276 
L 256.428332 -154.588002 
L 257.107259 -153.147864 
L 257.786185 -151.717043 
L 258.465112 -150.295709 
L 259.144039 -148.88403 
L 259.822966 -147.482167 
L 260.501893 -146.090277 
L 261.18082 -144.70851 
L 261.859746 -143.337012 
L 262.538673 -141.975922 
L 263.2176 -140.625376 
L 263.896527 -139.285501 
L 264.575454 -137.956423 
L 265.254381 -136.638259 
L 265.933307 -135.331124 
L 266.612234 -134.035125 
L 267.291161 -132.750365 
L 267.970088 -131.476942 
L 268.649015 -130.214949 
L 269.327942 -128.964472 
L 270.006868 -127.725596 
L 270.685795 -126.498397 
L 271.364722 -125.282948 
L 272.043649 -124.079316 
L 272.722576 -122.887565 
L 273.401503 -121.707753 
L 274.080429 -120.539932 
L 274.759356 -119.384152 
L 275.438283 -118.240456 
L 276.11721 -117.108885 
L 276.796137 -115.989472 
L 277.475064 -114.882249 
L 278.15399 -113.787241 
L 278.832917 -112.70447 
L 279.511844 -111.633954 
L 280.190771 -110.575707 
L 280.869698 -109.529737 
L 281.548625 -108.496049 
L 282.227551 -107.474645 
L 282.906478 -106.465522 
L 283.585405 -105.468673 
L 283.585405 -51.123693 
L 283.585405 -51.123693 
L 282.906478 -51.123693 
L 282.227551 -51.123693 
L 281.548625 -51.123693 
L 280.869698 -51.123693 
L 280.190771 -51.123693 
L 279.511844 -51.123693 
L 278.832917 -51.123693 
L 278.15399 -51.123693 
L 277.475064 -51.123693 
L 276.796137 -51.123693 
L 276.11721 -51.123693 
L 275.438283 -51.123693 
L 274.759356 -51.123693 
L 274.080429 -51.123693 
L 273.401503 -51.123693 
L 272.722576 -51.123693 
L 272.043649 -51.123693 
L 271.364722 -51.123693 
L 270.685795 -51.123693 
L 270.006868 -51.123693 
L 269.327942 -51.123693 
L 268.649015 -51.123693 
L 267.970088 -51.123693 
L 267.291161 -51.123693 
L 266.612234 -51.123693 
L 265.933307 -51.123693 
L 265.254381 -51.123693 
L 264.575454 -51.123693 
L 263.896527 -51.123693 
L 263.2176 -51.123693 
L 262.538673 -51.123693 
L 261.859746 -51.123693 
L 261.18082 -51.123693 
L 260.501893 -51.123693 
L 259.822966 -51.123693 
L 259.144039 -51.123693 
L 258.465112 -51.123693 
L 257.786185 -51.123693 
L 257.107259 -51.123693 
L 256.428332 -51.123693 
L 255.749405 -51.123693 
L 255.070478 -51.123693 
L 254.391551 -51.123693 
L 253.712624 -51.123693 
L 253.033697 -51.123693 
L 252.354771 -51.123693 
L 251.675844 -51.123693 
L 250.996917 -51.123693 
L 250.31799 -51.123693 
L 249.639063 -51.123693 
L 248.960136 -51.123693 
L 248.28121 -51.123693 
L 247.602283 -51.123693 
L 246.923356 -51.123693 
L 246.244429 -51.123693 
L 245.565502 -51.123693 
L 244.886575 -51.123693 
L 244.207649 -51.123693 
L 243.528722 -51.123693 
L 242.849795 -51.123693 
L 242.170868 -51.123693 
L 241.491941 -51.123693 
L 240.813014 -51.123693 
L 240.134088 -51.123693 
L 239.455161 -51.123693 
L 238.776234 -51.123693 
L 238.097307 -51.123693 
L 237.41838 -51.123693 
L 236.739453 -51.123693 
L 236.060527 -51.123693 
L 235.3816 -51.123693 
L 234.702673 -51.123693 
L 234.023746 -51.123693 
L 233.344819 -51.123693 
L 232.665892 -51.123693 
L 231.986966 -51.123693 
L 231.308039 -51.123693 
L 230.629112 -51.123693 
L 229.950185 -51.123693 
L 229.271258 -51.123693 
L 228.592331 -51.123693 
L 227.913405 -51.123693 
L 227.234478 -51.123693 
L 226.555551 -51.123693 
L 225.876624 -51.123693 
L 225.197697 -51.123693 
L 224.51877 -51.123693 
L 223.839844 -51.123693 
L 223.160917 -51.123693 
L 222.48199 -51.123693 
L 221.803063 -51.123693 
L 221.124136 -51.123693 
L 220.445209 -51.123693 
L 219.766283 -51.123693 
L 219.087356 -51.123693 
L 218.408429 -51.123693 
L 217.729502 -51.123693 
L 217.050575 -51.123693 
L 216.371648 -51.123693 
L 215.692722 -51.123693 
L 215.013795 -51.123693 
L 214.334868 -51.123693 
L 213.655941 -51.123693 
L 212.977014 -51.123693 
L 212.298087 -51.123693 
L 211.619161 -51.123693 
L 210.940234 -51.123693 
L 210.261307 -51.123693 
L 209.58238 -51.123693 
L 208.903453 -51.123693 
L 208.224526 -51.123693 
L 207.5456 -51.123693 
L 206.866673 -51.123693 
L 206.187746 -51.123693 
L 205.508819 -51.123693 
L 204.829892 -51.123693 
L 204.150965 -51.123693 
L 203.472039 -51.123693 
L 202.793112 -51.123693 
L 202.114185 -51.123693 
L 201.435258 -51.123693 
L 200.756331 -51.123693 
L 200.077404 -51.123693 
L 199.398478 -51.123693 
L 198.719551 -51.123693 
L 198.040624 -51.123693 
L 197.361697 -51.123693 
L 196.68277 -51.123693 
L 196.003843 -51.123693 
L 195.324917 -51.123693 
L 194.64599 -51.123693 
L 193.967063 -51.123693 
L 193.288136 -51.123693 
L 192.609209 -51.123693 
L 191.930282 -51.123693 
L 191.251356 -51.123693 
L 190.572429 -51.123693 
L 189.893502 -51.123693 
L 189.214575 -51.123693 
L 188.535648 -51.123693 
L 187.856721 -51.123693 
L 187.177795 -51.123693 
L 186.498868 -51.123693 
L 185.819941 -51.123693 
L 185.141014 -51.123693 
L 184.462087 -51.123693 
L 183.78316 -51.123693 
L 183.104234 -51.123693 
L 182.425307 -51.123693 
L 181.74638 -51.123693 
L 181.067453 -51.123693 
L 180.388526 -51.123693 
L 179.709599 -51.123693 
L 179.030673 -51.123693 
L 178.351746 -51.123693 
L 177.672819 -51.123693 
L 176.993892 -51.123693 
L 176.314965 -51.123693 
L 175.636038 -51.123693 
L 174.957112 -51.123693 
L 174.278185 -51.123693 
L 173.599258 -51.123693 
L 172.920331 -51.123693 
L 172.241404 -51.123693 
L 171.562477 -51.123693 
L 170.883551 -51.123693 
L 170.204624 -51.123693 
L 169.525697 -51.123693 
L 168.84677 -51.123693 
L 168.167843 -51.123693 
L 167.488916 -51.123693 
L 166.80999 -51.123693 
L 166.131063 -51.123693 
L 165.452136 -51.123693 
L 164.773209 -51.123693 
L 164.094282 -51.123693 
L 163.415355 -51.123693 
L 162.736429 -51.123693 
L 162.057502 -51.123693 
L 161.378575 -51.123693 
L 160.699648 -51.123693 
L 160.020721 -51.123693 
L 159.341794 -51.123693 
L 158.662868 -51.123693 
L 157.983941 -51.123693 
L 157.305014 -51.123693 
L 156.626087 -51.123693 
L 155.94716 -51.123693 
L 155.268233 -51.123693 
L 154.589307 -51.123693 
L 153.91038 -51.123693 
L 153.231453 -51.123693 
L 152.552526 -51.123693 
L 151.873599 -51.123693 
L 151.194672 -51.123693 
L 150.515746 -51.123693 
L 149.836819 -51.123693 
L 149.157892 -51.123693 
L 148.478965 -51.123693 
z
" style="stroke: #c4dfaa; stroke-opacity: 0.99"/>
    </defs>
    <g clip-path="url(#pd0aff0c3b4)">
     <use xlink:href="#m89f84637a2" x="0" y="350.729687" style="fill: #c4dfaa; fill-opacity: 0.99; stroke: #c4dfaa; stroke-opacity: 0.99"/>
    </g>
   </g>
   <g id="PolyCollection_3">
    <defs>
     <path id="m75d01fef0f" d="M 283.585405 -51.123693 
L 283.585405 -105.468673 
L 284.71695 -103.834505 
L 285.848494 -102.234331 
L 286.980039 -100.668053 
L 288.111584 -99.135547 
L 289.243129 -97.636661 
L 290.374673 -96.171219 
L 291.506218 -94.739024 
L 292.637763 -93.339853 
L 293.769308 -91.973462 
L 294.900852 -90.639586 
L 296.032397 -89.337942 
L 297.163942 -88.068226 
L 298.295486 -86.830117 
L 299.427031 -85.623278 
L 300.558576 -84.447353 
L 301.690121 -83.301975 
L 302.821665 -82.18676 
L 303.95321 -81.101312 
L 305.084755 -80.045223 
L 306.2163 -79.018074 
L 307.347844 -78.019434 
L 308.479389 -77.048863 
L 309.610934 -76.105914 
L 310.742478 -75.190131 
L 311.874023 -74.301049 
L 313.005568 -73.4382 
L 314.137113 -72.60111 
L 315.268657 -71.789297 
L 316.400202 -71.002279 
L 317.531747 -70.239569 
L 318.663291 -69.500677 
L 319.794836 -68.785112 
L 320.926381 -68.092382 
L 322.057926 -67.421993 
L 323.18947 -66.773452 
L 324.321015 -66.146266 
L 325.45256 -65.539943 
L 326.584105 -64.953994 
L 327.715649 -64.38793 
L 328.847194 -63.841266 
L 329.978739 -63.313519 
L 331.110283 -62.804212 
L 332.241828 -62.312868 
L 333.373373 -61.839018 
L 334.504918 -61.382195 
L 335.636462 -60.941938 
L 336.768007 -60.517792 
L 337.899552 -60.109306 
L 339.031097 -59.716036 
L 340.162641 -59.337544 
L 341.294186 -58.973398 
L 342.425731 -58.623174 
L 343.557275 -58.286454 
L 344.68882 -57.962825 
L 345.820365 -57.651883 
L 346.95191 -57.353233 
L 348.083454 -57.066484 
L 349.214999 -56.791255 
L 350.346544 -56.527172 
L 351.478088 -56.273868 
L 352.609633 -56.030983 
L 353.741178 -55.798168 
L 354.872723 -55.57508 
L 356.004267 -55.361382 
L 357.135812 -55.156749 
L 358.267357 -54.96086 
L 359.398902 -54.773403 
L 360.530446 -54.594077 
L 361.661991 -54.422584 
L 362.793536 -54.258636 
L 363.92508 -54.101954 
L 365.056625 -53.952264 
L 366.18817 -53.809302 
L 367.319715 -53.67281 
L 368.451259 -53.542539 
L 369.582804 -53.418245 
L 370.714349 -53.299693 
L 371.845893 -53.186655 
L 372.977438 -53.07891 
L 374.108983 -52.976243 
L 375.240528 -52.878447 
L 376.372072 -52.785321 
L 377.503617 -52.696672 
L 378.635162 -52.61231 
L 379.766707 -52.532056 
L 380.898251 -52.455734 
L 382.029796 -52.383175 
L 383.161341 -52.314215 
L 384.292885 -52.248698 
L 385.42443 -52.186471 
L 386.555975 -52.127389 
L 387.68752 -52.071311 
L 388.819064 -52.0181 
L 389.950609 -51.967628 
L 391.082154 -51.919768 
L 392.213699 -51.874399 
L 393.345243 -51.831407 
L 394.476788 -51.790679 
L 395.608333 -51.752108 
L 396.739877 -51.715593 
L 397.871422 -51.681034 
L 399.002967 -51.648337 
L 400.134512 -51.617413 
L 401.266056 -51.588173 
L 402.397601 -51.560536 
L 403.529146 -51.534422 
L 404.66069 -51.509754 
L 405.792235 -51.48646 
L 406.92378 -51.464471 
L 408.055325 -51.44372 
L 409.186869 -51.424143 
L 410.318414 -51.40568 
L 411.449959 -51.388274 
L 412.581504 -51.371868 
L 413.713048 -51.356411 
L 414.844593 -51.341852 
L 415.976138 -51.328143 
L 417.107682 -51.315239 
L 418.239227 -51.303096 
L 419.370772 -51.291673 
L 420.502317 -51.280931 
L 421.633861 -51.270832 
L 422.765406 -51.261341 
L 423.896951 -51.252424 
L 425.028496 -51.244049 
L 426.16004 -51.236185 
L 427.291585 -51.228805 
L 428.42313 -51.221879 
L 429.554674 -51.215382 
L 430.686219 -51.20929 
L 431.817764 -51.203579 
L 432.949309 -51.198227 
L 434.080853 -51.193213 
L 435.212398 -51.188517 
L 436.343943 -51.184121 
L 437.475487 -51.180006 
L 438.607032 -51.176155 
L 439.738577 -51.172554 
L 440.870122 -51.169186 
L 442.001666 -51.166037 
L 443.133211 -51.163095 
L 444.264756 -51.160347 
L 445.396301 -51.15778 
L 446.527845 -51.155383 
L 447.65939 -51.153147 
L 448.790935 -51.15106 
L 449.922479 -51.149113 
L 451.054024 -51.147298 
L 452.185569 -51.145606 
L 453.317114 -51.144029 
L 454.448658 -51.14256 
L 455.580203 -51.141192 
L 456.711748 -51.139919 
L 457.843293 -51.138733 
L 458.974837 -51.13763 
L 460.106382 -51.136604 
L 461.237927 -51.135651 
L 462.369471 -51.134764 
L 463.501016 -51.13394 
L 464.632561 -51.133174 
L 465.764106 -51.132464 
L 466.89565 -51.131804 
L 468.027195 -51.131191 
L 469.15874 -51.130623 
L 470.290284 -51.130096 
L 471.421829 -51.129607 
L 472.553374 -51.129154 
L 473.684919 -51.128734 
L 474.816463 -51.128345 
L 475.948008 -51.127985 
L 477.079553 -51.127651 
L 478.211098 -51.127342 
L 479.342642 -51.127057 
L 480.474187 -51.126793 
L 481.605732 -51.126548 
L 482.737276 -51.126323 
L 483.868821 -51.126114 
L 485.000366 -51.125921 
L 486.131911 -51.125743 
L 487.263455 -51.125579 
L 488.395 -51.125427 
L 489.526545 -51.125287 
L 490.658089 -51.125158 
L 491.789634 -51.125039 
L 492.921179 -51.124929 
L 494.052724 -51.124828 
L 495.184268 -51.124735 
L 496.315813 -51.124649 
L 497.447358 -51.12457 
L 498.578903 -51.124498 
L 499.710447 -51.124431 
L 500.841992 -51.124369 
L 501.973537 -51.124313 
L 503.105081 -51.124261 
L 504.236626 -51.124213 
L 505.368171 -51.124169 
L 506.499716 -51.124128 
L 507.63126 -51.124091 
L 508.762805 -51.124057 
L 508.762805 -51.123693 
L 508.762805 -51.123693 
L 507.63126 -51.123693 
L 506.499716 -51.123693 
L 505.368171 -51.123693 
L 504.236626 -51.123693 
L 503.105081 -51.123693 
L 501.973537 -51.123693 
L 500.841992 -51.123693 
L 499.710447 -51.123693 
L 498.578903 -51.123693 
L 497.447358 -51.123693 
L 496.315813 -51.123693 
L 495.184268 -51.123693 
L 494.052724 -51.123693 
L 492.921179 -51.123693 
L 491.789634 -51.123693 
L 490.658089 -51.123693 
L 489.526545 -51.123693 
L 488.395 -51.123693 
L 487.263455 -51.123693 
L 486.131911 -51.123693 
L 485.000366 -51.123693 
L 483.868821 -51.123693 
L 482.737276 -51.123693 
L 481.605732 -51.123693 
L 480.474187 -51.123693 
L 479.342642 -51.123693 
L 478.211098 -51.123693 
L 477.079553 -51.123693 
L 475.948008 -51.123693 
L 474.816463 -51.123693 
L 473.684919 -51.123693 
L 472.553374 -51.123693 
L 471.421829 -51.123693 
L 470.290284 -51.123693 
L 469.15874 -51.123693 
L 468.027195 -51.123693 
L 466.89565 -51.123693 
L 465.764106 -51.123693 
L 464.632561 -51.123693 
L 463.501016 -51.123693 
L 462.369471 -51.123693 
L 461.237927 -51.123693 
L 460.106382 -51.123693 
L 458.974837 -51.123693 
L 457.843293 -51.123693 
L 456.711748 -51.123693 
L 455.580203 -51.123693 
L 454.448658 -51.123693 
L 453.317114 -51.123693 
L 452.185569 -51.123693 
L 451.054024 -51.123693 
L 449.922479 -51.123693 
L 448.790935 -51.123693 
L 447.65939 -51.123693 
L 446.527845 -51.123693 
L 445.396301 -51.123693 
L 444.264756 -51.123693 
L 443.133211 -51.123693 
L 442.001666 -51.123693 
L 440.870122 -51.123693 
L 439.738577 -51.123693 
L 438.607032 -51.123693 
L 437.475487 -51.123693 
L 436.343943 -51.123693 
L 435.212398 -51.123693 
L 434.080853 -51.123693 
L 432.949309 -51.123693 
L 431.817764 -51.123693 
L 430.686219 -51.123693 
L 429.554674 -51.123693 
L 428.42313 -51.123693 
L 427.291585 -51.123693 
L 426.16004 -51.123693 
L 425.028496 -51.123693 
L 423.896951 -51.123693 
L 422.765406 -51.123693 
L 421.633861 -51.123693 
L 420.502317 -51.123693 
L 419.370772 -51.123693 
L 418.239227 -51.123693 
L 417.107682 -51.123693 
L 415.976138 -51.123693 
L 414.844593 -51.123693 
L 413.713048 -51.123693 
L 412.581504 -51.123693 
L 411.449959 -51.123693 
L 410.318414 -51.123693 
L 409.186869 -51.123693 
L 408.055325 -51.123693 
L 406.92378 -51.123693 
L 405.792235 -51.123693 
L 404.66069 -51.123693 
L 403.529146 -51.123693 
L 402.397601 -51.123693 
L 401.266056 -51.123693 
L 400.134512 -51.123693 
L 399.002967 -51.123693 
L 397.871422 -51.123693 
L 396.739877 -51.123693 
L 395.608333 -51.123693 
L 394.476788 -51.123693 
L 393.345243 -51.123693 
L 392.213699 -51.123693 
L 391.082154 -51.123693 
L 389.950609 -51.123693 
L 388.819064 -51.123693 
L 387.68752 -51.123693 
L 386.555975 -51.123693 
L 385.42443 -51.123693 
L 384.292885 -51.123693 
L 383.161341 -51.123693 
L 382.029796 -51.123693 
L 380.898251 -51.123693 
L 379.766707 -51.123693 
L 378.635162 -51.123693 
L 377.503617 -51.123693 
L 376.372072 -51.123693 
L 375.240528 -51.123693 
L 374.108983 -51.123693 
L 372.977438 -51.123693 
L 371.845893 -51.123693 
L 370.714349 -51.123693 
L 369.582804 -51.123693 
L 368.451259 -51.123693 
L 367.319715 -51.123693 
L 366.18817 -51.123693 
L 365.056625 -51.123693 
L 363.92508 -51.123693 
L 362.793536 -51.123693 
L 361.661991 -51.123693 
L 360.530446 -51.123693 
L 359.398902 -51.123693 
L 358.267357 -51.123693 
L 357.135812 -51.123693 
L 356.004267 -51.123693 
L 354.872723 -51.123693 
L 353.741178 -51.123693 
L 352.609633 -51.123693 
L 351.478088 -51.123693 
L 350.346544 -51.123693 
L 349.214999 -51.123693 
L 348.083454 -51.123693 
L 346.95191 -51.123693 
L 345.820365 -51.123693 
L 344.68882 -51.123693 
L 343.557275 -51.123693 
L 342.425731 -51.123693 
L 341.294186 -51.123693 
L 340.162641 -51.123693 
L 339.031097 -51.123693 
L 337.899552 -51.123693 
L 336.768007 -51.123693 
L 335.636462 -51.123693 
L 334.504918 -51.123693 
L 333.373373 -51.123693 
L 332.241828 -51.123693 
L 331.110283 -51.123693 
L 329.978739 -51.123693 
L 328.847194 -51.123693 
L 327.715649 -51.123693 
L 326.584105 -51.123693 
L 325.45256 -51.123693 
L 324.321015 -51.123693 
L 323.18947 -51.123693 
L 322.057926 -51.123693 
L 320.926381 -51.123693 
L 319.794836 -51.123693 
L 318.663291 -51.123693 
L 317.531747 -51.123693 
L 316.400202 -51.123693 
L 315.268657 -51.123693 
L 314.137113 -51.123693 
L 313.005568 -51.123693 
L 311.874023 -51.123693 
L 310.742478 -51.123693 
L 309.610934 -51.123693 
L 308.479389 -51.123693 
L 307.347844 -51.123693 
L 306.2163 -51.123693 
L 305.084755 -51.123693 
L 303.95321 -51.123693 
L 302.821665 -51.123693 
L 301.690121 -51.123693 
L 300.558576 -51.123693 
L 299.427031 -51.123693 
L 298.295486 -51.123693 
L 297.163942 -51.123693 
L 296.032397 -51.123693 
L 294.900852 -51.123693 
L 293.769308 -51.123693 
L 292.637763 -51.123693 
L 291.506218 -51.123693 
L 290.374673 -51.123693 
L 289.243129 -51.123693 
L 288.111584 -51.123693 
L 286.980039 -51.123693 
L 285.848494 -51.123693 
L 284.71695 -51.123693 
L 283.585405 -51.123693 
z
" style="stroke: #90c8ac; stroke-opacity: 0.99"/>
    </defs>
    <g clip-path="url(#pd0aff0c3b4)">
     <use xlink:href="#m75d01fef0f" x="0" y="350.729687" style="fill: #90c8ac; fill-opacity: 0.99; stroke: #90c8ac; stroke-opacity: 0.99"/>
    </g>
   </g>
   <g id="patch_3">
    <path d="M 148.478965 80.742358 
L 134.968321 85.119631 
L 134.968321 81.836676 
L 71.918649 81.836676 
L 71.918649 79.64804 
L 134.968321 79.64804 
L 134.968321 76.365085 
z
" clip-path="url(#pd0aff0c3b4)" style="stroke: #000000; stroke-linejoin: miter"/>
   </g>
   <g id="patch_4">
    <path d="M 71.918649 80.742358 
L 85.429293 76.365085 
L 85.429293 79.64804 
L 148.478965 79.64804 
L 148.478965 81.836676 
L 85.429293 81.836676 
L 85.429293 85.119631 
z
" clip-path="url(#pd0aff0c3b4)" style="stroke: #000000; stroke-linejoin: miter"/>
   </g>
   <g id="patch_5">
    <path d="M 283.585405 80.742358 
L 270.074761 85.119631 
L 270.074761 81.836676 
L 148.478965 81.836676 
L 148.478965 79.64804 
L 270.074761 79.64804 
L 270.074761 76.365085 
z
" clip-path="url(#pd0aff0c3b4)" style="stroke: #000000; stroke-linejoin: miter"/>
   </g>
   <g id="patch_6">
    <path d="M 148.478965 80.742358 
L 161.989609 76.365085 
L 161.989609 79.64804 
L 283.585405 79.64804 
L 283.585405 81.836676 
L 161.989609 81.836676 
L 161.989609 85.119631 
z
" clip-path="url(#pd0aff0c3b4)" style="stroke: #000000; stroke-linejoin: miter"/>
   </g>
   <g id="patch_7">
    <path d="M 508.762805 80.742358 
L 495.252161 85.119631 
L 495.252161 81.836676 
L 283.585405 81.836676 
L 283.585405 79.64804 
L 495.252161 79.64804 
L 495.252161 76.365085 
z
" clip-path="url(#pd0aff0c3b4)" style="stroke: #000000; stroke-linejoin: miter"/>
   </g>
   <g id="patch_8">
    <path d="M 283.585405 80.742358 
L 297.096049 76.365085 
L 297.096049 79.64804 
L 508.762805 79.64804 
L 508.762805 81.836676 
L 297.096049 81.836676 
L 297.096049 85.119631 
z
" clip-path="url(#pd0aff0c3b4)" style="stroke: #000000; stroke-linejoin: miter"/>
   </g>
   <g id="line2d_1">
    <path d="M 71.918649 210.020779 
L 76.309043 201.10045 
L 80.699436 191.773936 
L 87.285026 177.131226 
L 93.870617 161.889218 
L 115.822584 110.236758 
L 120.212978 100.46412 
L 124.603371 91.119158 
L 128.993765 82.307073 
L 133.384158 74.130481 
L 137.774552 66.687443 
L 139.969749 63.269924 
L 142.164945 60.069516 
L 144.360142 57.096341 
L 146.555339 54.359888 
L 148.750536 51.86896 
L 150.945733 49.631633 
L 153.140929 47.655206 
L 155.336126 45.946165 
L 157.531323 44.510146 
L 159.72652 43.351904 
L 161.921716 42.475288 
L 164.116913 41.883218 
L 166.31211 41.577672 
L 168.507307 41.55967 
L 170.702503 41.829272 
L 172.8977 42.385577 
L 175.092897 43.226729 
L 177.288094 44.349923 
L 179.48329 45.751426 
L 181.678487 47.426595 
L 183.873684 49.369901 
L 186.068881 51.574965 
L 188.264078 54.034586 
L 190.459274 56.740784 
L 192.654471 59.684844 
L 194.849668 62.85736 
L 197.044865 66.248286 
L 201.435258 73.642309 
L 205.825652 81.775824 
L 210.216045 90.551121 
L 214.606439 99.865811 
L 218.996832 109.614799 
L 225.582422 124.821289 
L 249.729587 181.473217 
L 256.315177 195.90077 
L 260.705571 205.05501 
L 265.095964 213.784839 
L 269.486358 222.055327 
L 273.876751 229.840671 
L 278.267145 237.123759 
L 282.657538 243.895579 
L 287.047932 250.154535 
L 291.438325 255.905665 
L 295.828719 261.159815 
L 300.219112 265.932781 
L 304.609506 270.244456 
L 308.9999 274.117984 
L 313.390293 277.578964 
L 317.780687 280.654701 
L 322.17108 283.373524 
L 326.561474 285.764171 
L 330.951867 287.855265 
L 335.342261 289.674851 
L 339.732654 291.25003 
L 344.123048 292.60666 
L 348.513441 293.769127 
L 352.903835 294.760191 
L 359.489425 295.970925 
L 366.075015 296.906385 
L 372.660606 297.62113 
L 381.441393 298.309241 
L 390.22218 298.77378 
L 401.198164 299.139806 
L 416.564541 299.408353 
L 440.711705 299.560044 
L 497.786821 299.60514 
L 508.762805 299.60563 
L 508.762805 299.60563 
" clip-path="url(#pd0aff0c3b4)" style="fill: none; stroke: #000000; stroke-linecap: round"/>
   </g>
   <g id="LineCollection_1">
    <path d="M 71.918649 299.605994 
L 71.918649 36.969631 
" clip-path="url(#pd0aff0c3b4)" style="fill: none; stroke-dasharray: 7.4,3.2; stroke-dashoffset: 0; stroke: #ff0000; stroke-width: 2"/>
    <path d="M 148.478965 299.605994 
L 148.478965 36.969631 
" clip-path="url(#pd0aff0c3b4)" style="fill: none; stroke-dasharray: 7.4,3.2; stroke-dashoffset: 0; stroke: #ff0000; stroke-width: 2"/>
    <path d="M 283.585405 299.605994 
L 283.585405 36.969631 
" clip-path="url(#pd0aff0c3b4)" style="fill: none; stroke-dasharray: 7.4,3.2; stroke-dashoffset: 0; stroke: #ff0000; stroke-width: 2"/>
    <path d="M 508.762805 299.605994 
L 508.762805 36.969631 
" clip-path="url(#pd0aff0c3b4)" style="fill: none; stroke-dasharray: 7.4,3.2; stroke-dashoffset: 0; stroke: #ff0000; stroke-width: 2"/>
   </g>
   <g id="patch_9">
    <path d="M 69.666875 312.737812 
L 69.666875 23.837812 
" style="fill: none; stroke: #262626; stroke-width: 0.8; stroke-linejoin: miter; stroke-linecap: square"/>
   </g>
   <g id="patch_10">
    <path d="M 511.014579 312.737812 
L 511.014579 23.837812 
" style="fill: none; stroke: #262626; stroke-width: 0.8; stroke-linejoin: miter; stroke-linecap: square"/>
   </g>
   <g id="patch_11">
    <path d="M 69.666875 312.737812 
L 511.014579 312.737812 
" style="fill: none; stroke: #262626; stroke-width: 0.8; stroke-linejoin: miter; stroke-linecap: square"/>
   </g>
   <g id="patch_12">
    <path d="M 69.666875 23.837812 
L 511.014579 23.837812 
" style="fill: none; stroke: #262626; stroke-width: 0.8; stroke-linejoin: miter; stroke-linecap: square"/>
   </g>
   <g id="text_20">
    <!-- 33.8% -->
    <g style="fill: #262626" transform="translate(82.533283 290.851449)scale(0.16 -0.16)">
     <defs>
      <path id="DejaVuSans-25" d="M 4653 2053 
Q 4381 2053 4226 1822 
Q 4072 1591 4072 1178 
Q 4072 772 4226 539 
Q 4381 306 4653 306 
Q 4919 306 5073 539 
Q 5228 772 5228 1178 
Q 5228 1588 5073 1820 
Q 4919 2053 4653 2053 
z
M 4653 2450 
Q 5147 2450 5437 2106 
Q 5728 1763 5728 1178 
Q 5728 594 5436 251 
Q 5144 -91 4653 -91 
Q 4153 -91 3862 251 
Q 3572 594 3572 1178 
Q 3572 1766 3864 2108 
Q 4156 2450 4653 2450 
z
M 1428 4353 
Q 1159 4353 1004 4120 
Q 850 3888 850 3481 
Q 850 3069 1003 2837 
Q 1156 2606 1428 2606 
Q 1700 2606 1854 2837 
Q 2009 3069 2009 3481 
Q 2009 3884 1853 4118 
Q 1697 4353 1428 4353 
z
M 4250 4750 
L 4750 4750 
L 1831 -91 
L 1331 -91 
L 4250 4750 
z
M 1428 4750 
Q 1922 4750 2215 4408 
Q 2509 4066 2509 3481 
Q 2509 2891 2217 2550 
Q 1925 2209 1428 2209 
Q 931 2209 642 2551 
Q 353 2894 353 3481 
Q 353 4063 643 4406 
Q 934 4750 1428 4750 
z
" transform="scale(0.015625)"/>
     </defs>
     <use xlink:href="#DejaVuSans-33"/>
     <use xlink:href="#DejaVuSans-33" x="63.623047"/>
     <use xlink:href="#DejaVuSans-2e" x="127.246094"/>
     <use xlink:href="#DejaVuSans-38" x="159.033203"/>
     <use xlink:href="#DejaVuSans-25" x="222.65625"/>
    </g>
   </g>
   <g id="text_21">
    <!-- 62.1% -->
    <g style="fill: #262626" transform="translate(195.121983 290.851449)scale(0.16 -0.16)">
     <use xlink:href="#DejaVuSans-36"/>
     <use xlink:href="#DejaVuSans-32" x="63.623047"/>
     <use xlink:href="#DejaVuSans-2e" x="127.246094"/>
     <use xlink:href="#DejaVuSans-31" x="159.033203"/>
     <use xlink:href="#DejaVuSans-25" x="222.65625"/>
    </g>
   </g>
   <g id="text_22">
    <!-- 4.2% -->
    <g style="fill: #262626" transform="translate(285.779395 290.851449)scale(0.16 -0.16)">
     <use xlink:href="#DejaVuSans-34"/>
     <use xlink:href="#DejaVuSans-2e" x="63.623047"/>
     <use xlink:href="#DejaVuSans-32" x="95.410156"/>
     <use xlink:href="#DejaVuSans-25" x="159.033203"/>
    </g>
   </g>
   <g id="text_23">
    <!-- 300-2000 -->
    <g style="fill: #262626" transform="translate(83.718885 50.915673)scale(0.11 -0.11)">
     <defs>
      <path id="DejaVuSans-2d" d="M 313 2009 
L 1997 2009 
L 1997 1497 
L 313 1497 
L 313 2009 
z
" transform="scale(0.015625)"/>
     </defs>
     <use xlink:href="#DejaVuSans-33"/>
     <use xlink:href="#DejaVuSans-30" x="63.623047"/>
     <use xlink:href="#DejaVuSans-30" x="127.246094"/>
     <use xlink:href="#DejaVuSans-2d" x="190.869141"/>
     <use xlink:href="#DejaVuSans-32" x="226.953125"/>
     <use xlink:href="#DejaVuSans-30" x="290.576172"/>
     <use xlink:href="#DejaVuSans-30" x="354.199219"/>
     <use xlink:href="#DejaVuSans-30" x="417.822266"/>
    </g>
    <!-- animal units -->
    <g style="fill: #262626" transform="translate(76.290448 63.233267)scale(0.11 -0.11)">
     <defs>
      <path id="DejaVuSans-75" d="M 544 1381 
L 544 3500 
L 1119 3500 
L 1119 1403 
Q 1119 906 1312 657 
Q 1506 409 1894 409 
Q 2359 409 2629 706 
Q 2900 1003 2900 1516 
L 2900 3500 
L 3475 3500 
L 3475 0 
L 2900 0 
L 2900 538 
Q 2691 219 2414 64 
Q 2138 -91 1772 -91 
Q 1169 -91 856 284 
Q 544 659 544 1381 
z
M 1991 3584 
L 1991 3584 
z
" transform="scale(0.015625)"/>
     </defs>
     <use xlink:href="#DejaVuSans-61"/>
     <use xlink:href="#DejaVuSans-6e" x="61.279297"/>
     <use xlink:href="#DejaVuSans-69" x="124.658203"/>
     <use xlink:href="#DejaVuSans-6d" x="152.441406"/>
     <use xlink:href="#DejaVuSans-61" x="249.853516"/>
     <use xlink:href="#DejaVuSans-6c" x="311.132812"/>
     <use xlink:href="#DejaVuSans-20" x="338.916016"/>
     <use xlink:href="#DejaVuSans-75" x="370.703125"/>
     <use xlink:href="#DejaVuSans-6e" x="434.082031"/>
     <use xlink:href="#DejaVuSans-69" x="497.460938"/>
     <use xlink:href="#DejaVuSans-74" x="525.244141"/>
     <use xlink:href="#DejaVuSans-73" x="564.453125"/>
    </g>
   </g>
   <g id="text_24">
    <!-- 2000-5000 -->
    <g style="fill: #262626" transform="translate(186.052888 50.915673)scale(0.11 -0.11)">
     <use xlink:href="#DejaVuSans-32"/>
     <use xlink:href="#DejaVuSans-30" x="63.623047"/>
     <use xlink:href="#DejaVuSans-30" x="127.246094"/>
     <use xlink:href="#DejaVuSans-30" x="190.869141"/>
     <use xlink:href="#DejaVuSans-2d" x="254.492188"/>
     <use xlink:href="#DejaVuSans-35" x="290.576172"/>
     <use xlink:href="#DejaVuSans-30" x="354.199219"/>
     <use xlink:href="#DejaVuSans-30" x="417.822266"/>
     <use xlink:href="#DejaVuSans-30" x="481.445312"/>
    </g>
    <!-- animal units -->
    <g style="fill: #262626" transform="translate(182.123826 63.233267)scale(0.11 -0.11)">
     <use xlink:href="#DejaVuSans-61"/>
     <use xlink:href="#DejaVuSans-6e" x="61.279297"/>
     <use xlink:href="#DejaVuSans-69" x="124.658203"/>
     <use xlink:href="#DejaVuSans-6d" x="152.441406"/>
     <use xlink:href="#DejaVuSans-61" x="249.853516"/>
     <use xlink:href="#DejaVuSans-6c" x="311.132812"/>
     <use xlink:href="#DejaVuSans-20" x="338.916016"/>
     <use xlink:href="#DejaVuSans-75" x="370.703125"/>
     <use xlink:href="#DejaVuSans-6e" x="434.082031"/>
     <use xlink:href="#DejaVuSans-69" x="497.460938"/>
     <use xlink:href="#DejaVuSans-74" x="525.244141"/>
     <use xlink:href="#DejaVuSans-73" x="564.453125"/>
    </g>
   </g>
   <g id="text_25">
    <!-- 5000-10000 -->
    <g style="fill: #262626" transform="translate(362.695433 50.915673)scale(0.11 -0.11)">
     <use xlink:href="#DejaVuSans-35"/>
     <use xlink:href="#DejaVuSans-30" x="63.623047"/>
     <use xlink:href="#DejaVuSans-30" x="127.246094"/>
     <use xlink:href="#DejaVuSans-30" x="190.869141"/>
     <use xlink:href="#DejaVuSans-2d" x="254.492188"/>
     <use xlink:href="#DejaVuSans-31" x="290.576172"/>
     <use xlink:href="#DejaVuSans-30" x="354.199219"/>
     <use xlink:href="#DejaVuSans-30" x="417.822266"/>
     <use xlink:href="#DejaVuSans-30" x="481.445312"/>
     <use xlink:href="#DejaVuSans-30" x="545.068359"/>
    </g>
    <!-- animal units -->
    <g style="fill: #262626" transform="translate(362.265746 63.233267)scale(0.11 -0.11)">
     <use xlink:href="#DejaVuSans-61"/>
     <use xlink:href="#DejaVuSans-6e" x="61.279297"/>
     <use xlink:href="#DejaVuSans-69" x="124.658203"/>
     <use xlink:href="#DejaVuSans-6d" x="152.441406"/>
     <use xlink:href="#DejaVuSans-61" x="249.853516"/>
     <use xlink:href="#DejaVuSans-6c" x="311.132812"/>
     <use xlink:href="#DejaVuSans-20" x="338.916016"/>
     <use xlink:href="#DejaVuSans-75" x="370.703125"/>
     <use xlink:href="#DejaVuSans-6e" x="434.082031"/>
     <use xlink:href="#DejaVuSans-69" x="497.460938"/>
     <use xlink:href="#DejaVuSans-74" x="525.244141"/>
     <use xlink:href="#DejaVuSans-73" x="564.453125"/>
    </g>
   </g>
   <g id="text_26">
    <!-- Scenario 1 -->
    <g style="fill: #262626" transform="translate(253.230883 17.837812)scale(0.14 -0.14)">
     <defs>
      <path id="DejaVuSans-53" d="M 3425 4513 
L 3425 3897 
Q 3066 4069 2747 4153 
Q 2428 4238 2131 4238 
Q 1616 4238 1336 4038 
Q 1056 3838 1056 3469 
Q 1056 3159 1242 3001 
Q 1428 2844 1947 2747 
L 2328 2669 
Q 3034 2534 3370 2195 
Q 3706 1856 3706 1288 
Q 3706 609 3251 259 
Q 2797 -91 1919 -91 
Q 1588 -91 1214 -16 
Q 841 59 441 206 
L 441 856 
Q 825 641 1194 531 
Q 1563 422 1919 422 
Q 2459 422 2753 634 
Q 3047 847 3047 1241 
Q 3047 1584 2836 1778 
Q 2625 1972 2144 2069 
L 1759 2144 
Q 1053 2284 737 2584 
Q 422 2884 422 3419 
Q 422 4038 858 4394 
Q 1294 4750 2059 4750 
Q 2388 4750 2728 4690 
Q 3069 4631 3425 4513 
z
" transform="scale(0.015625)"/>
      <path id="DejaVuSans-63" d="M 3122 3366 
L 3122 2828 
Q 2878 2963 2633 3030 
Q 2388 3097 2138 3097 
Q 1578 3097 1268 2742 
Q 959 2388 959 1747 
Q 959 1106 1268 751 
Q 1578 397 2138 397 
Q 2388 397 2633 464 
Q 2878 531 3122 666 
L 3122 134 
Q 2881 22 2623 -34 
Q 2366 -91 2075 -91 
Q 1284 -91 818 406 
Q 353 903 353 1747 
Q 353 2603 823 3093 
Q 1294 3584 2113 3584 
Q 2378 3584 2631 3529 
Q 2884 3475 3122 3366 
z
" transform="scale(0.015625)"/>
      <path id="DejaVuSans-72" d="M 2631 2963 
Q 2534 3019 2420 3045 
Q 2306 3072 2169 3072 
Q 1681 3072 1420 2755 
Q 1159 2438 1159 1844 
L 1159 0 
L 581 0 
L 581 3500 
L 1159 3500 
L 1159 2956 
Q 1341 3275 1631 3429 
Q 1922 3584 2338 3584 
Q 2397 3584 2469 3576 
Q 2541 3569 2628 3553 
L 2631 2963 
z
" transform="scale(0.015625)"/>
      <path id="DejaVuSans-6f" d="M 1959 3097 
Q 1497 3097 1228 2736 
Q 959 2375 959 1747 
Q 959 1119 1226 758 
Q 1494 397 1959 397 
Q 2419 397 2687 759 
Q 2956 1122 2956 1747 
Q 2956 2369 2687 2733 
Q 2419 3097 1959 3097 
z
M 1959 3584 
Q 2709 3584 3137 3096 
Q 3566 2609 3566 1747 
Q 3566 888 3137 398 
Q 2709 -91 1959 -91 
Q 1206 -91 779 398 
Q 353 888 353 1747 
Q 353 2609 779 3096 
Q 1206 3584 1959 3584 
z
" transform="scale(0.015625)"/>
     </defs>
     <use xlink:href="#DejaVuSans-53"/>
     <use xlink:href="#DejaVuSans-63" x="63.476562"/>
     <use xlink:href="#DejaVuSans-65" x="118.457031"/>
     <use xlink:href="#DejaVuSans-6e" x="179.980469"/>
     <use xlink:href="#DejaVuSans-61" x="243.359375"/>
     <use xlink:href="#DejaVuSans-72" x="304.638672"/>
     <use xlink:href="#DejaVuSans-69" x="345.751953"/>
     <use xlink:href="#DejaVuSans-6f" x="373.535156"/>
     <use xlink:href="#DejaVuSans-20" x="434.716797"/>
     <use xlink:href="#DejaVuSans-31" x="466.503906"/>
    </g>
   </g>
  </g>
 </g>
 <defs>
  <clipPath id="pd0aff0c3b4">
   <rect x="69.666875" y="23.837812" width="441.347704" height="288.9"/>
  </clipPath>
 </defs>
</svg>
